M48
INCH
T59C0.028
T58C0.048
T57C0.038
T56C0.032
T55C0.035
T54C0.052
T53C0.046
T52C0.146
T51C0.040
%
T59
X009500Y037118
X009500Y036118
X009500Y035118
X009500Y034118
X009500Y026368
X009500Y025368
X009500Y024368
X009500Y023368
X012500Y037118
X012500Y036118
X012500Y035118
X012500Y034118
X012500Y026368
X012500Y025368
X012500Y024368
X012500Y023368
T56
X052500Y024618
X052500Y022618
X052500Y020618
X052500Y018618
X056500Y024618
X056500Y022618
X056500Y020618
X056500Y018618
T55
X036500Y019012
X036500Y018225
X036750Y048618
X036750Y030868
X038750Y048618
X038750Y030868
X040750Y048618
X040750Y030868
X042750Y048618
X042750Y030868
X044750Y048618
X044750Y030868
X045000Y019012
X045000Y018225
X047250Y048618
X047250Y030868
X049250Y048618
X049250Y030868
X051250Y048618
X051250Y030868
X053250Y048618
X053250Y030868
X055250Y048618
X055250Y030868
T57
X003750Y050368
X003750Y049368
X003750Y048368
X003750Y047368
X003750Y046368
X003750Y045368
X003750Y044368
X003750Y043368
X003750Y042368
X003750Y041368
X003750Y040368
X003750Y039368
X003750Y038368
X003750Y037368
X003750Y036368
X003750Y035368
X003750Y034368
X003750Y033368
X003750Y032368
X003750Y031368
X003750Y030368
X003750Y029368
X003750Y028368
X003750Y027368
X003750Y026368
X003750Y025368
X003750Y024368
X003750Y023368
X003750Y022368
X003750Y021368
X003750Y020368
T51
X007000Y034868
X007000Y030868
X007000Y027368
X007000Y023368
X008000Y040618
X008000Y036618
X008500Y042118
X008500Y033868
X008500Y029868
X009500Y031368
X009500Y027368
X012500Y042118
X012500Y033118
X012500Y029118
X026250Y038852
X026250Y036884
X026250Y034102
X026250Y032134
X026500Y024368
X026500Y020368
X027000Y048868
X027000Y044868
T53
X010000Y053118
X010000Y017618
X017500Y053118
X017500Y017618
X029524Y047368
X029524Y040618
X029524Y030368
X029524Y023618
X032476Y047368
X032476Y040618
X032476Y030368
X032476Y023618
X041250Y024344
X041250Y021392
X048750Y024344
X048750Y021392
T58
X025500Y044618
X025500Y043618
X025500Y042618
X025500Y028368
X025500Y027368
X025500Y026368
T54
X007782Y021602
X007782Y019634
X011718Y020618
X059350Y049213
X059350Y047244
X059350Y045276
X059350Y043307
X059350Y041339
X059350Y039370
X059350Y037402
X059350Y035433
X059350Y033465
X059350Y031496
X059350Y029528
X059350Y027559
X059350Y025591
X059350Y023622
X059350Y021654
X060335Y050197
X060335Y048228
X060335Y046260
X060335Y044291
X060335Y042323
X060335Y040354
X060335Y038386
X060335Y036417
X060335Y034449
X060335Y032480
X060335Y030512
X060335Y028543
X060335Y026575
X060335Y024606
X060335Y022638
X060335Y020669
T52
X016250Y043618
X016250Y027368
X031500Y018618
M30
