G04 start of page 9 for group -3984 idx -3984 *
G04 Title: 31.004.00.01.01.pcb, fab *
G04 Creator: pcb 4.2.2 *
G04 CreationDate: Sun Jan  3 11:16:11 2021 UTC *
G04 For: bert *
G04 Format: Gerber/RS-274X *
G04 PCB-Dimensions (mil): 6692.91 3937.01 *
G04 PCB-Coordinate-Origin: lower left *
%MOIN*%
%FSLAX25Y25*%
%LNFAB*%
%ADD73C,0.0100*%
%ADD72C,0.0060*%
%ADD71C,0.0080*%
G54D71*X334646Y29528D02*Y27928D01*
Y29528D02*X336032Y30328D01*
X334646Y29528D02*X333259Y30328D01*
X334646Y364173D02*Y362573D01*
Y364173D02*X336032Y364973D01*
X334646Y364173D02*X333259Y364973D01*
X631890Y29528D02*Y27928D01*
Y29528D02*X633276Y30328D01*
X631890Y29528D02*X630503Y30328D01*
X631890Y364173D02*Y362573D01*
Y364173D02*X633276Y364973D01*
X631890Y364173D02*X630503Y364973D01*
X37402Y29528D02*Y27928D01*
Y29528D02*X38788Y30328D01*
X37402Y29528D02*X36015Y30328D01*
X37402Y364173D02*Y362573D01*
Y364173D02*X38788Y364973D01*
X37402Y364173D02*X36015Y364973D01*
X15000Y449951D02*Y448351D01*
Y449951D02*X16387Y450751D01*
X15000Y449951D02*X13613Y450751D01*
G54D72*X135000Y452501D02*X137400Y449501D01*
Y446201D01*
X139800Y452501D02*X137400Y449501D01*
X141600Y452501D02*Y446201D01*
Y452501D02*X145500D01*
X141600Y449501D02*X144000D01*
X141600Y446201D02*X145500D01*
X151500Y451601D02*X150900Y452201D01*
X150000Y452501D01*
X148800D02*X150000D01*
X148800D02*X147900Y452201D01*
X147300Y451601D01*
Y451001D01*
X147600Y450401D01*
X147900Y450101D01*
X148500Y449801D01*
X150300Y449201D01*
X150900Y448901D01*
X151200Y448601D01*
X151500Y448001D01*
Y447101D01*
X150900Y446501D01*
X150000Y446201D01*
X148800D02*X150000D01*
X148800D02*X147900Y446501D01*
X147300Y447101D01*
X101600Y451601D02*X101300Y452201D01*
X100400Y452501D01*
X99800D02*X100400D01*
X99800D02*X98900Y452201D01*
X98300Y451301D01*
X98000Y449801D01*
Y448301D01*
X98300Y447101D01*
X98900Y446501D01*
X99800Y446201D01*
X100100D01*
X101000Y446501D01*
X101600Y447101D01*
X101900Y448001D01*
Y448301D02*Y448001D01*
Y448301D02*X101600Y449201D01*
X101000Y449801D01*
X100100Y450101D01*
X99800D02*X100100D01*
X99800D02*X98900Y449801D01*
X98300Y449201D01*
X98000Y448301D01*
X46800Y452501D02*X45900Y452201D01*
X45300Y451301D01*
X45000Y449801D01*
Y448901D01*
X45300Y447401D01*
X45900Y446501D01*
X46800Y446201D01*
X47400D01*
X48300Y446501D01*
X48900Y447401D01*
X49200Y448901D01*
Y449801D02*Y448901D01*
Y449801D02*X48900Y451301D01*
X48300Y452201D01*
X47400Y452501D01*
X46800D02*X47400D01*
X51300Y446801D02*X51000Y446501D01*
X51300Y446201D01*
X51600Y446501D01*
X51300Y446801D01*
X53400Y451301D02*X54000Y451601D01*
X54900Y452501D01*
Y446201D01*
X59700Y452501D02*X56700Y448301D01*
X61200D01*
X59700Y452501D02*Y446201D01*
X66600Y451601D02*X66300Y452201D01*
X65400Y452501D01*
X64800D02*X65400D01*
X64800D02*X63900Y452201D01*
X63300Y451301D01*
X63000Y449801D01*
Y448301D01*
X63300Y447101D01*
X63900Y446501D01*
X64800Y446201D01*
X65100D01*
X66000Y446501D01*
X66600Y447101D01*
X66900Y448001D01*
Y448301D02*Y448001D01*
Y448301D02*X66600Y449201D01*
X66000Y449801D01*
X65100Y450101D01*
X64800D02*X65100D01*
X64800D02*X63900Y449801D01*
X63300Y449201D01*
X63000Y448301D01*
X4200Y466601D02*X3600Y467201D01*
X2700Y467501D01*
X1500D02*X2700D01*
X1500D02*X600Y467201D01*
X0Y466601D01*
Y466001D01*
X300Y465401D01*
X600Y465101D01*
X1200Y464801D01*
X3000Y464201D01*
X3600Y463901D01*
X3900Y463601D01*
X4200Y463001D01*
Y462101D01*
X3600Y461501D01*
X2700Y461201D01*
X1500D02*X2700D01*
X1500D02*X600Y461501D01*
X0Y462101D01*
X6300Y465401D02*X8100Y461201D01*
X9900Y465401D02*X8100Y461201D01*
X7500Y460001D01*
X6900Y459401D01*
X6300Y459101D01*
X6000D02*X6300D01*
X11700Y465401D02*Y461201D01*
Y464201D02*X12600Y465101D01*
X13200Y465401D01*
X14100D01*
X14700Y465101D01*
X15000Y464201D01*
Y461201D01*
Y464201D02*X15900Y465101D01*
X16500Y465401D01*
X17400D01*
X18000Y465101D01*
X18300Y464201D01*
Y461201D01*
X20100Y467501D02*Y461201D01*
Y464501D02*X20700Y465101D01*
X21300Y465401D01*
X22200D01*
X22800Y465101D01*
X23400Y464501D01*
X23700Y463601D01*
Y463001D01*
X23400Y462101D01*
X22800Y461501D01*
X22200Y461201D01*
X21300D02*X22200D01*
X21300D02*X20700Y461501D01*
X20100Y462101D01*
X27000Y465401D02*X26400Y465101D01*
X25800Y464501D01*
X25500Y463601D01*
Y463001D01*
X25800Y462101D01*
X26400Y461501D01*
X27000Y461201D01*
X27900D01*
X28500Y461501D01*
X29100Y462101D01*
X29400Y463001D01*
Y463601D02*Y463001D01*
Y463601D02*X29100Y464501D01*
X28500Y465101D01*
X27900Y465401D01*
X27000D02*X27900D01*
X31200Y467501D02*Y461201D01*
X0Y458101D02*X33000D01*
X41000Y467501D02*Y461201D01*
Y467501D02*X43100D01*
X44000Y467201D01*
X44600Y466601D01*
X44900Y466001D01*
X45200Y465101D01*
Y463601D01*
X44900Y462701D01*
X44600Y462101D01*
X44000Y461501D01*
X43100Y461201D01*
X41000D02*X43100D01*
X47000Y467501D02*X47300Y467201D01*
X47600Y467501D01*
X47300Y467801D01*
X47000Y467501D01*
X47300Y465401D02*Y461201D01*
X53000Y465401D02*Y461201D01*
Y464501D02*X52400Y465101D01*
X51800Y465401D01*
X50900D02*X51800D01*
X50900D02*X50300Y465101D01*
X49700Y464501D01*
X49400Y463601D01*
Y463001D01*
X49700Y462101D01*
X50300Y461501D01*
X50900Y461201D01*
X51800D01*
X52400Y461501D01*
X53000Y462101D01*
X54800Y465401D02*Y461201D01*
Y464201D02*X55700Y465101D01*
X56300Y465401D01*
X57200D01*
X57800Y465101D01*
X58100Y464201D01*
Y461201D01*
Y464201D02*X59000Y465101D01*
X59600Y465401D01*
X60500D01*
X61100Y465101D01*
X61400Y464201D01*
Y461201D01*
X63500Y461801D02*X63200Y461501D01*
X63500Y461201D01*
X63800Y461501D01*
X63500Y461801D01*
X69500Y468701D02*X68900Y468101D01*
X68300Y467201D01*
X67700Y466001D01*
X67400Y464501D01*
Y463301D01*
X67700Y461801D01*
X68300Y460601D01*
X68900Y459701D01*
X69500Y459101D01*
X71300Y467501D02*Y461201D01*
X73100Y465401D02*Y461201D01*
Y464201D02*X74000Y465101D01*
X74600Y465401D01*
X75500D01*
X76100Y465101D01*
X76400Y464201D01*
Y461201D01*
X81800Y464501D02*X81200Y465101D01*
X80600Y465401D01*
X79700D02*X80600D01*
X79700D02*X79100Y465101D01*
X78500Y464501D01*
X78200Y463601D01*
Y463001D01*
X78500Y462101D01*
X79100Y461501D01*
X79700Y461201D01*
X80600D01*
X81200Y461501D01*
X81800Y462101D01*
X83600Y467501D02*Y461201D01*
Y464201D02*X84500Y465101D01*
X85100Y465401D01*
X86000D01*
X86600Y465101D01*
X86900Y464201D01*
Y461201D01*
X88700Y468701D02*X89300Y468101D01*
X89900Y467201D01*
X90500Y466001D01*
X90800Y464501D01*
Y463301D01*
X90500Y461801D01*
X89900Y460601D01*
X89300Y459701D01*
X88700Y459101D01*
X41000Y458101D02*X92600D01*
X99500Y466001D02*X99200Y466601D01*
X98600Y467201D01*
X98000Y467501D01*
X96800D02*X98000D01*
X96800D02*X96200Y467201D01*
X95600Y466601D01*
X95300Y466001D01*
X95000Y465101D01*
Y463601D01*
X95300Y462701D01*
X95600Y462101D01*
X96200Y461501D01*
X96800Y461201D01*
X98000D01*
X98600Y461501D01*
X99200Y462101D01*
X99500Y462701D01*
X102800Y465401D02*X102200Y465101D01*
X101600Y464501D01*
X101300Y463601D01*
Y463001D01*
X101600Y462101D01*
X102200Y461501D01*
X102800Y461201D01*
X103700D01*
X104300Y461501D01*
X104900Y462101D01*
X105200Y463001D01*
Y463601D02*Y463001D01*
Y463601D02*X104900Y464501D01*
X104300Y465101D01*
X103700Y465401D01*
X102800D02*X103700D01*
X107000D02*Y462401D01*
X107300Y461501D01*
X107900Y461201D01*
X108800D01*
X109400Y461501D01*
X110300Y462401D01*
Y465401D02*Y461201D01*
X112100Y465401D02*Y461201D01*
Y464201D02*X113000Y465101D01*
X113600Y465401D01*
X114500D01*
X115100Y465101D01*
X115400Y464201D01*
Y461201D01*
X118100Y467501D02*Y462401D01*
X118400Y461501D01*
X119000Y461201D01*
X119600D01*
X117200Y465401D02*X119300D01*
X95000Y458101D02*X121400D01*
X130000Y467501D02*Y461201D01*
Y467501D02*X132700D01*
X133600Y467201D01*
X133900Y466901D01*
X134200Y466301D01*
Y465401D01*
X133900Y464801D01*
X133600Y464501D01*
X132700Y464201D01*
X130000D02*X132700D01*
X136000Y467501D02*Y461201D01*
X141400Y465401D02*Y461201D01*
Y464501D02*X140800Y465101D01*
X140200Y465401D01*
X139300D02*X140200D01*
X139300D02*X138700Y465101D01*
X138100Y464501D01*
X137800Y463601D01*
Y463001D01*
X138100Y462101D01*
X138700Y461501D01*
X139300Y461201D01*
X140200D01*
X140800Y461501D01*
X141400Y462101D01*
X144100Y467501D02*Y462401D01*
X144400Y461501D01*
X145000Y461201D01*
X145600D01*
X143200Y465401D02*X145300D01*
X147400Y463601D02*X151000D01*
Y464201D02*Y463601D01*
Y464201D02*X150700Y464801D01*
X150400Y465101D01*
X149800Y465401D01*
X148900D02*X149800D01*
X148900D02*X148300Y465101D01*
X147700Y464501D01*
X147400Y463601D01*
Y463001D01*
X147700Y462101D01*
X148300Y461501D01*
X148900Y461201D01*
X149800D01*
X150400Y461501D01*
X151000Y462101D01*
X156400Y467501D02*Y461201D01*
Y464501D02*X155800Y465101D01*
X155200Y465401D01*
X154300D02*X155200D01*
X154300D02*X153700Y465101D01*
X153100Y464501D01*
X152800Y463601D01*
Y463001D01*
X153100Y462101D01*
X153700Y461501D01*
X154300Y461201D01*
X155200D01*
X155800Y461501D01*
X156400Y462101D01*
X158200Y466301D02*Y466001D01*
Y466301D02*X158500Y466901D01*
X158800Y467201D01*
X159400Y467501D01*
X160600D01*
X161200Y467201D01*
X161500Y466901D01*
X161800Y466301D01*
Y465701D01*
X161500Y465101D01*
X161200Y464801D01*
X160000Y464201D01*
Y463301D01*
Y461801D02*X159700Y461501D01*
X160000Y461201D01*
X160300Y461501D01*
X160000Y461801D01*
X130000Y458101D02*X163600D01*
X2100Y482501D02*Y476201D01*
X0Y482501D02*X4200D01*
X6000D02*Y476201D01*
Y479201D02*X6900Y480101D01*
X7500Y480401D01*
X8400D01*
X9000Y480101D01*
X9300Y479201D01*
Y476201D01*
X11100Y478601D02*X14700D01*
Y479201D02*Y478601D01*
Y479201D02*X14400Y479801D01*
X14100Y480101D01*
X13500Y480401D01*
X12600D02*X13500D01*
X12600D02*X12000Y480101D01*
X11400Y479501D01*
X11100Y478601D01*
Y478001D01*
X11400Y477101D01*
X12000Y476501D01*
X12600Y476201D01*
X13500D01*
X14100Y476501D01*
X14700Y477101D01*
X16500Y480401D02*Y476201D01*
Y478601D02*X16800Y479501D01*
X17400Y480101D01*
X18000Y480401D01*
X18900D01*
X20700Y478601D02*X24300D01*
Y479201D02*Y478601D01*
Y479201D02*X24000Y479801D01*
X23700Y480101D01*
X23100Y480401D01*
X22200D02*X23100D01*
X22200D02*X21600Y480101D01*
X21000Y479501D01*
X20700Y478601D01*
Y478001D01*
X21000Y477101D01*
X21600Y476501D01*
X22200Y476201D01*
X23100D01*
X23700Y476501D01*
X24300Y477101D01*
X31500Y480401D02*Y476201D01*
Y479501D02*X30900Y480101D01*
X30300Y480401D01*
X29400D02*X30300D01*
X29400D02*X28800Y480101D01*
X28200Y479501D01*
X27900Y478601D01*
Y478001D01*
X28200Y477101D01*
X28800Y476501D01*
X29400Y476201D01*
X30300D01*
X30900Y476501D01*
X31500Y477101D01*
X33300Y480401D02*Y476201D01*
Y478601D02*X33600Y479501D01*
X34200Y480101D01*
X34800Y480401D01*
X35700D01*
X37500Y478601D02*X41100D01*
Y479201D02*Y478601D01*
Y479201D02*X40800Y479801D01*
X40500Y480101D01*
X39900Y480401D01*
X39000D02*X39900D01*
X39000D02*X38400Y480101D01*
X37800Y479501D01*
X37500Y478601D01*
Y478001D01*
X37800Y477101D01*
X38400Y476501D01*
X39000Y476201D01*
X39900D01*
X40500Y476501D01*
X41100Y477101D01*
X44700Y481301D02*X45300Y481601D01*
X46200Y482501D01*
Y476201D01*
X53400Y482501D02*Y476201D01*
Y479501D02*X52800Y480101D01*
X52200Y480401D01*
X51300D02*X52200D01*
X51300D02*X50700Y480101D01*
X50100Y479501D01*
X49800Y478601D01*
Y478001D01*
X50100Y477101D01*
X50700Y476501D01*
X51300Y476201D01*
X52200D01*
X52800Y476501D01*
X53400Y477101D01*
X55200Y482501D02*X55500Y482201D01*
X55800Y482501D01*
X55500Y482801D01*
X55200Y482501D01*
X55500Y480401D02*Y476201D01*
X59400Y482501D02*X60000D01*
X59400D02*X58800Y482201D01*
X58500Y481301D01*
Y476201D01*
X57600Y480401D02*X59700D01*
X63600Y482501D02*X64200D01*
X63600D02*X63000Y482201D01*
X62700Y481301D01*
Y476201D01*
X61800Y480401D02*X63900D01*
X66000Y478601D02*X69600D01*
Y479201D02*Y478601D01*
Y479201D02*X69300Y479801D01*
X69000Y480101D01*
X68400Y480401D01*
X67500D02*X68400D01*
X67500D02*X66900Y480101D01*
X66300Y479501D01*
X66000Y478601D01*
Y478001D01*
X66300Y477101D01*
X66900Y476501D01*
X67500Y476201D01*
X68400D01*
X69000Y476501D01*
X69600Y477101D01*
X71400Y480401D02*Y476201D01*
Y478601D02*X71700Y479501D01*
X72300Y480101D01*
X72900Y480401D01*
X73800D01*
X75600Y478601D02*X79200D01*
Y479201D02*Y478601D01*
Y479201D02*X78900Y479801D01*
X78600Y480101D01*
X78000Y480401D01*
X77100D02*X78000D01*
X77100D02*X76500Y480101D01*
X75900Y479501D01*
X75600Y478601D01*
Y478001D01*
X75900Y477101D01*
X76500Y476501D01*
X77100Y476201D01*
X78000D01*
X78600Y476501D01*
X79200Y477101D01*
X81000Y480401D02*Y476201D01*
Y479201D02*X81900Y480101D01*
X82500Y480401D01*
X83400D01*
X84000Y480101D01*
X84300Y479201D01*
Y476201D01*
X87000Y482501D02*Y477401D01*
X87300Y476501D01*
X87900Y476201D01*
X88500D01*
X86100Y480401D02*X88200D01*
X95700Y482501D02*Y476201D01*
Y479501D02*X95100Y480101D01*
X94500Y480401D01*
X93600D02*X94500D01*
X93600D02*X93000Y480101D01*
X92400Y479501D01*
X92100Y478601D01*
Y478001D01*
X92400Y477101D01*
X93000Y476501D01*
X93600Y476201D01*
X94500D01*
X95100Y476501D01*
X95700Y477101D01*
X97500Y480401D02*Y476201D01*
Y478601D02*X97800Y479501D01*
X98400Y480101D01*
X99000Y480401D01*
X99900D01*
X101700Y482501D02*X102000Y482201D01*
X102300Y482501D01*
X102000Y482801D01*
X101700Y482501D01*
X102000Y480401D02*Y476201D01*
X104100Y482501D02*Y476201D01*
X105900Y482501D02*Y476201D01*
X112800Y479501D02*X112500Y480101D01*
X111600Y480401D01*
X110700D02*X111600D01*
X110700D02*X109800Y480101D01*
X109500Y479501D01*
X109800Y478901D01*
X110400Y478601D01*
X111900Y478301D01*
X112500Y478001D01*
X112800Y477401D01*
Y477101D01*
X112500Y476501D01*
X111600Y476201D01*
X110700D02*X111600D01*
X110700D02*X109800Y476501D01*
X109500Y477101D01*
X114600Y482501D02*X114900Y482201D01*
X115200Y482501D01*
X114900Y482801D01*
X114600Y482501D01*
X114900Y480401D02*Y476201D01*
X120300Y480401D02*X117000Y476201D01*
Y480401D02*X120300D01*
X117000Y476201D02*X120300D01*
X122100Y478601D02*X125700D01*
Y479201D02*Y478601D01*
Y479201D02*X125400Y479801D01*
X125100Y480101D01*
X124500Y480401D01*
X123600D02*X124500D01*
X123600D02*X123000Y480101D01*
X122400Y479501D01*
X122100Y478601D01*
Y478001D01*
X122400Y477101D01*
X123000Y476501D01*
X123600Y476201D01*
X124500D01*
X125100Y476501D01*
X125700Y477101D01*
X130800Y479501D02*X130500Y480101D01*
X129600Y480401D01*
X128700D02*X129600D01*
X128700D02*X127800Y480101D01*
X127500Y479501D01*
X127800Y478901D01*
X128400Y478601D01*
X129900Y478301D01*
X130500Y478001D01*
X130800Y477401D01*
Y477101D01*
X130500Y476501D01*
X129600Y476201D01*
X128700D02*X129600D01*
X128700D02*X127800Y476501D01*
X127500Y477101D01*
X134400Y480401D02*Y477401D01*
X134700Y476501D01*
X135300Y476201D01*
X136200D01*
X136800Y476501D01*
X137700Y477401D01*
Y480401D02*Y476201D01*
X142800Y479501D02*X142500Y480101D01*
X141600Y480401D01*
X140700D02*X141600D01*
X140700D02*X139800Y480101D01*
X139500Y479501D01*
X139800Y478901D01*
X140400Y478601D01*
X141900Y478301D01*
X142500Y478001D01*
X142800Y477401D01*
Y477101D01*
X142500Y476501D01*
X141600Y476201D01*
X140700D02*X141600D01*
X140700D02*X139800Y476501D01*
X139500Y477101D01*
X144600Y478601D02*X148200D01*
Y479201D02*Y478601D01*
Y479201D02*X147900Y479801D01*
X147600Y480101D01*
X147000Y480401D01*
X146100D02*X147000D01*
X146100D02*X145500Y480101D01*
X144900Y479501D01*
X144600Y478601D01*
Y478001D01*
X144900Y477101D01*
X145500Y476501D01*
X146100Y476201D01*
X147000D01*
X147600Y476501D01*
X148200Y477101D01*
X153600Y482501D02*Y476201D01*
Y479501D02*X153000Y480101D01*
X152400Y480401D01*
X151500D02*X152400D01*
X151500D02*X150900Y480101D01*
X150300Y479501D01*
X150000Y478601D01*
Y478001D01*
X150300Y477101D01*
X150900Y476501D01*
X151500Y476201D01*
X152400D01*
X153000Y476501D01*
X153600Y477101D01*
X157200Y482501D02*X157500Y482201D01*
X157800Y482501D01*
X157500Y482801D01*
X157200Y482501D01*
X157500Y480401D02*Y476201D01*
X159600Y480401D02*Y476201D01*
Y479201D02*X160500Y480101D01*
X161100Y480401D01*
X162000D01*
X162600Y480101D01*
X162900Y479201D01*
Y476201D01*
X167400Y482501D02*Y477401D01*
X167700Y476501D01*
X168300Y476201D01*
X168900D01*
X166500Y480401D02*X168600D01*
X170700Y482501D02*Y476201D01*
Y479201D02*X171600Y480101D01*
X172200Y480401D01*
X173100D01*
X173700Y480101D01*
X174000Y479201D01*
Y476201D01*
X175800Y482501D02*X176100Y482201D01*
X176400Y482501D01*
X176100Y482801D01*
X175800Y482501D01*
X176100Y480401D02*Y476201D01*
X181500Y479501D02*X181200Y480101D01*
X180300Y480401D01*
X179400D02*X180300D01*
X179400D02*X178500Y480101D01*
X178200Y479501D01*
X178500Y478901D01*
X179100Y478601D01*
X180600Y478301D01*
X181200Y478001D01*
X181500Y477401D01*
Y477101D01*
X181200Y476501D01*
X180300Y476201D01*
X179400D02*X180300D01*
X179400D02*X178500Y476501D01*
X178200Y477101D01*
X185100Y482501D02*Y476201D01*
X190500Y480401D02*Y476201D01*
Y479501D02*X189900Y480101D01*
X189300Y480401D01*
X188400D02*X189300D01*
X188400D02*X187800Y480101D01*
X187200Y479501D01*
X186900Y478601D01*
Y478001D01*
X187200Y477101D01*
X187800Y476501D01*
X188400Y476201D01*
X189300D01*
X189900Y476501D01*
X190500Y477101D01*
X192600Y480401D02*X194400Y476201D01*
X196200Y480401D02*X194400Y476201D01*
X193800Y475001D01*
X193200Y474401D01*
X192600Y474101D01*
X192300D02*X192600D01*
X199500Y480401D02*X198900Y480101D01*
X198300Y479501D01*
X198000Y478601D01*
Y478001D01*
X198300Y477101D01*
X198900Y476501D01*
X199500Y476201D01*
X200400D01*
X201000Y476501D01*
X201600Y477101D01*
X201900Y478001D01*
Y478601D02*Y478001D01*
Y478601D02*X201600Y479501D01*
X201000Y480101D01*
X200400Y480401D01*
X199500D02*X200400D01*
X203700D02*Y477401D01*
X204000Y476501D01*
X204600Y476201D01*
X205500D01*
X206100Y476501D01*
X207000Y477401D01*
Y480401D02*Y476201D01*
X209700Y482501D02*Y477401D01*
X210000Y476501D01*
X210600Y476201D01*
X211200D01*
X208800Y480401D02*X210900D01*
X213600Y476501D02*X213300Y476201D01*
X213000Y476501D01*
X213300Y476801D01*
X213600Y476501D01*
Y475901D01*
X213300Y475301D01*
X213000Y475001D01*
X220800Y481601D02*X220500Y482201D01*
X219600Y482501D01*
X219000D02*X219600D01*
X219000D02*X218100Y482201D01*
X217500Y481301D01*
X217200Y479801D01*
Y478301D01*
X217500Y477101D01*
X218100Y476501D01*
X219000Y476201D01*
X219300D01*
X220200Y476501D01*
X220800Y477101D01*
X221100Y478001D01*
Y478301D02*Y478001D01*
Y478301D02*X220800Y479201D01*
X220200Y479801D01*
X219300Y480101D01*
X219000D02*X219300D01*
X219000D02*X218100Y479801D01*
X217500Y479201D01*
X217200Y478301D01*
X224700Y482501D02*Y476201D01*
Y479201D02*X225600Y480101D01*
X226200Y480401D01*
X227100D01*
X227700Y480101D01*
X228000Y479201D01*
Y476201D01*
X231300Y480401D02*X230700Y480101D01*
X230100Y479501D01*
X229800Y478601D01*
Y478001D01*
X230100Y477101D01*
X230700Y476501D01*
X231300Y476201D01*
X232200D01*
X232800Y476501D01*
X233400Y477101D01*
X233700Y478001D01*
Y478601D02*Y478001D01*
Y478601D02*X233400Y479501D01*
X232800Y480101D01*
X232200Y480401D01*
X231300D02*X232200D01*
X235500Y482501D02*Y476201D01*
X237300Y478601D02*X240900D01*
Y479201D02*Y478601D01*
Y479201D02*X240600Y479801D01*
X240300Y480101D01*
X239700Y480401D01*
X238800D02*X239700D01*
X238800D02*X238200Y480101D01*
X237600Y479501D01*
X237300Y478601D01*
Y478001D01*
X237600Y477101D01*
X238200Y476501D01*
X238800Y476201D01*
X239700D01*
X240300Y476501D01*
X240900Y477101D01*
X246000Y479501D02*X245700Y480101D01*
X244800Y480401D01*
X243900D02*X244800D01*
X243900D02*X243000Y480101D01*
X242700Y479501D01*
X243000Y478901D01*
X243600Y478601D01*
X245100Y478301D01*
X245700Y478001D01*
X246000Y477401D01*
Y477101D01*
X245700Y476501D01*
X244800Y476201D01*
X243900D02*X244800D01*
X243900D02*X243000Y476501D01*
X242700Y477101D01*
X250500Y482501D02*Y477401D01*
X250800Y476501D01*
X251400Y476201D01*
X252000D01*
X249600Y480401D02*X251700D01*
X255300D02*X254700Y480101D01*
X254100Y479501D01*
X253800Y478601D01*
Y478001D01*
X254100Y477101D01*
X254700Y476501D01*
X255300Y476201D01*
X256200D01*
X256800Y476501D01*
X257400Y477101D01*
X257700Y478001D01*
Y478601D02*Y478001D01*
Y478601D02*X257400Y479501D01*
X256800Y480101D01*
X256200Y480401D01*
X255300D02*X256200D01*
X260400Y482501D02*Y477401D01*
X260700Y476501D01*
X261300Y476201D01*
X261900D01*
X259500Y480401D02*X261600D01*
X267300D02*Y476201D01*
Y479501D02*X266700Y480101D01*
X266100Y480401D01*
X265200D02*X266100D01*
X265200D02*X264600Y480101D01*
X264000Y479501D01*
X263700Y478601D01*
Y478001D01*
X264000Y477101D01*
X264600Y476501D01*
X265200Y476201D01*
X266100D01*
X266700Y476501D01*
X267300Y477101D01*
X269100Y482501D02*Y476201D01*
G54D73*X19685Y19685D02*Y374016D01*
X649606Y19685D02*X19685D01*
X649606D02*Y374016D01*
X19685D01*
G54D72*X243446Y-3200D02*Y-9500D01*
Y-3200D02*X246146D01*
X247046Y-3500D01*
X247346Y-3800D01*
X247646Y-4400D01*
Y-5000D01*
X247346Y-5600D01*
X247046Y-5900D01*
X246146Y-6200D01*
X243446D02*X246146D01*
X247046Y-6500D01*
X247346Y-6800D01*
X247646Y-7400D01*
Y-8300D01*
X247346Y-8900D01*
X247046Y-9200D01*
X246146Y-9500D01*
X243446D02*X246146D01*
X250946Y-5300D02*X250346Y-5600D01*
X249746Y-6200D01*
X249446Y-7100D01*
Y-7700D01*
X249746Y-8600D01*
X250346Y-9200D01*
X250946Y-9500D01*
X251846D01*
X252446Y-9200D01*
X253046Y-8600D01*
X253346Y-7700D01*
Y-7100D02*Y-7700D01*
Y-7100D02*X253046Y-6200D01*
X252446Y-5600D01*
X251846Y-5300D01*
X250946D02*X251846D01*
X258746D02*Y-9500D01*
Y-6200D02*X258146Y-5600D01*
X257546Y-5300D01*
X256646D02*X257546D01*
X256646D02*X256046Y-5600D01*
X255446Y-6200D01*
X255146Y-7100D01*
Y-7700D01*
X255446Y-8600D01*
X256046Y-9200D01*
X256646Y-9500D01*
X257546D01*
X258146Y-9200D01*
X258746Y-8600D01*
X260546Y-5300D02*Y-9500D01*
Y-7100D02*X260846Y-6200D01*
X261446Y-5600D01*
X262046Y-5300D01*
X262946D01*
X268346Y-3200D02*Y-9500D01*
Y-6200D02*X267746Y-5600D01*
X267146Y-5300D01*
X266246D02*X267146D01*
X266246D02*X265646Y-5600D01*
X265046Y-6200D01*
X264746Y-7100D01*
Y-7700D01*
X265046Y-8600D01*
X265646Y-9200D01*
X266246Y-9500D01*
X267146D01*
X267746Y-9200D01*
X268346Y-8600D01*
X273446Y-5300D02*X272846Y-5600D01*
X272246Y-6200D01*
X271946Y-7100D01*
Y-7700D01*
X272246Y-8600D01*
X272846Y-9200D01*
X273446Y-9500D01*
X274346D01*
X274946Y-9200D01*
X275546Y-8600D01*
X275846Y-7700D01*
Y-7100D02*Y-7700D01*
Y-7100D02*X275546Y-6200D01*
X274946Y-5600D01*
X274346Y-5300D01*
X273446D02*X274346D01*
X277646D02*Y-8300D01*
X277946Y-9200D01*
X278546Y-9500D01*
X279446D01*
X280046Y-9200D01*
X280946Y-8300D01*
Y-5300D02*Y-9500D01*
X283646Y-3200D02*Y-8300D01*
X283946Y-9200D01*
X284546Y-9500D01*
X285146D01*
X282746Y-5300D02*X284846D01*
X286946Y-3200D02*Y-9500D01*
X288746Y-3200D02*X289046Y-3500D01*
X289346Y-3200D01*
X289046Y-2900D01*
X288746Y-3200D01*
X289046Y-5300D02*Y-9500D01*
X291146Y-5300D02*Y-9500D01*
Y-6500D02*X292046Y-5600D01*
X292646Y-5300D01*
X293546D01*
X294146Y-5600D01*
X294446Y-6500D01*
Y-9500D01*
X296246Y-7100D02*X299846D01*
Y-6500D02*Y-7100D01*
Y-6500D02*X299546Y-5900D01*
X299246Y-5600D01*
X298646Y-5300D01*
X297746D02*X298646D01*
X297746D02*X297146Y-5600D01*
X296546Y-6200D01*
X296246Y-7100D01*
Y-7700D01*
X296546Y-8600D01*
X297146Y-9200D01*
X297746Y-9500D01*
X298646D01*
X299246Y-9200D01*
X299846Y-8600D01*
X303446Y-3200D02*X303746Y-3500D01*
X304046Y-3200D01*
X303746Y-2900D01*
X303446Y-3200D01*
X303746Y-5300D02*Y-9500D01*
X309146Y-6200D02*X308846Y-5600D01*
X307946Y-5300D01*
X307046D02*X307946D01*
X307046D02*X306146Y-5600D01*
X305846Y-6200D01*
X306146Y-6800D01*
X306746Y-7100D01*
X308246Y-7400D01*
X308846Y-7700D01*
X309146Y-8300D01*
Y-8600D01*
X308846Y-9200D01*
X307946Y-9500D01*
X307046D02*X307946D01*
X307046D02*X306146Y-9200D01*
X305846Y-8600D01*
X313646Y-3200D02*Y-8300D01*
X313946Y-9200D01*
X314546Y-9500D01*
X315146D01*
X312746Y-5300D02*X314846D01*
X316946Y-3200D02*Y-9500D01*
Y-6500D02*X317846Y-5600D01*
X318446Y-5300D01*
X319346D01*
X319946Y-5600D01*
X320246Y-6500D01*
Y-9500D01*
X322046Y-7100D02*X325646D01*
Y-6500D02*Y-7100D01*
Y-6500D02*X325346Y-5900D01*
X325046Y-5600D01*
X324446Y-5300D01*
X323546D02*X324446D01*
X323546D02*X322946Y-5600D01*
X322346Y-6200D01*
X322046Y-7100D01*
Y-7700D01*
X322346Y-8600D01*
X322946Y-9200D01*
X323546Y-9500D01*
X324446D01*
X325046Y-9200D01*
X325646Y-8600D01*
X332846Y-6200D02*X332246Y-5600D01*
X331646Y-5300D01*
X330746D02*X331646D01*
X330746D02*X330146Y-5600D01*
X329546Y-6200D01*
X329246Y-7100D01*
Y-7700D01*
X329546Y-8600D01*
X330146Y-9200D01*
X330746Y-9500D01*
X331646D01*
X332246Y-9200D01*
X332846Y-8600D01*
X334646Y-7100D02*X338246D01*
Y-6500D02*Y-7100D01*
Y-6500D02*X337946Y-5900D01*
X337646Y-5600D01*
X337046Y-5300D01*
X336146D02*X337046D01*
X336146D02*X335546Y-5600D01*
X334946Y-6200D01*
X334646Y-7100D01*
Y-7700D01*
X334946Y-8600D01*
X335546Y-9200D01*
X336146Y-9500D01*
X337046D01*
X337646Y-9200D01*
X338246Y-8600D01*
X340046Y-5300D02*Y-9500D01*
Y-6500D02*X340946Y-5600D01*
X341546Y-5300D01*
X342446D01*
X343046Y-5600D01*
X343346Y-6500D01*
Y-9500D01*
X346046Y-3200D02*Y-8300D01*
X346346Y-9200D01*
X346946Y-9500D01*
X347546D01*
X345146Y-5300D02*X347246D01*
X349346Y-7100D02*X352946D01*
Y-6500D02*Y-7100D01*
Y-6500D02*X352646Y-5900D01*
X352346Y-5600D01*
X351746Y-5300D01*
X350846D02*X351746D01*
X350846D02*X350246Y-5600D01*
X349646Y-6200D01*
X349346Y-7100D01*
Y-7700D01*
X349646Y-8600D01*
X350246Y-9200D01*
X350846Y-9500D01*
X351746D01*
X352346Y-9200D01*
X352946Y-8600D01*
X354746Y-5300D02*Y-9500D01*
Y-7100D02*X355046Y-6200D01*
X355646Y-5600D01*
X356246Y-5300D01*
X357146D01*
X358946Y-3200D02*Y-9500D01*
X360746Y-3200D02*X361046Y-3500D01*
X361346Y-3200D01*
X361046Y-2900D01*
X360746Y-3200D01*
X361046Y-5300D02*Y-9500D01*
X363146Y-5300D02*Y-9500D01*
Y-6500D02*X364046Y-5600D01*
X364646Y-5300D01*
X365546D01*
X366146Y-5600D01*
X366446Y-6500D01*
Y-9500D01*
X368246Y-7100D02*X371846D01*
Y-6500D02*Y-7100D01*
Y-6500D02*X371546Y-5900D01*
X371246Y-5600D01*
X370646Y-5300D01*
X369746D02*X370646D01*
X369746D02*X369146Y-5600D01*
X368546Y-6200D01*
X368246Y-7100D01*
Y-7700D01*
X368546Y-8600D01*
X369146Y-9200D01*
X369746Y-9500D01*
X370646D01*
X371246Y-9200D01*
X371846Y-8600D01*
X376946Y-5300D02*X376346Y-5600D01*
X375746Y-6200D01*
X375446Y-7100D01*
Y-7700D01*
X375746Y-8600D01*
X376346Y-9200D01*
X376946Y-9500D01*
X377846D01*
X378446Y-9200D01*
X379046Y-8600D01*
X379346Y-7700D01*
Y-7100D02*Y-7700D01*
Y-7100D02*X379046Y-6200D01*
X378446Y-5600D01*
X377846Y-5300D01*
X376946D02*X377846D01*
X382946Y-3200D02*X383546D01*
X382946D02*X382346Y-3500D01*
X382046Y-4400D01*
Y-9500D01*
X381146Y-5300D02*X383246D01*
X388046Y-3200D02*Y-8300D01*
X388346Y-9200D01*
X388946Y-9500D01*
X389546D01*
X387146Y-5300D02*X389246D01*
X391346Y-3200D02*Y-9500D01*
Y-6500D02*X392246Y-5600D01*
X392846Y-5300D01*
X393746D01*
X394346Y-5600D01*
X394646Y-6500D01*
Y-9500D01*
X396446Y-3200D02*X396746Y-3500D01*
X397046Y-3200D01*
X396746Y-2900D01*
X396446Y-3200D01*
X396746Y-5300D02*Y-9500D01*
X402146Y-6200D02*X401846Y-5600D01*
X400946Y-5300D01*
X400046D02*X400946D01*
X400046D02*X399146Y-5600D01*
X398846Y-6200D01*
X399146Y-6800D01*
X399746Y-7100D01*
X401246Y-7400D01*
X401846Y-7700D01*
X402146Y-8300D01*
Y-8600D01*
X401846Y-9200D01*
X400946Y-9500D01*
X400046D02*X400946D01*
X400046D02*X399146Y-9200D01*
X398846Y-8600D01*
X405746Y-5300D02*Y-11600D01*
Y-6200D02*X406346Y-5600D01*
X406946Y-5300D01*
X407846D01*
X408446Y-5600D01*
X409046Y-6200D01*
X409346Y-7100D01*
Y-7700D01*
X409046Y-8600D01*
X408446Y-9200D01*
X407846Y-9500D01*
X406946D02*X407846D01*
X406946D02*X406346Y-9200D01*
X405746Y-8600D01*
X414746Y-5300D02*Y-9500D01*
Y-6200D02*X414146Y-5600D01*
X413546Y-5300D01*
X412646D02*X413546D01*
X412646D02*X412046Y-5600D01*
X411446Y-6200D01*
X411146Y-7100D01*
Y-7700D01*
X411446Y-8600D01*
X412046Y-9200D01*
X412646Y-9500D01*
X413546D01*
X414146Y-9200D01*
X414746Y-8600D01*
X417446Y-3200D02*Y-8300D01*
X417746Y-9200D01*
X418346Y-9500D01*
X418946D01*
X416546Y-5300D02*X418646D01*
X420746Y-3200D02*Y-9500D01*
Y-6500D02*X421646Y-5600D01*
X422246Y-5300D01*
X423146D01*
X423746Y-5600D01*
X424046Y-6500D01*
Y-9500D01*
X200000Y422501D02*Y416201D01*
Y422501D02*X202100D01*
X203000Y422201D01*
X203600Y421601D01*
X203900Y421001D01*
X204200Y420101D01*
Y418601D01*
X203900Y417701D01*
X203600Y417101D01*
X203000Y416501D01*
X202100Y416201D01*
X200000D02*X202100D01*
X209600Y420401D02*Y416201D01*
Y419501D02*X209000Y420101D01*
X208400Y420401D01*
X207500D02*X208400D01*
X207500D02*X206900Y420101D01*
X206300Y419501D01*
X206000Y418601D01*
Y418001D01*
X206300Y417101D01*
X206900Y416501D01*
X207500Y416201D01*
X208400D01*
X209000Y416501D01*
X209600Y417101D01*
X212300Y422501D02*Y417401D01*
X212600Y416501D01*
X213200Y416201D01*
X213800D01*
X211400Y420401D02*X213500D01*
X215600Y418601D02*X219200D01*
Y419201D02*Y418601D01*
Y419201D02*X218900Y419801D01*
X218600Y420101D01*
X218000Y420401D01*
X217100D02*X218000D01*
X217100D02*X216500Y420101D01*
X215900Y419501D01*
X215600Y418601D01*
Y418001D01*
X215900Y417101D01*
X216500Y416501D01*
X217100Y416201D01*
X218000D01*
X218600Y416501D01*
X219200Y417101D01*
X221300Y420401D02*X221000Y420101D01*
X221300Y419801D01*
X221600Y420101D01*
X221300Y420401D01*
Y416801D02*X221000Y416501D01*
X221300Y416201D01*
X221600Y416501D01*
X221300Y416801D01*
X229400Y421601D02*X228800Y422201D01*
X227900Y422501D01*
X226700D02*X227900D01*
X226700D02*X225800Y422201D01*
X225200Y421601D01*
Y421001D01*
X225500Y420401D01*
X225800Y420101D01*
X226400Y419801D01*
X228200Y419201D01*
X228800Y418901D01*
X229100Y418601D01*
X229400Y418001D01*
Y417101D01*
X228800Y416501D01*
X227900Y416201D01*
X226700D02*X227900D01*
X226700D02*X225800Y416501D01*
X225200Y417101D01*
X231200Y420401D02*Y417401D01*
X231500Y416501D01*
X232100Y416201D01*
X233000D01*
X233600Y416501D01*
X234500Y417401D01*
Y420401D02*Y416201D01*
X236300Y420401D02*Y416201D01*
Y419201D02*X237200Y420101D01*
X237800Y420401D01*
X238700D01*
X239300Y420101D01*
X239600Y419201D01*
Y416201D01*
X246200Y422501D02*Y417701D01*
X245900Y416801D01*
X245600Y416501D01*
X245000Y416201D01*
X244400D02*X245000D01*
X244400D02*X243800Y416501D01*
X243500Y416801D01*
X243200Y417701D01*
Y418301D02*Y417701D01*
X251600Y420401D02*Y416201D01*
Y419501D02*X251000Y420101D01*
X250400Y420401D01*
X249500D02*X250400D01*
X249500D02*X248900Y420101D01*
X248300Y419501D01*
X248000Y418601D01*
Y418001D01*
X248300Y417101D01*
X248900Y416501D01*
X249500Y416201D01*
X250400D01*
X251000Y416501D01*
X251600Y417101D01*
X253400Y420401D02*Y416201D01*
Y419201D02*X254300Y420101D01*
X254900Y420401D01*
X255800D01*
X256400Y420101D01*
X256700Y419201D01*
Y416201D01*
X262700Y422501D02*X266000D01*
X264200Y420101D01*
X265100D01*
X265700Y419801D01*
X266000Y419501D01*
X266300Y418601D01*
Y418001D01*
X266000Y417101D01*
X265400Y416501D01*
X264500Y416201D01*
X263600D02*X264500D01*
X263600D02*X262700Y416501D01*
X262400Y416801D01*
X262100Y417401D01*
X269900Y421301D02*X270500Y421601D01*
X271400Y422501D01*
Y416201D01*
X273200Y421301D02*X273800Y421601D01*
X274700Y422501D01*
Y416201D01*
X276800Y420401D02*X276500Y420101D01*
X276800Y419801D01*
X277100Y420101D01*
X276800Y420401D01*
Y416801D02*X276500Y416501D01*
X276800Y416201D01*
X277100Y416501D01*
X276800Y416801D01*
X278900Y421301D02*X279500Y421601D01*
X280400Y422501D01*
Y416201D01*
X285800Y421601D02*X285500Y422201D01*
X284600Y422501D01*
X284000D02*X284600D01*
X284000D02*X283100Y422201D01*
X282500Y421301D01*
X282200Y419801D01*
Y418301D01*
X282500Y417101D01*
X283100Y416501D01*
X284000Y416201D01*
X284300D01*
X285200Y416501D01*
X285800Y417101D01*
X286100Y418001D01*
Y418301D02*Y418001D01*
Y418301D02*X285800Y419201D01*
X285200Y419801D01*
X284300Y420101D01*
X284000D02*X284300D01*
X284000D02*X283100Y419801D01*
X282500Y419201D01*
X282200Y418301D01*
X288200Y420401D02*X287900Y420101D01*
X288200Y419801D01*
X288500Y420101D01*
X288200Y420401D01*
Y416801D02*X287900Y416501D01*
X288200Y416201D01*
X288500Y416501D01*
X288200Y416801D01*
X290300Y421301D02*X290900Y421601D01*
X291800Y422501D01*
Y416201D01*
X293600Y421301D02*X294200Y421601D01*
X295100Y422501D01*
Y416201D01*
X299000Y421301D02*Y421001D01*
Y421301D02*X299300Y421901D01*
X299600Y422201D01*
X300200Y422501D01*
X301400D01*
X302000Y422201D01*
X302300Y421901D01*
X302600Y421301D01*
Y420701D01*
X302300Y420101D01*
X301700Y419201D01*
X298700Y416201D01*
X302900D01*
X306500Y422501D02*X305600Y422201D01*
X305000Y421301D01*
X304700Y419801D01*
Y418901D01*
X305000Y417401D01*
X305600Y416501D01*
X306500Y416201D01*
X307100D01*
X308000Y416501D01*
X308600Y417401D01*
X308900Y418901D01*
Y419801D02*Y418901D01*
Y419801D02*X308600Y421301D01*
X308000Y422201D01*
X307100Y422501D01*
X306500D02*X307100D01*
X311000Y421301D02*Y421001D01*
Y421301D02*X311300Y421901D01*
X311600Y422201D01*
X312200Y422501D01*
X313400D01*
X314000Y422201D01*
X314300Y421901D01*
X314600Y421301D01*
Y420701D01*
X314300Y420101D01*
X313700Y419201D01*
X310700Y416201D01*
X314900D01*
X316700Y421301D02*X317300Y421601D01*
X318200Y422501D01*
Y416201D01*
X321800Y422501D02*Y418001D01*
X322100Y417101D01*
X322700Y416501D01*
X323600Y416201D01*
X324200D01*
X325100Y416501D01*
X325700Y417101D01*
X326000Y418001D01*
Y422501D02*Y418001D01*
X329900Y422501D02*Y416201D01*
X327800Y422501D02*X332000D01*
X338300Y421001D02*X338000Y421601D01*
X337400Y422201D01*
X336800Y422501D01*
X335600D02*X336800D01*
X335600D02*X335000Y422201D01*
X334400Y421601D01*
X334100Y421001D01*
X333800Y420101D01*
Y418601D01*
X334100Y417701D01*
X334400Y417101D01*
X335000Y416501D01*
X335600Y416201D01*
X336800D01*
X337400Y416501D01*
X338000Y417101D01*
X338300Y417701D01*
X202400Y437501D02*X200000Y431201D01*
X202400Y437501D02*X204800Y431201D01*
X200900Y433301D02*X203900D01*
X206600Y435401D02*Y432401D01*
X206900Y431501D01*
X207500Y431201D01*
X208400D01*
X209000Y431501D01*
X209900Y432401D01*
Y435401D02*Y431201D01*
X212600Y437501D02*Y432401D01*
X212900Y431501D01*
X213500Y431201D01*
X214100D01*
X211700Y435401D02*X213800D01*
X215900Y437501D02*Y431201D01*
Y434201D02*X216800Y435101D01*
X217400Y435401D01*
X218300D01*
X218900Y435101D01*
X219200Y434201D01*
Y431201D01*
X222500Y435401D02*X221900Y435101D01*
X221300Y434501D01*
X221000Y433601D01*
Y433001D01*
X221300Y432101D01*
X221900Y431501D01*
X222500Y431201D01*
X223400D01*
X224000Y431501D01*
X224600Y432101D01*
X224900Y433001D01*
Y433601D02*Y433001D01*
Y433601D02*X224600Y434501D01*
X224000Y435101D01*
X223400Y435401D01*
X222500D02*X223400D01*
X226700D02*Y431201D01*
Y433601D02*X227000Y434501D01*
X227600Y435101D01*
X228200Y435401D01*
X229100D01*
X231200D02*X230900Y435101D01*
X231200Y434801D01*
X231500Y435101D01*
X231200Y435401D01*
Y431801D02*X230900Y431501D01*
X231200Y431201D01*
X231500Y431501D01*
X231200Y431801D01*
X235100Y437501D02*Y431201D01*
Y437501D02*X237800D01*
X238700Y437201D01*
X239000Y436901D01*
X239300Y436301D01*
Y435701D01*
X239000Y435101D01*
X238700Y434801D01*
X237800Y434501D01*
X235100D02*X237800D01*
X238700Y434201D01*
X239000Y433901D01*
X239300Y433301D01*
Y432401D01*
X239000Y431801D01*
X238700Y431501D01*
X237800Y431201D01*
X235100D02*X237800D01*
X241100Y433601D02*X244700D01*
Y434201D02*Y433601D01*
Y434201D02*X244400Y434801D01*
X244100Y435101D01*
X243500Y435401D01*
X242600D02*X243500D01*
X242600D02*X242000Y435101D01*
X241400Y434501D01*
X241100Y433601D01*
Y433001D01*
X241400Y432101D01*
X242000Y431501D01*
X242600Y431201D01*
X243500D01*
X244100Y431501D01*
X244700Y432101D01*
X246500Y435401D02*Y431201D01*
Y433601D02*X246800Y434501D01*
X247400Y435101D01*
X248000Y435401D01*
X248900D01*
X251600Y437501D02*Y432401D01*
X251900Y431501D01*
X252500Y431201D01*
X253100D01*
X250700Y435401D02*X252800D01*
X258800Y437501D02*Y431201D01*
X256700Y437501D02*X260900D01*
X262700D02*X263000Y437201D01*
X263300Y437501D01*
X263000Y437801D01*
X262700Y437501D01*
X263000Y435401D02*Y431201D01*
X265100Y435401D02*Y431201D01*
Y434201D02*X266000Y435101D01*
X266600Y435401D01*
X267500D01*
X268100Y435101D01*
X268400Y434201D01*
Y431201D01*
Y434201D02*X269300Y435101D01*
X269900Y435401D01*
X270800D01*
X271400Y435101D01*
X271700Y434201D01*
Y431201D01*
X273500Y435401D02*Y431201D01*
Y434201D02*X274400Y435101D01*
X275000Y435401D01*
X275900D01*
X276500Y435101D01*
X276800Y434201D01*
Y431201D01*
Y434201D02*X277700Y435101D01*
X278300Y435401D01*
X279200D01*
X279800Y435101D01*
X280100Y434201D01*
Y431201D01*
X281900Y433601D02*X285500D01*
Y434201D02*Y433601D01*
Y434201D02*X285200Y434801D01*
X284900Y435101D01*
X284300Y435401D01*
X283400D02*X284300D01*
X283400D02*X282800Y435101D01*
X282200Y434501D01*
X281900Y433601D01*
Y433001D01*
X282200Y432101D01*
X282800Y431501D01*
X283400Y431201D01*
X284300D01*
X284900Y431501D01*
X285500Y432101D01*
X287300Y435401D02*Y431201D01*
Y433601D02*X287600Y434501D01*
X288200Y435101D01*
X288800Y435401D01*
X289700D01*
X291500D02*Y431201D01*
Y434201D02*X292400Y435101D01*
X293000Y435401D01*
X293900D01*
X294500Y435101D01*
X294800Y434201D01*
Y431201D01*
Y434201D02*X295700Y435101D01*
X296300Y435401D01*
X297200D01*
X297800Y435101D01*
X298100Y434201D01*
Y431201D01*
X303500Y435401D02*Y431201D01*
Y434501D02*X302900Y435101D01*
X302300Y435401D01*
X301400D02*X302300D01*
X301400D02*X300800Y435101D01*
X300200Y434501D01*
X299900Y433601D01*
Y433001D01*
X300200Y432101D01*
X300800Y431501D01*
X301400Y431201D01*
X302300D01*
X302900Y431501D01*
X303500Y432101D01*
X305300Y435401D02*Y431201D01*
Y434201D02*X306200Y435101D01*
X306800Y435401D01*
X307700D01*
X308300Y435101D01*
X308600Y434201D01*
Y431201D01*
X202100Y452501D02*Y446201D01*
X200000Y452501D02*X204200D01*
X206000D02*X206300Y452201D01*
X206600Y452501D01*
X206300Y452801D01*
X206000Y452501D01*
X206300Y450401D02*Y446201D01*
X209300Y452501D02*Y447401D01*
X209600Y446501D01*
X210200Y446201D01*
X210800D01*
X208400Y450401D02*X210500D01*
X212600Y452501D02*Y446201D01*
X214400Y448601D02*X218000D01*
Y449201D02*Y448601D01*
Y449201D02*X217700Y449801D01*
X217400Y450101D01*
X216800Y450401D01*
X215900D02*X216800D01*
X215900D02*X215300Y450101D01*
X214700Y449501D01*
X214400Y448601D01*
Y448001D01*
X214700Y447101D01*
X215300Y446501D01*
X215900Y446201D01*
X216800D01*
X217400Y446501D01*
X218000Y447101D01*
X220100Y450401D02*X219800Y450101D01*
X220100Y449801D01*
X220400Y450101D01*
X220100Y450401D01*
Y446801D02*X219800Y446501D01*
X220100Y446201D01*
X220400Y446501D01*
X220100Y446801D01*
X224600Y452501D02*X227900D01*
X226100Y450101D01*
X227000D01*
X227600Y449801D01*
X227900Y449501D01*
X228200Y448601D01*
Y448001D01*
X227900Y447101D01*
X227300Y446501D01*
X226400Y446201D01*
X225500D02*X226400D01*
X225500D02*X224600Y446501D01*
X224300Y446801D01*
X224000Y447401D01*
X230000Y451301D02*X230600Y451601D01*
X231500Y452501D01*
Y446201D01*
X233600Y446801D02*X233300Y446501D01*
X233600Y446201D01*
X233900Y446501D01*
X233600Y446801D01*
X237500Y452501D02*X236600Y452201D01*
X236000Y451301D01*
X235700Y449801D01*
Y448901D01*
X236000Y447401D01*
X236600Y446501D01*
X237500Y446201D01*
X238100D01*
X239000Y446501D01*
X239600Y447401D01*
X239900Y448901D01*
Y449801D02*Y448901D01*
Y449801D02*X239600Y451301D01*
X239000Y452201D01*
X238100Y452501D01*
X237500D02*X238100D01*
X243500D02*X242600Y452201D01*
X242000Y451301D01*
X241700Y449801D01*
Y448901D01*
X242000Y447401D01*
X242600Y446501D01*
X243500Y446201D01*
X244100D01*
X245000Y446501D01*
X245600Y447401D01*
X245900Y448901D01*
Y449801D02*Y448901D01*
Y449801D02*X245600Y451301D01*
X245000Y452201D01*
X244100Y452501D01*
X243500D02*X244100D01*
X250700D02*X247700Y448301D01*
X252200D01*
X250700Y452501D02*Y446201D01*
X254300Y446801D02*X254000Y446501D01*
X254300Y446201D01*
X254600Y446501D01*
X254300Y446801D01*
X258200Y452501D02*X257300Y452201D01*
X256700Y451301D01*
X256400Y449801D01*
Y448901D01*
X256700Y447401D01*
X257300Y446501D01*
X258200Y446201D01*
X258800D01*
X259700Y446501D01*
X260300Y447401D01*
X260600Y448901D01*
Y449801D02*Y448901D01*
Y449801D02*X260300Y451301D01*
X259700Y452201D01*
X258800Y452501D01*
X258200D02*X258800D01*
X264200D02*X263300Y452201D01*
X262700Y451301D01*
X262400Y449801D01*
Y448901D01*
X262700Y447401D01*
X263300Y446501D01*
X264200Y446201D01*
X264800D01*
X265700Y446501D01*
X266300Y447401D01*
X266600Y448901D01*
Y449801D02*Y448901D01*
Y449801D02*X266300Y451301D01*
X265700Y452201D01*
X264800Y452501D01*
X264200D02*X264800D01*
X268700Y446801D02*X268400Y446501D01*
X268700Y446201D01*
X269000Y446501D01*
X268700Y446801D01*
X272600Y452501D02*X271700Y452201D01*
X271100Y451301D01*
X270800Y449801D01*
Y448901D01*
X271100Y447401D01*
X271700Y446501D01*
X272600Y446201D01*
X273200D01*
X274100Y446501D01*
X274700Y447401D01*
X275000Y448901D01*
Y449801D02*Y448901D01*
Y449801D02*X274700Y451301D01*
X274100Y452201D01*
X273200Y452501D01*
X272600D02*X273200D01*
X276800Y451301D02*X277400Y451601D01*
X278300Y452501D01*
Y446201D01*
X280400Y446801D02*X280100Y446501D01*
X280400Y446201D01*
X280700Y446501D01*
X280400Y446801D01*
X284300Y452501D02*X283400Y452201D01*
X282800Y451301D01*
X282500Y449801D01*
Y448901D01*
X282800Y447401D01*
X283400Y446501D01*
X284300Y446201D01*
X284900D01*
X285800Y446501D01*
X286400Y447401D01*
X286700Y448901D01*
Y449801D02*Y448901D01*
Y449801D02*X286400Y451301D01*
X285800Y452201D01*
X284900Y452501D01*
X284300D02*X284900D01*
X288500Y451301D02*X289100Y451601D01*
X290000Y452501D01*
Y446201D01*
X292100Y446801D02*X291800Y446501D01*
X292100Y446201D01*
X292400Y446501D01*
X292100Y446801D01*
X294200Y450401D02*Y444101D01*
Y449501D02*X294800Y450101D01*
X295400Y450401D01*
X296300D01*
X296900Y450101D01*
X297500Y449501D01*
X297800Y448601D01*
Y448001D01*
X297500Y447101D01*
X296900Y446501D01*
X296300Y446201D01*
X295400D02*X296300D01*
X295400D02*X294800Y446501D01*
X294200Y447101D01*
X303200Y449501D02*X302600Y450101D01*
X302000Y450401D01*
X301100D02*X302000D01*
X301100D02*X300500Y450101D01*
X299900Y449501D01*
X299600Y448601D01*
Y448001D01*
X299900Y447101D01*
X300500Y446501D01*
X301100Y446201D01*
X302000D01*
X302600Y446501D01*
X303200Y447101D01*
X305000Y452501D02*Y446201D01*
Y449501D02*X305600Y450101D01*
X306200Y450401D01*
X307100D01*
X307700Y450101D01*
X308300Y449501D01*
X308600Y448601D01*
Y448001D01*
X308300Y447101D01*
X307700Y446501D01*
X307100Y446201D01*
X306200D02*X307100D01*
X306200D02*X305600Y446501D01*
X305000Y447101D01*
X312200Y448901D02*X317600D01*
X321200Y452501D02*Y446201D01*
Y452501D02*X325100D01*
X321200Y449501D02*X323600D01*
X330500Y450401D02*Y446201D01*
Y449501D02*X329900Y450101D01*
X329300Y450401D01*
X328400D02*X329300D01*
X328400D02*X327800Y450101D01*
X327200Y449501D01*
X326900Y448601D01*
Y448001D01*
X327200Y447101D01*
X327800Y446501D01*
X328400Y446201D01*
X329300D01*
X329900Y446501D01*
X330500Y447101D01*
X332300Y452501D02*Y446201D01*
Y449501D02*X332900Y450101D01*
X333500Y450401D01*
X334400D01*
X335000Y450101D01*
X335600Y449501D01*
X335900Y448601D01*
Y448001D01*
X335600Y447101D01*
X335000Y446501D01*
X334400Y446201D01*
X333500D02*X334400D01*
X333500D02*X332900Y446501D01*
X332300Y447101D01*
X337700Y450401D02*Y446201D01*
Y448601D02*X338000Y449501D01*
X338600Y450101D01*
X339200Y450401D01*
X340100D01*
X341900Y452501D02*X342200Y452201D01*
X342500Y452501D01*
X342200Y452801D01*
X341900Y452501D01*
X342200Y450401D02*Y446201D01*
X347900Y449501D02*X347300Y450101D01*
X346700Y450401D01*
X345800D02*X346700D01*
X345800D02*X345200Y450101D01*
X344600Y449501D01*
X344300Y448601D01*
Y448001D01*
X344600Y447101D01*
X345200Y446501D01*
X345800Y446201D01*
X346700D01*
X347300Y446501D01*
X347900Y447101D01*
X353300Y450401D02*Y446201D01*
Y449501D02*X352700Y450101D01*
X352100Y450401D01*
X351200D02*X352100D01*
X351200D02*X350600Y450101D01*
X350000Y449501D01*
X349700Y448601D01*
Y448001D01*
X350000Y447101D01*
X350600Y446501D01*
X351200Y446201D01*
X352100D01*
X352700Y446501D01*
X353300Y447101D01*
X356000Y452501D02*Y447401D01*
X356300Y446501D01*
X356900Y446201D01*
X357500D01*
X355100Y450401D02*X357200D01*
X359300Y452501D02*X359600Y452201D01*
X359900Y452501D01*
X359600Y452801D01*
X359300Y452501D01*
X359600Y450401D02*Y446201D01*
X363200Y450401D02*X362600Y450101D01*
X362000Y449501D01*
X361700Y448601D01*
Y448001D01*
X362000Y447101D01*
X362600Y446501D01*
X363200Y446201D01*
X364100D01*
X364700Y446501D01*
X365300Y447101D01*
X365600Y448001D01*
Y448601D02*Y448001D01*
Y448601D02*X365300Y449501D01*
X364700Y450101D01*
X364100Y450401D01*
X363200D02*X364100D01*
X367400D02*Y446201D01*
Y449201D02*X368300Y450101D01*
X368900Y450401D01*
X369800D01*
X370400Y450101D01*
X370700Y449201D01*
Y446201D01*
X374300Y452501D02*Y446201D01*
Y452501D02*X376400D01*
X377300Y452201D01*
X377900Y451601D01*
X378200Y451001D01*
X378500Y450101D01*
Y448601D01*
X378200Y447701D01*
X377900Y447101D01*
X377300Y446501D01*
X376400Y446201D01*
X374300D02*X376400D01*
X380300Y450401D02*Y446201D01*
Y448601D02*X380600Y449501D01*
X381200Y450101D01*
X381800Y450401D01*
X382700D01*
X388100D02*Y446201D01*
Y449501D02*X387500Y450101D01*
X386900Y450401D01*
X386000D02*X386900D01*
X386000D02*X385400Y450101D01*
X384800Y449501D01*
X384500Y448601D01*
Y448001D01*
X384800Y447101D01*
X385400Y446501D01*
X386000Y446201D01*
X386900D01*
X387500Y446501D01*
X388100Y447101D01*
X389900Y450401D02*X391100Y446201D01*
X392300Y450401D02*X391100Y446201D01*
X392300Y450401D02*X393500Y446201D01*
X394700Y450401D02*X393500Y446201D01*
X396500Y452501D02*X396800Y452201D01*
X397100Y452501D01*
X396800Y452801D01*
X396500Y452501D01*
X396800Y450401D02*Y446201D01*
X398900Y450401D02*Y446201D01*
Y449201D02*X399800Y450101D01*
X400400Y450401D01*
X401300D01*
X401900Y450101D01*
X402200Y449201D01*
Y446201D01*
X407600Y450401D02*Y445601D01*
X407300Y444701D01*
X407000Y444401D01*
X406400Y444101D01*
X405500D02*X406400D01*
X405500D02*X404900Y444401D01*
X407600Y449501D02*X407000Y450101D01*
X406400Y450401D01*
X405500D02*X406400D01*
X405500D02*X404900Y450101D01*
X404300Y449501D01*
X404000Y448601D01*
Y448001D01*
X404300Y447101D01*
X404900Y446501D01*
X405500Y446201D01*
X406400D01*
X407000Y446501D01*
X407600Y447101D01*
M02*
