G04 start of page 3 for group 1 idx 1 *
G04 Title: 31.001.00.01.01.pcb, bottom *
G04 Creator: pcb 4.2.2 *
G04 CreationDate: Sun Jan  3 11:16:11 2021 UTC *
G04 For: bert *
G04 Format: Gerber/RS-274X *
G04 PCB-Dimensions (mil): 3937.01 5905.51 *
G04 PCB-Coordinate-Origin: lower left *
%MOIN*%
%FSLAX25Y25*%
%LNGBL*%
%ADD21C,0.1102*%
%ADD20C,0.1457*%
%ADD19C,0.4331*%
%ADD18C,0.2559*%
%ADD17C,0.1968*%
%ADD16C,0.0001*%
G54D16*G36*
X138767Y551181D02*X238189D01*
Y47244D01*
X138767D01*
Y129487D01*
X138780Y129486D01*
X140079Y129589D01*
X141347Y129893D01*
X142552Y130392D01*
X143663Y131073D01*
X144655Y131920D01*
X145502Y132911D01*
X146183Y134023D01*
X146682Y135228D01*
X146986Y136495D01*
X147063Y137795D01*
X146986Y139095D01*
X146682Y140363D01*
X146183Y141568D01*
X145502Y142679D01*
X144655Y143671D01*
X143663Y144517D01*
X142552Y145199D01*
X141347Y145698D01*
X140079Y146002D01*
X138780Y146104D01*
X138767Y146103D01*
Y452322D01*
X138780Y452321D01*
X140079Y452423D01*
X141347Y452728D01*
X142552Y453227D01*
X143663Y453908D01*
X144655Y454755D01*
X145502Y455746D01*
X146183Y456858D01*
X146682Y458062D01*
X146986Y459330D01*
X147063Y460630D01*
X146986Y461930D01*
X146682Y463198D01*
X146183Y464402D01*
X145502Y465514D01*
X144655Y466505D01*
X143663Y467352D01*
X142552Y468033D01*
X141347Y468532D01*
X140079Y468837D01*
X138780Y468939D01*
X138767Y468938D01*
Y551181D01*
G37*
G36*
X99375D02*X138767D01*
Y468938D01*
X137480Y468837D01*
X136212Y468532D01*
X135007Y468033D01*
X133896Y467352D01*
X132904Y466505D01*
X132057Y465514D01*
X131376Y464402D01*
X130877Y463198D01*
X130573Y461930D01*
X130470Y460630D01*
X130573Y459330D01*
X130877Y458062D01*
X131376Y456858D01*
X132057Y455746D01*
X132904Y454755D01*
X133896Y453908D01*
X135007Y453227D01*
X136212Y452728D01*
X137480Y452423D01*
X138767Y452322D01*
Y146103D01*
X137480Y146002D01*
X136212Y145698D01*
X135007Y145199D01*
X133896Y144517D01*
X132904Y143671D01*
X132057Y142679D01*
X131376Y141568D01*
X130877Y140363D01*
X130573Y139095D01*
X130470Y137795D01*
X130573Y136495D01*
X130877Y135228D01*
X131376Y134023D01*
X132057Y132911D01*
X132904Y131920D01*
X133896Y131073D01*
X135007Y130392D01*
X136212Y129893D01*
X137480Y129589D01*
X138767Y129487D01*
Y47244D01*
X99375D01*
Y276491D01*
X99409Y276489D01*
X102964Y276768D01*
X106432Y277601D01*
X109726Y278965D01*
X112766Y280829D01*
X115478Y283144D01*
X117793Y285856D01*
X119657Y288896D01*
X121021Y292191D01*
X121854Y295658D01*
X122063Y299213D01*
X121854Y302767D01*
X121021Y306235D01*
X119657Y309529D01*
X117793Y312569D01*
X115478Y315281D01*
X112766Y317597D01*
X109726Y319460D01*
X106432Y320824D01*
X102964Y321657D01*
X99409Y321936D01*
X99375Y321934D01*
Y394602D01*
X99409Y394599D01*
X102964Y394879D01*
X106432Y395711D01*
X109726Y397076D01*
X112766Y398939D01*
X115478Y401255D01*
X117793Y403966D01*
X119657Y407006D01*
X121021Y410301D01*
X121854Y413768D01*
X122063Y417323D01*
X121854Y420878D01*
X121021Y424345D01*
X119657Y427639D01*
X117793Y430680D01*
X115478Y433391D01*
X112766Y435707D01*
X109726Y437570D01*
X106432Y438935D01*
X102964Y439767D01*
X99409Y440047D01*
X99375Y440044D01*
Y551181D01*
G37*
G36*
X39370D02*X99375D01*
Y440044D01*
X95855Y439767D01*
X92387Y438935D01*
X89093Y437570D01*
X86053Y435707D01*
X83341Y433391D01*
X81025Y430680D01*
X79162Y427639D01*
X77798Y424345D01*
X76965Y420878D01*
X76686Y417323D01*
X76965Y413768D01*
X77798Y410301D01*
X79162Y407006D01*
X81025Y403966D01*
X83341Y401255D01*
X86053Y398939D01*
X89093Y397076D01*
X92387Y395711D01*
X95855Y394879D01*
X99375Y394602D01*
Y321934D01*
X95855Y321657D01*
X92387Y320824D01*
X89093Y319460D01*
X86053Y317597D01*
X83341Y315281D01*
X81025Y312569D01*
X79162Y309529D01*
X77798Y306235D01*
X76965Y302767D01*
X76686Y299213D01*
X76965Y295658D01*
X77798Y292191D01*
X79162Y288896D01*
X81025Y285856D01*
X83341Y283144D01*
X86053Y280829D01*
X89093Y278965D01*
X92387Y277601D01*
X95855Y276768D01*
X99375Y276491D01*
Y47244D01*
X39370D01*
Y551181D01*
G37*
G54D17*X59055Y59055D03*
G54D18*X99409Y299213D03*
Y417323D03*
G54D17*X59055Y539370D03*
X218504D03*
Y59055D03*
G54D19*X99409Y299213D03*
Y417323D03*
G54D20*G54D21*G54D18*G54D20*G54D21*M02*
