G04 start of page 7 for group -4063 idx -4063 *
G04 Title: 31.003.00.01.01.pcb, componentmask *
G04 Creator: pcb 4.2.2 *
G04 CreationDate: Sun Jan  3 11:16:11 2021 UTC *
G04 For: bert *
G04 Format: Gerber/RS-274X *
G04 PCB-Dimensions (mil): 7874.02 5511.81 *
G04 PCB-Coordinate-Origin: lower left *
%MOIN*%
%FSLAX25Y25*%
%LNGTS*%
%ADD74C,0.1160*%
%ADD73C,0.1000*%
%ADD72C,0.2760*%
%ADD71C,0.0740*%
%ADD70C,0.0660*%
%ADD69C,0.0680*%
%ADD68C,0.0610*%
%ADD67C,0.0780*%
%ADD66C,0.0710*%
%ADD65C,0.2820*%
%ADD64C,0.1460*%
%ADD63C,0.0001*%
G54D63*G36*
X261700Y206981D02*Y200381D01*
X268300D01*
Y206981D01*
X261700D01*
G37*
G54D64*X17500Y186181D03*
G54D65*X315000D03*
G54D66*X175000Y176181D03*
X100000D03*
G54D67*X77815Y196338D03*
G54D63*G36*
X446950Y193167D02*Y187067D01*
X453050D01*
Y193167D01*
X446950D01*
G37*
G54D68*X450000Y182245D03*
G54D63*G36*
X561600Y189581D02*Y182781D01*
X568400D01*
Y189581D01*
X561600D01*
G37*
G54D69*X525000Y186181D03*
G54D63*G36*
X361950Y185295D02*Y179195D01*
X368050D01*
Y185295D01*
X361950D01*
G37*
G54D68*X365000Y190117D03*
G54D70*X37500Y203681D03*
G54D63*G36*
X251300Y267381D02*Y259981D01*
X258700D01*
Y267381D01*
X251300D01*
G37*
G54D71*X255000Y273681D03*
Y283681D03*
G54D63*G36*
X259200Y324639D02*Y318039D01*
X265800D01*
Y324639D01*
X259200D01*
G37*
G54D70*X262500Y341023D03*
G54D63*G36*
X259200Y372139D02*Y365539D01*
X265800D01*
Y372139D01*
X259200D01*
G37*
G54D70*X262500Y388523D03*
G54D63*G36*
X66700Y236981D02*Y230381D01*
X73300D01*
Y236981D01*
X66700D01*
G37*
G36*
X73915Y219923D02*Y212123D01*
X81715D01*
Y219923D01*
X73915D01*
G37*
G36*
X66700Y311981D02*Y305381D01*
X73300D01*
Y311981D01*
X66700D01*
G37*
G54D70*X37500Y303681D03*
Y293681D03*
Y283681D03*
Y273681D03*
Y263681D03*
Y253681D03*
Y243681D03*
Y233681D03*
Y223681D03*
Y213681D03*
G54D63*G36*
X91700Y276981D02*Y270381D01*
X98300D01*
Y276981D01*
X91700D01*
G37*
G36*
Y266981D02*Y260381D01*
X98300D01*
Y266981D01*
X91700D01*
G37*
G54D70*X95000Y253681D03*
Y243681D03*
Y233681D03*
X70000Y273681D03*
G54D72*X162500D03*
G54D70*X125000Y233681D03*
Y243681D03*
Y253681D03*
Y263681D03*
G54D67*X117185Y206181D03*
G54D70*X265000Y243681D03*
G54D63*G36*
X291687Y239731D02*Y232631D01*
X298787D01*
Y239731D01*
X291687D01*
G37*
G36*
X408950Y217468D02*Y210368D01*
X416050D01*
Y217468D01*
X408950D01*
G37*
G36*
X483950D02*Y210368D01*
X491050D01*
Y217468D01*
X483950D01*
G37*
G36*
X521600Y229581D02*Y222781D01*
X528400D01*
Y229581D01*
X521600D01*
G37*
G54D69*X525000Y206181D03*
X565000Y226181D03*
G54D63*G36*
X561600Y209581D02*Y202781D01*
X568400D01*
Y209581D01*
X561600D01*
G37*
G54D66*X324763Y236181D03*
G54D73*X361000Y274181D03*
G54D66*X412500Y243444D03*
G54D70*X447500Y308681D03*
X427500D03*
X407500D03*
X387500D03*
X367500D03*
G54D63*G36*
X321213Y307231D02*Y300131D01*
X328313D01*
Y307231D01*
X321213D01*
G37*
G54D66*X295237Y303681D03*
G54D70*X552500Y308681D03*
X532500D03*
X512500D03*
X492500D03*
X472500D03*
G54D73*X558000Y274181D03*
G54D66*X487500Y243444D03*
G54D63*G36*
X521600Y249581D02*Y242781D01*
X528400D01*
Y249581D01*
X521600D01*
G37*
G54D69*X565000Y246181D03*
G54D73*X558000Y520181D03*
G54D70*X532500Y486181D03*
X552500D03*
X447500D03*
X472500D03*
X492500D03*
X512500D03*
G54D63*G36*
X599445Y505869D02*Y498069D01*
X607245D01*
Y505869D01*
X599445D01*
G37*
G54D67*X593503Y492127D03*
X603345Y482284D03*
X593503Y472442D03*
G54D74*X613188Y521654D03*
G54D67*X603345Y462599D03*
X593503Y452756D03*
Y433071D03*
Y413386D03*
X603345Y442914D03*
Y423229D03*
Y403544D03*
Y383859D03*
Y364174D03*
X593503Y393701D03*
Y374016D03*
Y354332D03*
X603345Y344489D03*
Y324804D03*
Y305119D03*
Y285434D03*
X593503Y334647D03*
Y314962D03*
Y295276D03*
Y275591D03*
X603345Y265749D03*
Y246064D03*
Y226379D03*
Y206694D03*
G54D74*X613188Y187008D03*
G54D67*X593503Y255906D03*
Y236221D03*
Y216536D03*
G54D63*G36*
X321213Y409731D02*Y402631D01*
X328313D01*
Y409731D01*
X321213D01*
G37*
G54D66*X295237Y406181D03*
G54D73*X361000Y520181D03*
G54D63*G36*
X364200Y489481D02*Y482881D01*
X370800D01*
Y489481D01*
X364200D01*
G37*
G54D70*X387500Y486181D03*
X407500D03*
X427500D03*
G54D64*X315000Y521181D03*
G54D63*G36*
X321213Y477231D02*Y470131D01*
X328313D01*
Y477231D01*
X321213D01*
G37*
G54D66*X295237Y473681D03*
X175000Y531181D03*
G54D63*G36*
X251300Y429881D02*Y422481D01*
X258700D01*
Y429881D01*
X251300D01*
G37*
G54D71*X255000Y436181D03*
Y446181D03*
G54D63*G36*
X266700Y451981D02*Y445381D01*
X273300D01*
Y451981D01*
X266700D01*
G37*
G54D70*X270000Y488681D03*
G54D72*X162500Y436181D03*
G54D63*G36*
X76700Y369481D02*Y362881D01*
X83300D01*
Y369481D01*
X76700D01*
G37*
G54D70*X80000Y406181D03*
G54D63*G36*
X81700Y424481D02*Y417881D01*
X88300D01*
Y424481D01*
X81700D01*
G37*
G36*
X91700Y374481D02*Y367881D01*
X98300D01*
Y374481D01*
X91700D01*
G37*
G54D70*X95000Y361181D03*
G54D63*G36*
X121700Y294481D02*Y287881D01*
X128300D01*
Y294481D01*
X121700D01*
G37*
G54D70*X125000Y331181D03*
G54D63*G36*
X81700Y301981D02*Y295381D01*
X88300D01*
Y301981D01*
X81700D01*
G37*
G54D70*X95000Y313681D03*
X125000Y341181D03*
Y351181D03*
X85000Y338681D03*
X95000Y351181D03*
Y341181D03*
X125000Y421181D03*
Y361181D03*
Y371181D03*
X70000Y348681D03*
G54D64*X17500Y521181D03*
G54D66*X100000Y531181D03*
G54D63*G36*
X34200Y506981D02*Y500381D01*
X40800D01*
Y506981D01*
X34200D01*
G37*
G54D70*X37500Y493681D03*
Y483681D03*
Y473681D03*
Y463681D03*
Y453681D03*
Y443681D03*
Y433681D03*
Y423681D03*
Y413681D03*
Y403681D03*
Y393681D03*
Y383681D03*
Y373681D03*
Y363681D03*
Y353681D03*
Y343681D03*
Y333681D03*
Y323681D03*
Y313681D03*
M02*
