M48
INCH
T40C0.035
T39C0.046
T38C0.028
T37C0.040
T36C0.042
%
T38
X005500Y015750
X005500Y014750
X005500Y013750
X005500Y012750
X005500Y011750
X005500Y010750
X005500Y009750
X005500Y008750
X008500Y015750
X008500Y014750
X008500Y013750
X008500Y012750
X008500Y011750
X008500Y010750
X008500Y009750
X008500Y008750
T40
X009750Y013750
X012000Y021750
X015000Y018500
X015000Y016750
X015250Y032750
X015250Y030750
X015250Y024750
X015250Y022750
T37
X003500Y007000
X004000Y012750
X004000Y008750
X004250Y035250
X004250Y033750
X004250Y032250
X004250Y023750
X004250Y022250
X004250Y020750
X005000Y039250
X005000Y005000
X006250Y035250
X006250Y033750
X006250Y032250
X006250Y023750
X006250Y022250
X006250Y020750
X007500Y007000
X014000Y039250
X014000Y005000
T36
X002500Y037000
X002500Y036000
X002500Y035000
X002500Y034000
X002500Y033000
X002500Y032000
X002500Y031000
X002500Y030000
X002500Y029000
X002500Y028000
X002500Y027000
X002500Y026000
X002500Y025000
X002500Y024000
X002500Y023000
X002500Y022000
X002500Y021000
X002500Y020000
X002500Y019000
X002500Y018000
X002500Y017000
X002500Y016000
X002500Y015000
X002500Y014000
X002500Y013000
X002500Y012000
X002500Y011000
X002500Y010000
X002500Y009000
X002500Y008000
X002500Y007000
T39
X010000Y010250
X014000Y037750
X014000Y036750
X014000Y035750
X014000Y034750
X014000Y033750
X014000Y032750
X014000Y031750
X014000Y030750
X014000Y029750
X014000Y028750
X014000Y027750
X014000Y026750
X014000Y025750
X014000Y024750
X014000Y023750
X014000Y022750
X014000Y021750
X014000Y020750
X014000Y019750
X014000Y018750
X014000Y017750
X014000Y016750
X014000Y015750
X014000Y014750
X014000Y013750
X014000Y012750
X014000Y011750
X014000Y010750
X014000Y009750
X014000Y008750
X014000Y007750
X014000Y006750
M30
