G04 start of page 3 for group 1 idx 1 *
G04 Title: 31.002.00.01.01, solder *
G04 Creator: pcb 4.2.2 *
G04 CreationDate: Sun Jan  3 11:16:11 2021 UTC *
G04 For: bert *
G04 Format: Gerber/RS-274X *
G04 PCB-Dimensions (mil): 2200.00 4200.00 *
G04 PCB-Coordinate-Origin: lower left *
%MOIN*%
%FSLAX25Y25*%
%LNGBL*%
%ADD34C,0.0460*%
%ADD33C,0.0280*%
%ADD32C,0.1457*%
%ADD31C,0.0400*%
%ADD30C,0.0420*%
%ADD29C,0.0350*%
%ADD28C,0.0750*%
%ADD27C,0.0650*%
%ADD26C,0.0600*%
%ADD25C,0.0720*%
%ADD24C,0.0250*%
%ADD23C,0.0001*%
G54D23*G36*
X145868Y75250D02*X167750D01*
Y63432D01*
X166568Y62250D01*
X145868D01*
Y75250D01*
G37*
G36*
Y155250D02*X167750D01*
Y79750D01*
X145868D01*
Y155250D01*
G37*
G36*
X149994Y224380D02*X150142Y224254D01*
X150250Y224188D01*
Y200932D01*
X149994Y200676D01*
Y224380D01*
G37*
G36*
Y235250D02*X167750D01*
Y159750D01*
X149994D01*
Y163488D01*
X150000Y163488D01*
X150628Y163537D01*
X151240Y163684D01*
X151822Y163925D01*
X152358Y164254D01*
X152837Y164663D01*
X153246Y165142D01*
X153575Y165678D01*
X153816Y166260D01*
X153963Y166872D01*
X154000Y167500D01*
X153963Y168128D01*
X153816Y168740D01*
X153575Y169322D01*
X153246Y169858D01*
X152837Y170337D01*
X152358Y170746D01*
X152250Y170812D01*
Y181688D01*
X152358Y181754D01*
X152837Y182163D01*
X153246Y182642D01*
X153575Y183178D01*
X153816Y183760D01*
X153963Y184372D01*
X154000Y185000D01*
X153963Y185628D01*
X153816Y186240D01*
X153575Y186822D01*
X153246Y187358D01*
X152837Y187837D01*
X152358Y188246D01*
X151822Y188575D01*
X151240Y188816D01*
X150628Y188963D01*
X150000Y189012D01*
X149994Y189012D01*
Y195244D01*
X150000Y195243D01*
X150353Y195271D01*
X150353Y195271D01*
X150697Y195354D01*
X151025Y195489D01*
X151327Y195674D01*
X151596Y195904D01*
X151653Y195971D01*
X154029Y198347D01*
X154096Y198404D01*
X154326Y198673D01*
X154326Y198673D01*
X154511Y198975D01*
X154646Y199303D01*
X154729Y199647D01*
X154757Y200000D01*
X154750Y200088D01*
Y224188D01*
X154858Y224254D01*
X155337Y224663D01*
X155746Y225142D01*
X156075Y225678D01*
X156316Y226260D01*
X156463Y226872D01*
X156500Y227500D01*
X156463Y228128D01*
X156316Y228740D01*
X156075Y229322D01*
X155746Y229858D01*
X155337Y230337D01*
X154858Y230746D01*
X154322Y231075D01*
X153740Y231316D01*
X153128Y231463D01*
X152500Y231512D01*
X151872Y231463D01*
X151260Y231316D01*
X150678Y231075D01*
X150142Y230746D01*
X149994Y230620D01*
Y235250D01*
G37*
G36*
Y159750D02*X145868D01*
Y195250D01*
X149912D01*
X149994Y195244D01*
Y189012D01*
X149372Y188963D01*
X148760Y188816D01*
X148178Y188575D01*
X147642Y188246D01*
X147163Y187837D01*
X146754Y187358D01*
X146425Y186822D01*
X146184Y186240D01*
X146037Y185628D01*
X145988Y185000D01*
X146037Y184372D01*
X146184Y183760D01*
X146425Y183178D01*
X146754Y182642D01*
X147163Y182163D01*
X147642Y181754D01*
X147750Y181688D01*
Y170812D01*
X147642Y170746D01*
X147163Y170337D01*
X146754Y169858D01*
X146425Y169322D01*
X146184Y168740D01*
X146037Y168128D01*
X145988Y167500D01*
X146037Y166872D01*
X146184Y166260D01*
X146425Y165678D01*
X146754Y165142D01*
X147163Y164663D01*
X147642Y164254D01*
X148178Y163925D01*
X148760Y163684D01*
X149372Y163537D01*
X149994Y163488D01*
Y159750D01*
G37*
G36*
X145868Y235250D02*X149994D01*
Y230620D01*
X149663Y230337D01*
X149254Y229858D01*
X148925Y229322D01*
X148684Y228740D01*
X148537Y228128D01*
X148488Y227500D01*
X148537Y226872D01*
X148684Y226260D01*
X148925Y225678D01*
X149254Y225142D01*
X149663Y224663D01*
X149994Y224380D01*
Y200676D01*
X149068Y199750D01*
X145868D01*
Y235250D01*
G37*
G36*
Y315250D02*X166568D01*
X167750Y314068D01*
Y239750D01*
X145868D01*
Y275250D01*
X150250D01*
Y250812D01*
X150142Y250746D01*
X149663Y250337D01*
X149254Y249858D01*
X148925Y249322D01*
X148684Y248740D01*
X148537Y248128D01*
X148488Y247500D01*
X148537Y246872D01*
X148684Y246260D01*
X148925Y245678D01*
X149254Y245142D01*
X149663Y244663D01*
X150142Y244254D01*
X150678Y243925D01*
X151260Y243684D01*
X151872Y243537D01*
X152500Y243488D01*
X153128Y243537D01*
X153740Y243684D01*
X154322Y243925D01*
X154858Y244254D01*
X155337Y244663D01*
X155746Y245142D01*
X156075Y245678D01*
X156316Y246260D01*
X156463Y246872D01*
X156500Y247500D01*
X156463Y248128D01*
X156316Y248740D01*
X156075Y249322D01*
X155746Y249858D01*
X155337Y250337D01*
X154858Y250746D01*
X154750Y250812D01*
Y277412D01*
X154757Y277500D01*
X154750Y277588D01*
Y304188D01*
X154858Y304254D01*
X155337Y304663D01*
X155746Y305142D01*
X156075Y305678D01*
X156316Y306260D01*
X156463Y306872D01*
X156500Y307500D01*
X156463Y308128D01*
X156316Y308740D01*
X156075Y309322D01*
X155746Y309858D01*
X155337Y310337D01*
X154858Y310746D01*
X154322Y311075D01*
X153740Y311316D01*
X153128Y311463D01*
X152500Y311512D01*
X151872Y311463D01*
X151260Y311316D01*
X150678Y311075D01*
X150142Y310746D01*
X149663Y310337D01*
X149254Y309858D01*
X148925Y309322D01*
X148684Y308740D01*
X148537Y308128D01*
X148488Y307500D01*
X148537Y306872D01*
X148684Y306260D01*
X148925Y305678D01*
X149254Y305142D01*
X149663Y304663D01*
X150142Y304254D01*
X150250Y304188D01*
Y279750D01*
X145868D01*
Y315250D01*
G37*
G36*
Y400000D02*X185000D01*
Y42500D01*
X145868D01*
Y57750D01*
X167412D01*
X167500Y57743D01*
X167853Y57771D01*
X167853Y57771D01*
X168197Y57854D01*
X168525Y57989D01*
X168827Y58174D01*
X169096Y58404D01*
X169153Y58471D01*
X171529Y60847D01*
X171596Y60904D01*
X171826Y61173D01*
X171826Y61173D01*
X172011Y61475D01*
X172146Y61803D01*
X172229Y62147D01*
X172257Y62500D01*
X172250Y62588D01*
Y77412D01*
X172257Y77500D01*
X172250Y77588D01*
Y157412D01*
X172257Y157500D01*
X172250Y157588D01*
Y237412D01*
X172257Y237500D01*
X172250Y237588D01*
Y314912D01*
X172257Y315000D01*
X172229Y315353D01*
X172146Y315697D01*
X172107Y315793D01*
X172011Y316025D01*
X171896Y316212D01*
X171826Y316327D01*
X171826Y316327D01*
X171596Y316596D01*
X171529Y316653D01*
X169153Y319029D01*
X169096Y319096D01*
X168827Y319326D01*
X168827Y319326D01*
X168712Y319396D01*
X168525Y319511D01*
X168293Y319607D01*
X168197Y319646D01*
X167853Y319729D01*
X167500Y319757D01*
X167412Y319750D01*
X145868D01*
Y355250D01*
X149068D01*
X150250Y354068D01*
Y330812D01*
X150142Y330746D01*
X149663Y330337D01*
X149254Y329858D01*
X148925Y329322D01*
X148684Y328740D01*
X148537Y328128D01*
X148488Y327500D01*
X148537Y326872D01*
X148684Y326260D01*
X148925Y325678D01*
X149254Y325142D01*
X149663Y324663D01*
X150142Y324254D01*
X150678Y323925D01*
X151260Y323684D01*
X151872Y323537D01*
X152500Y323488D01*
X153128Y323537D01*
X153740Y323684D01*
X154322Y323925D01*
X154858Y324254D01*
X155337Y324663D01*
X155746Y325142D01*
X156075Y325678D01*
X156316Y326260D01*
X156463Y326872D01*
X156500Y327500D01*
X156463Y328128D01*
X156316Y328740D01*
X156075Y329322D01*
X155746Y329858D01*
X155337Y330337D01*
X154858Y330746D01*
X154750Y330812D01*
Y354912D01*
X154757Y355000D01*
X154729Y355353D01*
X154646Y355697D01*
X154607Y355793D01*
X154511Y356025D01*
X154396Y356212D01*
X154326Y356327D01*
X154326Y356327D01*
X154096Y356596D01*
X154029Y356653D01*
X151653Y359029D01*
X151596Y359096D01*
X151327Y359326D01*
X151327Y359326D01*
X151212Y359396D01*
X151025Y359511D01*
X150793Y359607D01*
X150697Y359646D01*
X150353Y359729D01*
X150000Y359757D01*
X149912Y359750D01*
X145868D01*
Y400000D01*
G37*
G36*
Y42500D02*X143501D01*
Y47705D01*
X143532Y47722D01*
X143594Y47770D01*
X143648Y47827D01*
X143691Y47893D01*
X143877Y48248D01*
X144025Y48621D01*
X144137Y49006D01*
X144212Y49400D01*
X144250Y49799D01*
Y50201D01*
X144212Y50600D01*
X144137Y50994D01*
X144025Y51379D01*
X143877Y51752D01*
X143695Y52109D01*
X143651Y52175D01*
X143597Y52233D01*
X143534Y52281D01*
X143501Y52300D01*
Y57750D01*
X145868D01*
Y42500D01*
G37*
G36*
X143501D02*X140002D01*
Y45750D01*
X140201D01*
X140600Y45788D01*
X140994Y45863D01*
X141379Y45975D01*
X141752Y46123D01*
X142109Y46305D01*
X142175Y46349D01*
X142233Y46403D01*
X142281Y46466D01*
X142320Y46536D01*
X142346Y46610D01*
X142361Y46688D01*
X142364Y46767D01*
X142354Y46846D01*
X142332Y46922D01*
X142298Y46994D01*
X142253Y47059D01*
X142199Y47117D01*
X142136Y47166D01*
X142067Y47204D01*
X141992Y47231D01*
X141914Y47245D01*
X141835Y47248D01*
X141757Y47238D01*
X141680Y47216D01*
X141609Y47181D01*
X141338Y47038D01*
X141053Y46925D01*
X140759Y46840D01*
X140458Y46782D01*
X140153Y46754D01*
X140002D01*
Y53246D01*
X140153D01*
X140458Y53218D01*
X140759Y53160D01*
X141053Y53075D01*
X141338Y52962D01*
X141611Y52822D01*
X141682Y52788D01*
X141757Y52766D01*
X141835Y52756D01*
X141914Y52758D01*
X141991Y52773D01*
X142065Y52800D01*
X142134Y52837D01*
X142197Y52886D01*
X142250Y52943D01*
X142295Y53008D01*
X142328Y53079D01*
X142350Y53155D01*
X142360Y53233D01*
X142358Y53312D01*
X142343Y53389D01*
X142316Y53463D01*
X142278Y53532D01*
X142230Y53594D01*
X142173Y53648D01*
X142107Y53691D01*
X141752Y53877D01*
X141379Y54025D01*
X140994Y54137D01*
X140600Y54212D01*
X140201Y54250D01*
X140002D01*
Y57750D01*
X143501D01*
Y52300D01*
X143464Y52320D01*
X143390Y52346D01*
X143312Y52361D01*
X143233Y52364D01*
X143154Y52354D01*
X143078Y52332D01*
X143006Y52298D01*
X142941Y52253D01*
X142883Y52199D01*
X142834Y52136D01*
X142796Y52067D01*
X142769Y51992D01*
X142755Y51914D01*
X142752Y51835D01*
X142762Y51757D01*
X142784Y51680D01*
X142819Y51609D01*
X142962Y51338D01*
X143075Y51053D01*
X143160Y50759D01*
X143218Y50458D01*
X143246Y50153D01*
Y49847D01*
X143218Y49542D01*
X143160Y49241D01*
X143075Y48947D01*
X142962Y48662D01*
X142822Y48389D01*
X142788Y48318D01*
X142766Y48243D01*
X142756Y48165D01*
X142758Y48086D01*
X142773Y48009D01*
X142800Y47935D01*
X142837Y47866D01*
X142886Y47803D01*
X142943Y47750D01*
X143008Y47705D01*
X143079Y47672D01*
X143155Y47650D01*
X143233Y47640D01*
X143312Y47642D01*
X143389Y47657D01*
X143463Y47684D01*
X143501Y47705D01*
Y42500D01*
G37*
G36*
X140002D02*X136499D01*
Y47700D01*
X136536Y47680D01*
X136610Y47654D01*
X136688Y47639D01*
X136767Y47636D01*
X136846Y47646D01*
X136922Y47668D01*
X136994Y47702D01*
X137059Y47747D01*
X137117Y47801D01*
X137166Y47864D01*
X137204Y47933D01*
X137231Y48008D01*
X137245Y48086D01*
X137248Y48165D01*
X137238Y48243D01*
X137216Y48320D01*
X137181Y48391D01*
X137038Y48662D01*
X136925Y48947D01*
X136840Y49241D01*
X136782Y49542D01*
X136754Y49847D01*
Y50153D01*
X136782Y50458D01*
X136840Y50759D01*
X136925Y51053D01*
X137038Y51338D01*
X137178Y51611D01*
X137212Y51682D01*
X137234Y51757D01*
X137244Y51835D01*
X137242Y51914D01*
X137227Y51991D01*
X137200Y52065D01*
X137163Y52134D01*
X137114Y52197D01*
X137057Y52250D01*
X136992Y52295D01*
X136921Y52328D01*
X136845Y52350D01*
X136767Y52360D01*
X136688Y52358D01*
X136611Y52343D01*
X136537Y52316D01*
X136499Y52295D01*
Y57750D01*
X140002D01*
Y54250D01*
X139799D01*
X139400Y54212D01*
X139006Y54137D01*
X138621Y54025D01*
X138248Y53877D01*
X137891Y53695D01*
X137825Y53651D01*
X137767Y53597D01*
X137719Y53534D01*
X137680Y53464D01*
X137654Y53390D01*
X137639Y53312D01*
X137636Y53233D01*
X137646Y53154D01*
X137668Y53078D01*
X137702Y53006D01*
X137747Y52941D01*
X137801Y52883D01*
X137864Y52834D01*
X137933Y52796D01*
X138008Y52769D01*
X138086Y52755D01*
X138165Y52752D01*
X138243Y52762D01*
X138320Y52784D01*
X138391Y52819D01*
X138662Y52962D01*
X138947Y53075D01*
X139241Y53160D01*
X139542Y53218D01*
X139847Y53246D01*
X140002D01*
Y46754D01*
X139847D01*
X139542Y46782D01*
X139241Y46840D01*
X138947Y46925D01*
X138662Y47038D01*
X138389Y47178D01*
X138318Y47212D01*
X138243Y47234D01*
X138165Y47244D01*
X138086Y47242D01*
X138009Y47227D01*
X137935Y47200D01*
X137866Y47163D01*
X137803Y47114D01*
X137750Y47057D01*
X137705Y46992D01*
X137672Y46921D01*
X137650Y46845D01*
X137640Y46767D01*
X137642Y46688D01*
X137657Y46611D01*
X137684Y46537D01*
X137722Y46468D01*
X137770Y46406D01*
X137827Y46352D01*
X137893Y46309D01*
X138248Y46123D01*
X138621Y45975D01*
X139006Y45863D01*
X139400Y45788D01*
X139799Y45750D01*
X140002D01*
Y42500D01*
G37*
G36*
X136499D02*X106247D01*
Y75250D01*
X114068D01*
X115250Y74068D01*
Y62588D01*
X115243Y62500D01*
X115271Y62147D01*
Y62147D01*
X115354Y61803D01*
X115489Y61475D01*
X115559Y61361D01*
X115674Y61173D01*
X115674Y61173D01*
X115904Y60904D01*
X115971Y60847D01*
X118347Y58471D01*
X118404Y58404D01*
X118673Y58174D01*
X118673Y58174D01*
X118861Y58059D01*
X118975Y57989D01*
X119303Y57854D01*
X119647Y57771D01*
X119647D01*
X120000Y57743D01*
X120088Y57750D01*
X136499D01*
Y52295D01*
X136468Y52278D01*
X136406Y52230D01*
X136352Y52173D01*
X136309Y52107D01*
X136123Y51752D01*
X135975Y51379D01*
X135863Y50994D01*
X135788Y50600D01*
X135750Y50201D01*
Y49799D01*
X135788Y49400D01*
X135863Y49006D01*
X135975Y48621D01*
X136123Y48248D01*
X136305Y47891D01*
X136349Y47825D01*
X136403Y47767D01*
X136466Y47719D01*
X136499Y47700D01*
Y42500D01*
G37*
G36*
X139993Y72736D02*X140000Y72735D01*
X140745Y72794D01*
X141472Y72969D01*
X142163Y73255D01*
X142801Y73645D01*
X143369Y74131D01*
X143855Y74699D01*
X144192Y75250D01*
X145868D01*
Y62250D01*
X139993D01*
Y62755D01*
X143907Y62759D01*
X144060Y62796D01*
X144205Y62856D01*
X144340Y62938D01*
X144459Y63041D01*
X144562Y63160D01*
X144644Y63295D01*
X144704Y63440D01*
X144741Y63593D01*
X144750Y63750D01*
X144741Y71407D01*
X144704Y71560D01*
X144644Y71705D01*
X144562Y71840D01*
X144459Y71959D01*
X144340Y72062D01*
X144205Y72144D01*
X144060Y72204D01*
X143907Y72241D01*
X143750Y72250D01*
X139993Y72245D01*
Y72736D01*
G37*
G36*
Y152736D02*X140000Y152735D01*
X140745Y152794D01*
X141472Y152969D01*
X142163Y153255D01*
X142801Y153645D01*
X143369Y154131D01*
X143855Y154699D01*
X144192Y155250D01*
X145868D01*
Y79750D01*
X144192D01*
X143855Y80301D01*
X143369Y80869D01*
X142801Y81355D01*
X142163Y81745D01*
X141472Y82031D01*
X140745Y82206D01*
X140000Y82265D01*
X139993Y82264D01*
Y82755D01*
X143907Y82759D01*
X144060Y82796D01*
X144205Y82856D01*
X144340Y82938D01*
X144459Y83041D01*
X144562Y83160D01*
X144644Y83295D01*
X144704Y83440D01*
X144741Y83593D01*
X144750Y83750D01*
X144741Y91407D01*
X144704Y91560D01*
X144644Y91705D01*
X144562Y91840D01*
X144459Y91959D01*
X144340Y92062D01*
X144205Y92144D01*
X144060Y92204D01*
X143907Y92241D01*
X143750Y92250D01*
X139993Y92245D01*
Y92736D01*
X140000Y92735D01*
X140745Y92794D01*
X141472Y92969D01*
X142163Y93255D01*
X142801Y93645D01*
X143369Y94131D01*
X143855Y94699D01*
X144245Y95337D01*
X144531Y96028D01*
X144706Y96755D01*
X144750Y97500D01*
X144706Y98245D01*
X144531Y98972D01*
X144245Y99663D01*
X143855Y100301D01*
X143369Y100869D01*
X142801Y101355D01*
X142163Y101745D01*
X141472Y102031D01*
X140745Y102206D01*
X140000Y102265D01*
X139993Y102264D01*
Y102755D01*
X143907Y102759D01*
X144060Y102796D01*
X144205Y102856D01*
X144340Y102938D01*
X144459Y103041D01*
X144562Y103160D01*
X144644Y103295D01*
X144704Y103440D01*
X144741Y103593D01*
X144750Y103750D01*
X144741Y111407D01*
X144704Y111560D01*
X144644Y111705D01*
X144562Y111840D01*
X144459Y111959D01*
X144340Y112062D01*
X144205Y112144D01*
X144060Y112204D01*
X143907Y112241D01*
X143750Y112250D01*
X139993Y112245D01*
Y112736D01*
X140000Y112735D01*
X140745Y112794D01*
X141472Y112969D01*
X142163Y113255D01*
X142801Y113645D01*
X143369Y114131D01*
X143855Y114699D01*
X144245Y115337D01*
X144531Y116028D01*
X144706Y116755D01*
X144750Y117500D01*
X144706Y118245D01*
X144531Y118972D01*
X144245Y119663D01*
X143855Y120301D01*
X143369Y120869D01*
X142801Y121355D01*
X142163Y121745D01*
X141472Y122031D01*
X140745Y122206D01*
X140000Y122265D01*
X139993Y122264D01*
Y122755D01*
X143907Y122759D01*
X144060Y122796D01*
X144205Y122856D01*
X144340Y122938D01*
X144459Y123041D01*
X144562Y123160D01*
X144644Y123295D01*
X144704Y123440D01*
X144741Y123593D01*
X144750Y123750D01*
X144741Y131407D01*
X144704Y131560D01*
X144644Y131705D01*
X144562Y131840D01*
X144459Y131959D01*
X144340Y132062D01*
X144205Y132144D01*
X144060Y132204D01*
X143907Y132241D01*
X143750Y132250D01*
X139993Y132245D01*
Y132736D01*
X140000Y132735D01*
X140745Y132794D01*
X141472Y132969D01*
X142163Y133255D01*
X142801Y133645D01*
X143369Y134131D01*
X143855Y134699D01*
X144245Y135337D01*
X144531Y136028D01*
X144706Y136755D01*
X144750Y137500D01*
X144706Y138245D01*
X144531Y138972D01*
X144245Y139663D01*
X143855Y140301D01*
X143369Y140869D01*
X142801Y141355D01*
X142163Y141745D01*
X141472Y142031D01*
X140745Y142206D01*
X140000Y142265D01*
X139993Y142264D01*
Y142755D01*
X143907Y142759D01*
X144060Y142796D01*
X144205Y142856D01*
X144340Y142938D01*
X144459Y143041D01*
X144562Y143160D01*
X144644Y143295D01*
X144704Y143440D01*
X144741Y143593D01*
X144750Y143750D01*
X144741Y151407D01*
X144704Y151560D01*
X144644Y151705D01*
X144562Y151840D01*
X144459Y151959D01*
X144340Y152062D01*
X144205Y152144D01*
X144060Y152204D01*
X143907Y152241D01*
X143750Y152250D01*
X139993Y152245D01*
Y152736D01*
G37*
G36*
Y192736D02*X140000Y192735D01*
X140745Y192794D01*
X141472Y192969D01*
X142163Y193255D01*
X142801Y193645D01*
X143369Y194131D01*
X143855Y194699D01*
X144192Y195250D01*
X145868D01*
Y159750D01*
X144192D01*
X143855Y160301D01*
X143369Y160869D01*
X142801Y161355D01*
X142163Y161745D01*
X141472Y162031D01*
X140745Y162206D01*
X140000Y162265D01*
X139993Y162264D01*
Y162755D01*
X143907Y162759D01*
X144060Y162796D01*
X144205Y162856D01*
X144340Y162938D01*
X144459Y163041D01*
X144562Y163160D01*
X144644Y163295D01*
X144704Y163440D01*
X144741Y163593D01*
X144750Y163750D01*
X144741Y171407D01*
X144704Y171560D01*
X144644Y171705D01*
X144562Y171840D01*
X144459Y171959D01*
X144340Y172062D01*
X144205Y172144D01*
X144060Y172204D01*
X143907Y172241D01*
X143750Y172250D01*
X139993Y172245D01*
Y172736D01*
X140000Y172735D01*
X140745Y172794D01*
X141472Y172969D01*
X142163Y173255D01*
X142801Y173645D01*
X143369Y174131D01*
X143855Y174699D01*
X144245Y175337D01*
X144531Y176028D01*
X144706Y176755D01*
X144750Y177500D01*
X144706Y178245D01*
X144531Y178972D01*
X144245Y179663D01*
X143855Y180301D01*
X143369Y180869D01*
X142801Y181355D01*
X142163Y181745D01*
X141472Y182031D01*
X140745Y182206D01*
X140000Y182265D01*
X139993Y182264D01*
Y182755D01*
X143907Y182759D01*
X144060Y182796D01*
X144205Y182856D01*
X144340Y182938D01*
X144459Y183041D01*
X144562Y183160D01*
X144644Y183295D01*
X144704Y183440D01*
X144741Y183593D01*
X144750Y183750D01*
X144741Y191407D01*
X144704Y191560D01*
X144644Y191705D01*
X144562Y191840D01*
X144459Y191959D01*
X144340Y192062D01*
X144205Y192144D01*
X144060Y192204D01*
X143907Y192241D01*
X143750Y192250D01*
X139993Y192245D01*
Y192736D01*
G37*
G36*
Y232736D02*X140000Y232735D01*
X140745Y232794D01*
X141472Y232969D01*
X142163Y233255D01*
X142801Y233645D01*
X143369Y234131D01*
X143855Y234699D01*
X144192Y235250D01*
X145868D01*
Y199750D01*
X144192D01*
X143855Y200301D01*
X143369Y200869D01*
X142801Y201355D01*
X142163Y201745D01*
X141472Y202031D01*
X140745Y202206D01*
X140000Y202265D01*
X139993Y202264D01*
Y202755D01*
X143907Y202759D01*
X144060Y202796D01*
X144205Y202856D01*
X144340Y202938D01*
X144459Y203041D01*
X144562Y203160D01*
X144644Y203295D01*
X144704Y203440D01*
X144741Y203593D01*
X144750Y203750D01*
X144741Y211407D01*
X144704Y211560D01*
X144644Y211705D01*
X144562Y211840D01*
X144459Y211959D01*
X144340Y212062D01*
X144205Y212144D01*
X144060Y212204D01*
X143907Y212241D01*
X143750Y212250D01*
X139993Y212245D01*
Y212736D01*
X140000Y212735D01*
X140745Y212794D01*
X141472Y212969D01*
X142163Y213255D01*
X142801Y213645D01*
X143369Y214131D01*
X143855Y214699D01*
X144245Y215337D01*
X144531Y216028D01*
X144706Y216755D01*
X144750Y217500D01*
X144706Y218245D01*
X144531Y218972D01*
X144245Y219663D01*
X143855Y220301D01*
X143369Y220869D01*
X142801Y221355D01*
X142163Y221745D01*
X141472Y222031D01*
X140745Y222206D01*
X140000Y222265D01*
X139993Y222264D01*
Y222755D01*
X143907Y222759D01*
X144060Y222796D01*
X144205Y222856D01*
X144340Y222938D01*
X144459Y223041D01*
X144562Y223160D01*
X144644Y223295D01*
X144704Y223440D01*
X144741Y223593D01*
X144750Y223750D01*
X144741Y231407D01*
X144704Y231560D01*
X144644Y231705D01*
X144562Y231840D01*
X144459Y231959D01*
X144340Y232062D01*
X144205Y232144D01*
X144060Y232204D01*
X143907Y232241D01*
X143750Y232250D01*
X139993Y232245D01*
Y232736D01*
G37*
G36*
Y272736D02*X140000Y272735D01*
X140745Y272794D01*
X141472Y272969D01*
X142163Y273255D01*
X142801Y273645D01*
X143369Y274131D01*
X143855Y274699D01*
X144192Y275250D01*
X145868D01*
Y239750D01*
X144192D01*
X143855Y240301D01*
X143369Y240869D01*
X142801Y241355D01*
X142163Y241745D01*
X141472Y242031D01*
X140745Y242206D01*
X140000Y242265D01*
X139993Y242264D01*
Y242755D01*
X143907Y242759D01*
X144060Y242796D01*
X144205Y242856D01*
X144340Y242938D01*
X144459Y243041D01*
X144562Y243160D01*
X144644Y243295D01*
X144704Y243440D01*
X144741Y243593D01*
X144750Y243750D01*
X144741Y251407D01*
X144704Y251560D01*
X144644Y251705D01*
X144562Y251840D01*
X144459Y251959D01*
X144340Y252062D01*
X144205Y252144D01*
X144060Y252204D01*
X143907Y252241D01*
X143750Y252250D01*
X139993Y252245D01*
Y252736D01*
X140000Y252735D01*
X140745Y252794D01*
X141472Y252969D01*
X142163Y253255D01*
X142801Y253645D01*
X143369Y254131D01*
X143855Y254699D01*
X144245Y255337D01*
X144531Y256028D01*
X144706Y256755D01*
X144750Y257500D01*
X144706Y258245D01*
X144531Y258972D01*
X144245Y259663D01*
X143855Y260301D01*
X143369Y260869D01*
X142801Y261355D01*
X142163Y261745D01*
X141472Y262031D01*
X140745Y262206D01*
X140000Y262265D01*
X139993Y262264D01*
Y262755D01*
X143907Y262759D01*
X144060Y262796D01*
X144205Y262856D01*
X144340Y262938D01*
X144459Y263041D01*
X144562Y263160D01*
X144644Y263295D01*
X144704Y263440D01*
X144741Y263593D01*
X144750Y263750D01*
X144741Y271407D01*
X144704Y271560D01*
X144644Y271705D01*
X144562Y271840D01*
X144459Y271959D01*
X144340Y272062D01*
X144205Y272144D01*
X144060Y272204D01*
X143907Y272241D01*
X143750Y272250D01*
X139993Y272245D01*
Y272736D01*
G37*
G36*
Y312736D02*X140000Y312735D01*
X140745Y312794D01*
X141472Y312969D01*
X142163Y313255D01*
X142801Y313645D01*
X143369Y314131D01*
X143855Y314699D01*
X144192Y315250D01*
X145868D01*
Y279750D01*
X144192D01*
X143855Y280301D01*
X143369Y280869D01*
X142801Y281355D01*
X142163Y281745D01*
X141472Y282031D01*
X140745Y282206D01*
X140000Y282265D01*
X139993Y282264D01*
Y282755D01*
X143907Y282759D01*
X144060Y282796D01*
X144205Y282856D01*
X144340Y282938D01*
X144459Y283041D01*
X144562Y283160D01*
X144644Y283295D01*
X144704Y283440D01*
X144741Y283593D01*
X144750Y283750D01*
X144741Y291407D01*
X144704Y291560D01*
X144644Y291705D01*
X144562Y291840D01*
X144459Y291959D01*
X144340Y292062D01*
X144205Y292144D01*
X144060Y292204D01*
X143907Y292241D01*
X143750Y292250D01*
X139993Y292245D01*
Y292736D01*
X140000Y292735D01*
X140745Y292794D01*
X141472Y292969D01*
X142163Y293255D01*
X142801Y293645D01*
X143369Y294131D01*
X143855Y294699D01*
X144245Y295337D01*
X144531Y296028D01*
X144706Y296755D01*
X144750Y297500D01*
X144706Y298245D01*
X144531Y298972D01*
X144245Y299663D01*
X143855Y300301D01*
X143369Y300869D01*
X142801Y301355D01*
X142163Y301745D01*
X141472Y302031D01*
X140745Y302206D01*
X140000Y302265D01*
X139993Y302264D01*
Y302755D01*
X143907Y302759D01*
X144060Y302796D01*
X144205Y302856D01*
X144340Y302938D01*
X144459Y303041D01*
X144562Y303160D01*
X144644Y303295D01*
X144704Y303440D01*
X144741Y303593D01*
X144750Y303750D01*
X144741Y311407D01*
X144704Y311560D01*
X144644Y311705D01*
X144562Y311840D01*
X144459Y311959D01*
X144340Y312062D01*
X144205Y312144D01*
X144060Y312204D01*
X143907Y312241D01*
X143750Y312250D01*
X139993Y312245D01*
Y312736D01*
G37*
G36*
Y352736D02*X140000Y352735D01*
X140745Y352794D01*
X141472Y352969D01*
X142163Y353255D01*
X142801Y353645D01*
X143369Y354131D01*
X143855Y354699D01*
X144192Y355250D01*
X145868D01*
Y319750D01*
X144192D01*
X143855Y320301D01*
X143369Y320869D01*
X142801Y321355D01*
X142163Y321745D01*
X141472Y322031D01*
X140745Y322206D01*
X140000Y322265D01*
X139993Y322264D01*
Y322755D01*
X143907Y322759D01*
X144060Y322796D01*
X144205Y322856D01*
X144340Y322938D01*
X144459Y323041D01*
X144562Y323160D01*
X144644Y323295D01*
X144704Y323440D01*
X144741Y323593D01*
X144750Y323750D01*
X144741Y331407D01*
X144704Y331560D01*
X144644Y331705D01*
X144562Y331840D01*
X144459Y331959D01*
X144340Y332062D01*
X144205Y332144D01*
X144060Y332204D01*
X143907Y332241D01*
X143750Y332250D01*
X139993Y332245D01*
Y332736D01*
X140000Y332735D01*
X140745Y332794D01*
X141472Y332969D01*
X142163Y333255D01*
X142801Y333645D01*
X143369Y334131D01*
X143855Y334699D01*
X144245Y335337D01*
X144531Y336028D01*
X144706Y336755D01*
X144750Y337500D01*
X144706Y338245D01*
X144531Y338972D01*
X144245Y339663D01*
X143855Y340301D01*
X143369Y340869D01*
X142801Y341355D01*
X142163Y341745D01*
X141472Y342031D01*
X140745Y342206D01*
X140000Y342265D01*
X139993Y342264D01*
Y342755D01*
X143907Y342759D01*
X144060Y342796D01*
X144205Y342856D01*
X144340Y342938D01*
X144459Y343041D01*
X144562Y343160D01*
X144644Y343295D01*
X144704Y343440D01*
X144741Y343593D01*
X144750Y343750D01*
X144741Y351407D01*
X144704Y351560D01*
X144644Y351705D01*
X144562Y351840D01*
X144459Y351959D01*
X144340Y352062D01*
X144205Y352144D01*
X144060Y352204D01*
X143907Y352241D01*
X143750Y352250D01*
X139993Y352245D01*
Y352736D01*
G37*
G36*
X143501Y400000D02*X145868D01*
Y359750D01*
X144192D01*
X143855Y360301D01*
X143501Y360715D01*
Y362759D01*
X143907Y362759D01*
X144060Y362796D01*
X144205Y362856D01*
X144340Y362938D01*
X144459Y363041D01*
X144562Y363160D01*
X144644Y363295D01*
X144704Y363440D01*
X144741Y363593D01*
X144750Y363750D01*
X144741Y371407D01*
X144704Y371560D01*
X144644Y371705D01*
X144562Y371840D01*
X144459Y371959D01*
X144340Y372062D01*
X144205Y372144D01*
X144060Y372204D01*
X143907Y372241D01*
X143750Y372250D01*
X143501Y372250D01*
Y374285D01*
X143855Y374699D01*
X144245Y375337D01*
X144531Y376028D01*
X144706Y376755D01*
X144750Y377500D01*
X144706Y378245D01*
X144531Y378972D01*
X144245Y379663D01*
X143855Y380301D01*
X143501Y380715D01*
Y390205D01*
X143532Y390222D01*
X143594Y390270D01*
X143648Y390327D01*
X143691Y390393D01*
X143877Y390748D01*
X144025Y391121D01*
X144137Y391506D01*
X144212Y391900D01*
X144250Y392299D01*
Y392701D01*
X144212Y393100D01*
X144137Y393494D01*
X144025Y393879D01*
X143877Y394252D01*
X143695Y394609D01*
X143651Y394675D01*
X143597Y394733D01*
X143534Y394781D01*
X143501Y394800D01*
Y400000D01*
G37*
G36*
Y372250D02*X139993Y372245D01*
Y372736D01*
X140000Y372735D01*
X140745Y372794D01*
X141472Y372969D01*
X142163Y373255D01*
X142801Y373645D01*
X143369Y374131D01*
X143501Y374285D01*
Y372250D01*
G37*
G36*
Y360715D02*X143369Y360869D01*
X142801Y361355D01*
X142163Y361745D01*
X141472Y362031D01*
X140745Y362206D01*
X140000Y362265D01*
X139993Y362264D01*
Y362755D01*
X143501Y362759D01*
Y360715D01*
G37*
G36*
X139993Y400000D02*X143501D01*
Y394800D01*
X143464Y394820D01*
X143390Y394846D01*
X143312Y394861D01*
X143233Y394864D01*
X143154Y394854D01*
X143078Y394832D01*
X143006Y394798D01*
X142941Y394753D01*
X142883Y394699D01*
X142834Y394636D01*
X142796Y394567D01*
X142769Y394492D01*
X142755Y394414D01*
X142752Y394335D01*
X142762Y394257D01*
X142784Y394180D01*
X142819Y394109D01*
X142962Y393838D01*
X143075Y393553D01*
X143160Y393259D01*
X143218Y392958D01*
X143246Y392653D01*
Y392347D01*
X143218Y392042D01*
X143160Y391741D01*
X143075Y391447D01*
X142962Y391162D01*
X142822Y390889D01*
X142788Y390818D01*
X142766Y390743D01*
X142756Y390665D01*
X142758Y390586D01*
X142773Y390509D01*
X142800Y390435D01*
X142837Y390366D01*
X142886Y390303D01*
X142943Y390250D01*
X143008Y390205D01*
X143079Y390172D01*
X143155Y390150D01*
X143233Y390140D01*
X143312Y390142D01*
X143389Y390157D01*
X143463Y390184D01*
X143501Y390205D01*
Y380715D01*
X143369Y380869D01*
X142801Y381355D01*
X142163Y381745D01*
X141472Y382031D01*
X140745Y382206D01*
X140000Y382265D01*
X139993Y382264D01*
Y388250D01*
X140201D01*
X140600Y388288D01*
X140994Y388363D01*
X141379Y388475D01*
X141752Y388623D01*
X142109Y388805D01*
X142175Y388849D01*
X142233Y388903D01*
X142281Y388966D01*
X142320Y389036D01*
X142346Y389110D01*
X142361Y389188D01*
X142364Y389267D01*
X142354Y389346D01*
X142332Y389422D01*
X142298Y389494D01*
X142253Y389559D01*
X142199Y389617D01*
X142136Y389666D01*
X142067Y389704D01*
X141992Y389731D01*
X141914Y389745D01*
X141835Y389748D01*
X141757Y389738D01*
X141680Y389716D01*
X141609Y389681D01*
X141338Y389538D01*
X141053Y389425D01*
X140759Y389340D01*
X140458Y389282D01*
X140153Y389254D01*
X139993D01*
Y395746D01*
X140153D01*
X140458Y395718D01*
X140759Y395660D01*
X141053Y395575D01*
X141338Y395462D01*
X141611Y395322D01*
X141682Y395288D01*
X141757Y395266D01*
X141835Y395256D01*
X141914Y395258D01*
X141991Y395273D01*
X142065Y395300D01*
X142134Y395337D01*
X142197Y395386D01*
X142250Y395443D01*
X142295Y395508D01*
X142328Y395579D01*
X142350Y395655D01*
X142360Y395733D01*
X142358Y395812D01*
X142343Y395889D01*
X142316Y395963D01*
X142278Y396032D01*
X142230Y396094D01*
X142173Y396148D01*
X142107Y396191D01*
X141752Y396377D01*
X141379Y396525D01*
X140994Y396637D01*
X140600Y396712D01*
X140201Y396750D01*
X139993D01*
Y400000D01*
G37*
G36*
Y332245D02*X136093Y332241D01*
X135940Y332204D01*
X135795Y332144D01*
X135660Y332062D01*
X135541Y331959D01*
X135438Y331840D01*
X135356Y331705D01*
X135296Y331560D01*
X135259Y331407D01*
X135250Y331250D01*
X135252Y329750D01*
X132250D01*
Y345250D01*
X135257D01*
X135259Y343593D01*
X135296Y343440D01*
X135356Y343295D01*
X135438Y343160D01*
X135541Y343041D01*
X135660Y342938D01*
X135795Y342856D01*
X135940Y342796D01*
X136093Y342759D01*
X136250Y342750D01*
X139993Y342755D01*
Y342264D01*
X139255Y342206D01*
X138528Y342031D01*
X137837Y341745D01*
X137199Y341355D01*
X136631Y340869D01*
X136145Y340301D01*
X135755Y339663D01*
X135469Y338972D01*
X135294Y338245D01*
X135235Y337500D01*
X135294Y336755D01*
X135469Y336028D01*
X135755Y335337D01*
X136145Y334699D01*
X136631Y334131D01*
X137199Y333645D01*
X137837Y333255D01*
X138528Y332969D01*
X139255Y332794D01*
X139993Y332736D01*
Y332245D01*
G37*
G36*
Y292245D02*X136093Y292241D01*
X135940Y292204D01*
X135795Y292144D01*
X135660Y292062D01*
X135541Y291959D01*
X135438Y291840D01*
X135356Y291705D01*
X135296Y291560D01*
X135259Y291407D01*
X135250Y291250D01*
X135252Y289750D01*
X132588D01*
X132500Y289757D01*
X132147Y289729D01*
X131803Y289646D01*
X131475Y289511D01*
X131173Y289326D01*
X131173Y289326D01*
X130904Y289096D01*
X130847Y289029D01*
X128471Y286653D01*
X128404Y286596D01*
X128174Y286327D01*
X127989Y286025D01*
X127854Y285697D01*
X127771Y285353D01*
X127771Y285353D01*
X127743Y285000D01*
X127750Y284912D01*
Y267588D01*
X127743Y267500D01*
X127750Y267412D01*
Y247588D01*
X127743Y247500D01*
X127750Y247412D01*
Y229750D01*
X115088D01*
X115000Y229757D01*
X114647Y229729D01*
X114303Y229646D01*
X113975Y229511D01*
X113673Y229326D01*
X113673Y229326D01*
X113404Y229096D01*
X113347Y229029D01*
X110971Y226653D01*
X110904Y226596D01*
X110674Y226327D01*
X110489Y226025D01*
X110354Y225697D01*
X110271Y225353D01*
X110271Y225353D01*
X110243Y225000D01*
X110250Y224912D01*
Y175932D01*
X109068Y174750D01*
X106247D01*
Y175625D01*
X106327Y175674D01*
X106596Y175904D01*
X106653Y175971D01*
X109029Y178347D01*
X109096Y178404D01*
X109326Y178673D01*
X109326Y178673D01*
X109511Y178975D01*
X109646Y179303D01*
X109729Y179647D01*
X109757Y180000D01*
X109750Y180088D01*
Y304068D01*
X110932Y305250D01*
X129912D01*
X130000Y305243D01*
X130088Y305250D01*
X135257D01*
X135259Y303593D01*
X135296Y303440D01*
X135356Y303295D01*
X135438Y303160D01*
X135541Y303041D01*
X135660Y302938D01*
X135795Y302856D01*
X135940Y302796D01*
X136093Y302759D01*
X136250Y302750D01*
X139993Y302755D01*
Y302264D01*
X139255Y302206D01*
X138528Y302031D01*
X137837Y301745D01*
X137199Y301355D01*
X136631Y300869D01*
X136145Y300301D01*
X135755Y299663D01*
X135469Y298972D01*
X135294Y298245D01*
X135235Y297500D01*
X135294Y296755D01*
X135469Y296028D01*
X135755Y295337D01*
X136145Y294699D01*
X136631Y294131D01*
X137199Y293645D01*
X137837Y293255D01*
X138528Y292969D01*
X139255Y292794D01*
X139993Y292736D01*
Y292245D01*
G37*
G36*
Y252245D02*X136093Y252241D01*
X135940Y252204D01*
X135795Y252144D01*
X135660Y252062D01*
X135541Y251959D01*
X135438Y251840D01*
X135356Y251705D01*
X135296Y251560D01*
X135259Y251407D01*
X135250Y251250D01*
X135252Y249750D01*
X132250D01*
Y265250D01*
X135257D01*
X135259Y263593D01*
X135296Y263440D01*
X135356Y263295D01*
X135438Y263160D01*
X135541Y263041D01*
X135660Y262938D01*
X135795Y262856D01*
X135940Y262796D01*
X136093Y262759D01*
X136250Y262750D01*
X139993Y262755D01*
Y262264D01*
X139255Y262206D01*
X138528Y262031D01*
X137837Y261745D01*
X137199Y261355D01*
X136631Y260869D01*
X136145Y260301D01*
X135755Y259663D01*
X135469Y258972D01*
X135294Y258245D01*
X135235Y257500D01*
X135294Y256755D01*
X135469Y256028D01*
X135755Y255337D01*
X136145Y254699D01*
X136631Y254131D01*
X137199Y253645D01*
X137837Y253255D01*
X138528Y252969D01*
X139255Y252794D01*
X139993Y252736D01*
Y252245D01*
G37*
G36*
Y212245D02*X136093Y212241D01*
X135940Y212204D01*
X135795Y212144D01*
X135660Y212062D01*
X135541Y211959D01*
X135438Y211840D01*
X135356Y211705D01*
X135296Y211560D01*
X135259Y211407D01*
X135250Y211250D01*
X135252Y209750D01*
X132588D01*
X132500Y209757D01*
X132147Y209729D01*
X131803Y209646D01*
X131475Y209511D01*
X131173Y209326D01*
X131173Y209326D01*
X130904Y209096D01*
X130847Y209029D01*
X128471Y206653D01*
X128404Y206596D01*
X128174Y206327D01*
X127989Y206025D01*
X127854Y205697D01*
X127771Y205353D01*
X127771Y205353D01*
X127743Y205000D01*
X127750Y204912D01*
Y187588D01*
X127743Y187500D01*
X127750Y187412D01*
Y167588D01*
X127743Y167500D01*
X127750Y167412D01*
Y149750D01*
X120088D01*
X120000Y149757D01*
X119647Y149729D01*
X119303Y149646D01*
X118975Y149511D01*
X118673Y149326D01*
X118673Y149326D01*
X118404Y149096D01*
X118347Y149029D01*
X106247Y136929D01*
Y162750D01*
X117412D01*
X117500Y162743D01*
X117853Y162771D01*
X117853Y162771D01*
X118197Y162854D01*
X118525Y162989D01*
X118827Y163174D01*
X119096Y163404D01*
X119153Y163471D01*
X121529Y165847D01*
X121596Y165904D01*
X121826Y166173D01*
X121826Y166173D01*
X122011Y166475D01*
X122146Y166803D01*
X122229Y167147D01*
X122257Y167500D01*
X122250Y167588D01*
Y214188D01*
X122358Y214254D01*
X122837Y214663D01*
X123246Y215142D01*
X123575Y215678D01*
X123816Y216260D01*
X123963Y216872D01*
X124000Y217500D01*
X123963Y218128D01*
X123816Y218740D01*
X123575Y219322D01*
X123246Y219858D01*
X122837Y220337D01*
X122358Y220746D01*
X121822Y221075D01*
X121240Y221316D01*
X120628Y221463D01*
X120000Y221512D01*
X119372Y221463D01*
X118760Y221316D01*
X118178Y221075D01*
X117642Y220746D01*
X117163Y220337D01*
X116754Y219858D01*
X116425Y219322D01*
X116184Y218740D01*
X116037Y218128D01*
X115988Y217500D01*
X116037Y216872D01*
X116184Y216260D01*
X116425Y215678D01*
X116754Y215142D01*
X117163Y214663D01*
X117642Y214254D01*
X117750Y214188D01*
Y168432D01*
X116568Y167250D01*
X106247D01*
Y170250D01*
X109912D01*
X110000Y170243D01*
X110353Y170271D01*
X110353Y170271D01*
X110697Y170354D01*
X111025Y170489D01*
X111327Y170674D01*
X111596Y170904D01*
X111653Y170971D01*
X114029Y173347D01*
X114096Y173404D01*
X114326Y173673D01*
X114326Y173673D01*
X114511Y173975D01*
X114646Y174303D01*
X114729Y174647D01*
X114757Y175000D01*
X114750Y175088D01*
Y224068D01*
X115932Y225250D01*
X129912D01*
X130000Y225243D01*
X130088Y225250D01*
X135257D01*
X135259Y223593D01*
X135296Y223440D01*
X135356Y223295D01*
X135438Y223160D01*
X135541Y223041D01*
X135660Y222938D01*
X135795Y222856D01*
X135940Y222796D01*
X136093Y222759D01*
X136250Y222750D01*
X139993Y222755D01*
Y222264D01*
X139255Y222206D01*
X138528Y222031D01*
X137837Y221745D01*
X137199Y221355D01*
X136631Y220869D01*
X136145Y220301D01*
X135755Y219663D01*
X135469Y218972D01*
X135294Y218245D01*
X135235Y217500D01*
X135294Y216755D01*
X135469Y216028D01*
X135755Y215337D01*
X136145Y214699D01*
X136631Y214131D01*
X137199Y213645D01*
X137837Y213255D01*
X138528Y212969D01*
X139255Y212794D01*
X139993Y212736D01*
Y212245D01*
G37*
G36*
Y172245D02*X136093Y172241D01*
X135940Y172204D01*
X135795Y172144D01*
X135660Y172062D01*
X135541Y171959D01*
X135438Y171840D01*
X135356Y171705D01*
X135296Y171560D01*
X135259Y171407D01*
X135250Y171250D01*
X135252Y169750D01*
X132250D01*
Y185250D01*
X135257D01*
X135259Y183593D01*
X135296Y183440D01*
X135356Y183295D01*
X135438Y183160D01*
X135541Y183041D01*
X135660Y182938D01*
X135795Y182856D01*
X135940Y182796D01*
X136093Y182759D01*
X136250Y182750D01*
X139993Y182755D01*
Y182264D01*
X139255Y182206D01*
X138528Y182031D01*
X137837Y181745D01*
X137199Y181355D01*
X136631Y180869D01*
X136145Y180301D01*
X135755Y179663D01*
X135469Y178972D01*
X135294Y178245D01*
X135235Y177500D01*
X135294Y176755D01*
X135469Y176028D01*
X135755Y175337D01*
X136145Y174699D01*
X136631Y174131D01*
X137199Y173645D01*
X137837Y173255D01*
X138528Y172969D01*
X139255Y172794D01*
X139993Y172736D01*
Y172245D01*
G37*
G36*
Y132245D02*X136093Y132241D01*
X135940Y132204D01*
X135795Y132144D01*
X135660Y132062D01*
X135541Y131959D01*
X135438Y131840D01*
X135356Y131705D01*
X135296Y131560D01*
X135259Y131407D01*
X135250Y131250D01*
X135252Y129750D01*
X130088D01*
X130000Y129757D01*
X129912Y129750D01*
X117588D01*
X117500Y129757D01*
X117147Y129729D01*
X116803Y129646D01*
X116475Y129511D01*
X116173Y129326D01*
X116173Y129326D01*
X115904Y129096D01*
X115847Y129029D01*
X106568Y119750D01*
X106247D01*
Y130565D01*
X120932Y145250D01*
X129912D01*
X130000Y145243D01*
X130088Y145250D01*
X135257D01*
X135259Y143593D01*
X135296Y143440D01*
X135356Y143295D01*
X135438Y143160D01*
X135541Y143041D01*
X135660Y142938D01*
X135795Y142856D01*
X135940Y142796D01*
X136093Y142759D01*
X136250Y142750D01*
X139993Y142755D01*
Y142264D01*
X139255Y142206D01*
X138528Y142031D01*
X137837Y141745D01*
X137199Y141355D01*
X136631Y140869D01*
X136145Y140301D01*
X135755Y139663D01*
X135469Y138972D01*
X135294Y138245D01*
X135235Y137500D01*
X135294Y136755D01*
X135469Y136028D01*
X135755Y135337D01*
X136145Y134699D01*
X136631Y134131D01*
X137199Y133645D01*
X137837Y133255D01*
X138528Y132969D01*
X139255Y132794D01*
X139993Y132736D01*
Y132245D01*
G37*
G36*
Y112245D02*X136093Y112241D01*
X135940Y112204D01*
X135795Y112144D01*
X135660Y112062D01*
X135541Y111959D01*
X135438Y111840D01*
X135356Y111705D01*
X135296Y111560D01*
X135259Y111407D01*
X135250Y111250D01*
X135252Y109750D01*
X132250D01*
Y125250D01*
X135257D01*
X135259Y123593D01*
X135296Y123440D01*
X135356Y123295D01*
X135438Y123160D01*
X135541Y123041D01*
X135660Y122938D01*
X135795Y122856D01*
X135940Y122796D01*
X136093Y122759D01*
X136250Y122750D01*
X139993Y122755D01*
Y122264D01*
X139255Y122206D01*
X138528Y122031D01*
X137837Y121745D01*
X137199Y121355D01*
X136631Y120869D01*
X136145Y120301D01*
X135755Y119663D01*
X135469Y118972D01*
X135294Y118245D01*
X135235Y117500D01*
X135294Y116755D01*
X135469Y116028D01*
X135755Y115337D01*
X136145Y114699D01*
X136631Y114131D01*
X137199Y113645D01*
X137837Y113255D01*
X138528Y112969D01*
X139255Y112794D01*
X139993Y112736D01*
Y112245D01*
G37*
G36*
Y92245D02*X136093Y92241D01*
X135940Y92204D01*
X135795Y92144D01*
X135660Y92062D01*
X135541Y91959D01*
X135438Y91840D01*
X135356Y91705D01*
X135296Y91560D01*
X135259Y91407D01*
X135250Y91250D01*
X135252Y89750D01*
X132250D01*
Y105250D01*
X135257D01*
X135259Y103593D01*
X135296Y103440D01*
X135356Y103295D01*
X135438Y103160D01*
X135541Y103041D01*
X135660Y102938D01*
X135795Y102856D01*
X135940Y102796D01*
X136093Y102759D01*
X136250Y102750D01*
X139993Y102755D01*
Y102264D01*
X139255Y102206D01*
X138528Y102031D01*
X137837Y101745D01*
X137199Y101355D01*
X136631Y100869D01*
X136145Y100301D01*
X135755Y99663D01*
X135469Y98972D01*
X135294Y98245D01*
X135235Y97500D01*
X135294Y96755D01*
X135469Y96028D01*
X135755Y95337D01*
X136145Y94699D01*
X136631Y94131D01*
X137199Y93645D01*
X137837Y93255D01*
X138528Y92969D01*
X139255Y92794D01*
X139993Y92736D01*
Y92245D01*
G37*
G36*
Y62250D02*X120932D01*
X119750Y63432D01*
Y74912D01*
X119757Y75000D01*
X119729Y75353D01*
X119646Y75697D01*
X119607Y75793D01*
X119511Y76025D01*
X119396Y76212D01*
X119326Y76327D01*
X119326Y76327D01*
X119096Y76596D01*
X119029Y76653D01*
X116653Y79029D01*
X116596Y79096D01*
X116327Y79326D01*
X116327Y79326D01*
X116212Y79396D01*
X116025Y79511D01*
X115793Y79607D01*
X115697Y79646D01*
X115353Y79729D01*
X115000Y79757D01*
X114912Y79750D01*
X106247D01*
Y115250D01*
X107412D01*
X107500Y115243D01*
X107853Y115271D01*
X107853Y115271D01*
X108197Y115354D01*
X108525Y115489D01*
X108827Y115674D01*
X109096Y115904D01*
X109153Y115971D01*
X118432Y125250D01*
X127750D01*
Y107588D01*
X127743Y107500D01*
X127750Y107412D01*
Y87588D01*
X127743Y87500D01*
X127750Y87412D01*
Y70088D01*
X127743Y70000D01*
X127771Y69647D01*
Y69647D01*
X127854Y69303D01*
X127989Y68975D01*
X128059Y68861D01*
X128174Y68673D01*
X128174Y68673D01*
X128404Y68404D01*
X128471Y68347D01*
X130847Y65971D01*
X130904Y65904D01*
X131173Y65674D01*
X131173Y65674D01*
X131361Y65559D01*
X131475Y65489D01*
X131803Y65354D01*
X132147Y65271D01*
X132147D01*
X132500Y65243D01*
X132588Y65250D01*
X135257D01*
X135259Y63593D01*
X135296Y63440D01*
X135356Y63295D01*
X135438Y63160D01*
X135541Y63041D01*
X135660Y62938D01*
X135795Y62856D01*
X135940Y62796D01*
X136093Y62759D01*
X136250Y62750D01*
X139993Y62755D01*
Y62250D01*
G37*
G36*
Y82264D02*X139255Y82206D01*
X138528Y82031D01*
X137837Y81745D01*
X137199Y81355D01*
X136631Y80869D01*
X136145Y80301D01*
X135755Y79663D01*
X135469Y78972D01*
X135294Y78245D01*
X135235Y77500D01*
X135294Y76755D01*
X135469Y76028D01*
X135755Y75337D01*
X136145Y74699D01*
X136631Y74131D01*
X137199Y73645D01*
X137837Y73255D01*
X138528Y72969D01*
X139255Y72794D01*
X139993Y72736D01*
Y72245D01*
X136093Y72241D01*
X135940Y72204D01*
X135795Y72144D01*
X135660Y72062D01*
X135541Y71959D01*
X135438Y71840D01*
X135356Y71705D01*
X135296Y71560D01*
X135259Y71407D01*
X135250Y71250D01*
X135252Y69750D01*
X133432D01*
X132250Y70932D01*
Y85250D01*
X135257D01*
X135259Y83593D01*
X135296Y83440D01*
X135356Y83295D01*
X135438Y83160D01*
X135541Y83041D01*
X135660Y82938D01*
X135795Y82856D01*
X135940Y82796D01*
X136093Y82759D01*
X136250Y82750D01*
X139993Y82755D01*
Y82264D01*
G37*
G36*
Y162264D02*X139255Y162206D01*
X138528Y162031D01*
X137837Y161745D01*
X137199Y161355D01*
X136631Y160869D01*
X136145Y160301D01*
X135755Y159663D01*
X135469Y158972D01*
X135294Y158245D01*
X135235Y157500D01*
X135294Y156755D01*
X135469Y156028D01*
X135755Y155337D01*
X136145Y154699D01*
X136631Y154131D01*
X137199Y153645D01*
X137837Y153255D01*
X138528Y152969D01*
X139255Y152794D01*
X139993Y152736D01*
Y152245D01*
X136093Y152241D01*
X135940Y152204D01*
X135795Y152144D01*
X135660Y152062D01*
X135541Y151959D01*
X135438Y151840D01*
X135356Y151705D01*
X135296Y151560D01*
X135259Y151407D01*
X135250Y151250D01*
X135252Y149750D01*
X132250D01*
Y165250D01*
X135257D01*
X135259Y163593D01*
X135296Y163440D01*
X135356Y163295D01*
X135438Y163160D01*
X135541Y163041D01*
X135660Y162938D01*
X135795Y162856D01*
X135940Y162796D01*
X136093Y162759D01*
X136250Y162750D01*
X139993Y162755D01*
Y162264D01*
G37*
G36*
Y202264D02*X139255Y202206D01*
X138528Y202031D01*
X137837Y201745D01*
X137199Y201355D01*
X136631Y200869D01*
X136145Y200301D01*
X135755Y199663D01*
X135469Y198972D01*
X135294Y198245D01*
X135235Y197500D01*
X135294Y196755D01*
X135469Y196028D01*
X135755Y195337D01*
X136145Y194699D01*
X136631Y194131D01*
X137199Y193645D01*
X137837Y193255D01*
X138528Y192969D01*
X139255Y192794D01*
X139993Y192736D01*
Y192245D01*
X136093Y192241D01*
X135940Y192204D01*
X135795Y192144D01*
X135660Y192062D01*
X135541Y191959D01*
X135438Y191840D01*
X135356Y191705D01*
X135296Y191560D01*
X135259Y191407D01*
X135250Y191250D01*
X135252Y189750D01*
X132250D01*
Y204068D01*
X133432Y205250D01*
X135257D01*
X135259Y203593D01*
X135296Y203440D01*
X135356Y203295D01*
X135438Y203160D01*
X135541Y203041D01*
X135660Y202938D01*
X135795Y202856D01*
X135940Y202796D01*
X136093Y202759D01*
X136250Y202750D01*
X139993Y202755D01*
Y202264D01*
G37*
G36*
Y242264D02*X139255Y242206D01*
X138528Y242031D01*
X137837Y241745D01*
X137199Y241355D01*
X136631Y240869D01*
X136145Y240301D01*
X135755Y239663D01*
X135469Y238972D01*
X135294Y238245D01*
X135235Y237500D01*
X135294Y236755D01*
X135469Y236028D01*
X135755Y235337D01*
X136145Y234699D01*
X136631Y234131D01*
X137199Y233645D01*
X137837Y233255D01*
X138528Y232969D01*
X139255Y232794D01*
X139993Y232736D01*
Y232245D01*
X136093Y232241D01*
X135940Y232204D01*
X135795Y232144D01*
X135660Y232062D01*
X135541Y231959D01*
X135438Y231840D01*
X135356Y231705D01*
X135296Y231560D01*
X135259Y231407D01*
X135250Y231250D01*
X135252Y229750D01*
X132250D01*
Y245250D01*
X135257D01*
X135259Y243593D01*
X135296Y243440D01*
X135356Y243295D01*
X135438Y243160D01*
X135541Y243041D01*
X135660Y242938D01*
X135795Y242856D01*
X135940Y242796D01*
X136093Y242759D01*
X136250Y242750D01*
X139993Y242755D01*
Y242264D01*
G37*
G36*
Y282264D02*X139255Y282206D01*
X138528Y282031D01*
X137837Y281745D01*
X137199Y281355D01*
X136631Y280869D01*
X136145Y280301D01*
X135755Y279663D01*
X135469Y278972D01*
X135294Y278245D01*
X135235Y277500D01*
X135294Y276755D01*
X135469Y276028D01*
X135755Y275337D01*
X136145Y274699D01*
X136631Y274131D01*
X137199Y273645D01*
X137837Y273255D01*
X138528Y272969D01*
X139255Y272794D01*
X139993Y272736D01*
Y272245D01*
X136093Y272241D01*
X135940Y272204D01*
X135795Y272144D01*
X135660Y272062D01*
X135541Y271959D01*
X135438Y271840D01*
X135356Y271705D01*
X135296Y271560D01*
X135259Y271407D01*
X135250Y271250D01*
X135252Y269750D01*
X132250D01*
Y284068D01*
X133432Y285250D01*
X135257D01*
X135259Y283593D01*
X135296Y283440D01*
X135356Y283295D01*
X135438Y283160D01*
X135541Y283041D01*
X135660Y282938D01*
X135795Y282856D01*
X135940Y282796D01*
X136093Y282759D01*
X136250Y282750D01*
X139993Y282755D01*
Y282264D01*
G37*
G36*
Y322264D02*X139255Y322206D01*
X138528Y322031D01*
X137837Y321745D01*
X137199Y321355D01*
X136631Y320869D01*
X136145Y320301D01*
X135755Y319663D01*
X135469Y318972D01*
X135294Y318245D01*
X135235Y317500D01*
X135294Y316755D01*
X135469Y316028D01*
X135755Y315337D01*
X136145Y314699D01*
X136631Y314131D01*
X137199Y313645D01*
X137837Y313255D01*
X138528Y312969D01*
X139255Y312794D01*
X139993Y312736D01*
Y312245D01*
X136093Y312241D01*
X135940Y312204D01*
X135795Y312144D01*
X135660Y312062D01*
X135541Y311959D01*
X135438Y311840D01*
X135356Y311705D01*
X135296Y311560D01*
X135259Y311407D01*
X135250Y311250D01*
X135252Y309750D01*
X132250D01*
Y325250D01*
X135257D01*
X135259Y323593D01*
X135296Y323440D01*
X135356Y323295D01*
X135438Y323160D01*
X135541Y323041D01*
X135660Y322938D01*
X135795Y322856D01*
X135940Y322796D01*
X136093Y322759D01*
X136250Y322750D01*
X139993Y322755D01*
Y322264D01*
G37*
G36*
Y362264D02*X139255Y362206D01*
X138528Y362031D01*
X137837Y361745D01*
X137199Y361355D01*
X136631Y360869D01*
X136145Y360301D01*
X135755Y359663D01*
X135469Y358972D01*
X135294Y358245D01*
X135235Y357500D01*
X135294Y356755D01*
X135469Y356028D01*
X135755Y355337D01*
X136145Y354699D01*
X136631Y354131D01*
X137199Y353645D01*
X137837Y353255D01*
X138528Y352969D01*
X139255Y352794D01*
X139993Y352736D01*
Y352245D01*
X136093Y352241D01*
X135940Y352204D01*
X135795Y352144D01*
X135660Y352062D01*
X135541Y351959D01*
X135438Y351840D01*
X135356Y351705D01*
X135296Y351560D01*
X135259Y351407D01*
X135250Y351250D01*
X135252Y349750D01*
X132250D01*
Y364068D01*
X133432Y365250D01*
X135257D01*
X135259Y363593D01*
X135296Y363440D01*
X135356Y363295D01*
X135438Y363160D01*
X135541Y363041D01*
X135660Y362938D01*
X135795Y362856D01*
X135940Y362796D01*
X136093Y362759D01*
X136250Y362750D01*
X139993Y362755D01*
Y362264D01*
G37*
G36*
X136499Y374285D02*X136631Y374131D01*
X137199Y373645D01*
X137837Y373255D01*
X138528Y372969D01*
X139255Y372794D01*
X139993Y372736D01*
Y372245D01*
X136499Y372241D01*
Y374285D01*
G37*
G36*
Y400000D02*X139993D01*
Y396750D01*
X139799D01*
X139400Y396712D01*
X139006Y396637D01*
X138621Y396525D01*
X138248Y396377D01*
X137891Y396195D01*
X137825Y396151D01*
X137767Y396097D01*
X137719Y396034D01*
X137680Y395964D01*
X137654Y395890D01*
X137639Y395812D01*
X137636Y395733D01*
X137646Y395654D01*
X137668Y395578D01*
X137702Y395506D01*
X137747Y395441D01*
X137801Y395383D01*
X137864Y395334D01*
X137933Y395296D01*
X138008Y395269D01*
X138086Y395255D01*
X138165Y395252D01*
X138243Y395262D01*
X138320Y395284D01*
X138391Y395319D01*
X138662Y395462D01*
X138947Y395575D01*
X139241Y395660D01*
X139542Y395718D01*
X139847Y395746D01*
X139993D01*
Y389254D01*
X139847D01*
X139542Y389282D01*
X139241Y389340D01*
X138947Y389425D01*
X138662Y389538D01*
X138389Y389678D01*
X138318Y389712D01*
X138243Y389734D01*
X138165Y389744D01*
X138086Y389742D01*
X138009Y389727D01*
X137935Y389700D01*
X137866Y389663D01*
X137803Y389614D01*
X137750Y389557D01*
X137705Y389492D01*
X137672Y389421D01*
X137650Y389345D01*
X137640Y389267D01*
X137642Y389188D01*
X137657Y389111D01*
X137684Y389037D01*
X137722Y388968D01*
X137770Y388906D01*
X137827Y388852D01*
X137893Y388809D01*
X138248Y388623D01*
X138621Y388475D01*
X139006Y388363D01*
X139400Y388288D01*
X139799Y388250D01*
X139993D01*
Y382264D01*
X139255Y382206D01*
X138528Y382031D01*
X137837Y381745D01*
X137199Y381355D01*
X136631Y380869D01*
X136499Y380715D01*
Y390200D01*
X136536Y390180D01*
X136610Y390154D01*
X136688Y390139D01*
X136767Y390136D01*
X136846Y390146D01*
X136922Y390168D01*
X136994Y390202D01*
X137059Y390247D01*
X137117Y390301D01*
X137166Y390364D01*
X137204Y390433D01*
X137231Y390508D01*
X137245Y390586D01*
X137248Y390665D01*
X137238Y390743D01*
X137216Y390820D01*
X137181Y390891D01*
X137038Y391162D01*
X136925Y391447D01*
X136840Y391741D01*
X136782Y392042D01*
X136754Y392347D01*
Y392653D01*
X136782Y392958D01*
X136840Y393259D01*
X136925Y393553D01*
X137038Y393838D01*
X137178Y394111D01*
X137212Y394182D01*
X137234Y394257D01*
X137244Y394335D01*
X137242Y394414D01*
X137227Y394491D01*
X137200Y394565D01*
X137163Y394634D01*
X137114Y394697D01*
X137057Y394750D01*
X136992Y394795D01*
X136921Y394828D01*
X136845Y394850D01*
X136767Y394860D01*
X136688Y394858D01*
X136611Y394843D01*
X136537Y394816D01*
X136499Y394795D01*
Y400000D01*
G37*
G36*
X106247D02*X136499D01*
Y394795D01*
X136468Y394778D01*
X136406Y394730D01*
X136352Y394673D01*
X136309Y394607D01*
X136123Y394252D01*
X135975Y393879D01*
X135863Y393494D01*
X135788Y393100D01*
X135750Y392701D01*
Y392299D01*
X135788Y391900D01*
X135863Y391506D01*
X135975Y391121D01*
X136123Y390748D01*
X136305Y390391D01*
X136349Y390325D01*
X136403Y390267D01*
X136466Y390219D01*
X136499Y390200D01*
Y380715D01*
X136145Y380301D01*
X135755Y379663D01*
X135469Y378972D01*
X135294Y378245D01*
X135235Y377500D01*
X135294Y376755D01*
X135469Y376028D01*
X135755Y375337D01*
X136145Y374699D01*
X136499Y374285D01*
Y372241D01*
X136093Y372241D01*
X135940Y372204D01*
X135795Y372144D01*
X135660Y372062D01*
X135541Y371959D01*
X135438Y371840D01*
X135356Y371705D01*
X135296Y371560D01*
X135259Y371407D01*
X135250Y371250D01*
X135252Y369750D01*
X132588D01*
X132500Y369757D01*
X132147Y369729D01*
X131803Y369646D01*
X131475Y369511D01*
X131173Y369326D01*
X131173Y369326D01*
X130904Y369096D01*
X130847Y369029D01*
X128471Y366653D01*
X128404Y366596D01*
X128174Y366327D01*
X127989Y366025D01*
X127854Y365697D01*
X127771Y365353D01*
X127771Y365353D01*
X127743Y365000D01*
X127750Y364912D01*
Y347588D01*
X127743Y347500D01*
X127750Y347412D01*
Y327588D01*
X127743Y327500D01*
X127750Y327412D01*
Y309750D01*
X110088D01*
X110000Y309757D01*
X109647Y309729D01*
X109303Y309646D01*
X108975Y309511D01*
X108673Y309326D01*
X108673Y309326D01*
X108404Y309096D01*
X108347Y309029D01*
X106247Y306929D01*
Y400000D01*
G37*
G36*
X89987Y75250D02*X106247D01*
Y42500D01*
X89987D01*
Y54192D01*
X90000Y54191D01*
X91300Y54293D01*
X92568Y54598D01*
X93772Y55097D01*
X94884Y55778D01*
X95875Y56625D01*
X96722Y57616D01*
X97403Y58728D01*
X97902Y59932D01*
X98207Y61200D01*
X98284Y62500D01*
X98207Y63800D01*
X97902Y65068D01*
X97403Y66272D01*
X96722Y67384D01*
X95875Y68375D01*
X94884Y69222D01*
X93772Y69903D01*
X92568Y70402D01*
X91300Y70707D01*
X90000Y70809D01*
X89987Y70808D01*
Y75250D01*
G37*
G36*
X64743Y75263D02*X65000Y75243D01*
X65088Y75250D01*
X89987D01*
Y70808D01*
X88700Y70707D01*
X87432Y70402D01*
X86228Y69903D01*
X85116Y69222D01*
X84125Y68375D01*
X83278Y67384D01*
X82597Y66272D01*
X82098Y65068D01*
X81793Y63800D01*
X81691Y62500D01*
X81793Y61200D01*
X82098Y59932D01*
X82597Y58728D01*
X83278Y57616D01*
X84125Y56625D01*
X85116Y55778D01*
X86228Y55097D01*
X87432Y54598D01*
X88700Y54293D01*
X89987Y54192D01*
Y42500D01*
X64743D01*
Y67750D01*
X71688D01*
X71754Y67642D01*
X72163Y67163D01*
X72642Y66754D01*
X73178Y66425D01*
X73760Y66184D01*
X74372Y66037D01*
X75000Y65988D01*
X75628Y66037D01*
X76240Y66184D01*
X76822Y66425D01*
X77358Y66754D01*
X77837Y67163D01*
X78246Y67642D01*
X78575Y68178D01*
X78816Y68760D01*
X78963Y69372D01*
X79000Y70000D01*
X78963Y70628D01*
X78816Y71240D01*
X78575Y71822D01*
X78246Y72358D01*
X77837Y72837D01*
X77358Y73246D01*
X76822Y73575D01*
X76240Y73816D01*
X75628Y73963D01*
X75000Y74012D01*
X74372Y73963D01*
X73760Y73816D01*
X73178Y73575D01*
X72642Y73246D01*
X72163Y72837D01*
X71754Y72358D01*
X71688Y72250D01*
X64743D01*
Y75263D01*
G37*
G36*
Y349183D02*X64858Y349254D01*
X65337Y349663D01*
X65746Y350142D01*
X65812Y350250D01*
X69068D01*
X70250Y349068D01*
Y318432D01*
X69068Y317250D01*
X64743D01*
Y319183D01*
X64858Y319254D01*
X65337Y319663D01*
X65746Y320142D01*
X66075Y320678D01*
X66316Y321260D01*
X66463Y321872D01*
X66500Y322500D01*
X66463Y323128D01*
X66316Y323740D01*
X66075Y324322D01*
X65746Y324858D01*
X65337Y325337D01*
X64858Y325746D01*
X64743Y325817D01*
Y332324D01*
X64757Y332500D01*
X64750Y332588D01*
Y334188D01*
X64858Y334254D01*
X65337Y334663D01*
X65746Y335142D01*
X66075Y335678D01*
X66316Y336260D01*
X66463Y336872D01*
X66500Y337500D01*
X66463Y338128D01*
X66316Y338740D01*
X66075Y339322D01*
X65746Y339858D01*
X65337Y340337D01*
X64858Y340746D01*
X64743Y340817D01*
Y349183D01*
G37*
G36*
Y234183D02*X64858Y234254D01*
X65337Y234663D01*
X65746Y235142D01*
X66075Y235678D01*
X66316Y236260D01*
X66463Y236872D01*
X66500Y237500D01*
X66463Y238128D01*
X66316Y238740D01*
X66075Y239322D01*
X65746Y239858D01*
X65337Y240337D01*
X64858Y240746D01*
X64750Y240812D01*
Y247412D01*
X64757Y247500D01*
X64743Y247676D01*
Y257750D01*
X66568D01*
X67750Y256568D01*
Y230932D01*
X64743Y227925D01*
Y234183D01*
G37*
G36*
X85000Y122986D02*X85706Y123042D01*
X86395Y123207D01*
X87049Y123478D01*
X87653Y123848D01*
X88192Y124308D01*
X88652Y124847D01*
X88899Y125250D01*
X99912D01*
X100000Y125243D01*
X100353Y125271D01*
X100353Y125271D01*
X100697Y125354D01*
X101025Y125489D01*
X101327Y125674D01*
X101596Y125904D01*
X101653Y125971D01*
X106247Y130565D01*
Y119750D01*
X88899D01*
X88652Y120153D01*
X88192Y120692D01*
X87653Y121152D01*
X87049Y121522D01*
X86395Y121793D01*
X85706Y121958D01*
X85000Y122014D01*
Y122986D01*
G37*
G36*
Y170250D02*X106247D01*
Y167250D01*
X100088D01*
X100000Y167257D01*
X99647Y167229D01*
X99303Y167146D01*
X98975Y167011D01*
X98673Y166826D01*
X98673Y166826D01*
X98404Y166596D01*
X98347Y166529D01*
X95971Y164153D01*
X95904Y164096D01*
X95674Y163827D01*
X95489Y163525D01*
X95354Y163197D01*
X95271Y162853D01*
X95271Y162853D01*
X95243Y162500D01*
X95250Y162412D01*
Y140812D01*
X95142Y140746D01*
X94663Y140337D01*
X94254Y139858D01*
X93925Y139322D01*
X93684Y138740D01*
X93537Y138128D01*
X93488Y137500D01*
X93537Y136872D01*
X93684Y136260D01*
X93925Y135678D01*
X94254Y135142D01*
X94663Y134663D01*
X95142Y134254D01*
X95678Y133925D01*
X96260Y133684D01*
X96872Y133537D01*
X97500Y133488D01*
X98128Y133537D01*
X98740Y133684D01*
X99322Y133925D01*
X99858Y134254D01*
X100337Y134663D01*
X100746Y135142D01*
X101075Y135678D01*
X101316Y136260D01*
X101463Y136872D01*
X101500Y137500D01*
X101463Y138128D01*
X101316Y138740D01*
X101075Y139322D01*
X100746Y139858D01*
X100337Y140337D01*
X99858Y140746D01*
X99750Y140812D01*
Y161568D01*
X100932Y162750D01*
X106247D01*
Y136929D01*
X99068Y129750D01*
X88899D01*
X88652Y130153D01*
X88192Y130692D01*
X87653Y131152D01*
X87049Y131522D01*
X86395Y131793D01*
X85706Y131958D01*
X85000Y132014D01*
Y132986D01*
X85706Y133042D01*
X86395Y133207D01*
X87049Y133478D01*
X87653Y133848D01*
X88192Y134308D01*
X88652Y134847D01*
X89022Y135451D01*
X89293Y136105D01*
X89458Y136794D01*
X89500Y137500D01*
X89458Y138206D01*
X89293Y138895D01*
X89022Y139549D01*
X88652Y140153D01*
X88192Y140692D01*
X87653Y141152D01*
X87049Y141522D01*
X86395Y141793D01*
X85706Y141958D01*
X85000Y142014D01*
Y142986D01*
X85706Y143042D01*
X86395Y143207D01*
X87049Y143478D01*
X87653Y143848D01*
X88192Y144308D01*
X88652Y144847D01*
X89022Y145451D01*
X89293Y146105D01*
X89458Y146794D01*
X89500Y147500D01*
X89458Y148206D01*
X89293Y148895D01*
X89022Y149549D01*
X88652Y150153D01*
X88192Y150692D01*
X87653Y151152D01*
X87049Y151522D01*
X86395Y151793D01*
X85706Y151958D01*
X85000Y152014D01*
Y152986D01*
X85706Y153042D01*
X86395Y153207D01*
X87049Y153478D01*
X87653Y153848D01*
X88192Y154308D01*
X88652Y154847D01*
X89022Y155451D01*
X89293Y156105D01*
X89458Y156794D01*
X89500Y157500D01*
X89458Y158206D01*
X89293Y158895D01*
X89022Y159549D01*
X88652Y160153D01*
X88192Y160692D01*
X87653Y161152D01*
X87049Y161522D01*
X86395Y161793D01*
X85706Y161958D01*
X85000Y162014D01*
Y170250D01*
G37*
G36*
Y175250D02*X104912D01*
X105000Y175243D01*
X105353Y175271D01*
X105353Y175271D01*
X105697Y175354D01*
X106025Y175489D01*
X106247Y175625D01*
Y174750D01*
X85000D01*
Y175250D01*
G37*
G36*
X88750Y95007D02*X89022Y95451D01*
X89293Y96105D01*
X89458Y96794D01*
X89500Y97500D01*
X89458Y98206D01*
X89293Y98895D01*
X89022Y99549D01*
X88750Y99993D01*
Y105007D01*
X89022Y105451D01*
X89293Y106105D01*
X89458Y106794D01*
X89500Y107500D01*
X89458Y108206D01*
X89293Y108895D01*
X89022Y109549D01*
X88750Y109993D01*
Y115007D01*
X88899Y115250D01*
X106247D01*
Y79750D01*
X88750D01*
Y85248D01*
X88868Y85257D01*
X88982Y85285D01*
X89092Y85330D01*
X89192Y85391D01*
X89282Y85468D01*
X89359Y85558D01*
X89420Y85658D01*
X89465Y85768D01*
X89493Y85882D01*
X89500Y86000D01*
Y89000D01*
X89493Y89118D01*
X89465Y89232D01*
X89420Y89342D01*
X89359Y89442D01*
X89282Y89532D01*
X89192Y89609D01*
X89092Y89670D01*
X88982Y89715D01*
X88868Y89743D01*
X88750Y89752D01*
Y95007D01*
G37*
G36*
Y109993D02*X88652Y110153D01*
X88192Y110692D01*
X87653Y111152D01*
X87049Y111522D01*
X86395Y111793D01*
X85706Y111958D01*
X85000Y112014D01*
Y112986D01*
X85706Y113042D01*
X86395Y113207D01*
X87049Y113478D01*
X87653Y113848D01*
X88192Y114308D01*
X88652Y114847D01*
X88750Y115007D01*
Y109993D01*
G37*
G36*
Y99993D02*X88652Y100153D01*
X88192Y100692D01*
X87653Y101152D01*
X87049Y101522D01*
X86395Y101793D01*
X85706Y101958D01*
X85000Y102014D01*
Y102986D01*
X85706Y103042D01*
X86395Y103207D01*
X87049Y103478D01*
X87653Y103848D01*
X88192Y104308D01*
X88652Y104847D01*
X88750Y105007D01*
Y99993D01*
G37*
G36*
X85000Y92986D02*X85706Y93042D01*
X86395Y93207D01*
X87049Y93478D01*
X87653Y93848D01*
X88192Y94308D01*
X88652Y94847D01*
X88750Y95007D01*
Y89752D01*
X88632Y89743D01*
X88518Y89715D01*
X88408Y89670D01*
X88308Y89609D01*
X88218Y89532D01*
X88141Y89442D01*
X88080Y89342D01*
X88035Y89232D01*
X88007Y89118D01*
X88000Y89000D01*
Y86000D01*
X88007Y85882D01*
X88035Y85768D01*
X88080Y85658D01*
X88141Y85558D01*
X88218Y85468D01*
X88308Y85391D01*
X88408Y85330D01*
X88518Y85285D01*
X88632Y85257D01*
X88750Y85248D01*
Y79750D01*
X85000D01*
Y83000D01*
X86500D01*
X86618Y83007D01*
X86732Y83035D01*
X86842Y83080D01*
X86942Y83141D01*
X87032Y83218D01*
X87109Y83308D01*
X87170Y83408D01*
X87215Y83518D01*
X87243Y83632D01*
X87252Y83750D01*
X87243Y83868D01*
X87215Y83982D01*
X87170Y84092D01*
X87109Y84192D01*
X87032Y84282D01*
X86942Y84359D01*
X86842Y84420D01*
X86732Y84465D01*
X86618Y84493D01*
X86500Y84500D01*
X85000D01*
Y90500D01*
X86500D01*
X86618Y90507D01*
X86732Y90535D01*
X86842Y90580D01*
X86942Y90641D01*
X87032Y90718D01*
X87109Y90808D01*
X87170Y90908D01*
X87215Y91018D01*
X87243Y91132D01*
X87252Y91250D01*
X87243Y91368D01*
X87215Y91482D01*
X87170Y91592D01*
X87109Y91692D01*
X87032Y91782D01*
X86942Y91859D01*
X86842Y91920D01*
X86732Y91965D01*
X86618Y91993D01*
X86500Y92000D01*
X85000D01*
Y92986D01*
G37*
G36*
Y400000D02*X106247D01*
Y306929D01*
X105971Y306653D01*
X105904Y306596D01*
X105674Y306327D01*
X105489Y306025D01*
X105354Y305697D01*
X105271Y305353D01*
X105271Y305353D01*
X105243Y305000D01*
X105250Y304912D01*
Y180932D01*
X104068Y179750D01*
X85000D01*
Y373377D01*
X85116Y373278D01*
X86228Y372597D01*
X87432Y372098D01*
X88700Y371793D01*
X90000Y371691D01*
X91300Y371793D01*
X92568Y372098D01*
X93772Y372597D01*
X94884Y373278D01*
X95875Y374125D01*
X96722Y375116D01*
X97403Y376228D01*
X97902Y377432D01*
X98207Y378700D01*
X98284Y380000D01*
X98207Y381300D01*
X97902Y382568D01*
X97403Y383772D01*
X96722Y384884D01*
X95875Y385875D01*
X94884Y386722D01*
X93772Y387403D01*
X92568Y387902D01*
X91300Y388207D01*
X90000Y388309D01*
X88700Y388207D01*
X87432Y387902D01*
X86228Y387403D01*
X85116Y386722D01*
X85000Y386623D01*
Y400000D01*
G37*
G36*
Y112014D02*X84294Y111958D01*
X83605Y111793D01*
X82951Y111522D01*
X82347Y111152D01*
X81808Y110692D01*
X81348Y110153D01*
X81101Y109750D01*
X78432D01*
X77250Y110932D01*
Y169068D01*
X78432Y170250D01*
X85000D01*
Y162014D01*
X84294Y161958D01*
X83605Y161793D01*
X82951Y161522D01*
X82347Y161152D01*
X81808Y160692D01*
X81348Y160153D01*
X80978Y159549D01*
X80707Y158895D01*
X80542Y158206D01*
X80486Y157500D01*
X80542Y156794D01*
X80707Y156105D01*
X80978Y155451D01*
X81348Y154847D01*
X81808Y154308D01*
X82347Y153848D01*
X82951Y153478D01*
X83605Y153207D01*
X84294Y153042D01*
X85000Y152986D01*
Y152014D01*
X84294Y151958D01*
X83605Y151793D01*
X82951Y151522D01*
X82347Y151152D01*
X81808Y150692D01*
X81348Y150153D01*
X80978Y149549D01*
X80707Y148895D01*
X80542Y148206D01*
X80486Y147500D01*
X80542Y146794D01*
X80707Y146105D01*
X80978Y145451D01*
X81348Y144847D01*
X81808Y144308D01*
X82347Y143848D01*
X82951Y143478D01*
X83605Y143207D01*
X84294Y143042D01*
X85000Y142986D01*
Y142014D01*
X84294Y141958D01*
X83605Y141793D01*
X82951Y141522D01*
X82347Y141152D01*
X81808Y140692D01*
X81348Y140153D01*
X80978Y139549D01*
X80707Y138895D01*
X80542Y138206D01*
X80486Y137500D01*
X80542Y136794D01*
X80707Y136105D01*
X80978Y135451D01*
X81348Y134847D01*
X81808Y134308D01*
X82347Y133848D01*
X82951Y133478D01*
X83605Y133207D01*
X84294Y133042D01*
X85000Y132986D01*
Y132014D01*
X84294Y131958D01*
X83605Y131793D01*
X82951Y131522D01*
X82347Y131152D01*
X81808Y130692D01*
X81348Y130153D01*
X80978Y129549D01*
X80707Y128895D01*
X80542Y128206D01*
X80486Y127500D01*
X80542Y126794D01*
X80707Y126105D01*
X80978Y125451D01*
X81348Y124847D01*
X81808Y124308D01*
X82347Y123848D01*
X82951Y123478D01*
X83605Y123207D01*
X84294Y123042D01*
X85000Y122986D01*
Y122014D01*
X84294Y121958D01*
X83605Y121793D01*
X82951Y121522D01*
X82347Y121152D01*
X81808Y120692D01*
X81348Y120153D01*
X80978Y119549D01*
X80707Y118895D01*
X80542Y118206D01*
X80486Y117500D01*
X80542Y116794D01*
X80707Y116105D01*
X80978Y115451D01*
X81348Y114847D01*
X81808Y114308D01*
X82347Y113848D01*
X82951Y113478D01*
X83605Y113207D01*
X84294Y113042D01*
X85000Y112986D01*
Y112014D01*
G37*
G36*
Y102014D02*X84294Y101958D01*
X83605Y101793D01*
X82951Y101522D01*
X82347Y101152D01*
X81808Y100692D01*
X81348Y100153D01*
X81101Y99750D01*
X73432D01*
X72250Y100932D01*
Y174068D01*
X73432Y175250D01*
X85000D01*
Y174750D01*
X77588D01*
X77500Y174757D01*
X77147Y174729D01*
X76803Y174646D01*
X76475Y174511D01*
X76173Y174326D01*
X76173Y174326D01*
X75904Y174096D01*
X75847Y174029D01*
X73471Y171653D01*
X73404Y171596D01*
X73174Y171327D01*
X72989Y171025D01*
X72854Y170697D01*
X72771Y170353D01*
X72771Y170353D01*
X72743Y170000D01*
X72750Y169912D01*
Y110088D01*
X72743Y110000D01*
X72771Y109647D01*
Y109647D01*
X72854Y109303D01*
X72989Y108975D01*
X73059Y108861D01*
X73174Y108673D01*
X73174Y108673D01*
X73404Y108404D01*
X73471Y108347D01*
X75847Y105971D01*
X75904Y105904D01*
X76173Y105674D01*
X76173Y105674D01*
X76361Y105559D01*
X76475Y105489D01*
X76803Y105354D01*
X77147Y105271D01*
X77147D01*
X77500Y105243D01*
X77588Y105250D01*
X81101D01*
X81348Y104847D01*
X81808Y104308D01*
X82347Y103848D01*
X82951Y103478D01*
X83605Y103207D01*
X84294Y103042D01*
X85000Y102986D01*
Y102014D01*
G37*
G36*
X81250Y95007D02*X81348Y94847D01*
X81808Y94308D01*
X82347Y93848D01*
X82951Y93478D01*
X83605Y93207D01*
X84294Y93042D01*
X85000Y92986D01*
Y92000D01*
X83500D01*
X83382Y91993D01*
X83268Y91965D01*
X83158Y91920D01*
X83058Y91859D01*
X82968Y91782D01*
X82891Y91692D01*
X82830Y91592D01*
X82785Y91482D01*
X82757Y91368D01*
X82748Y91250D01*
X82757Y91132D01*
X82785Y91018D01*
X82830Y90908D01*
X82891Y90808D01*
X82968Y90718D01*
X83058Y90641D01*
X83158Y90580D01*
X83268Y90535D01*
X83382Y90507D01*
X83500Y90500D01*
X85000D01*
Y84500D01*
X83500D01*
X83382Y84493D01*
X83268Y84465D01*
X83158Y84420D01*
X83058Y84359D01*
X82968Y84282D01*
X82891Y84192D01*
X82830Y84092D01*
X82785Y83982D01*
X82757Y83868D01*
X82748Y83750D01*
X82757Y83632D01*
X82785Y83518D01*
X82830Y83408D01*
X82891Y83308D01*
X82968Y83218D01*
X83058Y83141D01*
X83158Y83080D01*
X83268Y83035D01*
X83382Y83007D01*
X83500Y83000D01*
X85000D01*
Y79750D01*
X81250D01*
Y85248D01*
X81368Y85257D01*
X81482Y85285D01*
X81592Y85330D01*
X81692Y85391D01*
X81782Y85468D01*
X81859Y85558D01*
X81920Y85658D01*
X81965Y85768D01*
X81993Y85882D01*
X82000Y86000D01*
Y89000D01*
X81993Y89118D01*
X81965Y89232D01*
X81920Y89342D01*
X81859Y89442D01*
X81782Y89532D01*
X81692Y89609D01*
X81592Y89670D01*
X81482Y89715D01*
X81368Y89743D01*
X81250Y89752D01*
Y95007D01*
G37*
G36*
Y400000D02*X85000D01*
Y386623D01*
X84125Y385875D01*
X83278Y384884D01*
X82597Y383772D01*
X82098Y382568D01*
X81793Y381300D01*
X81691Y380000D01*
X81793Y378700D01*
X82098Y377432D01*
X82597Y376228D01*
X83278Y375116D01*
X84125Y374125D01*
X85000Y373377D01*
Y179750D01*
X81250D01*
Y400000D01*
G37*
G36*
X64743Y204183D02*X64858Y204254D01*
X65337Y204663D01*
X65746Y205142D01*
X66075Y205678D01*
X66316Y206260D01*
X66463Y206872D01*
X66500Y207500D01*
X66463Y208128D01*
X66316Y208740D01*
X66075Y209322D01*
X65746Y209858D01*
X65337Y210337D01*
X64858Y210746D01*
X64743Y210817D01*
Y219183D01*
X64858Y219254D01*
X65337Y219663D01*
X65746Y220142D01*
X66075Y220678D01*
X66316Y221260D01*
X66463Y221872D01*
X66500Y222500D01*
X66463Y223128D01*
X66433Y223251D01*
X71529Y228347D01*
X71596Y228404D01*
X71826Y228673D01*
X71826Y228673D01*
X72011Y228975D01*
X72146Y229303D01*
X72229Y229647D01*
X72257Y230000D01*
X72250Y230088D01*
Y257412D01*
X72257Y257500D01*
X72229Y257853D01*
X72146Y258197D01*
X72107Y258293D01*
X72011Y258525D01*
X71896Y258712D01*
X71826Y258827D01*
X71826Y258827D01*
X71596Y259096D01*
X71529Y259153D01*
X69153Y261529D01*
X69096Y261596D01*
X68827Y261826D01*
X68827Y261826D01*
X68712Y261896D01*
X68525Y262011D01*
X68293Y262107D01*
X68197Y262146D01*
X67853Y262229D01*
X67500Y262257D01*
X67412Y262250D01*
X64743D01*
Y312750D01*
X69912D01*
X70000Y312743D01*
X70353Y312771D01*
X70353Y312771D01*
X70697Y312854D01*
X71025Y312989D01*
X71327Y313174D01*
X71596Y313404D01*
X71653Y313471D01*
X74029Y315847D01*
X74096Y315904D01*
X74326Y316173D01*
X74326Y316173D01*
X74511Y316475D01*
X74646Y316803D01*
X74729Y317147D01*
X74757Y317500D01*
X74750Y317588D01*
Y349912D01*
X74757Y350000D01*
X74729Y350353D01*
X74646Y350697D01*
X74607Y350793D01*
X74511Y351025D01*
X74396Y351212D01*
X74326Y351327D01*
X74326Y351327D01*
X74096Y351596D01*
X74029Y351653D01*
X71653Y354029D01*
X71596Y354096D01*
X71327Y354326D01*
X71327Y354326D01*
X71212Y354396D01*
X71025Y354511D01*
X70793Y354607D01*
X70697Y354646D01*
X70353Y354729D01*
X70000Y354757D01*
X69912Y354750D01*
X65812D01*
X65746Y354858D01*
X65337Y355337D01*
X64858Y355746D01*
X64743Y355817D01*
Y400000D01*
X81250D01*
Y179750D01*
X72588D01*
X72500Y179757D01*
X72147Y179729D01*
X71803Y179646D01*
X71475Y179511D01*
X71173Y179326D01*
X71173Y179326D01*
X70904Y179096D01*
X70847Y179029D01*
X68471Y176653D01*
X68404Y176596D01*
X68174Y176327D01*
X67989Y176025D01*
X67854Y175697D01*
X67771Y175353D01*
X67771Y175353D01*
X67743Y175000D01*
X67750Y174912D01*
Y100088D01*
X67743Y100000D01*
X67771Y99647D01*
Y99647D01*
X67854Y99303D01*
X67989Y98975D01*
X68059Y98861D01*
X68174Y98673D01*
X68174Y98673D01*
X68404Y98404D01*
X68471Y98347D01*
X70847Y95971D01*
X70904Y95904D01*
X71173Y95674D01*
X71173Y95674D01*
X71361Y95559D01*
X71475Y95489D01*
X71803Y95354D01*
X72147Y95271D01*
X72147D01*
X72500Y95243D01*
X72588Y95250D01*
X81101D01*
X81250Y95007D01*
Y89752D01*
X81132Y89743D01*
X81018Y89715D01*
X80908Y89670D01*
X80808Y89609D01*
X80718Y89532D01*
X80641Y89442D01*
X80580Y89342D01*
X80535Y89232D01*
X80507Y89118D01*
X80500Y89000D01*
Y86000D01*
X80507Y85882D01*
X80535Y85768D01*
X80580Y85658D01*
X80641Y85558D01*
X80718Y85468D01*
X80808Y85391D01*
X80908Y85330D01*
X81018Y85285D01*
X81132Y85257D01*
X81250Y85248D01*
Y79750D01*
X65932D01*
X64750Y80932D01*
Y154912D01*
X64757Y155000D01*
X64743Y155176D01*
Y204183D01*
G37*
G36*
Y317250D02*X42494D01*
Y318488D01*
X42500Y318488D01*
X43128Y318537D01*
X43740Y318684D01*
X44322Y318925D01*
X44858Y319254D01*
X45337Y319663D01*
X45746Y320142D01*
X46075Y320678D01*
X46316Y321260D01*
X46463Y321872D01*
X46500Y322500D01*
X46463Y323128D01*
X46316Y323740D01*
X46075Y324322D01*
X45746Y324858D01*
X45337Y325337D01*
X44858Y325746D01*
X44322Y326075D01*
X43740Y326316D01*
X43128Y326463D01*
X42500Y326512D01*
X42494Y326512D01*
Y327750D01*
X59912D01*
X60000Y327743D01*
X60353Y327771D01*
X60353Y327771D01*
X60697Y327854D01*
X61025Y327989D01*
X61327Y328174D01*
X61596Y328404D01*
X61653Y328471D01*
X64029Y330847D01*
X64096Y330904D01*
X64326Y331173D01*
X64326Y331173D01*
X64511Y331475D01*
X64646Y331803D01*
X64729Y332147D01*
X64743Y332324D01*
Y325817D01*
X64322Y326075D01*
X63740Y326316D01*
X63128Y326463D01*
X62500Y326512D01*
X61872Y326463D01*
X61260Y326316D01*
X60678Y326075D01*
X60142Y325746D01*
X59663Y325337D01*
X59254Y324858D01*
X58925Y324322D01*
X58684Y323740D01*
X58537Y323128D01*
X58488Y322500D01*
X58537Y321872D01*
X58684Y321260D01*
X58925Y320678D01*
X59254Y320142D01*
X59663Y319663D01*
X60142Y319254D01*
X60678Y318925D01*
X61260Y318684D01*
X61872Y318537D01*
X62500Y318488D01*
X63128Y318537D01*
X63740Y318684D01*
X64322Y318925D01*
X64743Y319183D01*
Y317250D01*
G37*
G36*
X42494D02*X38432D01*
X34153Y321529D01*
X34096Y321596D01*
X33827Y321826D01*
X33827Y321826D01*
X33712Y321896D01*
X33525Y322011D01*
X33293Y322107D01*
X33197Y322146D01*
X32853Y322229D01*
X32500Y322257D01*
X32412Y322250D01*
X29588D01*
X29558Y322322D01*
X29139Y323007D01*
X28617Y323617D01*
X28007Y324139D01*
X27322Y324558D01*
X26581Y324865D01*
X26020Y325000D01*
X26581Y325135D01*
X27322Y325442D01*
X28007Y325861D01*
X28617Y326383D01*
X29139Y326993D01*
X29558Y327678D01*
X29588Y327750D01*
X42494D01*
Y326512D01*
X41872Y326463D01*
X41260Y326316D01*
X40678Y326075D01*
X40142Y325746D01*
X39663Y325337D01*
X39254Y324858D01*
X38925Y324322D01*
X38684Y323740D01*
X38537Y323128D01*
X38488Y322500D01*
X38537Y321872D01*
X38684Y321260D01*
X38925Y320678D01*
X39254Y320142D01*
X39663Y319663D01*
X40142Y319254D01*
X40678Y318925D01*
X41260Y318684D01*
X41872Y318537D01*
X42494Y318488D01*
Y317250D01*
G37*
G36*
X64743Y355817D02*X64322Y356075D01*
X63740Y356316D01*
X63128Y356463D01*
X62500Y356512D01*
X61872Y356463D01*
X61260Y356316D01*
X60678Y356075D01*
X60142Y355746D01*
X59663Y355337D01*
X59254Y354858D01*
X58925Y354322D01*
X58684Y353740D01*
X58537Y353128D01*
X58488Y352500D01*
X58537Y351872D01*
X58684Y351260D01*
X58925Y350678D01*
X59254Y350142D01*
X59663Y349663D01*
X60142Y349254D01*
X60678Y348925D01*
X61260Y348684D01*
X61872Y348537D01*
X62500Y348488D01*
X63128Y348537D01*
X63740Y348684D01*
X64322Y348925D01*
X64743Y349183D01*
Y340817D01*
X64322Y341075D01*
X63740Y341316D01*
X63128Y341463D01*
X62500Y341512D01*
X61872Y341463D01*
X61260Y341316D01*
X60678Y341075D01*
X60142Y340746D01*
X59663Y340337D01*
X59254Y339858D01*
X58925Y339322D01*
X58684Y338740D01*
X58537Y338128D01*
X58488Y337500D01*
X58537Y336872D01*
X58684Y336260D01*
X58925Y335678D01*
X59254Y335142D01*
X59663Y334663D01*
X60142Y334254D01*
X60250Y334188D01*
Y333432D01*
X59068Y332250D01*
X53501D01*
Y390205D01*
X53532Y390222D01*
X53594Y390270D01*
X53648Y390327D01*
X53691Y390393D01*
X53877Y390748D01*
X54025Y391121D01*
X54137Y391506D01*
X54212Y391900D01*
X54250Y392299D01*
Y392701D01*
X54212Y393100D01*
X54137Y393494D01*
X54025Y393879D01*
X53877Y394252D01*
X53695Y394609D01*
X53651Y394675D01*
X53597Y394733D01*
X53534Y394781D01*
X53501Y394800D01*
Y400000D01*
X64743D01*
Y355817D01*
G37*
G36*
X53501Y332250D02*X50002D01*
Y388250D01*
X50201D01*
X50600Y388288D01*
X50994Y388363D01*
X51379Y388475D01*
X51752Y388623D01*
X52109Y388805D01*
X52175Y388849D01*
X52233Y388903D01*
X52281Y388966D01*
X52320Y389036D01*
X52346Y389110D01*
X52361Y389188D01*
X52364Y389267D01*
X52354Y389346D01*
X52332Y389422D01*
X52298Y389494D01*
X52253Y389559D01*
X52199Y389617D01*
X52136Y389666D01*
X52067Y389704D01*
X51992Y389731D01*
X51914Y389745D01*
X51835Y389748D01*
X51757Y389738D01*
X51680Y389716D01*
X51609Y389681D01*
X51338Y389538D01*
X51053Y389425D01*
X50759Y389340D01*
X50458Y389282D01*
X50153Y389254D01*
X50002D01*
Y395746D01*
X50153D01*
X50458Y395718D01*
X50759Y395660D01*
X51053Y395575D01*
X51338Y395462D01*
X51611Y395322D01*
X51682Y395288D01*
X51757Y395266D01*
X51835Y395256D01*
X51914Y395258D01*
X51991Y395273D01*
X52065Y395300D01*
X52134Y395337D01*
X52197Y395386D01*
X52250Y395443D01*
X52295Y395508D01*
X52328Y395579D01*
X52350Y395655D01*
X52360Y395733D01*
X52358Y395812D01*
X52343Y395889D01*
X52316Y395963D01*
X52278Y396032D01*
X52230Y396094D01*
X52173Y396148D01*
X52107Y396191D01*
X51752Y396377D01*
X51379Y396525D01*
X50994Y396637D01*
X50600Y396712D01*
X50201Y396750D01*
X50002D01*
Y400000D01*
X53501D01*
Y394800D01*
X53464Y394820D01*
X53390Y394846D01*
X53312Y394861D01*
X53233Y394864D01*
X53154Y394854D01*
X53078Y394832D01*
X53006Y394798D01*
X52941Y394753D01*
X52883Y394699D01*
X52834Y394636D01*
X52796Y394567D01*
X52769Y394492D01*
X52755Y394414D01*
X52752Y394335D01*
X52762Y394257D01*
X52784Y394180D01*
X52819Y394109D01*
X52962Y393838D01*
X53075Y393553D01*
X53160Y393259D01*
X53218Y392958D01*
X53246Y392653D01*
Y392347D01*
X53218Y392042D01*
X53160Y391741D01*
X53075Y391447D01*
X52962Y391162D01*
X52822Y390889D01*
X52788Y390818D01*
X52766Y390743D01*
X52756Y390665D01*
X52758Y390586D01*
X52773Y390509D01*
X52800Y390435D01*
X52837Y390366D01*
X52886Y390303D01*
X52943Y390250D01*
X53008Y390205D01*
X53079Y390172D01*
X53155Y390150D01*
X53233Y390140D01*
X53312Y390142D01*
X53389Y390157D01*
X53463Y390184D01*
X53501Y390205D01*
Y332250D01*
G37*
G36*
X50002D02*X46499D01*
Y334482D01*
X46500Y334500D01*
X46499Y335191D01*
Y352482D01*
X46500Y352500D01*
X46499Y352518D01*
Y390200D01*
X46536Y390180D01*
X46610Y390154D01*
X46688Y390139D01*
X46767Y390136D01*
X46846Y390146D01*
X46922Y390168D01*
X46994Y390202D01*
X47059Y390247D01*
X47117Y390301D01*
X47166Y390364D01*
X47204Y390433D01*
X47231Y390508D01*
X47245Y390586D01*
X47248Y390665D01*
X47238Y390743D01*
X47216Y390820D01*
X47181Y390891D01*
X47038Y391162D01*
X46925Y391447D01*
X46840Y391741D01*
X46782Y392042D01*
X46754Y392347D01*
Y392653D01*
X46782Y392958D01*
X46840Y393259D01*
X46925Y393553D01*
X47038Y393838D01*
X47178Y394111D01*
X47212Y394182D01*
X47234Y394257D01*
X47244Y394335D01*
X47242Y394414D01*
X47227Y394491D01*
X47200Y394565D01*
X47163Y394634D01*
X47114Y394697D01*
X47057Y394750D01*
X46992Y394795D01*
X46921Y394828D01*
X46845Y394850D01*
X46767Y394860D01*
X46688Y394858D01*
X46611Y394843D01*
X46537Y394816D01*
X46499Y394795D01*
Y400000D01*
X50002D01*
Y396750D01*
X49799D01*
X49400Y396712D01*
X49006Y396637D01*
X48621Y396525D01*
X48248Y396377D01*
X47891Y396195D01*
X47825Y396151D01*
X47767Y396097D01*
X47719Y396034D01*
X47680Y395964D01*
X47654Y395890D01*
X47639Y395812D01*
X47636Y395733D01*
X47646Y395654D01*
X47668Y395578D01*
X47702Y395506D01*
X47747Y395441D01*
X47801Y395383D01*
X47864Y395334D01*
X47933Y395296D01*
X48008Y395269D01*
X48086Y395255D01*
X48165Y395252D01*
X48243Y395262D01*
X48320Y395284D01*
X48391Y395319D01*
X48662Y395462D01*
X48947Y395575D01*
X49241Y395660D01*
X49542Y395718D01*
X49847Y395746D01*
X50002D01*
Y389254D01*
X49847D01*
X49542Y389282D01*
X49241Y389340D01*
X48947Y389425D01*
X48662Y389538D01*
X48389Y389678D01*
X48318Y389712D01*
X48243Y389734D01*
X48165Y389744D01*
X48086Y389742D01*
X48009Y389727D01*
X47935Y389700D01*
X47866Y389663D01*
X47803Y389614D01*
X47750Y389557D01*
X47705Y389492D01*
X47672Y389421D01*
X47650Y389345D01*
X47640Y389267D01*
X47642Y389188D01*
X47657Y389111D01*
X47684Y389037D01*
X47722Y388968D01*
X47770Y388906D01*
X47827Y388852D01*
X47893Y388809D01*
X48248Y388623D01*
X48621Y388475D01*
X49006Y388363D01*
X49400Y388288D01*
X49799Y388250D01*
X50002D01*
Y332250D01*
G37*
G36*
X46499Y352518D02*X46463Y353128D01*
X46316Y353740D01*
X46075Y354322D01*
X45746Y354858D01*
X45337Y355337D01*
X44858Y355746D01*
X44322Y356075D01*
X43740Y356316D01*
X43128Y356463D01*
X42500Y356512D01*
X41872Y356463D01*
X41260Y356316D01*
X40678Y356075D01*
X40142Y355746D01*
X39663Y355337D01*
X39254Y354858D01*
X38925Y354322D01*
X38684Y353740D01*
X38537Y353128D01*
X38488Y352500D01*
X38507Y352250D01*
X29588D01*
X29558Y352322D01*
X29139Y353007D01*
X28617Y353617D01*
X28007Y354139D01*
X27322Y354558D01*
X26581Y354865D01*
X26020Y355000D01*
X26581Y355135D01*
X27322Y355442D01*
X28007Y355861D01*
X28617Y356383D01*
X29139Y356993D01*
X29558Y357678D01*
X29865Y358419D01*
X30053Y359200D01*
X30100Y360000D01*
X30053Y360800D01*
X29865Y361581D01*
X29558Y362322D01*
X29139Y363007D01*
X28617Y363617D01*
X28007Y364139D01*
X27322Y364558D01*
X26581Y364865D01*
X26398Y364909D01*
X28835Y364914D01*
X29065Y364969D01*
X29283Y365059D01*
X29484Y365183D01*
X29664Y365336D01*
X29817Y365516D01*
X29941Y365717D01*
X30031Y365935D01*
X30086Y366165D01*
X30100Y366400D01*
X30086Y373835D01*
X30031Y374065D01*
X29941Y374283D01*
X29817Y374484D01*
X29664Y374664D01*
X29484Y374817D01*
X29283Y374941D01*
X29065Y375031D01*
X28835Y375086D01*
X28600Y375100D01*
X21165Y375086D01*
X20935Y375031D01*
X20717Y374941D01*
X20516Y374817D01*
X20336Y374664D01*
X20183Y374484D01*
X20059Y374283D01*
X20000Y374140D01*
Y400000D01*
X46499D01*
Y394795D01*
X46468Y394778D01*
X46406Y394730D01*
X46352Y394673D01*
X46309Y394607D01*
X46123Y394252D01*
X45975Y393879D01*
X45863Y393494D01*
X45788Y393100D01*
X45750Y392701D01*
Y392299D01*
X45788Y391900D01*
X45863Y391506D01*
X45975Y391121D01*
X46123Y390748D01*
X46305Y390391D01*
X46349Y390325D01*
X46403Y390267D01*
X46466Y390219D01*
X46499Y390200D01*
Y352518D01*
G37*
G36*
Y335191D02*X46491Y340657D01*
X46454Y340810D01*
X46394Y340955D01*
X46312Y341090D01*
X46209Y341209D01*
X46090Y341312D01*
X45955Y341394D01*
X45810Y341454D01*
X45657Y341491D01*
X45500Y341500D01*
X41688Y341494D01*
X41653Y341529D01*
X41596Y341596D01*
X41327Y341826D01*
X41327Y341826D01*
X41212Y341896D01*
X41025Y342011D01*
X40793Y342107D01*
X40697Y342146D01*
X40353Y342229D01*
X40000Y342257D01*
X39912Y342250D01*
X29588D01*
X29558Y342322D01*
X29139Y343007D01*
X28617Y343617D01*
X28007Y344139D01*
X27322Y344558D01*
X26581Y344865D01*
X26020Y345000D01*
X26581Y345135D01*
X27322Y345442D01*
X28007Y345861D01*
X28617Y346383D01*
X29139Y346993D01*
X29558Y347678D01*
X29588Y347750D01*
X39912D01*
X40000Y347743D01*
X40353Y347771D01*
X40353Y347771D01*
X40697Y347854D01*
X41025Y347989D01*
X41327Y348174D01*
X41596Y348404D01*
X41653Y348471D01*
X41749Y348567D01*
X41872Y348537D01*
X42500Y348488D01*
X43128Y348537D01*
X43740Y348684D01*
X44322Y348925D01*
X44858Y349254D01*
X45337Y349663D01*
X45746Y350142D01*
X46075Y350678D01*
X46316Y351260D01*
X46463Y351872D01*
X46499Y352482D01*
Y335191D01*
G37*
G36*
Y332250D02*X29588D01*
X29558Y332322D01*
X29139Y333007D01*
X28617Y333617D01*
X28007Y334139D01*
X27322Y334558D01*
X26581Y334865D01*
X26020Y335000D01*
X26581Y335135D01*
X27322Y335442D01*
X28007Y335861D01*
X28617Y336383D01*
X29139Y336993D01*
X29558Y337678D01*
X29588Y337750D01*
X38504D01*
X38509Y334343D01*
X38546Y334190D01*
X38606Y334045D01*
X38688Y333910D01*
X38791Y333791D01*
X38910Y333688D01*
X39045Y333606D01*
X39190Y333546D01*
X39343Y333509D01*
X39500Y333500D01*
X45657Y333509D01*
X45810Y333546D01*
X45955Y333606D01*
X46090Y333688D01*
X46209Y333791D01*
X46312Y333910D01*
X46394Y334045D01*
X46454Y334190D01*
X46491Y334343D01*
X46499Y334482D01*
Y332250D01*
G37*
G36*
X64743Y262250D02*X29588D01*
X29558Y262322D01*
X29139Y263007D01*
X28617Y263617D01*
X28007Y264139D01*
X27322Y264558D01*
X26581Y264865D01*
X26020Y265000D01*
X26581Y265135D01*
X27322Y265442D01*
X28007Y265861D01*
X28617Y266383D01*
X29139Y266993D01*
X29558Y267678D01*
X29865Y268419D01*
X30053Y269200D01*
X30100Y270000D01*
X30053Y270800D01*
X29865Y271581D01*
X29558Y272322D01*
X29139Y273007D01*
X28617Y273617D01*
X28007Y274139D01*
X27322Y274558D01*
X26581Y274865D01*
X26020Y275000D01*
X26581Y275135D01*
X27322Y275442D01*
X28007Y275861D01*
X28617Y276383D01*
X29139Y276993D01*
X29558Y277678D01*
X29865Y278419D01*
X30053Y279200D01*
X30100Y280000D01*
X30053Y280800D01*
X29865Y281581D01*
X29558Y282322D01*
X29139Y283007D01*
X28617Y283617D01*
X28007Y284139D01*
X27322Y284558D01*
X26581Y284865D01*
X26020Y285000D01*
X26581Y285135D01*
X27322Y285442D01*
X28007Y285861D01*
X28617Y286383D01*
X29139Y286993D01*
X29558Y287678D01*
X29865Y288419D01*
X30053Y289200D01*
X30100Y290000D01*
X30053Y290800D01*
X29865Y291581D01*
X29558Y292322D01*
X29139Y293007D01*
X28617Y293617D01*
X28007Y294139D01*
X27322Y294558D01*
X26581Y294865D01*
X26020Y295000D01*
X26581Y295135D01*
X27322Y295442D01*
X28007Y295861D01*
X28617Y296383D01*
X29139Y296993D01*
X29558Y297678D01*
X29865Y298419D01*
X30053Y299200D01*
X30100Y300000D01*
X30053Y300800D01*
X29865Y301581D01*
X29558Y302322D01*
X29139Y303007D01*
X28617Y303617D01*
X28007Y304139D01*
X27322Y304558D01*
X26581Y304865D01*
X26020Y305000D01*
X26581Y305135D01*
X27322Y305442D01*
X28007Y305861D01*
X28617Y306383D01*
X29139Y306993D01*
X29558Y307678D01*
X29865Y308419D01*
X30053Y309200D01*
X30100Y310000D01*
X30053Y310800D01*
X29865Y311581D01*
X29558Y312322D01*
X29139Y313007D01*
X28617Y313617D01*
X28007Y314139D01*
X27322Y314558D01*
X26581Y314865D01*
X26020Y315000D01*
X26581Y315135D01*
X27322Y315442D01*
X28007Y315861D01*
X28617Y316383D01*
X29139Y316993D01*
X29558Y317678D01*
X29588Y317750D01*
X31568D01*
X35847Y313471D01*
X35904Y313404D01*
X36173Y313174D01*
X36173Y313174D01*
X36361Y313059D01*
X36475Y312989D01*
X36803Y312854D01*
X37147Y312771D01*
X37147D01*
X37500Y312743D01*
X37588Y312750D01*
X64743D01*
Y262250D01*
G37*
G36*
Y247676D02*X64729Y247853D01*
X64646Y248197D01*
X64607Y248293D01*
X64511Y248525D01*
X64396Y248712D01*
X64326Y248827D01*
X64326Y248827D01*
X64096Y249096D01*
X64029Y249153D01*
X61653Y251529D01*
X61596Y251596D01*
X61327Y251826D01*
X61327Y251826D01*
X61212Y251896D01*
X61025Y252011D01*
X60793Y252107D01*
X60697Y252146D01*
X60353Y252229D01*
X60000Y252257D01*
X59912Y252250D01*
X29588D01*
X29558Y252322D01*
X29139Y253007D01*
X28617Y253617D01*
X28007Y254139D01*
X27322Y254558D01*
X26581Y254865D01*
X26020Y255000D01*
X26581Y255135D01*
X27322Y255442D01*
X28007Y255861D01*
X28617Y256383D01*
X29139Y256993D01*
X29558Y257678D01*
X29588Y257750D01*
X64743D01*
Y247676D01*
G37*
G36*
Y210817D02*X64322Y211075D01*
X63740Y211316D01*
X63128Y211463D01*
X62500Y211512D01*
X61872Y211463D01*
X61260Y211316D01*
X60678Y211075D01*
X60142Y210746D01*
X59663Y210337D01*
X59254Y209858D01*
X58925Y209322D01*
X58684Y208740D01*
X58537Y208128D01*
X58488Y207500D01*
X58537Y206872D01*
X58567Y206749D01*
X54068Y202250D01*
X35932D01*
X29835Y208347D01*
X29865Y208419D01*
X30053Y209200D01*
X30100Y210000D01*
X30053Y210800D01*
X29865Y211581D01*
X29558Y212322D01*
X29139Y213007D01*
X28617Y213617D01*
X28007Y214139D01*
X27322Y214558D01*
X26581Y214865D01*
X26020Y215000D01*
X26581Y215135D01*
X27322Y215442D01*
X28007Y215861D01*
X28617Y216383D01*
X29139Y216993D01*
X29399Y217419D01*
X30250Y216568D01*
Y210088D01*
X30243Y210000D01*
X30271Y209647D01*
Y209647D01*
X30354Y209303D01*
X30489Y208975D01*
X30559Y208861D01*
X30674Y208673D01*
X30674Y208673D01*
X30904Y208404D01*
X30971Y208347D01*
X33347Y205971D01*
X33404Y205904D01*
X33673Y205674D01*
X33673Y205674D01*
X33861Y205559D01*
X33975Y205489D01*
X34303Y205354D01*
X34647Y205271D01*
X34647D01*
X35000Y205243D01*
X35088Y205250D01*
X39188D01*
X39254Y205142D01*
X39663Y204663D01*
X40142Y204254D01*
X40678Y203925D01*
X41260Y203684D01*
X41872Y203537D01*
X42500Y203488D01*
X43128Y203537D01*
X43740Y203684D01*
X44322Y203925D01*
X44858Y204254D01*
X45337Y204663D01*
X45746Y205142D01*
X46075Y205678D01*
X46316Y206260D01*
X46463Y206872D01*
X46500Y207500D01*
X46463Y208128D01*
X46316Y208740D01*
X46075Y209322D01*
X45746Y209858D01*
X45337Y210337D01*
X44858Y210746D01*
X44322Y211075D01*
X43740Y211316D01*
X43128Y211463D01*
X42500Y211512D01*
X41872Y211463D01*
X41260Y211316D01*
X40678Y211075D01*
X40142Y210746D01*
X39663Y210337D01*
X39254Y209858D01*
X39188Y209750D01*
X35932D01*
X34750Y210932D01*
Y217412D01*
X34757Y217500D01*
X34729Y217853D01*
X34646Y218197D01*
X34607Y218293D01*
X34511Y218525D01*
X34396Y218712D01*
X34326Y218827D01*
X34326Y218827D01*
X34096Y219096D01*
X34029Y219153D01*
X31653Y221529D01*
X31596Y221596D01*
X31327Y221826D01*
X31327Y221826D01*
X31212Y221896D01*
X31025Y222011D01*
X30793Y222107D01*
X30697Y222146D01*
X30353Y222229D01*
X30000Y222257D01*
X29912Y222250D01*
X29588D01*
X29558Y222322D01*
X29139Y223007D01*
X28617Y223617D01*
X28007Y224139D01*
X27322Y224558D01*
X26581Y224865D01*
X26020Y225000D01*
X26581Y225135D01*
X27322Y225442D01*
X28007Y225861D01*
X28617Y226383D01*
X29139Y226993D01*
X29558Y227678D01*
X29588Y227750D01*
X39068D01*
X40250Y226568D01*
Y226492D01*
X39343Y226491D01*
X39190Y226454D01*
X39045Y226394D01*
X38910Y226312D01*
X38791Y226209D01*
X38688Y226090D01*
X38606Y225955D01*
X38546Y225810D01*
X38509Y225657D01*
X38500Y225500D01*
X38509Y219343D01*
X38546Y219190D01*
X38606Y219045D01*
X38688Y218910D01*
X38791Y218791D01*
X38910Y218688D01*
X39045Y218606D01*
X39190Y218546D01*
X39343Y218509D01*
X39500Y218500D01*
X45657Y218509D01*
X45810Y218546D01*
X45955Y218606D01*
X46090Y218688D01*
X46209Y218791D01*
X46312Y218910D01*
X46394Y219045D01*
X46454Y219190D01*
X46491Y219343D01*
X46500Y219500D01*
X46491Y225657D01*
X46454Y225810D01*
X46394Y225955D01*
X46312Y226090D01*
X46209Y226209D01*
X46090Y226312D01*
X45955Y226394D01*
X45810Y226454D01*
X45657Y226491D01*
X45500Y226500D01*
X44750Y226499D01*
Y227412D01*
X44757Y227500D01*
X44729Y227853D01*
X44646Y228197D01*
X44607Y228293D01*
X44511Y228525D01*
X44396Y228712D01*
X44326Y228827D01*
X44326Y228827D01*
X44096Y229096D01*
X44029Y229153D01*
X41653Y231529D01*
X41596Y231596D01*
X41327Y231826D01*
X41327Y231826D01*
X41212Y231896D01*
X41025Y232011D01*
X40793Y232107D01*
X40697Y232146D01*
X40353Y232229D01*
X40000Y232257D01*
X39912Y232250D01*
X29588D01*
X29558Y232322D01*
X29139Y233007D01*
X28617Y233617D01*
X28007Y234139D01*
X27322Y234558D01*
X26581Y234865D01*
X26020Y235000D01*
X26581Y235135D01*
X27322Y235442D01*
X28007Y235861D01*
X28617Y236383D01*
X29139Y236993D01*
X29558Y237678D01*
X29588Y237750D01*
X38507D01*
X38488Y237500D01*
X38537Y236872D01*
X38684Y236260D01*
X38925Y235678D01*
X39254Y235142D01*
X39663Y234663D01*
X40142Y234254D01*
X40678Y233925D01*
X41260Y233684D01*
X41872Y233537D01*
X42500Y233488D01*
X43128Y233537D01*
X43740Y233684D01*
X44322Y233925D01*
X44858Y234254D01*
X45337Y234663D01*
X45746Y235142D01*
X46075Y235678D01*
X46316Y236260D01*
X46463Y236872D01*
X46500Y237500D01*
X46463Y238128D01*
X46316Y238740D01*
X46075Y239322D01*
X45746Y239858D01*
X45337Y240337D01*
X44858Y240746D01*
X44322Y241075D01*
X43740Y241316D01*
X43128Y241463D01*
X42500Y241512D01*
X41872Y241463D01*
X41749Y241433D01*
X41653Y241529D01*
X41596Y241596D01*
X41327Y241826D01*
X41327Y241826D01*
X41212Y241896D01*
X41025Y242011D01*
X40793Y242107D01*
X40697Y242146D01*
X40353Y242229D01*
X40000Y242257D01*
X39912Y242250D01*
X29588D01*
X29558Y242322D01*
X29139Y243007D01*
X28617Y243617D01*
X28007Y244139D01*
X27322Y244558D01*
X26581Y244865D01*
X26020Y245000D01*
X26581Y245135D01*
X27322Y245442D01*
X28007Y245861D01*
X28617Y246383D01*
X29139Y246993D01*
X29558Y247678D01*
X29588Y247750D01*
X59068D01*
X60250Y246568D01*
Y240812D01*
X60142Y240746D01*
X59663Y240337D01*
X59254Y239858D01*
X58925Y239322D01*
X58684Y238740D01*
X58537Y238128D01*
X58488Y237500D01*
X58537Y236872D01*
X58684Y236260D01*
X58925Y235678D01*
X59254Y235142D01*
X59663Y234663D01*
X60142Y234254D01*
X60678Y233925D01*
X61260Y233684D01*
X61872Y233537D01*
X62500Y233488D01*
X63128Y233537D01*
X63740Y233684D01*
X64322Y233925D01*
X64743Y234183D01*
Y227925D01*
X63251Y226433D01*
X63128Y226463D01*
X62500Y226512D01*
X61872Y226463D01*
X61260Y226316D01*
X60678Y226075D01*
X60142Y225746D01*
X59663Y225337D01*
X59254Y224858D01*
X58925Y224322D01*
X58684Y223740D01*
X58537Y223128D01*
X58488Y222500D01*
X58537Y221872D01*
X58684Y221260D01*
X58925Y220678D01*
X59254Y220142D01*
X59663Y219663D01*
X60142Y219254D01*
X60678Y218925D01*
X61260Y218684D01*
X61872Y218537D01*
X62500Y218488D01*
X63128Y218537D01*
X63740Y218684D01*
X64322Y218925D01*
X64743Y219183D01*
Y210817D01*
G37*
G36*
X55002Y69316D02*X55847Y68471D01*
X55904Y68404D01*
X56173Y68174D01*
X56173Y68174D01*
X56361Y68059D01*
X56475Y67989D01*
X56803Y67854D01*
X57147Y67771D01*
X57147D01*
X57500Y67743D01*
X57588Y67750D01*
X64743D01*
Y42500D01*
X55002D01*
Y69316D01*
G37*
G36*
Y197743D02*X55353Y197771D01*
X55353Y197771D01*
X55697Y197854D01*
X56025Y197989D01*
X56327Y198174D01*
X56596Y198404D01*
X56653Y198471D01*
X61749Y203567D01*
X61872Y203537D01*
X62500Y203488D01*
X63128Y203537D01*
X63740Y203684D01*
X64322Y203925D01*
X64743Y204183D01*
Y155176D01*
X64729Y155353D01*
X64646Y155697D01*
X64607Y155793D01*
X64511Y156025D01*
X64396Y156212D01*
X64326Y156327D01*
X64326Y156327D01*
X64096Y156596D01*
X64029Y156653D01*
X61653Y159029D01*
X61596Y159096D01*
X61327Y159326D01*
X61327Y159326D01*
X61212Y159396D01*
X61025Y159511D01*
X60793Y159607D01*
X60697Y159646D01*
X60353Y159729D01*
X60000Y159757D01*
X59912Y159750D01*
X58899D01*
X58652Y160153D01*
X58192Y160692D01*
X57653Y161152D01*
X57049Y161522D01*
X56395Y161793D01*
X55706Y161958D01*
X55002Y162014D01*
Y197743D01*
G37*
G36*
X58613Y114802D02*X58652Y114847D01*
X59022Y115451D01*
X59293Y116105D01*
X59458Y116794D01*
X59500Y117500D01*
X59458Y118206D01*
X59293Y118895D01*
X59022Y119549D01*
X58652Y120153D01*
X58613Y120198D01*
Y125353D01*
X58656Y125360D01*
X58768Y125397D01*
X58873Y125452D01*
X58968Y125522D01*
X59051Y125606D01*
X59119Y125702D01*
X59170Y125808D01*
X59318Y126216D01*
X59422Y126637D01*
X59484Y127067D01*
X59505Y127500D01*
X59484Y127933D01*
X59422Y128363D01*
X59318Y128784D01*
X59175Y129194D01*
X59122Y129300D01*
X59053Y129396D01*
X58970Y129481D01*
X58875Y129551D01*
X58769Y129606D01*
X58657Y129643D01*
X58613Y129651D01*
Y134802D01*
X58652Y134847D01*
X59022Y135451D01*
X59293Y136105D01*
X59458Y136794D01*
X59500Y137500D01*
X59458Y138206D01*
X59293Y138895D01*
X59022Y139549D01*
X58652Y140153D01*
X58613Y140198D01*
Y144802D01*
X58652Y144847D01*
X59022Y145451D01*
X59293Y146105D01*
X59458Y146794D01*
X59500Y147500D01*
X59458Y148206D01*
X59293Y148895D01*
X59022Y149549D01*
X58652Y150153D01*
X58613Y150198D01*
Y154802D01*
X58652Y154847D01*
X58899Y155250D01*
X59068D01*
X60250Y154068D01*
Y80088D01*
X60243Y80000D01*
X60271Y79647D01*
Y79647D01*
X60354Y79303D01*
X60489Y78975D01*
X60559Y78861D01*
X60674Y78673D01*
X60674Y78673D01*
X60904Y78404D01*
X60971Y78347D01*
X63347Y75971D01*
X63404Y75904D01*
X63673Y75674D01*
X63673Y75674D01*
X63861Y75559D01*
X63975Y75489D01*
X64303Y75354D01*
X64647Y75271D01*
X64647D01*
X64743Y75263D01*
Y72250D01*
X58613D01*
Y84802D01*
X58652Y84847D01*
X59022Y85451D01*
X59293Y86105D01*
X59458Y86794D01*
X59500Y87500D01*
X59458Y88206D01*
X59293Y88895D01*
X59022Y89549D01*
X58652Y90153D01*
X58613Y90198D01*
Y94802D01*
X58652Y94847D01*
X59022Y95451D01*
X59293Y96105D01*
X59458Y96794D01*
X59500Y97500D01*
X59458Y98206D01*
X59293Y98895D01*
X59022Y99549D01*
X58652Y100153D01*
X58613Y100198D01*
Y104802D01*
X58652Y104847D01*
X59022Y105451D01*
X59293Y106105D01*
X59458Y106794D01*
X59500Y107500D01*
X59458Y108206D01*
X59293Y108895D01*
X59022Y109549D01*
X58652Y110153D01*
X58613Y110198D01*
Y114802D01*
G37*
G36*
Y100198D02*X58192Y100692D01*
X57653Y101152D01*
X57049Y101522D01*
X56395Y101793D01*
X55706Y101958D01*
X55002Y102014D01*
Y102986D01*
X55706Y103042D01*
X56395Y103207D01*
X57049Y103478D01*
X57653Y103848D01*
X58192Y104308D01*
X58613Y104802D01*
Y100198D01*
G37*
G36*
Y90198D02*X58192Y90692D01*
X57653Y91152D01*
X57049Y91522D01*
X56395Y91793D01*
X55706Y91958D01*
X55002Y92014D01*
Y92986D01*
X55706Y93042D01*
X56395Y93207D01*
X57049Y93478D01*
X57653Y93848D01*
X58192Y94308D01*
X58613Y94802D01*
Y90198D01*
G37*
G36*
Y72250D02*X58432D01*
X57250Y73432D01*
Y83601D01*
X57653Y83848D01*
X58192Y84308D01*
X58613Y84802D01*
Y72250D01*
G37*
G36*
Y150198D02*X58192Y150692D01*
X57653Y151152D01*
X57049Y151522D01*
X56395Y151793D01*
X55706Y151958D01*
X55002Y152014D01*
Y152986D01*
X55706Y153042D01*
X56395Y153207D01*
X57049Y153478D01*
X57653Y153848D01*
X58192Y154308D01*
X58613Y154802D01*
Y150198D01*
G37*
G36*
Y140198D02*X58192Y140692D01*
X57653Y141152D01*
X57049Y141522D01*
X56395Y141793D01*
X55706Y141958D01*
X55002Y142014D01*
Y142986D01*
X55706Y143042D01*
X56395Y143207D01*
X57049Y143478D01*
X57653Y143848D01*
X58192Y144308D01*
X58613Y144802D01*
Y140198D01*
G37*
G36*
Y120198D02*X58192Y120692D01*
X57653Y121152D01*
X57049Y121522D01*
X56395Y121793D01*
X55706Y121958D01*
X55002Y122014D01*
Y122995D01*
X55433Y123016D01*
X55863Y123078D01*
X56284Y123182D01*
X56694Y123325D01*
X56800Y123378D01*
X56896Y123447D01*
X56981Y123530D01*
X57051Y123625D01*
X57106Y123731D01*
X57143Y123843D01*
X57163Y123960D01*
X57164Y124079D01*
X57146Y124196D01*
X57110Y124309D01*
X57057Y124415D01*
X56988Y124512D01*
X56905Y124596D01*
X56809Y124667D01*
X56704Y124721D01*
X56592Y124759D01*
X56475Y124778D01*
X56356Y124779D01*
X56239Y124761D01*
X56126Y124723D01*
X55855Y124624D01*
X55575Y124556D01*
X55289Y124514D01*
X55002Y124500D01*
Y130500D01*
X55289Y130486D01*
X55575Y130444D01*
X55855Y130376D01*
X56128Y130280D01*
X56239Y130242D01*
X56356Y130225D01*
X56474Y130225D01*
X56591Y130245D01*
X56703Y130282D01*
X56807Y130336D01*
X56902Y130406D01*
X56985Y130491D01*
X57054Y130587D01*
X57107Y130692D01*
X57143Y130805D01*
X57160Y130921D01*
X57159Y131039D01*
X57140Y131156D01*
X57103Y131268D01*
X57048Y131373D01*
X56978Y131468D01*
X56894Y131551D01*
X56798Y131619D01*
X56692Y131670D01*
X56284Y131818D01*
X55863Y131922D01*
X55433Y131984D01*
X55002Y132005D01*
Y132986D01*
X55706Y133042D01*
X56395Y133207D01*
X57049Y133478D01*
X57653Y133848D01*
X58192Y134308D01*
X58613Y134802D01*
Y129651D01*
X58540Y129663D01*
X58421Y129664D01*
X58304Y129646D01*
X58191Y129610D01*
X58085Y129557D01*
X57988Y129488D01*
X57904Y129405D01*
X57833Y129309D01*
X57779Y129204D01*
X57741Y129092D01*
X57722Y128975D01*
X57721Y128856D01*
X57739Y128739D01*
X57777Y128626D01*
X57876Y128355D01*
X57944Y128075D01*
X57986Y127789D01*
X58000Y127500D01*
X57986Y127211D01*
X57944Y126925D01*
X57876Y126645D01*
X57780Y126372D01*
X57742Y126261D01*
X57725Y126144D01*
X57725Y126026D01*
X57745Y125909D01*
X57782Y125797D01*
X57836Y125693D01*
X57906Y125598D01*
X57991Y125515D01*
X58087Y125446D01*
X58192Y125393D01*
X58305Y125357D01*
X58421Y125340D01*
X58539Y125341D01*
X58613Y125353D01*
Y120198D01*
G37*
G36*
X55002Y112986D02*X55706Y113042D01*
X56395Y113207D01*
X57049Y113478D01*
X57653Y113848D01*
X58192Y114308D01*
X58613Y114802D01*
Y110198D01*
X58192Y110692D01*
X57653Y111152D01*
X57049Y111522D01*
X56395Y111793D01*
X55706Y111958D01*
X55002Y112014D01*
Y112986D01*
G37*
G36*
X53501Y70817D02*X55002Y69316D01*
Y42500D01*
X53501D01*
Y47705D01*
X53532Y47722D01*
X53594Y47770D01*
X53648Y47827D01*
X53691Y47893D01*
X53877Y48248D01*
X54025Y48621D01*
X54137Y49006D01*
X54212Y49400D01*
X54250Y49799D01*
Y50201D01*
X54212Y50600D01*
X54137Y50994D01*
X54025Y51379D01*
X53877Y51752D01*
X53695Y52109D01*
X53651Y52175D01*
X53597Y52233D01*
X53534Y52281D01*
X53501Y52300D01*
Y70817D01*
G37*
G36*
X55002Y92014D02*X55000Y92014D01*
X54294Y91958D01*
X53605Y91793D01*
X53501Y91750D01*
Y93250D01*
X53605Y93207D01*
X54294Y93042D01*
X55000Y92986D01*
X55002Y92986D01*
Y92014D01*
G37*
G36*
X53501Y91750D02*X52951Y91522D01*
X52347Y91152D01*
X51808Y90692D01*
X51348Y90153D01*
X50978Y89549D01*
X50707Y88895D01*
X50542Y88206D01*
X50486Y87500D01*
X50542Y86794D01*
X50707Y86105D01*
X50978Y85451D01*
X51348Y84847D01*
X51808Y84308D01*
X52347Y83848D01*
X52750Y83601D01*
Y72588D01*
X52743Y72500D01*
X52771Y72147D01*
Y72147D01*
X52854Y71803D01*
X52989Y71475D01*
X53059Y71361D01*
X53174Y71173D01*
X53174Y71173D01*
X53404Y70904D01*
X53471Y70847D01*
X53501Y70817D01*
Y52300D01*
X53464Y52320D01*
X53390Y52346D01*
X53312Y52361D01*
X53233Y52364D01*
X53154Y52354D01*
X53078Y52332D01*
X53006Y52298D01*
X52941Y52253D01*
X52883Y52199D01*
X52834Y52136D01*
X52796Y52067D01*
X52769Y51992D01*
X52755Y51914D01*
X52752Y51835D01*
X52762Y51757D01*
X52784Y51680D01*
X52819Y51609D01*
X52962Y51338D01*
X53075Y51053D01*
X53160Y50759D01*
X53218Y50458D01*
X53246Y50153D01*
Y49847D01*
X53218Y49542D01*
X53160Y49241D01*
X53075Y48947D01*
X52962Y48662D01*
X52822Y48389D01*
X52788Y48318D01*
X52766Y48243D01*
X52756Y48165D01*
X52758Y48086D01*
X52773Y48009D01*
X52800Y47935D01*
X52837Y47866D01*
X52886Y47803D01*
X52943Y47750D01*
X53008Y47705D01*
X53079Y47672D01*
X53155Y47650D01*
X53233Y47640D01*
X53312Y47642D01*
X53389Y47657D01*
X53463Y47684D01*
X53501Y47705D01*
Y42500D01*
X47744D01*
Y46439D01*
X47770Y46406D01*
X47827Y46352D01*
X47893Y46309D01*
X48248Y46123D01*
X48621Y45975D01*
X49006Y45863D01*
X49400Y45788D01*
X49799Y45750D01*
X50201D01*
X50600Y45788D01*
X50994Y45863D01*
X51379Y45975D01*
X51752Y46123D01*
X52109Y46305D01*
X52175Y46349D01*
X52233Y46403D01*
X52281Y46466D01*
X52320Y46536D01*
X52346Y46610D01*
X52361Y46688D01*
X52364Y46767D01*
X52354Y46846D01*
X52332Y46922D01*
X52298Y46994D01*
X52253Y47059D01*
X52199Y47117D01*
X52136Y47166D01*
X52067Y47204D01*
X51992Y47231D01*
X51914Y47245D01*
X51835Y47248D01*
X51757Y47238D01*
X51680Y47216D01*
X51609Y47181D01*
X51338Y47038D01*
X51053Y46925D01*
X50759Y46840D01*
X50458Y46782D01*
X50153Y46754D01*
X49847D01*
X49542Y46782D01*
X49241Y46840D01*
X48947Y46925D01*
X48662Y47038D01*
X48389Y47178D01*
X48318Y47212D01*
X48243Y47234D01*
X48165Y47244D01*
X48086Y47242D01*
X48009Y47227D01*
X47935Y47200D01*
X47866Y47163D01*
X47803Y47114D01*
X47750Y47057D01*
X47744Y47049D01*
Y52945D01*
X47747Y52941D01*
X47801Y52883D01*
X47864Y52834D01*
X47933Y52796D01*
X48008Y52769D01*
X48086Y52755D01*
X48165Y52752D01*
X48243Y52762D01*
X48320Y52784D01*
X48391Y52819D01*
X48662Y52962D01*
X48947Y53075D01*
X49241Y53160D01*
X49542Y53218D01*
X49847Y53246D01*
X50153D01*
X50458Y53218D01*
X50759Y53160D01*
X51053Y53075D01*
X51338Y52962D01*
X51611Y52822D01*
X51682Y52788D01*
X51757Y52766D01*
X51835Y52756D01*
X51914Y52758D01*
X51991Y52773D01*
X52065Y52800D01*
X52134Y52837D01*
X52197Y52886D01*
X52250Y52943D01*
X52295Y53008D01*
X52328Y53079D01*
X52350Y53155D01*
X52360Y53233D01*
X52358Y53312D01*
X52343Y53389D01*
X52316Y53463D01*
X52278Y53532D01*
X52230Y53594D01*
X52173Y53648D01*
X52107Y53691D01*
X51752Y53877D01*
X51379Y54025D01*
X50994Y54137D01*
X50600Y54212D01*
X50201Y54250D01*
X49799D01*
X49400Y54212D01*
X49006Y54137D01*
X48621Y54025D01*
X48248Y53877D01*
X47891Y53695D01*
X47825Y53651D01*
X47767Y53597D01*
X47744Y53567D01*
Y95250D01*
X51101D01*
X51348Y94847D01*
X51808Y94308D01*
X52347Y93848D01*
X52951Y93478D01*
X53501Y93250D01*
Y91750D01*
G37*
G36*
X55002Y152014D02*X55000Y152014D01*
X54294Y151958D01*
X53803Y151840D01*
X53712Y151896D01*
X53525Y152011D01*
X53293Y152107D01*
X53197Y152146D01*
X52853Y152229D01*
X52500Y152257D01*
X52412Y152250D01*
X47744D01*
Y197750D01*
X54912D01*
X55000Y197743D01*
X55002Y197743D01*
Y162014D01*
X55000Y162014D01*
X54294Y161958D01*
X53605Y161793D01*
X52951Y161522D01*
X52347Y161152D01*
X51808Y160692D01*
X51348Y160153D01*
X50978Y159549D01*
X50707Y158895D01*
X50542Y158206D01*
X50486Y157500D01*
X50542Y156794D01*
X50707Y156105D01*
X50978Y155451D01*
X51348Y154847D01*
X51808Y154308D01*
X52347Y153848D01*
X52951Y153478D01*
X53605Y153207D01*
X54294Y153042D01*
X55000Y152986D01*
X55002Y152986D01*
Y152014D01*
G37*
G36*
Y142014D02*X55000Y142014D01*
X54294Y141958D01*
X53605Y141793D01*
X52951Y141522D01*
X52347Y141152D01*
X51808Y140692D01*
X51348Y140153D01*
X51101Y139750D01*
X47744D01*
Y147750D01*
X50506D01*
X50486Y147500D01*
X50542Y146794D01*
X50707Y146105D01*
X50978Y145451D01*
X51348Y144847D01*
X51808Y144308D01*
X52347Y143848D01*
X52951Y143478D01*
X53605Y143207D01*
X54294Y143042D01*
X55000Y142986D01*
X55002Y142986D01*
Y142014D01*
G37*
G36*
Y122014D02*X55000Y122014D01*
X54294Y121958D01*
X53605Y121793D01*
X52951Y121522D01*
X52347Y121152D01*
X51808Y120692D01*
X51387Y120198D01*
Y125349D01*
X51460Y125337D01*
X51579Y125336D01*
X51696Y125354D01*
X51809Y125390D01*
X51915Y125443D01*
X52012Y125512D01*
X52096Y125595D01*
X52167Y125691D01*
X52221Y125796D01*
X52259Y125908D01*
X52278Y126025D01*
X52279Y126144D01*
X52261Y126261D01*
X52223Y126374D01*
X52124Y126645D01*
X52056Y126925D01*
X52014Y127211D01*
X52000Y127500D01*
X52014Y127789D01*
X52056Y128075D01*
X52124Y128355D01*
X52220Y128628D01*
X52258Y128739D01*
X52275Y128856D01*
X52275Y128974D01*
X52255Y129091D01*
X52218Y129203D01*
X52164Y129307D01*
X52094Y129402D01*
X52009Y129485D01*
X51913Y129554D01*
X51808Y129607D01*
X51695Y129643D01*
X51579Y129660D01*
X51461Y129659D01*
X51387Y129647D01*
Y134802D01*
X51808Y134308D01*
X52347Y133848D01*
X52951Y133478D01*
X53605Y133207D01*
X54294Y133042D01*
X55000Y132986D01*
X55002Y132986D01*
Y132005D01*
X55000Y132005D01*
X54567Y131984D01*
X54137Y131922D01*
X53716Y131818D01*
X53306Y131675D01*
X53200Y131622D01*
X53104Y131553D01*
X53019Y131470D01*
X52949Y131375D01*
X52894Y131269D01*
X52857Y131157D01*
X52837Y131040D01*
X52836Y130921D01*
X52854Y130804D01*
X52890Y130691D01*
X52943Y130585D01*
X53012Y130488D01*
X53095Y130404D01*
X53191Y130333D01*
X53296Y130279D01*
X53408Y130241D01*
X53525Y130222D01*
X53644Y130221D01*
X53761Y130239D01*
X53874Y130277D01*
X54145Y130376D01*
X54425Y130444D01*
X54711Y130486D01*
X55000Y130500D01*
X55002Y130500D01*
Y124500D01*
X55000Y124500D01*
X54711Y124514D01*
X54425Y124556D01*
X54145Y124624D01*
X53872Y124720D01*
X53761Y124758D01*
X53644Y124775D01*
X53526Y124775D01*
X53409Y124755D01*
X53297Y124718D01*
X53193Y124664D01*
X53098Y124594D01*
X53015Y124509D01*
X52946Y124413D01*
X52893Y124308D01*
X52857Y124195D01*
X52840Y124079D01*
X52841Y123961D01*
X52860Y123844D01*
X52897Y123732D01*
X52952Y123627D01*
X53022Y123532D01*
X53106Y123449D01*
X53202Y123381D01*
X53308Y123330D01*
X53716Y123182D01*
X54137Y123078D01*
X54567Y123016D01*
X55000Y122995D01*
X55002Y122995D01*
Y122014D01*
G37*
G36*
X51387Y120198D02*X51348Y120153D01*
X51101Y119750D01*
X47744D01*
Y135250D01*
X51101D01*
X51348Y134847D01*
X51387Y134802D01*
Y129647D01*
X51344Y129640D01*
X51232Y129603D01*
X51127Y129548D01*
X51032Y129478D01*
X50949Y129394D01*
X50881Y129298D01*
X50830Y129192D01*
X50682Y128784D01*
X50578Y128363D01*
X50516Y127933D01*
X50495Y127500D01*
X50516Y127067D01*
X50578Y126637D01*
X50682Y126216D01*
X50825Y125806D01*
X50878Y125700D01*
X50947Y125604D01*
X51030Y125519D01*
X51125Y125449D01*
X51231Y125394D01*
X51343Y125357D01*
X51387Y125349D01*
Y120198D01*
G37*
G36*
X47744Y115250D02*X51101D01*
X51348Y114847D01*
X51808Y114308D01*
X52347Y113848D01*
X52951Y113478D01*
X53605Y113207D01*
X54294Y113042D01*
X55000Y112986D01*
X55002Y112986D01*
Y112014D01*
X55000Y112014D01*
X54294Y111958D01*
X53605Y111793D01*
X52951Y111522D01*
X52347Y111152D01*
X51808Y110692D01*
X51348Y110153D01*
X50978Y109549D01*
X50707Y108895D01*
X50542Y108206D01*
X50486Y107500D01*
X50542Y106794D01*
X50707Y106105D01*
X50978Y105451D01*
X51348Y104847D01*
X51808Y104308D01*
X52347Y103848D01*
X52951Y103478D01*
X53605Y103207D01*
X54294Y103042D01*
X55000Y102986D01*
X55002Y102986D01*
Y102014D01*
X55000Y102014D01*
X54294Y101958D01*
X53605Y101793D01*
X52951Y101522D01*
X52347Y101152D01*
X51808Y100692D01*
X51348Y100153D01*
X51101Y99750D01*
X47744D01*
Y115250D01*
G37*
G36*
Y152250D02*X29588D01*
X29558Y152322D01*
X29139Y153007D01*
X28617Y153617D01*
X28007Y154139D01*
X27322Y154558D01*
X26581Y154865D01*
X26020Y155000D01*
X26581Y155135D01*
X27322Y155442D01*
X28007Y155861D01*
X28617Y156383D01*
X29139Y156993D01*
X29558Y157678D01*
X29865Y158419D01*
X30053Y159200D01*
X30100Y160000D01*
X30053Y160800D01*
X29865Y161581D01*
X29558Y162322D01*
X29139Y163007D01*
X28617Y163617D01*
X28007Y164139D01*
X27322Y164558D01*
X26581Y164865D01*
X26020Y165000D01*
X26581Y165135D01*
X27322Y165442D01*
X28007Y165861D01*
X28617Y166383D01*
X29139Y166993D01*
X29558Y167678D01*
X29865Y168419D01*
X30053Y169200D01*
X30100Y170000D01*
X30053Y170800D01*
X29865Y171581D01*
X29558Y172322D01*
X29139Y173007D01*
X28617Y173617D01*
X28007Y174139D01*
X27322Y174558D01*
X26581Y174865D01*
X26020Y175000D01*
X26581Y175135D01*
X27322Y175442D01*
X28007Y175861D01*
X28617Y176383D01*
X29139Y176993D01*
X29558Y177678D01*
X29865Y178419D01*
X30053Y179200D01*
X30100Y180000D01*
X30053Y180800D01*
X29865Y181581D01*
X29558Y182322D01*
X29139Y183007D01*
X28617Y183617D01*
X28007Y184139D01*
X27322Y184558D01*
X26581Y184865D01*
X26020Y185000D01*
X26581Y185135D01*
X27322Y185442D01*
X28007Y185861D01*
X28617Y186383D01*
X29139Y186993D01*
X29558Y187678D01*
X29865Y188419D01*
X30053Y189200D01*
X30100Y190000D01*
X30053Y190800D01*
X29865Y191581D01*
X29558Y192322D01*
X29139Y193007D01*
X28617Y193617D01*
X28007Y194139D01*
X27322Y194558D01*
X26581Y194865D01*
X26020Y195000D01*
X26581Y195135D01*
X27322Y195442D01*
X28007Y195861D01*
X28617Y196383D01*
X29139Y196993D01*
X29558Y197678D01*
X29865Y198419D01*
X30053Y199200D01*
X30100Y200000D01*
X30053Y200800D01*
X29865Y201581D01*
X29602Y202216D01*
X33347Y198471D01*
X33404Y198404D01*
X33673Y198174D01*
X33673Y198174D01*
X33861Y198059D01*
X33975Y197989D01*
X34303Y197854D01*
X34647Y197771D01*
X34647D01*
X35000Y197743D01*
X35088Y197750D01*
X47744D01*
Y152250D01*
G37*
G36*
Y139750D02*X40088D01*
X40000Y139757D01*
X39647Y139729D01*
X39303Y139646D01*
X38975Y139511D01*
X38673Y139326D01*
X38673Y139326D01*
X38404Y139096D01*
X38347Y139029D01*
X31568Y132250D01*
X29588D01*
X29558Y132322D01*
X29139Y133007D01*
X28617Y133617D01*
X28007Y134139D01*
X27322Y134558D01*
X26581Y134865D01*
X26020Y135000D01*
X26581Y135135D01*
X27322Y135442D01*
X28007Y135861D01*
X28617Y136383D01*
X29139Y136993D01*
X29558Y137678D01*
X29865Y138419D01*
X30053Y139200D01*
X30100Y140000D01*
X30053Y140800D01*
X29865Y141581D01*
X29558Y142322D01*
X29139Y143007D01*
X28617Y143617D01*
X28007Y144139D01*
X27322Y144558D01*
X26581Y144865D01*
X26020Y145000D01*
X26581Y145135D01*
X27322Y145442D01*
X28007Y145861D01*
X28617Y146383D01*
X29139Y146993D01*
X29558Y147678D01*
X29588Y147750D01*
X47744D01*
Y139750D01*
G37*
G36*
Y119750D02*X45088D01*
X45000Y119757D01*
X44647Y119729D01*
X44303Y119646D01*
X43975Y119511D01*
X43673Y119326D01*
X43673Y119326D01*
X43404Y119096D01*
X43347Y119029D01*
X43284Y118966D01*
Y125369D01*
X43287Y125370D01*
X43355Y125409D01*
X43416Y125458D01*
X43469Y125517D01*
X43511Y125583D01*
X43674Y125908D01*
X43803Y126248D01*
X43901Y126598D01*
X43967Y126956D01*
X44000Y127318D01*
Y127682D01*
X43967Y128044D01*
X43901Y128402D01*
X43803Y128752D01*
X43674Y129092D01*
X43515Y129419D01*
X43472Y129485D01*
X43419Y129544D01*
X43357Y129594D01*
X43288Y129633D01*
X43284Y129635D01*
Y135250D01*
X47744D01*
Y119750D01*
G37*
G36*
X43284Y118966D02*X40971Y116653D01*
X40904Y116596D01*
X40674Y116327D01*
X40489Y116025D01*
X40354Y115697D01*
X40271Y115353D01*
X40271Y115353D01*
X40243Y115000D01*
X40250Y114912D01*
Y103432D01*
X40002Y103184D01*
Y123500D01*
X40182D01*
X40544Y123533D01*
X40902Y123599D01*
X41252Y123697D01*
X41592Y123826D01*
X41919Y123985D01*
X41985Y124028D01*
X42044Y124081D01*
X42094Y124143D01*
X42133Y124212D01*
X42161Y124286D01*
X42177Y124363D01*
X42181Y124442D01*
X42173Y124521D01*
X42152Y124597D01*
X42120Y124670D01*
X42077Y124736D01*
X42024Y124795D01*
X41962Y124844D01*
X41893Y124884D01*
X41819Y124912D01*
X41742Y124928D01*
X41663Y124932D01*
X41584Y124924D01*
X41507Y124903D01*
X41436Y124870D01*
X41193Y124747D01*
X40938Y124650D01*
X40676Y124577D01*
X40408Y124528D01*
X40136Y124503D01*
X40002D01*
Y130497D01*
X40136D01*
X40408Y130472D01*
X40676Y130423D01*
X40938Y130350D01*
X41193Y130253D01*
X41437Y130133D01*
X41509Y130100D01*
X41584Y130079D01*
X41663Y130071D01*
X41741Y130075D01*
X41818Y130091D01*
X41892Y130119D01*
X41960Y130158D01*
X42021Y130207D01*
X42074Y130266D01*
X42117Y130332D01*
X42149Y130404D01*
X42170Y130480D01*
X42178Y130558D01*
X42174Y130636D01*
X42158Y130713D01*
X42130Y130787D01*
X42091Y130855D01*
X42042Y130916D01*
X41983Y130969D01*
X41917Y131011D01*
X41592Y131174D01*
X41252Y131303D01*
X40902Y131401D01*
X40544Y131467D01*
X40182Y131500D01*
X40002D01*
Y134320D01*
X40932Y135250D01*
X43284D01*
Y129635D01*
X43214Y129661D01*
X43137Y129677D01*
X43058Y129681D01*
X42979Y129673D01*
X42903Y129652D01*
X42830Y129620D01*
X42764Y129577D01*
X42705Y129524D01*
X42656Y129462D01*
X42616Y129393D01*
X42588Y129319D01*
X42572Y129242D01*
X42568Y129163D01*
X42576Y129084D01*
X42597Y129007D01*
X42630Y128936D01*
X42753Y128693D01*
X42850Y128438D01*
X42923Y128176D01*
X42972Y127908D01*
X42997Y127636D01*
Y127364D01*
X42972Y127092D01*
X42923Y126824D01*
X42850Y126562D01*
X42753Y126307D01*
X42633Y126063D01*
X42600Y125991D01*
X42579Y125916D01*
X42571Y125837D01*
X42575Y125759D01*
X42591Y125682D01*
X42619Y125608D01*
X42658Y125540D01*
X42707Y125479D01*
X42766Y125426D01*
X42832Y125383D01*
X42904Y125351D01*
X42980Y125330D01*
X43058Y125322D01*
X43136Y125326D01*
X43213Y125342D01*
X43284Y125369D01*
Y118966D01*
G37*
G36*
X40002Y103184D02*X39068Y102250D01*
X36716D01*
Y125365D01*
X36786Y125339D01*
X36863Y125323D01*
X36942Y125319D01*
X37021Y125327D01*
X37097Y125348D01*
X37170Y125380D01*
X37236Y125423D01*
X37295Y125476D01*
X37344Y125538D01*
X37384Y125607D01*
X37412Y125681D01*
X37428Y125758D01*
X37432Y125837D01*
X37424Y125916D01*
X37403Y125993D01*
X37370Y126064D01*
X37247Y126307D01*
X37150Y126562D01*
X37077Y126824D01*
X37028Y127092D01*
X37003Y127364D01*
Y127636D01*
X37028Y127908D01*
X37077Y128176D01*
X37150Y128438D01*
X37247Y128693D01*
X37367Y128937D01*
X37400Y129009D01*
X37421Y129085D01*
X37429Y129163D01*
X37425Y129241D01*
X37409Y129318D01*
X37381Y129392D01*
X37342Y129460D01*
X37293Y129521D01*
X37234Y129574D01*
X37168Y129617D01*
X37096Y129649D01*
X37020Y129670D01*
X36942Y129678D01*
X36864Y129674D01*
X36787Y129658D01*
X36716Y129631D01*
Y131034D01*
X40002Y134320D01*
Y131500D01*
X39818D01*
X39456Y131467D01*
X39098Y131401D01*
X38748Y131303D01*
X38408Y131174D01*
X38081Y131015D01*
X38015Y130972D01*
X37956Y130919D01*
X37906Y130857D01*
X37867Y130788D01*
X37839Y130714D01*
X37823Y130637D01*
X37819Y130558D01*
X37827Y130479D01*
X37848Y130403D01*
X37880Y130330D01*
X37923Y130264D01*
X37976Y130205D01*
X38038Y130156D01*
X38107Y130116D01*
X38181Y130088D01*
X38258Y130072D01*
X38337Y130068D01*
X38416Y130076D01*
X38493Y130097D01*
X38564Y130130D01*
X38807Y130253D01*
X39062Y130350D01*
X39324Y130423D01*
X39592Y130472D01*
X39864Y130497D01*
X40002D01*
Y124503D01*
X39864D01*
X39592Y124528D01*
X39324Y124577D01*
X39062Y124650D01*
X38807Y124747D01*
X38563Y124867D01*
X38491Y124900D01*
X38415Y124921D01*
X38337Y124929D01*
X38259Y124925D01*
X38182Y124909D01*
X38108Y124881D01*
X38040Y124842D01*
X37979Y124793D01*
X37926Y124734D01*
X37883Y124668D01*
X37851Y124596D01*
X37830Y124520D01*
X37822Y124442D01*
X37826Y124364D01*
X37842Y124287D01*
X37870Y124213D01*
X37909Y124145D01*
X37958Y124084D01*
X38017Y124031D01*
X38083Y123989D01*
X38408Y123826D01*
X38748Y123697D01*
X39098Y123599D01*
X39456Y123533D01*
X39818Y123500D01*
X40002D01*
Y103184D01*
G37*
G36*
X36716Y102250D02*X29588D01*
X29558Y102322D01*
X29142Y103002D01*
Y107424D01*
X29189Y107437D01*
X29297Y107485D01*
X29395Y107550D01*
X29483Y107630D01*
X29557Y107722D01*
X29613Y107825D01*
X29791Y108238D01*
X29928Y108666D01*
X30026Y109105D01*
X30085Y109551D01*
X30105Y110000D01*
X30085Y110449D01*
X30026Y110895D01*
X29928Y111334D01*
X29791Y111762D01*
X29617Y112177D01*
X29559Y112280D01*
X29485Y112373D01*
X29397Y112453D01*
X29298Y112518D01*
X29190Y112566D01*
X29142Y112580D01*
Y116998D01*
X29558Y117678D01*
X29865Y118419D01*
X30053Y119200D01*
X30100Y120000D01*
X30053Y120800D01*
X29865Y121581D01*
X29558Y122322D01*
X29142Y123002D01*
Y126998D01*
X29558Y127678D01*
X29588Y127750D01*
X32412D01*
X32500Y127743D01*
X32853Y127771D01*
X32853Y127771D01*
X33197Y127854D01*
X33525Y127989D01*
X33827Y128174D01*
X34096Y128404D01*
X34153Y128471D01*
X36716Y131034D01*
Y129631D01*
X36713Y129630D01*
X36645Y129591D01*
X36584Y129542D01*
X36531Y129483D01*
X36489Y129417D01*
X36326Y129092D01*
X36197Y128752D01*
X36099Y128402D01*
X36033Y128044D01*
X36000Y127682D01*
Y127318D01*
X36033Y126956D01*
X36099Y126598D01*
X36197Y126248D01*
X36326Y125908D01*
X36485Y125581D01*
X36528Y125515D01*
X36581Y125456D01*
X36643Y125406D01*
X36712Y125367D01*
X36716Y125365D01*
Y102250D01*
G37*
G36*
X29142Y123002D02*X29139Y123007D01*
X28617Y123617D01*
X28007Y124139D01*
X27322Y124558D01*
X26581Y124865D01*
X26020Y125000D01*
X26581Y125135D01*
X27322Y125442D01*
X28007Y125861D01*
X28617Y126383D01*
X29139Y126993D01*
X29142Y126998D01*
Y123002D01*
G37*
G36*
Y103002D02*X29139Y103007D01*
X28617Y103617D01*
X28007Y104139D01*
X27322Y104558D01*
X26581Y104865D01*
X26015Y105001D01*
X26334Y105072D01*
X26762Y105209D01*
X27177Y105383D01*
X27280Y105441D01*
X27373Y105515D01*
X27453Y105603D01*
X27518Y105702D01*
X27566Y105810D01*
X27598Y105924D01*
X27611Y106042D01*
X27605Y106161D01*
X27581Y106277D01*
X27539Y106388D01*
X27480Y106491D01*
X27406Y106583D01*
X27318Y106663D01*
X27219Y106728D01*
X27111Y106777D01*
X26996Y106808D01*
X26878Y106821D01*
X26760Y106815D01*
X26644Y106791D01*
X26534Y106747D01*
X26243Y106621D01*
X25941Y106525D01*
X25631Y106456D01*
X25317Y106414D01*
X25000Y106400D01*
X24683Y106414D01*
X24369Y106456D01*
X24059Y106525D01*
X23757Y106621D01*
X23465Y106744D01*
X23355Y106788D01*
X23240Y106812D01*
X23122Y106817D01*
X23005Y106804D01*
X22891Y106773D01*
X22783Y106725D01*
X22684Y106660D01*
X22597Y106581D01*
X22523Y106489D01*
X22464Y106386D01*
X22423Y106276D01*
X22399Y106160D01*
X22393Y106042D01*
X22406Y105925D01*
X22437Y105811D01*
X22485Y105703D01*
X22550Y105605D01*
X22630Y105517D01*
X22722Y105443D01*
X22825Y105387D01*
X23238Y105209D01*
X23666Y105072D01*
X23985Y105001D01*
X23419Y104865D01*
X22678Y104558D01*
X21993Y104139D01*
X21383Y103617D01*
X20861Y103007D01*
X20442Y102322D01*
X20135Y101581D01*
X20000Y101020D01*
Y108989D01*
X20072Y108666D01*
X20209Y108238D01*
X20383Y107823D01*
X20441Y107720D01*
X20515Y107627D01*
X20603Y107547D01*
X20702Y107482D01*
X20810Y107434D01*
X20924Y107402D01*
X21042Y107389D01*
X21161Y107395D01*
X21277Y107419D01*
X21388Y107461D01*
X21491Y107520D01*
X21583Y107594D01*
X21663Y107682D01*
X21728Y107781D01*
X21777Y107889D01*
X21808Y108004D01*
X21821Y108122D01*
X21815Y108240D01*
X21791Y108356D01*
X21747Y108466D01*
X21621Y108757D01*
X21525Y109059D01*
X21456Y109369D01*
X21414Y109683D01*
X21400Y110000D01*
X21414Y110317D01*
X21456Y110631D01*
X21525Y110941D01*
X21621Y111243D01*
X21744Y111535D01*
X21788Y111645D01*
X21812Y111760D01*
X21817Y111878D01*
X21804Y111995D01*
X21773Y112109D01*
X21725Y112217D01*
X21660Y112316D01*
X21581Y112403D01*
X21489Y112477D01*
X21386Y112536D01*
X21276Y112577D01*
X21160Y112601D01*
X21042Y112607D01*
X20925Y112594D01*
X20811Y112563D01*
X20703Y112515D01*
X20605Y112450D01*
X20517Y112370D01*
X20443Y112278D01*
X20387Y112175D01*
X20209Y111762D01*
X20072Y111334D01*
X20000Y111011D01*
Y118980D01*
X20135Y118419D01*
X20442Y117678D01*
X20861Y116993D01*
X21383Y116383D01*
X21993Y115861D01*
X22678Y115442D01*
X23419Y115135D01*
X23985Y114999D01*
X23666Y114928D01*
X23238Y114791D01*
X22823Y114617D01*
X22720Y114559D01*
X22627Y114485D01*
X22547Y114397D01*
X22482Y114298D01*
X22434Y114190D01*
X22402Y114076D01*
X22389Y113958D01*
X22395Y113839D01*
X22419Y113723D01*
X22461Y113612D01*
X22520Y113509D01*
X22594Y113417D01*
X22682Y113337D01*
X22781Y113272D01*
X22889Y113223D01*
X23004Y113192D01*
X23122Y113179D01*
X23240Y113185D01*
X23356Y113209D01*
X23466Y113253D01*
X23757Y113379D01*
X24059Y113475D01*
X24369Y113544D01*
X24683Y113586D01*
X25000Y113600D01*
X25317Y113586D01*
X25631Y113544D01*
X25941Y113475D01*
X26243Y113379D01*
X26535Y113256D01*
X26645Y113212D01*
X26760Y113188D01*
X26878Y113183D01*
X26995Y113196D01*
X27109Y113227D01*
X27217Y113275D01*
X27316Y113340D01*
X27403Y113419D01*
X27477Y113511D01*
X27536Y113614D01*
X27577Y113724D01*
X27601Y113840D01*
X27607Y113958D01*
X27594Y114075D01*
X27563Y114189D01*
X27515Y114297D01*
X27450Y114395D01*
X27370Y114483D01*
X27278Y114557D01*
X27175Y114613D01*
X26762Y114791D01*
X26334Y114928D01*
X26015Y114999D01*
X26581Y115135D01*
X27322Y115442D01*
X28007Y115861D01*
X28617Y116383D01*
X29139Y116993D01*
X29142Y116998D01*
Y112580D01*
X29076Y112598D01*
X28958Y112611D01*
X28839Y112605D01*
X28723Y112581D01*
X28612Y112539D01*
X28509Y112480D01*
X28417Y112406D01*
X28337Y112318D01*
X28272Y112219D01*
X28223Y112111D01*
X28192Y111996D01*
X28179Y111878D01*
X28185Y111760D01*
X28209Y111644D01*
X28253Y111534D01*
X28379Y111243D01*
X28475Y110941D01*
X28544Y110631D01*
X28586Y110317D01*
X28600Y110000D01*
X28586Y109683D01*
X28544Y109369D01*
X28475Y109059D01*
X28379Y108757D01*
X28256Y108465D01*
X28212Y108355D01*
X28188Y108240D01*
X28183Y108122D01*
X28196Y108005D01*
X28227Y107891D01*
X28275Y107783D01*
X28340Y107684D01*
X28419Y107597D01*
X28511Y107523D01*
X28614Y107464D01*
X28724Y107423D01*
X28840Y107399D01*
X28958Y107393D01*
X29075Y107406D01*
X29142Y107424D01*
Y103002D01*
G37*
G36*
X46499Y95250D02*X47744D01*
Y53567D01*
X47719Y53534D01*
X47680Y53464D01*
X47654Y53390D01*
X47639Y53312D01*
X47636Y53233D01*
X47646Y53154D01*
X47668Y53078D01*
X47702Y53006D01*
X47744Y52945D01*
Y47049D01*
X47705Y46992D01*
X47672Y46921D01*
X47650Y46845D01*
X47640Y46767D01*
X47642Y46688D01*
X47657Y46611D01*
X47684Y46537D01*
X47722Y46468D01*
X47744Y46439D01*
Y42500D01*
X46499D01*
Y47700D01*
X46536Y47680D01*
X46610Y47654D01*
X46688Y47639D01*
X46767Y47636D01*
X46846Y47646D01*
X46922Y47668D01*
X46994Y47702D01*
X47059Y47747D01*
X47117Y47801D01*
X47166Y47864D01*
X47204Y47933D01*
X47231Y48008D01*
X47245Y48086D01*
X47248Y48165D01*
X47238Y48243D01*
X47216Y48320D01*
X47181Y48391D01*
X47038Y48662D01*
X46925Y48947D01*
X46840Y49241D01*
X46782Y49542D01*
X46754Y49847D01*
Y50153D01*
X46782Y50458D01*
X46840Y50759D01*
X46925Y51053D01*
X47038Y51338D01*
X47178Y51611D01*
X47212Y51682D01*
X47234Y51757D01*
X47244Y51835D01*
X47242Y51914D01*
X47227Y51991D01*
X47200Y52065D01*
X47163Y52134D01*
X47114Y52197D01*
X47057Y52250D01*
X46992Y52295D01*
X46921Y52328D01*
X46845Y52350D01*
X46767Y52360D01*
X46688Y52358D01*
X46611Y52343D01*
X46537Y52316D01*
X46499Y52295D01*
Y95250D01*
G37*
G36*
Y115250D02*X47744D01*
Y99750D01*
X46499D01*
Y115250D01*
G37*
G36*
X29588Y67750D02*X31688D01*
X31754Y67642D01*
X32163Y67163D01*
X32642Y66754D01*
X33178Y66425D01*
X33760Y66184D01*
X34372Y66037D01*
X35000Y65988D01*
X35628Y66037D01*
X36240Y66184D01*
X36822Y66425D01*
X37358Y66754D01*
X37837Y67163D01*
X38246Y67642D01*
X38575Y68178D01*
X38816Y68760D01*
X38963Y69372D01*
X39000Y70000D01*
X38963Y70628D01*
X38816Y71240D01*
X38575Y71822D01*
X38246Y72358D01*
X37837Y72837D01*
X37358Y73246D01*
X36822Y73575D01*
X36240Y73816D01*
X35628Y73963D01*
X35000Y74012D01*
X34372Y73963D01*
X33760Y73816D01*
X33178Y73575D01*
X32642Y73246D01*
X32163Y72837D01*
X31754Y72358D01*
X31688Y72250D01*
X29588D01*
X29558Y72322D01*
X29139Y73007D01*
X28617Y73617D01*
X28007Y74139D01*
X27322Y74558D01*
X26581Y74865D01*
X26020Y75000D01*
X26581Y75135D01*
X27322Y75442D01*
X28007Y75861D01*
X28617Y76383D01*
X29139Y76993D01*
X29558Y77678D01*
X29865Y78419D01*
X30053Y79200D01*
X30100Y80000D01*
X30053Y80800D01*
X29865Y81581D01*
X29558Y82322D01*
X29139Y83007D01*
X28617Y83617D01*
X28007Y84139D01*
X27322Y84558D01*
X26581Y84865D01*
X26020Y85000D01*
X26581Y85135D01*
X27322Y85442D01*
X28007Y85861D01*
X28617Y86383D01*
X29139Y86993D01*
X29558Y87678D01*
X29865Y88419D01*
X30053Y89200D01*
X30100Y90000D01*
X30053Y90800D01*
X29865Y91581D01*
X29558Y92322D01*
X29139Y93007D01*
X28617Y93617D01*
X28007Y94139D01*
X27322Y94558D01*
X26581Y94865D01*
X26020Y95000D01*
X26581Y95135D01*
X27322Y95442D01*
X28007Y95861D01*
X28617Y96383D01*
X29139Y96993D01*
X29558Y97678D01*
X29588Y97750D01*
X39912D01*
X40000Y97743D01*
X40353Y97771D01*
X40353Y97771D01*
X40697Y97854D01*
X41025Y97989D01*
X41327Y98174D01*
X41596Y98404D01*
X41653Y98471D01*
X44029Y100847D01*
X44096Y100904D01*
X44326Y101173D01*
X44326Y101173D01*
X44511Y101475D01*
X44646Y101803D01*
X44729Y102147D01*
X44757Y102500D01*
X44750Y102588D01*
Y114068D01*
X45932Y115250D01*
X46499D01*
Y99750D01*
X45088D01*
X45000Y99757D01*
X44647Y99729D01*
X44303Y99646D01*
X43975Y99511D01*
X43673Y99326D01*
X43673Y99326D01*
X43404Y99096D01*
X43347Y99029D01*
X38471Y94153D01*
X38404Y94096D01*
X38174Y93827D01*
X37989Y93525D01*
X37854Y93197D01*
X37771Y92853D01*
X37771Y92853D01*
X37743Y92500D01*
X37750Y92412D01*
Y90812D01*
X37642Y90746D01*
X37163Y90337D01*
X36754Y89858D01*
X36425Y89322D01*
X36184Y88740D01*
X36037Y88128D01*
X35988Y87500D01*
X36037Y86872D01*
X36184Y86260D01*
X36425Y85678D01*
X36754Y85142D01*
X37163Y84663D01*
X37642Y84254D01*
X38178Y83925D01*
X38760Y83684D01*
X39372Y83537D01*
X40000Y83488D01*
X40628Y83537D01*
X41240Y83684D01*
X41822Y83925D01*
X42358Y84254D01*
X42837Y84663D01*
X43246Y85142D01*
X43575Y85678D01*
X43816Y86260D01*
X43963Y86872D01*
X44000Y87500D01*
X43963Y88128D01*
X43816Y88740D01*
X43575Y89322D01*
X43246Y89858D01*
X42837Y90337D01*
X42358Y90746D01*
X42250Y90812D01*
Y91568D01*
X45932Y95250D01*
X46499D01*
Y52295D01*
X46468Y52278D01*
X46406Y52230D01*
X46352Y52173D01*
X46309Y52107D01*
X46123Y51752D01*
X45975Y51379D01*
X45863Y50994D01*
X45788Y50600D01*
X45750Y50201D01*
Y49799D01*
X45788Y49400D01*
X45863Y49006D01*
X45975Y48621D01*
X46123Y48248D01*
X46305Y47891D01*
X46349Y47825D01*
X46403Y47767D01*
X46466Y47719D01*
X46499Y47700D01*
Y42500D01*
X20000D01*
Y68980D01*
X20135Y68419D01*
X20442Y67678D01*
X20861Y66993D01*
X21383Y66383D01*
X21993Y65861D01*
X22678Y65442D01*
X23419Y65135D01*
X24200Y64947D01*
X25000Y64884D01*
X25800Y64947D01*
X26581Y65135D01*
X27322Y65442D01*
X28007Y65861D01*
X28617Y66383D01*
X29139Y66993D01*
X29558Y67678D01*
X29588Y67750D01*
G37*
G54D24*X25000Y70000D02*X35000D01*
X40000Y87500D02*Y92500D01*
X45000Y97500D01*
X25000Y100000D02*X40000D01*
X42500Y102500D01*
X45000Y97500D02*X55000D01*
X42500Y102500D02*Y115000D01*
X55000Y87500D02*Y72500D01*
X57500Y70000D01*
X85000Y117500D02*X107500D01*
X117500Y127500D01*
X140000D01*
X85000D02*X100000D01*
X85000Y107500D02*X77500D01*
X75000Y110000D01*
X85000Y97500D02*X72500D01*
X70000Y100000D01*
X57500Y70000D02*X75000D01*
X62500Y80000D02*X65000Y77500D01*
X115000D01*
X100000Y127500D02*X120000Y147500D01*
X75000Y110000D02*Y170000D01*
X117500Y165000D02*X100000D01*
X97500Y162500D01*
Y137500D01*
X120000Y147500D02*X140000D01*
X70000Y100000D02*Y175000D01*
X75000Y170000D02*X77500Y172500D01*
X70000Y175000D02*X72500Y177500D01*
X77500Y172500D02*X110000D01*
X112500Y175000D01*
X72500Y177500D02*X105000D01*
X107500Y180000D01*
X120000Y167500D02*X117500Y165000D01*
X25000Y150000D02*X52500D01*
X25000Y130000D02*X32500D01*
X40000Y137500D01*
X55000D01*
X42500Y115000D02*X45000Y117500D01*
X55000D01*
X52500Y150000D02*X55000Y147500D01*
Y157500D02*X60000D01*
X62500Y155000D01*
Y80000D01*
X140000Y107500D02*X130000D01*
Y127500D02*Y70000D01*
X132500Y67500D01*
X140000D01*
Y87500D02*X130000D01*
X115000Y77500D02*X117500Y75000D01*
Y62500D01*
X120000Y60000D01*
X167500D01*
X170000Y62500D01*
X140000Y77500D02*X170000D01*
Y157500D02*X140000D01*
X170000Y62500D02*Y315000D01*
X152500Y277500D02*X140000D01*
X152500Y307500D02*Y247500D01*
X140000Y197500D02*X150000D01*
X152500Y200000D01*
Y227500D01*
X140000Y167500D02*X130000D01*
X140000Y187500D02*X130000D01*
X150000Y167500D02*Y185000D01*
X140000Y237500D02*X170000D01*
X130000Y205000D02*Y147500D01*
X112500Y175000D02*Y225000D01*
X120000Y217500D02*Y167500D01*
X25000Y230000D02*X40000D01*
X42500Y227500D01*
Y222500D01*
X25000Y240000D02*X40000D01*
X42500Y237500D01*
X25000Y250000D02*X60000D01*
X62500Y247500D01*
Y237500D01*
X70000Y230000D02*X62500Y222500D01*
X25000Y260000D02*X67500D01*
X70000Y257500D01*
Y230000D01*
X40000Y340000D02*X42500Y337500D01*
X25000Y330000D02*X60000D01*
X62500Y332500D01*
Y337500D01*
X25000Y350000D02*X40000D01*
X42500Y352500D01*
X25000Y340000D02*X40000D01*
X62500Y352500D02*X70000D01*
X140000Y357500D02*X150000D01*
X152500Y355000D01*
Y327500D01*
X70000Y352500D02*X72500Y350000D01*
Y317500D01*
X70000Y315000D01*
X37500D01*
X32500Y320000D01*
X25000D01*
X140000Y317500D02*X167500D01*
X170000Y315000D01*
X25000Y220000D02*X30000D01*
X32500Y217500D01*
Y210000D01*
X35000Y207500D01*
Y200000D02*X25000Y210000D01*
X35000Y207500D02*X42500D01*
X62500D02*X55000Y200000D01*
X35000D01*
X140000Y207500D02*X132500D01*
X130000Y205000D01*
X140000Y227500D02*X115000D01*
X140000Y247500D02*X130000D01*
X140000Y267500D02*X130000D01*
X140000Y287500D02*X132500D01*
X130000Y285000D01*
X140000Y307500D02*X110000D01*
X130000Y285000D02*Y227500D01*
X112500Y225000D02*X115000Y227500D01*
X107500Y180000D02*Y305000D01*
X110000Y307500D01*
X130000D02*Y365000D01*
X132500Y367500D01*
X140000D01*
Y347500D02*X130000D01*
X140000Y327500D02*X130000D01*
G54D25*X25000Y180000D03*
Y170000D03*
Y160000D03*
Y150000D03*
Y140000D03*
Y130000D03*
Y120000D03*
Y110000D03*
Y100000D03*
Y90000D03*
Y80000D03*
Y70000D03*
G54D26*X35000D03*
G54D27*X140000Y50000D03*
G54D23*G36*
X82000Y90500D02*Y84500D01*
X88000D01*
Y90500D01*
X82000D01*
G37*
G54D26*X85000Y97500D03*
Y107500D03*
Y117500D03*
Y127500D03*
Y137500D03*
Y147500D03*
G54D28*X100000Y102500D03*
G54D26*X85000Y157500D03*
X55000D03*
Y147500D03*
Y137500D03*
Y127500D03*
Y117500D03*
Y107500D03*
Y97500D03*
Y87500D03*
X40000Y127500D03*
Y87500D03*
X75000Y70000D03*
X42500Y322500D03*
G54D27*X50000Y50000D03*
G54D23*G36*
X39500Y225500D02*Y219500D01*
X45500D01*
Y225500D01*
X39500D01*
G37*
G54D26*X42500Y237500D03*
Y207500D03*
X62500Y222500D03*
Y237500D03*
Y207500D03*
G54D25*X25000Y250000D03*
Y240000D03*
Y230000D03*
Y220000D03*
Y210000D03*
Y200000D03*
Y190000D03*
G54D23*G36*
X136250Y231250D02*Y223750D01*
X143750D01*
Y231250D01*
X136250D01*
G37*
G54D28*X140000Y217500D03*
Y237500D03*
G54D23*G36*
X136250Y211250D02*Y203750D01*
X143750D01*
Y211250D01*
X136250D01*
G37*
G36*
Y191250D02*Y183750D01*
X143750D01*
Y191250D01*
X136250D01*
G37*
G54D28*X140000Y197500D03*
G54D23*G36*
X136250Y171250D02*Y163750D01*
X143750D01*
Y171250D01*
X136250D01*
G37*
G54D28*X140000Y177500D03*
G54D23*G36*
X136250Y151250D02*Y143750D01*
X143750D01*
Y151250D01*
X136250D01*
G37*
G54D28*X140000Y157500D03*
G54D23*G36*
X136250Y131250D02*Y123750D01*
X143750D01*
Y131250D01*
X136250D01*
G37*
G36*
Y111250D02*Y103750D01*
X143750D01*
Y111250D01*
X136250D01*
G37*
G54D28*X140000Y117500D03*
Y137500D03*
G54D23*G36*
X136250Y91250D02*Y83750D01*
X143750D01*
Y91250D01*
X136250D01*
G37*
G54D28*X140000Y97500D03*
G54D23*G36*
X136250Y71250D02*Y63750D01*
X143750D01*
Y71250D01*
X136250D01*
G37*
G54D28*X140000Y77500D03*
G54D23*G36*
X39500Y340500D02*Y334500D01*
X45500D01*
Y340500D01*
X39500D01*
G37*
G54D25*X25000Y340000D03*
Y330000D03*
G54D26*X42500Y352500D03*
G54D23*G36*
X21400Y373600D02*Y366400D01*
X28600D01*
Y373600D01*
X21400D01*
G37*
G54D25*X25000Y360000D03*
Y350000D03*
G54D26*X62500Y337500D03*
Y322500D03*
Y352500D03*
G54D27*X50000Y392500D03*
G54D25*X25000Y320000D03*
Y310000D03*
Y300000D03*
Y290000D03*
Y280000D03*
Y270000D03*
Y260000D03*
G54D27*X140000Y392500D03*
G54D23*G36*
X136250Y371250D02*Y363750D01*
X143750D01*
Y371250D01*
X136250D01*
G37*
G54D28*X140000Y357500D03*
Y377500D03*
G54D23*G36*
X136250Y351250D02*Y343750D01*
X143750D01*
Y351250D01*
X136250D01*
G37*
G36*
Y331250D02*Y323750D01*
X143750D01*
Y331250D01*
X136250D01*
G37*
G54D28*X140000Y337500D03*
G54D23*G36*
X136250Y311250D02*Y303750D01*
X143750D01*
Y311250D01*
X136250D01*
G37*
G54D28*X140000Y317500D03*
G54D23*G36*
X136250Y291250D02*Y283750D01*
X143750D01*
Y291250D01*
X136250D01*
G37*
G54D28*X140000Y297500D03*
G54D23*G36*
X136250Y271250D02*Y263750D01*
X143750D01*
Y271250D01*
X136250D01*
G37*
G54D28*X140000Y277500D03*
G54D23*G36*
X136250Y251250D02*Y243750D01*
X143750D01*
Y251250D01*
X136250D01*
G37*
G54D28*X140000Y257500D03*
G54D26*X120000Y217500D03*
X152500Y327500D03*
Y307500D03*
Y227500D03*
Y247500D03*
X150000Y185000D03*
Y167500D03*
X97500Y137500D03*
G54D29*G54D30*G54D31*G54D32*G54D33*G54D34*G54D33*G54D31*G54D30*G54D34*G54D31*G54D30*G54D31*G54D30*G54D31*G54D30*G54D31*G54D32*G54D34*M02*
