G04 start of page 2 for group 0 idx 0 *
G04 Title: 31.001.00.01.01.pcb, top *
G04 Creator: pcb 4.2.1 *
G04 CreationDate: Wed Dec 23 16:06:14 2020 UTC *
G04 For: bert *
G04 Format: Gerber/RS-274X *
G04 PCB-Dimensions (mil): 3937.01 5905.51 *
G04 PCB-Coordinate-Origin: lower left *
%MOIN*%
%FSLAX25Y25*%
%LNGTL*%
%ADD15C,0.1102*%
%ADD14C,0.1457*%
%ADD13C,0.2559*%
%ADD12C,0.1968*%
%ADD11C,0.0001*%
G54D11*G36*
X138767Y551181D02*X238189D01*
Y47244D01*
X138767D01*
Y129487D01*
X138780Y129486D01*
X140079Y129589D01*
X141347Y129893D01*
X142552Y130392D01*
X143663Y131073D01*
X144655Y131920D01*
X145502Y132911D01*
X146183Y134023D01*
X146682Y135228D01*
X146986Y136495D01*
X147063Y137795D01*
X146986Y139095D01*
X146682Y140363D01*
X146183Y141568D01*
X145502Y142679D01*
X144655Y143671D01*
X143663Y144517D01*
X142552Y145199D01*
X141347Y145698D01*
X140079Y146002D01*
X138780Y146104D01*
X138767Y146103D01*
Y452322D01*
X138780Y452321D01*
X140079Y452423D01*
X141347Y452728D01*
X142552Y453227D01*
X143663Y453908D01*
X144655Y454755D01*
X145502Y455746D01*
X146183Y456858D01*
X146682Y458062D01*
X146986Y459330D01*
X147063Y460630D01*
X146986Y461930D01*
X146682Y463198D01*
X146183Y464402D01*
X145502Y465514D01*
X144655Y466505D01*
X143663Y467352D01*
X142552Y468033D01*
X141347Y468532D01*
X140079Y468837D01*
X138780Y468939D01*
X138767Y468938D01*
Y551181D01*
G37*
G36*
X99388D02*X138767D01*
Y468938D01*
X137480Y468837D01*
X136212Y468532D01*
X135007Y468033D01*
X133896Y467352D01*
X132904Y466505D01*
X132057Y465514D01*
X131376Y464402D01*
X130877Y463198D01*
X130573Y461930D01*
X130470Y460630D01*
X130573Y459330D01*
X130877Y458062D01*
X131376Y456858D01*
X132057Y455746D01*
X132904Y454755D01*
X133896Y453908D01*
X135007Y453227D01*
X136212Y452728D01*
X137480Y452423D01*
X138767Y452322D01*
Y146103D01*
X137480Y146002D01*
X136212Y145698D01*
X135007Y145199D01*
X133896Y144517D01*
X132904Y143671D01*
X132057Y142679D01*
X131376Y141568D01*
X130877Y140363D01*
X130573Y139095D01*
X130470Y137795D01*
X130573Y136495D01*
X130877Y135228D01*
X131376Y134023D01*
X132057Y132911D01*
X132904Y131920D01*
X133896Y131073D01*
X135007Y130392D01*
X136212Y129893D01*
X137480Y129589D01*
X138767Y129487D01*
Y47244D01*
X99388D01*
Y285376D01*
X99409Y285375D01*
X101574Y285545D01*
X103686Y286052D01*
X105692Y286883D01*
X107543Y288017D01*
X109194Y289428D01*
X110605Y291079D01*
X111739Y292930D01*
X112570Y294936D01*
X113077Y297048D01*
X113205Y299213D01*
X113077Y301377D01*
X112570Y303489D01*
X111739Y305495D01*
X110605Y307346D01*
X109194Y308998D01*
X107543Y310408D01*
X105692Y311542D01*
X103686Y312373D01*
X101574Y312880D01*
X99409Y313051D01*
X99388Y313049D01*
Y403486D01*
X99409Y403485D01*
X101574Y403655D01*
X103686Y404162D01*
X105692Y404993D01*
X107543Y406128D01*
X109194Y407538D01*
X110605Y409189D01*
X111739Y411040D01*
X112570Y413047D01*
X113077Y415158D01*
X113205Y417323D01*
X113077Y419488D01*
X112570Y421599D01*
X111739Y423605D01*
X110605Y425457D01*
X109194Y427108D01*
X107543Y428518D01*
X105692Y429653D01*
X103686Y430484D01*
X101574Y430991D01*
X99409Y431161D01*
X99388Y431159D01*
Y551181D01*
G37*
G36*
X39370Y47244D02*Y551181D01*
X99388D01*
Y431159D01*
X97245Y430991D01*
X95133Y430484D01*
X93127Y429653D01*
X91276Y428518D01*
X89624Y427108D01*
X88214Y425457D01*
X87080Y423605D01*
X86249Y421599D01*
X85742Y419488D01*
X85571Y417323D01*
X85742Y415158D01*
X86249Y413047D01*
X87080Y411040D01*
X88214Y409189D01*
X89624Y407538D01*
X91276Y406128D01*
X93127Y404993D01*
X95133Y404162D01*
X97245Y403655D01*
X99388Y403486D01*
Y313049D01*
X97245Y312880D01*
X95133Y312373D01*
X93127Y311542D01*
X91276Y310408D01*
X89624Y308998D01*
X88214Y307346D01*
X87080Y305495D01*
X86249Y303489D01*
X85742Y301377D01*
X85571Y299213D01*
X85742Y297048D01*
X86249Y294936D01*
X87080Y292930D01*
X88214Y291079D01*
X89624Y289428D01*
X91276Y288017D01*
X93127Y286883D01*
X95133Y286052D01*
X97245Y285545D01*
X99388Y285376D01*
Y47244D01*
X39370D01*
G37*
G54D12*X59055Y59055D03*
G54D13*X99409Y299213D03*
Y417323D03*
G54D12*X59055Y539370D03*
X218504D03*
Y59055D03*
G54D14*G54D15*G54D13*G54D14*G54D15*M02*
