G04 start of page 10 for group -4078 idx -4078 *
G04 Title: 31.001.00.01.01.pcb, bottomsilk *
G04 Creator: pcb 4.2.2 *
G04 CreationDate: Sun Jan  3 11:16:11 2021 UTC *
G04 For: bert *
G04 Format: Gerber/RS-274X *
G04 PCB-Dimensions (mil): 3937.01 5905.51 *
G04 PCB-Coordinate-Origin: lower left *
%MOIN*%
%FSLAX25Y25*%
%LNGBO*%
%ADD86C,0.0046*%
%ADD85C,0.0047*%
%ADD84C,0.0040*%
%ADD83C,0.0046*%
%ADD82C,0.0048*%
%ADD81C,0.0041*%
%ADD80C,0.0041*%
%ADD79C,0.0041*%
%ADD78C,0.0042*%
%ADD77C,0.0042*%
%ADD76C,0.0042*%
%ADD75C,0.0041*%
%ADD74C,0.0043*%
%ADD73C,0.0042*%
%ADD72C,0.0041*%
%ADD71C,0.0042*%
%ADD70C,0.0041*%
%ADD69C,0.0041*%
%ADD68C,0.0041*%
%ADD67C,0.0046*%
%ADD66C,0.0047*%
%ADD65C,0.0043*%
%ADD64C,0.0044*%
%ADD63C,0.0044*%
%ADD62C,0.0043*%
%ADD61C,0.0045*%
%ADD60C,0.0045*%
%ADD59C,0.0045*%
%ADD58C,0.0045*%
%ADD57C,0.0044*%
%ADD56C,0.0043*%
%ADD55C,0.0043*%
%ADD54C,0.0042*%
%ADD53C,0.0043*%
%ADD52C,0.0044*%
%ADD51C,0.0044*%
%ADD50C,0.0044*%
%ADD49C,0.0044*%
%ADD48C,0.0044*%
%ADD47C,0.0044*%
%ADD46C,0.0043*%
%ADD45C,0.0043*%
%ADD44C,0.0043*%
%ADD43C,0.0043*%
%ADD42C,0.0042*%
%ADD41C,0.0042*%
%ADD40C,0.0042*%
%ADD39C,0.0049*%
%ADD38C,0.0080*%
%ADD37C,0.0001*%
G54D37*G36*
X197304Y523131D02*X199881D01*
X199964Y523098D01*
X200011Y523022D01*
X200060Y522783D01*
X200104Y522561D01*
X200495Y520430D01*
X200542Y520342D01*
X200625Y520283D01*
X200728Y520239D01*
X201518Y519969D01*
X202268Y519611D01*
X202274D01*
X202361Y519572D01*
X202458Y519559D01*
X202556Y519589D01*
X204329Y520809D01*
X204520Y520933D01*
X204721Y521070D01*
X204807Y521094D01*
X204889Y521059D01*
X205220Y520728D01*
X205724Y520228D01*
X205882Y520065D01*
X206381Y519568D01*
X206543Y519411D01*
X206711Y519237D01*
X206750Y519152D01*
X206728Y519063D01*
X206592Y518861D01*
X206463Y518672D01*
X205274Y516935D01*
X205242Y516844D01*
X205257Y516746D01*
X205302Y516648D01*
X205985Y515041D01*
X206022Y514950D01*
X206085Y514872D01*
X206175Y514826D01*
X208214Y514444D01*
X208438Y514402D01*
X208681Y514359D01*
X208756Y514311D01*
X208785Y514228D01*
Y511652D01*
X208756Y511563D01*
X208681Y511515D01*
X208438Y511472D01*
X208214Y511430D01*
X206235Y511061D01*
X206147Y511013D01*
X206093Y510930D01*
X206065Y510870D01*
Y510859D01*
X205350Y509085D01*
X205345Y509074D01*
X205328Y509030D01*
X205311Y508930D01*
X205339Y508835D01*
X206468Y507204D01*
X206592Y507013D01*
X206733Y506811D01*
X206752Y506726D01*
X206711Y506644D01*
X206543Y506465D01*
X206381Y506307D01*
X205063Y504989D01*
X204889Y504822D01*
X204807Y504780D01*
X204721Y504798D01*
X204520Y504941D01*
X204329Y505065D01*
X202735Y506161D01*
X202636Y506191D01*
X202539Y506172D01*
X202208Y505987D01*
X202014Y505878D01*
X201667Y505700D01*
X201582Y505694D01*
X201520Y505755D01*
X201374Y506111D01*
X201286Y506319D01*
X199903Y509676D01*
X199815Y509883D01*
X199718Y510115D01*
X199714Y510211D01*
X199767Y510283D01*
X199990Y510415D01*
X200131Y510522D01*
X200667Y510969D01*
X201082Y511533D01*
X201349Y512191D01*
X201443Y512922D01*
X201385Y513496D01*
X201220Y514031D01*
X200957Y514515D01*
X200608Y514937D01*
X200188Y515287D01*
X199704Y515550D01*
X199170Y515715D01*
X198596Y515774D01*
X198021Y515715D01*
X197486Y515550D01*
X197003Y515287D01*
X196581Y514937D01*
X196233Y514515D01*
X195971Y514031D01*
X195806Y513496D01*
X195747Y512922D01*
X195840Y512191D01*
X196107Y511533D01*
X196521Y510969D01*
X197060Y510522D01*
X197196Y510415D01*
X197418Y510283D01*
X197472Y510211D01*
X197467Y510115D01*
X197370Y509883D01*
X197282Y509676D01*
X195899Y506319D01*
X195813Y506111D01*
X195665Y505755D01*
X195604Y505694D01*
X195520Y505700D01*
X195178Y505878D01*
X194977Y505987D01*
X194646Y506172D01*
X194547Y506191D01*
X194450Y506161D01*
X192856Y505065D01*
X192671Y504941D01*
X192465Y504798D01*
X192378Y504780D01*
X192296Y504822D01*
X192122Y504989D01*
X191965Y505152D01*
X191467Y505650D01*
X191304Y505809D01*
X190804Y506307D01*
X190642Y506465D01*
X190474Y506644D01*
X190435Y506726D01*
X190457Y506811D01*
X190593Y507013D01*
X190724Y507204D01*
X191846Y508835D01*
X191874Y508930D01*
X191857Y509030D01*
X191835Y509091D01*
X191125Y510865D01*
X191092Y510930D01*
X191038Y511013D01*
X190952Y511061D01*
X188971Y511430D01*
X188749Y511472D01*
X188510Y511515D01*
X188431Y511565D01*
X188402Y511652D01*
Y514228D01*
X188431Y514311D01*
X188510Y514359D01*
X188749Y514407D01*
X188971Y514444D01*
X191011Y514826D01*
X191100Y514872D01*
X191163Y514956D01*
X191200Y515041D01*
X191889Y516648D01*
X191928Y516746D01*
X191945Y516844D01*
X191917Y516935D01*
X190724Y518676D01*
X190593Y518861D01*
X190457Y519063D01*
X190435Y519152D01*
X190474Y519237D01*
X190642Y519411D01*
X190804Y519568D01*
X192296Y521059D01*
X192378Y521094D01*
X192465Y521076D01*
X192671Y520939D01*
X192856Y520809D01*
X194629Y519589D01*
X194727Y519561D01*
X194825Y519578D01*
X194911Y519611D01*
X194922Y519615D01*
X195668Y519970D01*
X196458Y520244D01*
X196561Y520283D01*
X196645Y520342D01*
X196690Y520430D01*
X197088Y522561D01*
X197125Y522783D01*
X197174Y523022D01*
X197221Y523098D01*
X197304Y523131D01*
G37*
G54D38*X158817Y506090D02*X161017D01*
X158817D02*X160017Y504490D01*
X159417D02*X160017D01*
X159417D02*X159017Y504290D01*
X158817Y504090D01*
X158617Y503490D01*
Y503090D02*Y503490D01*
Y503090D02*X158817Y502490D01*
X159217Y502090D01*
X159817Y501890D01*
X160417D01*
X161017Y502090D01*
X161217Y502290D01*
X161417Y502690D01*
X157417Y505290D02*X157017Y505490D01*
X156417Y506090D01*
Y501890D02*Y506090D01*
X155017Y502290D02*X155217Y502090D01*
X155017Y501890D01*
X154817Y502090D01*
X155017Y502290D01*
X152417Y506090D02*X153017Y505890D01*
X153417Y505290D01*
X153617Y504290D01*
Y503690D02*Y504290D01*
Y503690D02*X153417Y502690D01*
X153017Y502090D01*
X152417Y501890D01*
X152017D02*X152417D01*
X152017D02*X151417Y502090D01*
X151017Y502690D01*
X150817Y503690D01*
Y504290D01*
X151017Y505290D01*
X151417Y505890D01*
X152017Y506090D01*
X152417D01*
X148417D02*X149017Y505890D01*
X149417Y505290D01*
X149617Y504290D01*
Y503690D02*Y504290D01*
Y503690D02*X149417Y502690D01*
X149017Y502090D01*
X148417Y501890D01*
X148017D02*X148417D01*
X148017D02*X147417Y502090D01*
X147017Y502690D01*
X146817Y503690D01*
Y504290D01*
X147017Y505290D01*
X147417Y505890D01*
X148017Y506090D01*
X148417D01*
X145617Y505290D02*X145217Y505490D01*
X144617Y506090D01*
Y501890D02*Y506090D01*
X143217Y502290D02*X143417Y502090D01*
X143217Y501890D01*
X143017Y502090D01*
X143217Y502290D01*
X140617Y506090D02*X141217Y505890D01*
X141617Y505290D01*
X141817Y504290D01*
Y503690D02*Y504290D01*
Y503690D02*X141617Y502690D01*
X141217Y502090D01*
X140617Y501890D01*
X140217D02*X140617D01*
X140217D02*X139617Y502090D01*
X139217Y502690D01*
X139017Y503690D01*
Y504290D01*
X139217Y505290D01*
X139617Y505890D01*
X140217Y506090D01*
X140617D01*
X136617D02*X137217Y505890D01*
X137617Y505290D01*
X137817Y504290D01*
Y503690D02*Y504290D01*
Y503690D02*X137617Y502690D01*
X137217Y502090D01*
X136617Y501890D01*
X136217D02*X136617D01*
X136217D02*X135617Y502090D01*
X135217Y502690D01*
X135017Y503690D01*
Y504290D01*
X135217Y505290D01*
X135617Y505890D01*
X136217Y506090D01*
X136617D01*
X133616Y502290D02*X133816Y502090D01*
X133616Y501890D01*
X133416Y502090D01*
X133616Y502290D01*
X131016Y506090D02*X131616Y505890D01*
X132016Y505290D01*
X132216Y504290D01*
Y503690D02*Y504290D01*
Y503690D02*X132016Y502690D01*
X131616Y502090D01*
X131016Y501890D01*
X130616D02*X131016D01*
X130616D02*X130016Y502090D01*
X129616Y502690D01*
X129416Y503690D01*
Y504290D01*
X129616Y505290D01*
X130016Y505890D01*
X130616Y506090D01*
X131016D01*
X128216Y505290D02*X127816Y505490D01*
X127216Y506090D01*
Y501890D02*Y506090D01*
X125816Y502290D02*X126016Y502090D01*
X125816Y501890D01*
X125616Y502090D01*
X125816Y502290D01*
X123216Y506090D02*X123816Y505890D01*
X124216Y505290D01*
X124416Y504290D01*
Y503690D02*Y504290D01*
Y503690D02*X124216Y502690D01*
X123816Y502090D01*
X123216Y501890D01*
X122816D02*X123216D01*
X122816D02*X122216Y502090D01*
X121816Y502690D01*
X121616Y503690D01*
Y504290D01*
X121816Y505290D01*
X122216Y505890D01*
X122816Y506090D01*
X123216D01*
X120416Y505290D02*X120016Y505490D01*
X119416Y506090D01*
Y501890D02*Y506090D01*
X157980Y496932D02*X158180Y497332D01*
X158580Y497732D01*
X158980Y497932D01*
X159780D01*
X160180Y497732D01*
X160580Y497332D01*
X160780Y496932D01*
X160980Y496332D01*
Y495332D02*Y496332D01*
Y495332D02*X160780Y494732D01*
X160580Y494332D01*
X160180Y493932D01*
X159780Y493732D01*
X158980D02*X159780D01*
X158980D02*X158580Y493932D01*
X158180Y494332D01*
X157980Y494732D01*
X155780Y496532D02*X156180Y496332D01*
X156580Y495932D01*
X156780Y495332D01*
Y494932D02*Y495332D01*
Y494932D02*X156580Y494332D01*
X156180Y493932D01*
X155780Y493732D01*
X155180D02*X155780D01*
X155180D02*X154780Y493932D01*
X154380Y494332D01*
X154180Y494932D01*
Y495332D01*
X154380Y495932D01*
X154780Y496332D01*
X155180Y496532D01*
X155780D01*
X152980Y492332D02*Y496532D01*
Y495932D02*X152580Y496332D01*
X152180Y496532D01*
X151580D02*X152180D01*
X151580D02*X151180Y496332D01*
X150780Y495932D01*
X150580Y495332D01*
Y494932D02*Y495332D01*
Y494932D02*X150780Y494332D01*
X151180Y493932D01*
X151580Y493732D01*
X152180D01*
X152580Y493932D01*
X152980Y494332D01*
X149180Y496532D02*X147980Y493732D01*
X146780Y496532D02*X147980Y493732D01*
X148380Y492932D01*
X148780Y492532D01*
X149180Y492332D01*
X149380D01*
X145580Y493732D02*Y496532D01*
Y495332D02*X145380Y495932D01*
X144980Y496332D01*
X144580Y496532D01*
X143980D02*X144580D01*
X142780Y497932D02*X142580Y497732D01*
X142380Y497932D01*
X142580Y498132D01*
X142780Y497932D01*
X142580Y493732D02*Y496532D01*
X138780Y493332D02*Y496532D01*
Y493332D02*X138980Y492732D01*
X139180Y492532D01*
X139580Y492332D01*
X140180D01*
X140580Y492532D01*
X138780Y495932D02*X139180Y496332D01*
X139580Y496532D01*
X140180D01*
X140580Y496332D01*
X140980Y495932D01*
X141180Y495332D01*
Y494932D02*Y495332D01*
Y494932D02*X140980Y494332D01*
X140580Y493932D01*
X140180Y493732D01*
X139580D02*X140180D01*
X139580D02*X139180Y493932D01*
X138780Y494332D01*
X137580Y493732D02*Y497932D01*
Y495732D02*X136980Y496332D01*
X136580Y496532D01*
X135980D02*X136580D01*
X135980D02*X135580Y496332D01*
X135380Y495732D01*
Y493732D02*Y495732D01*
X133580Y494532D02*Y497932D01*
Y494532D02*X133380Y493932D01*
X132980Y493732D01*
X132580D02*X132980D01*
X132780Y496532D02*X134180D01*
X128780Y498732D02*X129180Y498332D01*
X129580Y497732D01*
X129980Y496932D01*
X130180Y495932D01*
Y495132D02*Y495932D01*
Y495132D02*X129980Y494132D01*
X129580Y493332D01*
X129180Y492732D01*
X128780Y492332D01*
X124580Y496932D02*X124780Y497332D01*
X125180Y497732D01*
X125580Y497932D01*
X126380D01*
X126780Y497732D01*
X127180Y497332D01*
X127380Y496932D01*
X127580Y496332D01*
Y495332D02*Y496332D01*
Y495332D02*X127380Y494732D01*
X127180Y494332D01*
X126780Y493932D01*
X126380Y493732D01*
X125580D02*X126380D01*
X125580D02*X125180Y493932D01*
X124780Y494332D01*
X124580Y494732D01*
X123380Y498732D02*X122980Y498332D01*
X122580Y497732D01*
X122180Y496932D01*
X121980Y495932D01*
Y495132D02*Y495932D01*
Y495132D02*X122180Y494132D01*
X122580Y493332D01*
X122980Y492732D01*
X123380Y492332D01*
X119380Y496932D02*Y497132D01*
X119180Y497532D01*
X118980Y497732D01*
X118580Y497932D01*
X117780D02*X118580D01*
X117780D02*X117380Y497732D01*
X117180Y497532D01*
X116980Y497132D01*
Y496732D02*Y497132D01*
Y496732D02*X117180Y496332D01*
X117580Y495732D01*
X119580Y493732D01*
X116780D02*X119580D01*
X114380Y497932D02*X114980Y497732D01*
X115380Y497132D01*
X115580Y496132D01*
Y495532D02*Y496132D01*
Y495532D02*X115380Y494532D01*
X114980Y493932D01*
X114380Y493732D01*
X113980D02*X114380D01*
X113980D02*X113380Y493932D01*
X112980Y494532D01*
X112780Y495532D01*
Y496132D01*
X112980Y497132D01*
X113380Y497732D01*
X113980Y497932D01*
X114380D01*
X111380Y496932D02*Y497132D01*
X111180Y497532D01*
X110980Y497732D01*
X110580Y497932D01*
X109780D02*X110580D01*
X109780D02*X109380Y497732D01*
X109180Y497532D01*
X108980Y497132D01*
Y496732D02*Y497132D01*
Y496732D02*X109180Y496332D01*
X109580Y495732D01*
X111580Y493732D01*
X108780D02*X111580D01*
X106380Y497932D02*X106980Y497732D01*
X107380Y497132D01*
X107580Y496132D01*
Y495532D02*Y496132D01*
Y495532D02*X107380Y494532D01*
X106980Y493932D01*
X106380Y493732D01*
X105980D02*X106380D01*
X105980D02*X105380Y493932D01*
X104980Y494532D01*
X104780Y495532D01*
Y496132D01*
X104980Y497132D01*
X105380Y497732D01*
X105980Y497932D01*
X106380D01*
X102380Y493732D02*Y497932D01*
X100580D02*X102380D01*
X100580D02*X99980Y497732D01*
X99780Y497532D01*
X99580Y497132D01*
Y496732D02*Y497132D01*
Y496732D02*X99780Y496332D01*
X99980Y496132D01*
X100580Y495932D01*
X102380D01*
X100580D02*X99980Y495732D01*
X99780Y495532D01*
X99580Y495132D01*
Y494532D02*Y495132D01*
Y494532D02*X99780Y494132D01*
X99980Y493932D01*
X100580Y493732D01*
X102380D01*
X95980Y495332D02*X98380D01*
X95980D02*Y495732D01*
X96180Y496132D01*
X96380Y496332D01*
X96780Y496532D01*
X97380D01*
X97780Y496332D01*
X98180Y495932D01*
X98380Y495332D01*
Y494932D02*Y495332D01*
Y494932D02*X98180Y494332D01*
X97780Y493932D01*
X97380Y493732D01*
X96780D02*X97380D01*
X96780D02*X96380Y493932D01*
X95980Y494332D01*
X94780Y493732D02*Y496532D01*
Y495332D02*X94580Y495932D01*
X94180Y496332D01*
X93780Y496532D01*
X93180D02*X93780D01*
X91380Y494532D02*Y497932D01*
Y494532D02*X91180Y493932D01*
X90780Y493732D01*
X90380D02*X90780D01*
X90580Y496532D02*X91980D01*
X86580Y493732D02*Y497932D01*
X85180D02*X87980D01*
X83980D02*X83780Y497732D01*
X83580Y497932D01*
X83780Y498132D01*
X83980Y497932D01*
X83780Y493732D02*Y496532D01*
X82380Y493732D02*Y496532D01*
Y495732D02*X81780Y496332D01*
X81380Y496532D01*
X80780D02*X81380D01*
X80780D02*X80380Y496332D01*
X80180Y495732D01*
Y493732D02*Y495732D01*
X79580Y496332D01*
X79180Y496532D01*
X78580D02*X79180D01*
X78580D02*X78180Y496332D01*
X77980Y495732D01*
Y493732D02*Y495732D01*
X76780Y493732D02*Y496532D01*
Y495732D02*X76180Y496332D01*
X75780Y496532D01*
X75180D02*X75780D01*
X75180D02*X74780Y496332D01*
X74580Y495732D01*
Y493732D02*Y495732D01*
X73980Y496332D01*
X73580Y496532D01*
X72980D02*X73580D01*
X72980D02*X72580Y496332D01*
X72380Y495732D01*
Y493732D02*Y495732D01*
X68780Y495332D02*X71180D01*
X68780D02*Y495732D01*
X68980Y496132D01*
X69180Y496332D01*
X69580Y496532D01*
X70180D01*
X70580Y496332D01*
X70980Y495932D01*
X71180Y495332D01*
Y494932D02*Y495332D01*
Y494932D02*X70980Y494332D01*
X70580Y493932D01*
X70180Y493732D01*
X69580D02*X70180D01*
X69580D02*X69180Y493932D01*
X68780Y494332D01*
X67580Y493732D02*Y496532D01*
Y495332D02*X67380Y495932D01*
X66980Y496332D01*
X66580Y496532D01*
X65980D02*X66580D01*
X64780Y493732D02*Y496532D01*
Y495732D02*X64180Y496332D01*
X63780Y496532D01*
X63180D02*X63780D01*
X63180D02*X62780Y496332D01*
X62580Y495732D01*
Y493732D02*Y495732D01*
X61980Y496332D01*
X61580Y496532D01*
X60980D02*X61580D01*
X60980D02*X60580Y496332D01*
X60380Y495732D01*
Y493732D02*Y495732D01*
X56780Y493732D02*Y496532D01*
Y495932D02*X57180Y496332D01*
X57580Y496532D01*
X58180D01*
X58580Y496332D01*
X58980Y495932D01*
X59180Y495332D01*
Y494932D02*Y495332D01*
Y494932D02*X58980Y494332D01*
X58580Y493932D01*
X58180Y493732D01*
X57580D02*X58180D01*
X57580D02*X57180Y493932D01*
X56780Y494332D01*
X55580Y493732D02*Y496532D01*
Y495732D02*X54980Y496332D01*
X54580Y496532D01*
X53980D02*X54580D01*
X53980D02*X53580Y496332D01*
X53380Y495732D01*
Y493732D02*Y495732D01*
X212583Y500753D02*X212983Y500553D01*
X213383Y500153D01*
X213583Y499553D01*
Y499153D02*Y499553D01*
Y499153D02*X213383Y498553D01*
X212983Y498153D01*
X212583Y497953D01*
X211983D02*X212583D01*
X211983D02*X211583Y498153D01*
X211183Y498553D01*
X210983Y499153D01*
Y499553D01*
X211183Y500153D01*
X211583Y500553D01*
X211983Y500753D01*
X212583D01*
X209783Y496553D02*Y500753D01*
Y500153D02*X209383Y500553D01*
X208983Y500753D01*
X208383D02*X208983D01*
X208383D02*X207983Y500553D01*
X207583Y500153D01*
X207383Y499553D01*
Y499153D02*Y499553D01*
Y499153D02*X207583Y498553D01*
X207983Y498153D01*
X208383Y497953D01*
X208983D01*
X209383Y498153D01*
X209783Y498553D01*
X203783Y499553D02*X206183D01*
X203783D02*Y499953D01*
X203983Y500353D01*
X204183Y500553D01*
X204583Y500753D01*
X205183D01*
X205583Y500553D01*
X205983Y500153D01*
X206183Y499553D01*
Y499153D02*Y499553D01*
Y499153D02*X205983Y498553D01*
X205583Y498153D01*
X205183Y497953D01*
X204583D02*X205183D01*
X204583D02*X204183Y498153D01*
X203783Y498553D01*
X202583Y497953D02*Y500753D01*
Y499953D02*X201983Y500553D01*
X201583Y500753D01*
X200983D02*X201583D01*
X200983D02*X200583Y500553D01*
X200383Y499953D01*
Y497953D02*Y499953D01*
X195783Y500153D02*X195983Y500553D01*
X196583Y500753D01*
X197183D01*
X197783Y500553D01*
X197983Y500153D01*
X197783Y499753D01*
X197383Y499553D01*
X196383Y499353D01*
X195983Y499153D01*
X195783Y498753D01*
Y498553D02*Y498753D01*
Y498553D02*X195983Y498153D01*
X196583Y497953D01*
X197183D01*
X197783Y498153D01*
X197983Y498553D01*
X193583Y500753D02*X193983Y500553D01*
X194383Y500153D01*
X194583Y499553D01*
Y499153D02*Y499553D01*
Y499153D02*X194383Y498553D01*
X193983Y498153D01*
X193583Y497953D01*
X192983D02*X193583D01*
X192983D02*X192583Y498153D01*
X192183Y498553D01*
X191983Y499153D01*
Y499553D01*
X192183Y500153D01*
X192583Y500553D01*
X192983Y500753D01*
X193583D01*
X190783Y498753D02*Y500753D01*
Y498753D02*X190583Y498153D01*
X190183Y497953D01*
X189583D02*X190183D01*
X189583D02*X189183Y498153D01*
X188583Y498753D01*
Y497953D02*Y500753D01*
X187383Y497953D02*Y500753D01*
Y499553D02*X187183Y500153D01*
X186783Y500553D01*
X186383Y500753D01*
X185783D02*X186383D01*
X182183Y500153D02*X182583Y500553D01*
X182983Y500753D01*
X183583D01*
X183983Y500553D01*
X184383Y500153D01*
X184583Y499553D01*
Y499153D02*Y499553D01*
Y499153D02*X184383Y498553D01*
X183983Y498153D01*
X183583Y497953D01*
X182983D02*X183583D01*
X182983D02*X182583Y498153D01*
X182183Y498553D01*
X178583Y499553D02*X180983D01*
X178583D02*Y499953D01*
X178783Y500353D01*
X178983Y500553D01*
X179383Y500753D01*
X179983D01*
X180383Y500553D01*
X180783Y500153D01*
X180983Y499553D01*
Y499153D02*Y499553D01*
Y499153D02*X180783Y498553D01*
X180383Y498153D01*
X179983Y497953D01*
X179383D02*X179983D01*
X179383D02*X178983Y498153D01*
X178583Y498553D01*
X210630Y489094D02*Y493294D01*
Y491094D02*X210030Y491694D01*
X209630Y491894D01*
X209030D02*X209630D01*
X209030D02*X208630Y491694D01*
X208430Y491094D01*
Y489094D02*Y491094D01*
X204830Y489094D02*Y491894D01*
Y491294D02*X205230Y491694D01*
X205630Y491894D01*
X206230D01*
X206630Y491694D01*
X207030Y491294D01*
X207230Y490694D01*
Y490294D02*Y490694D01*
Y490294D02*X207030Y489694D01*
X206630Y489294D01*
X206230Y489094D01*
X205630D02*X206230D01*
X205630D02*X205230Y489294D01*
X204830Y489694D01*
X203630Y489094D02*Y491894D01*
Y490694D02*X203430Y491294D01*
X203030Y491694D01*
X202630Y491894D01*
X202030D02*X202630D01*
X198430Y489094D02*Y493294D01*
Y491294D02*X198830Y491694D01*
X199230Y491894D01*
X199830D01*
X200230Y491694D01*
X200630Y491294D01*
X200830Y490694D01*
Y490294D02*Y490694D01*
Y490294D02*X200630Y489694D01*
X200230Y489294D01*
X199830Y489094D01*
X199230D02*X199830D01*
X199230D02*X198830Y489294D01*
X198430Y489694D01*
X197230Y491894D02*X196430Y489094D01*
X195630Y491894D02*X196430Y489094D01*
X195630Y491894D02*X194830Y489094D01*
X194030Y491894D02*X194830Y489094D01*
X190430D02*Y491894D01*
Y491294D02*X190830Y491694D01*
X191230Y491894D01*
X191830D01*
X192230Y491694D01*
X192630Y491294D01*
X192830Y490694D01*
Y490294D02*Y490694D01*
Y490294D02*X192630Y489694D01*
X192230Y489294D01*
X191830Y489094D01*
X191230D02*X191830D01*
X191230D02*X190830Y489294D01*
X190430Y489694D01*
X189230Y489094D02*Y491894D01*
Y490694D02*X189030Y491294D01*
X188630Y491694D01*
X188230Y491894D01*
X187630D02*X188230D01*
X184030Y490694D02*X186430D01*
X184030D02*Y491094D01*
X184230Y491494D01*
X184430Y491694D01*
X184830Y491894D01*
X185430D01*
X185830Y491694D01*
X186230Y491294D01*
X186430Y490694D01*
Y490294D02*Y490694D01*
Y490294D02*X186230Y489694D01*
X185830Y489294D01*
X185430Y489094D01*
X184830D02*X185430D01*
X184830D02*X184430Y489294D01*
X184030Y489694D01*
X161417Y509764D02*Y513964D01*
X158817D02*X161417D01*
X159817Y511964D02*X161417D01*
X157617Y509764D02*Y512564D01*
Y511364D02*X157417Y511964D01*
X157017Y512364D01*
X156617Y512564D01*
X156017D02*X156617D01*
X153817D02*X154217Y512364D01*
X154617Y511964D01*
X154817Y511364D01*
Y510964D02*Y511364D01*
Y510964D02*X154617Y510364D01*
X154217Y509964D01*
X153817Y509764D01*
X153217D02*X153817D01*
X153217D02*X152817Y509964D01*
X152417Y510364D01*
X152217Y510964D01*
Y511364D01*
X152417Y511964D01*
X152817Y512364D01*
X153217Y512564D01*
X153817D01*
X151017Y509764D02*Y512564D01*
Y511764D02*X150417Y512364D01*
X150017Y512564D01*
X149417D02*X150017D01*
X149417D02*X149017Y512364D01*
X148817Y511764D01*
Y509764D02*Y511764D01*
X147017Y510564D02*Y513964D01*
Y510564D02*X146817Y509964D01*
X146417Y509764D01*
X146017D02*X146417D01*
X146217Y512564D02*X147617D01*
X143617Y509764D02*Y513964D01*
X141817D02*X143617D01*
X141817D02*X141217Y513764D01*
X141017Y513564D01*
X140817Y513164D01*
Y512564D02*Y513164D01*
Y512564D02*X141017Y512164D01*
X141217Y511964D01*
X141817Y511764D01*
X143617D01*
X137217Y509764D02*Y512564D01*
Y511964D02*X137617Y512364D01*
X138017Y512564D01*
X138617D01*
X139017Y512364D01*
X139417Y511964D01*
X139617Y511364D01*
Y510964D02*Y511364D01*
Y510964D02*X139417Y510364D01*
X139017Y509964D01*
X138617Y509764D01*
X138017D02*X138617D01*
X138017D02*X137617Y509964D01*
X137217Y510364D01*
X136017Y509764D02*Y512564D01*
Y511764D02*X135417Y512364D01*
X135017Y512564D01*
X134417D02*X135017D01*
X134417D02*X134017Y512364D01*
X133817Y511764D01*
Y509764D02*Y511764D01*
X130217Y511364D02*X132617D01*
X130217D02*Y511764D01*
X130417Y512164D01*
X130617Y512364D01*
X131017Y512564D01*
X131617D01*
X132017Y512364D01*
X132417Y511964D01*
X132617Y511364D01*
Y510964D02*Y511364D01*
Y510964D02*X132417Y510364D01*
X132017Y509964D01*
X131617Y509764D01*
X131017D02*X131617D01*
X131017D02*X130617Y509964D01*
X130217Y510364D01*
X129017Y509764D02*Y513964D01*
X158417Y525759D02*X158617Y526159D01*
X159017Y526559D01*
X159417Y526759D01*
X160217D01*
X160617Y526559D01*
X161017Y526159D01*
X161217Y525759D01*
X161417Y525159D01*
Y524159D02*Y525159D01*
Y524159D02*X161217Y523559D01*
X161017Y523159D01*
X160617Y522759D01*
X160217Y522559D01*
X159417D02*X160217D01*
X159417D02*X159017Y522759D01*
X158617Y523159D01*
X158417Y523559D01*
X154217Y525759D02*X154417Y526159D01*
X154817Y526559D01*
X155217Y526759D01*
X156017D01*
X156417Y526559D01*
X156817Y526159D01*
X157017Y525759D01*
X157217Y525159D01*
Y524159D02*Y525159D01*
Y524159D02*X157017Y523559D01*
X156817Y523159D01*
X156417Y522759D01*
X156017Y522559D01*
X155217D02*X156017D01*
X155217D02*X154817Y522759D01*
X154417Y523159D01*
X154217Y523559D01*
X149417Y524359D02*X153017D01*
X148217Y522559D02*Y526759D01*
X146417D02*X148217D01*
X146417D02*X145817Y526559D01*
X145617Y526359D01*
X145417Y525959D01*
Y525559D02*Y525959D01*
Y525559D02*X145617Y525159D01*
X145817Y524959D01*
X146417Y524759D01*
X148217D01*
X146417D02*X145817Y524559D01*
X145617Y524359D01*
X145417Y523959D01*
Y523359D02*Y523959D01*
Y523359D02*X145617Y522959D01*
X145817Y522759D01*
X146417Y522559D01*
X148217D01*
X144217Y526759D02*X142617Y524759D01*
Y522559D02*Y524759D01*
X141017Y526759D02*X142617Y524759D01*
X136217Y524359D02*X139817D01*
X132217Y526159D02*X132617Y526559D01*
X133217Y526759D01*
X134017D01*
X134617Y526559D01*
X135017Y526159D01*
Y525759D02*Y526159D01*
Y525759D02*X134817Y525359D01*
X134617Y525159D01*
X134217Y524959D01*
X133017Y524559D01*
X132617Y524359D01*
X132417Y524159D01*
X132217Y523759D01*
Y523159D02*Y523759D01*
Y523159D02*X132617Y522759D01*
X133217Y522559D01*
X134017D01*
X134617Y522759D01*
X135017Y523159D01*
X129417Y526759D02*X131017Y522559D01*
X129417Y526759D02*X127817Y522559D01*
X128417Y523959D02*X130417D01*
X123417Y526759D02*X125417Y523959D01*
X122417D02*X125417D01*
X123417Y522559D02*Y526759D01*
X121017Y522959D02*X121217Y522759D01*
X121017Y522559D01*
X120817Y522759D01*
X121017Y522959D01*
X118417Y526759D02*X119017Y526559D01*
X119417Y525959D01*
X119617Y524959D01*
Y524359D02*Y524959D01*
Y524359D02*X119417Y523359D01*
X119017Y522759D01*
X118417Y522559D01*
X118017D02*X118417D01*
X118017D02*X117417Y522759D01*
X117017Y523359D01*
X116817Y524359D01*
Y524959D01*
X117017Y525959D01*
X117417Y526559D01*
X118017Y526759D01*
X118417D01*
G54D39*X162156Y546506D03*
Y531743D03*
G54D40*X161664Y545522D03*
G54D41*Y545030D03*
G54D42*Y544538D03*
G54D43*Y544046D03*
G54D44*Y543554D03*
G54D45*Y543061D03*
G54D46*Y542569D03*
G54D47*Y542077D03*
G54D48*Y541585D03*
G54D49*Y541093D03*
G54D50*Y540601D03*
G54D51*Y540109D03*
G54D52*Y539617D03*
Y539124D03*
G54D51*Y538632D03*
G54D50*Y538140D03*
G54D49*Y537648D03*
G54D48*Y537156D03*
G54D53*Y536664D03*
G54D46*Y536172D03*
G54D40*X161172Y546014D03*
G54D41*Y545522D03*
G54D54*Y545030D03*
G54D55*Y544538D03*
G54D56*Y544046D03*
G54D46*Y543554D03*
G54D47*Y543061D03*
G54D48*Y542569D03*
G54D51*Y542077D03*
G54D57*Y541585D03*
G54D58*Y541093D03*
G54D59*Y540601D03*
G54D60*Y540109D03*
G54D61*Y539617D03*
Y539124D03*
G54D60*Y538632D03*
G54D59*Y538140D03*
G54D58*Y537648D03*
G54D57*Y537156D03*
G54D51*Y536664D03*
G54D48*Y536172D03*
G54D41*X160680Y546014D03*
G54D54*Y545522D03*
G54D55*Y545030D03*
G54D45*Y544538D03*
G54D62*Y544046D03*
G54D63*Y543554D03*
G54D50*Y543061D03*
G54D64*Y542569D03*
G54D59*Y542077D03*
Y536664D03*
G54D64*Y536172D03*
G54D50*Y535680D03*
G54D42*X160188Y546014D03*
G54D55*Y545522D03*
G54D45*Y545030D03*
G54D62*Y544538D03*
G54D48*Y544046D03*
G54D52*Y543554D03*
G54D58*Y543061D03*
Y535680D03*
G54D51*Y535187D03*
G54D43*X159696Y546014D03*
G54D56*Y545522D03*
G54D62*Y545030D03*
G54D48*Y544538D03*
G54D52*Y544046D03*
G54D59*Y543554D03*
G54D65*Y539617D03*
Y539124D03*
G54D59*Y535187D03*
G54D52*Y534695D03*
G54D44*X159204Y546014D03*
G54D46*Y545522D03*
G54D63*Y545030D03*
G54D52*Y544538D03*
G54D59*Y544046D03*
G54D66*Y541093D03*
G54D39*Y540601D03*
Y540109D03*
Y539617D03*
Y539124D03*
Y538632D03*
Y538140D03*
Y537648D03*
G54D59*Y534695D03*
G54D51*Y534203D03*
G54D45*X158712Y546014D03*
G54D47*Y545522D03*
G54D50*Y545030D03*
G54D58*Y544538D03*
G54D52*Y542077D03*
G54D39*Y541585D03*
Y541093D03*
Y540601D03*
Y540109D03*
Y539617D03*
Y539124D03*
Y538632D03*
Y538140D03*
Y537648D03*
Y537156D03*
G54D67*Y536664D03*
G54D58*Y534203D03*
G54D50*Y533711D03*
G54D46*X158219Y546014D03*
G54D49*Y545522D03*
G54D64*Y545030D03*
G54D66*Y542569D03*
G54D39*Y542077D03*
Y541585D03*
Y541093D03*
G54D65*Y540601D03*
G54D68*Y538140D03*
G54D39*Y537648D03*
Y537156D03*
Y536664D03*
G54D66*Y536172D03*
G54D64*Y533711D03*
G54D69*Y533219D03*
G54D47*X157727Y546014D03*
G54D51*Y545522D03*
G54D59*Y545030D03*
G54D67*Y543061D03*
G54D39*Y542569D03*
Y542077D03*
Y541585D03*
G54D65*Y541093D03*
Y537648D03*
G54D39*Y537156D03*
Y536664D03*
Y536172D03*
G54D52*Y535680D03*
G54D59*Y533711D03*
G54D51*Y533219D03*
G54D48*X157235Y546014D03*
G54D64*Y545522D03*
G54D39*Y543061D03*
Y542569D03*
Y542077D03*
Y541585D03*
Y537156D03*
Y536664D03*
Y536172D03*
Y535680D03*
G54D57*Y533219D03*
G54D49*X156743Y546014D03*
G54D58*Y545522D03*
G54D66*Y543554D03*
G54D39*Y543061D03*
Y542569D03*
Y542077D03*
Y541585D03*
G54D67*Y540109D03*
G54D39*Y539617D03*
Y539124D03*
G54D66*Y538632D03*
G54D39*Y537156D03*
Y536664D03*
Y536172D03*
Y535680D03*
G54D66*Y535187D03*
G54D58*Y533219D03*
G54D65*Y532727D03*
G54D50*X156251Y546014D03*
G54D59*Y545522D03*
G54D39*Y543554D03*
Y543061D03*
Y542569D03*
Y542077D03*
Y541585D03*
G54D65*Y540109D03*
G54D39*Y539617D03*
Y539124D03*
G54D52*Y538632D03*
G54D39*Y537156D03*
Y536664D03*
Y536172D03*
Y535680D03*
Y535187D03*
G54D59*Y533219D03*
G54D50*Y532727D03*
G54D51*X155759Y546014D03*
G54D60*Y545522D03*
G54D39*Y543554D03*
Y543061D03*
Y542569D03*
Y542077D03*
Y541585D03*
Y539617D03*
Y539124D03*
Y537156D03*
Y536664D03*
Y536172D03*
Y535680D03*
Y535187D03*
G54D60*Y533219D03*
G54D51*Y532727D03*
G54D52*X155267Y546014D03*
G54D61*Y545522D03*
G54D65*Y544046D03*
G54D39*Y543554D03*
Y543061D03*
Y542569D03*
Y542077D03*
Y541585D03*
Y541093D03*
Y539617D03*
Y539124D03*
Y537648D03*
Y537156D03*
Y536664D03*
Y536172D03*
Y535680D03*
Y535187D03*
G54D65*Y534695D03*
G54D61*Y533219D03*
G54D52*Y532727D03*
X154775Y546014D03*
G54D61*Y545522D03*
G54D65*Y544046D03*
G54D39*Y543554D03*
Y543061D03*
Y542569D03*
Y542077D03*
Y541585D03*
Y541093D03*
G54D68*Y540601D03*
Y538140D03*
G54D39*Y537648D03*
Y537156D03*
Y536664D03*
Y536172D03*
Y535680D03*
Y535187D03*
G54D65*Y534695D03*
G54D61*Y533219D03*
G54D52*Y532727D03*
G54D51*X154282Y546014D03*
G54D60*Y545522D03*
G54D39*Y543554D03*
Y543061D03*
Y542569D03*
Y542077D03*
Y541585D03*
G54D65*Y541093D03*
G54D68*Y537648D03*
G54D39*Y537156D03*
Y536664D03*
Y536172D03*
Y535680D03*
Y535187D03*
G54D60*Y533219D03*
G54D51*Y532727D03*
X153790Y546014D03*
G54D59*Y545522D03*
G54D39*Y543554D03*
Y543061D03*
Y542569D03*
Y542077D03*
Y541585D03*
Y537156D03*
Y536664D03*
Y536172D03*
Y535680D03*
Y535187D03*
G54D59*Y533219D03*
G54D50*Y532727D03*
G54D49*X153298Y546014D03*
G54D58*Y545522D03*
G54D39*Y543554D03*
Y543061D03*
Y542569D03*
Y542077D03*
Y541585D03*
G54D67*Y540109D03*
G54D39*Y539617D03*
Y539124D03*
G54D66*Y538632D03*
G54D39*Y537156D03*
Y536664D03*
Y536172D03*
Y535680D03*
G54D66*Y535187D03*
G54D58*Y533219D03*
G54D65*Y532727D03*
G54D48*X152806Y546014D03*
G54D64*Y545522D03*
G54D39*Y543061D03*
Y542569D03*
Y542077D03*
Y541585D03*
G54D68*Y540109D03*
G54D39*Y539617D03*
Y539124D03*
G54D52*Y538632D03*
G54D39*Y537156D03*
Y536664D03*
Y536172D03*
Y535680D03*
G54D64*Y533219D03*
G54D47*X152314Y546014D03*
G54D51*Y545522D03*
G54D59*Y545030D03*
G54D66*Y543061D03*
G54D39*Y542569D03*
Y542077D03*
Y541585D03*
Y539617D03*
Y539124D03*
Y537156D03*
Y536664D03*
Y536172D03*
G54D67*Y535680D03*
G54D59*Y533711D03*
G54D51*Y533219D03*
G54D62*X151822Y546014D03*
G54D49*Y545522D03*
G54D64*Y545030D03*
G54D66*Y542569D03*
G54D39*Y542077D03*
Y541585D03*
Y541093D03*
Y539617D03*
Y539124D03*
Y537648D03*
Y537156D03*
Y536664D03*
G54D66*Y536172D03*
G54D64*Y533711D03*
G54D70*Y533219D03*
G54D45*X151330Y546014D03*
G54D47*Y545522D03*
G54D51*Y545030D03*
G54D58*Y544538D03*
G54D66*Y542077D03*
G54D39*Y541585D03*
Y541093D03*
Y540601D03*
Y540109D03*
Y539617D03*
Y539124D03*
Y538632D03*
Y538140D03*
Y537648D03*
Y537156D03*
G54D66*Y536664D03*
G54D58*Y534203D03*
G54D50*Y533711D03*
G54D44*X150838Y546014D03*
G54D46*Y545522D03*
G54D48*Y545030D03*
G54D52*Y544538D03*
G54D46*Y544046D03*
G54D39*Y541093D03*
Y540601D03*
Y540109D03*
Y539617D03*
Y539124D03*
Y538632D03*
Y538140D03*
Y537648D03*
G54D59*Y534695D03*
G54D52*Y534203D03*
G54D43*X150345Y546014D03*
G54D45*Y545522D03*
G54D62*Y545030D03*
G54D49*Y544538D03*
G54D57*Y544046D03*
G54D46*Y543554D03*
G54D65*Y539617D03*
Y539124D03*
G54D59*Y535187D03*
G54D57*Y534695D03*
G54D42*X149853Y546014D03*
G54D55*Y545522D03*
G54D45*Y545030D03*
G54D53*Y544538D03*
G54D49*Y544046D03*
G54D52*Y543554D03*
G54D58*Y543061D03*
Y535680D03*
G54D52*Y535187D03*
G54D41*X149361Y546014D03*
G54D54*Y545522D03*
G54D55*Y545030D03*
G54D45*Y544538D03*
G54D62*Y544046D03*
G54D48*Y543554D03*
G54D51*Y543061D03*
G54D64*Y542569D03*
G54D59*Y542077D03*
Y536664D03*
G54D64*Y536172D03*
G54D50*Y535680D03*
G54D40*X148869Y546014D03*
G54D41*Y545522D03*
G54D54*Y545030D03*
G54D55*Y544538D03*
G54D45*Y544046D03*
G54D46*Y543554D03*
G54D47*Y543061D03*
G54D49*Y542569D03*
G54D51*Y542077D03*
G54D64*Y541585D03*
G54D58*Y541093D03*
G54D59*Y540601D03*
G54D60*Y540109D03*
G54D61*Y539617D03*
Y539124D03*
G54D60*Y538632D03*
G54D59*Y538140D03*
G54D58*Y537648D03*
G54D64*Y537156D03*
G54D51*Y536664D03*
G54D49*Y536172D03*
G54D71*X148377Y546014D03*
G54D40*Y545522D03*
G54D41*Y545030D03*
G54D42*Y544538D03*
G54D43*Y544046D03*
G54D44*Y543554D03*
G54D45*Y543061D03*
G54D62*Y542569D03*
G54D47*Y542077D03*
G54D48*Y541585D03*
G54D49*Y541093D03*
G54D51*Y540601D03*
Y540109D03*
G54D52*Y539617D03*
Y539124D03*
G54D51*Y538632D03*
G54D50*Y538140D03*
G54D49*Y537648D03*
G54D48*Y537156D03*
G54D47*Y536664D03*
G54D46*Y536172D03*
G54D72*X147885Y546014D03*
G54D71*Y545522D03*
G54D40*Y545030D03*
G54D41*Y544538D03*
G54D42*Y544046D03*
G54D73*Y543554D03*
G54D55*Y543061D03*
G54D56*Y542569D03*
G54D45*Y542077D03*
G54D46*Y541585D03*
G54D62*Y541093D03*
G54D53*Y540601D03*
G54D47*Y540109D03*
Y539617D03*
Y539124D03*
Y538632D03*
G54D53*Y538140D03*
G54D62*Y537648D03*
G54D74*Y537156D03*
G54D45*Y536664D03*
G54D44*Y536172D03*
G54D75*X147393Y546014D03*
G54D72*Y545522D03*
G54D71*Y545030D03*
G54D76*Y544538D03*
G54D77*Y544046D03*
G54D78*Y543554D03*
G54D42*Y543061D03*
G54D73*Y542569D03*
G54D43*Y542077D03*
G54D55*Y541585D03*
G54D56*Y541093D03*
G54D45*Y540601D03*
Y540109D03*
Y539617D03*
Y539124D03*
Y538632D03*
Y538140D03*
G54D56*Y537648D03*
G54D55*Y537156D03*
G54D43*Y536664D03*
G54D73*Y536172D03*
G54D79*X146901Y546014D03*
G54D75*Y545522D03*
G54D80*Y545030D03*
G54D72*Y544538D03*
G54D71*Y544046D03*
G54D40*Y543554D03*
G54D77*Y543061D03*
G54D41*Y542569D03*
G54D42*Y542077D03*
G54D54*Y541585D03*
G54D73*Y541093D03*
G54D65*Y540601D03*
G54D43*Y540109D03*
Y539617D03*
Y539124D03*
Y538632D03*
G54D65*Y538140D03*
G54D54*Y537648D03*
G54D42*Y537156D03*
Y536664D03*
G54D41*Y536172D03*
G54D69*X146408Y546014D03*
G54D79*Y545522D03*
G54D75*Y545030D03*
G54D80*Y544538D03*
G54D72*Y544046D03*
Y543554D03*
G54D71*Y543061D03*
G54D76*Y542569D03*
G54D40*Y542077D03*
G54D77*Y541585D03*
G54D41*Y541093D03*
G54D78*Y540601D03*
Y540109D03*
Y539617D03*
Y539124D03*
Y538632D03*
Y538140D03*
G54D41*Y537648D03*
G54D77*Y537156D03*
G54D40*Y536664D03*
G54D76*Y536172D03*
G54D69*X145916Y546014D03*
Y545522D03*
G54D70*Y545030D03*
G54D79*Y544538D03*
G54D75*Y544046D03*
G54D80*Y543554D03*
Y543061D03*
G54D72*Y542569D03*
G54D71*Y542077D03*
Y541585D03*
G54D76*Y541093D03*
Y540601D03*
G54D40*Y540109D03*
Y539617D03*
Y539124D03*
Y538632D03*
G54D76*Y538140D03*
Y537648D03*
G54D71*Y537156D03*
Y536664D03*
G54D72*Y536172D03*
G54D81*X145424Y546014D03*
Y545522D03*
G54D69*Y545030D03*
Y544538D03*
G54D70*Y544046D03*
G54D79*Y543554D03*
Y543061D03*
G54D75*Y542569D03*
G54D80*Y542077D03*
Y541585D03*
G54D72*Y541093D03*
Y540601D03*
Y540109D03*
Y539617D03*
Y539124D03*
Y538632D03*
Y538140D03*
Y537648D03*
G54D80*Y537156D03*
Y536664D03*
G54D75*Y536172D03*
G54D68*X144932Y546014D03*
G54D81*Y545522D03*
Y545030D03*
Y544538D03*
G54D69*Y544046D03*
Y543554D03*
Y543061D03*
G54D70*Y542569D03*
G54D79*Y542077D03*
Y541585D03*
Y541093D03*
G54D75*Y540601D03*
Y540109D03*
Y539617D03*
Y539124D03*
Y538632D03*
Y538140D03*
G54D79*Y537648D03*
Y537156D03*
Y536664D03*
G54D70*Y536172D03*
G54D68*X144440Y546014D03*
Y545522D03*
Y545030D03*
G54D81*Y544538D03*
Y544046D03*
Y543554D03*
Y543061D03*
Y542569D03*
G54D69*Y542077D03*
Y541585D03*
Y541093D03*
Y540601D03*
Y540109D03*
Y539617D03*
Y539124D03*
Y538632D03*
Y538140D03*
Y537648D03*
Y537156D03*
Y536664D03*
G54D81*Y536172D03*
G54D68*X143948Y546014D03*
Y545522D03*
Y545030D03*
Y544538D03*
Y544046D03*
Y543554D03*
G54D81*Y543061D03*
Y542569D03*
Y542077D03*
Y541585D03*
Y541093D03*
Y540601D03*
Y540109D03*
Y539617D03*
Y539124D03*
Y538632D03*
Y538140D03*
Y537648D03*
Y537156D03*
Y536664D03*
Y536172D03*
G54D68*X143456Y546014D03*
Y545522D03*
Y545030D03*
Y544538D03*
Y544046D03*
Y543554D03*
Y539124D03*
Y538632D03*
Y538140D03*
Y537648D03*
Y537156D03*
Y536664D03*
Y536172D03*
X142964Y546014D03*
Y545522D03*
Y545030D03*
Y544538D03*
Y538140D03*
Y537648D03*
Y537156D03*
Y536664D03*
Y536172D03*
X142471Y546014D03*
Y545522D03*
Y545030D03*
G54D67*Y542569D03*
G54D39*Y542077D03*
Y541585D03*
Y541093D03*
Y540601D03*
G54D67*Y540109D03*
G54D68*Y537648D03*
Y537156D03*
Y536664D03*
Y536172D03*
X141979Y546014D03*
Y545522D03*
Y545030D03*
G54D61*Y543061D03*
G54D39*Y542569D03*
Y542077D03*
Y541585D03*
Y541093D03*
Y540601D03*
Y540109D03*
Y539617D03*
G54D68*Y537648D03*
Y537156D03*
Y536664D03*
Y536172D03*
G54D39*Y534695D03*
Y534203D03*
Y533711D03*
Y533219D03*
Y532727D03*
G54D68*X141487Y546014D03*
Y545522D03*
G54D39*Y543554D03*
Y543061D03*
Y542569D03*
Y542077D03*
Y541585D03*
Y541093D03*
Y540601D03*
Y540109D03*
Y539617D03*
Y539124D03*
G54D68*Y537156D03*
Y536664D03*
Y536172D03*
G54D39*Y534695D03*
Y533711D03*
Y532727D03*
G54D68*X140995Y546014D03*
Y545522D03*
G54D67*Y544046D03*
G54D39*Y543554D03*
Y543061D03*
Y542569D03*
Y542077D03*
Y541585D03*
Y541093D03*
Y540601D03*
Y540109D03*
Y539617D03*
Y539124D03*
G54D67*Y538632D03*
G54D68*Y537156D03*
Y536664D03*
Y536172D03*
G54D39*Y534695D03*
Y533711D03*
Y532727D03*
G54D68*X140503Y546014D03*
Y545522D03*
G54D39*Y544046D03*
Y543554D03*
Y543061D03*
Y542569D03*
Y540109D03*
Y539617D03*
Y539124D03*
Y538632D03*
G54D68*Y537156D03*
Y536664D03*
Y536172D03*
G54D39*Y534203D03*
Y533219D03*
G54D68*X140011Y546014D03*
Y545522D03*
G54D39*Y544046D03*
Y542569D03*
Y538632D03*
G54D68*Y537156D03*
Y536664D03*
Y536172D03*
X139519Y546014D03*
Y545522D03*
G54D39*Y544046D03*
Y542569D03*
Y538632D03*
G54D68*Y537156D03*
Y536664D03*
Y536172D03*
G54D39*Y534695D03*
G54D68*X139027Y546014D03*
Y545522D03*
G54D39*Y544046D03*
Y543554D03*
Y543061D03*
Y542569D03*
Y540109D03*
Y539617D03*
Y539124D03*
Y538632D03*
G54D68*Y537156D03*
Y536664D03*
Y536172D03*
G54D39*Y534203D03*
G54D68*X138534Y546014D03*
Y545522D03*
G54D67*Y544046D03*
G54D39*Y543554D03*
Y543061D03*
Y542569D03*
Y542077D03*
Y541585D03*
Y541093D03*
Y540601D03*
Y540109D03*
Y539617D03*
Y539124D03*
G54D67*Y538632D03*
G54D68*Y537156D03*
Y536664D03*
Y536172D03*
G54D39*Y533711D03*
Y533219D03*
Y532727D03*
G54D68*X138042Y546014D03*
Y545522D03*
G54D39*Y543554D03*
Y543061D03*
Y542569D03*
Y542077D03*
Y541585D03*
Y541093D03*
Y540601D03*
Y540109D03*
Y539617D03*
Y539124D03*
G54D68*Y537156D03*
Y536664D03*
Y536172D03*
G54D39*Y534203D03*
G54D68*X137550Y546014D03*
Y545522D03*
Y545030D03*
G54D39*Y543061D03*
Y542569D03*
Y542077D03*
Y541585D03*
Y541093D03*
Y540601D03*
Y540109D03*
Y539617D03*
G54D68*Y537648D03*
Y537156D03*
Y536664D03*
Y536172D03*
G54D39*Y534695D03*
G54D68*X137058Y546014D03*
Y545522D03*
Y545030D03*
G54D67*Y542569D03*
G54D39*Y542077D03*
Y541585D03*
Y541093D03*
Y540601D03*
G54D67*Y540109D03*
G54D68*Y537648D03*
Y537156D03*
Y536664D03*
Y536172D03*
X136566Y546014D03*
Y545522D03*
Y545030D03*
Y544538D03*
Y538140D03*
Y537648D03*
Y537156D03*
Y536664D03*
Y536172D03*
X136074Y546014D03*
Y545522D03*
Y545030D03*
Y544538D03*
Y544046D03*
Y543554D03*
Y539124D03*
Y538632D03*
Y538140D03*
Y537648D03*
Y537156D03*
Y536664D03*
Y536172D03*
X135582Y546014D03*
Y545522D03*
Y545030D03*
Y544538D03*
Y544046D03*
Y543554D03*
Y543061D03*
Y542569D03*
Y542077D03*
Y541585D03*
Y541093D03*
Y540601D03*
Y540109D03*
Y539617D03*
Y539124D03*
Y538632D03*
Y538140D03*
Y537648D03*
Y537156D03*
Y536664D03*
Y536172D03*
X135090Y546014D03*
Y545522D03*
Y545030D03*
Y544538D03*
Y544046D03*
Y543554D03*
Y543061D03*
Y542569D03*
Y542077D03*
Y541585D03*
Y541093D03*
Y540601D03*
Y540109D03*
Y539617D03*
Y539124D03*
Y538632D03*
Y538140D03*
Y537648D03*
Y537156D03*
Y536664D03*
Y536172D03*
X134597Y546014D03*
Y545522D03*
Y545030D03*
Y544538D03*
Y544046D03*
Y543554D03*
Y543061D03*
Y542569D03*
Y542077D03*
Y541585D03*
Y541093D03*
Y540601D03*
Y540109D03*
Y539617D03*
Y539124D03*
Y538632D03*
Y538140D03*
Y537648D03*
Y537156D03*
Y536664D03*
Y536172D03*
X134105Y546014D03*
Y545522D03*
Y545030D03*
Y544538D03*
Y544046D03*
Y543554D03*
Y543061D03*
Y542569D03*
Y542077D03*
Y541585D03*
Y541093D03*
Y540601D03*
Y540109D03*
Y539617D03*
Y539124D03*
Y538632D03*
Y538140D03*
Y537648D03*
Y537156D03*
Y536664D03*
Y536172D03*
X133613Y546014D03*
Y545522D03*
Y545030D03*
Y544538D03*
Y544046D03*
Y543554D03*
Y543061D03*
Y542569D03*
Y542077D03*
Y541585D03*
Y541093D03*
Y540601D03*
Y540109D03*
Y539617D03*
Y539124D03*
Y538632D03*
Y538140D03*
Y537648D03*
Y537156D03*
Y536664D03*
Y536172D03*
X133121Y546014D03*
Y545522D03*
Y545030D03*
Y544538D03*
Y544046D03*
Y543554D03*
Y543061D03*
Y542569D03*
Y542077D03*
Y541585D03*
Y541093D03*
Y540601D03*
Y540109D03*
Y539617D03*
Y539124D03*
Y538632D03*
Y538140D03*
Y537648D03*
Y537156D03*
Y536664D03*
Y536172D03*
X132629Y546014D03*
Y545522D03*
Y545030D03*
Y544538D03*
Y544046D03*
Y543554D03*
Y543061D03*
Y542569D03*
Y542077D03*
Y541585D03*
Y541093D03*
Y540601D03*
Y540109D03*
Y539617D03*
Y539124D03*
Y538632D03*
Y538140D03*
Y537648D03*
Y537156D03*
Y536664D03*
Y536172D03*
X132137Y546014D03*
Y545522D03*
Y545030D03*
Y544538D03*
Y544046D03*
Y543554D03*
Y543061D03*
Y542569D03*
Y542077D03*
Y541585D03*
Y541093D03*
Y540601D03*
Y540109D03*
Y539617D03*
Y539124D03*
Y538632D03*
Y538140D03*
Y537648D03*
Y537156D03*
Y536664D03*
Y536172D03*
X131645Y546014D03*
Y545522D03*
Y545030D03*
Y544538D03*
Y544046D03*
Y543554D03*
Y539124D03*
Y538632D03*
Y538140D03*
Y537648D03*
Y537156D03*
Y536664D03*
Y536172D03*
X131152Y546014D03*
Y545522D03*
Y545030D03*
Y544538D03*
Y538140D03*
Y537648D03*
Y537156D03*
Y536664D03*
Y536172D03*
X130660Y546014D03*
Y545522D03*
Y545030D03*
G54D67*Y542569D03*
G54D39*Y542077D03*
Y541585D03*
Y541093D03*
Y540601D03*
G54D67*Y540109D03*
G54D68*Y537648D03*
Y537156D03*
Y536664D03*
Y536172D03*
X130168Y546014D03*
Y545522D03*
Y545030D03*
G54D61*Y543061D03*
G54D39*Y542569D03*
G54D82*Y542077D03*
Y541585D03*
G54D39*Y541093D03*
Y540601D03*
Y540109D03*
Y539617D03*
G54D68*Y537648D03*
Y537156D03*
Y536664D03*
Y536172D03*
G54D39*Y534203D03*
Y532727D03*
G54D68*X129676Y546014D03*
Y545522D03*
G54D39*Y543554D03*
Y543061D03*
G54D62*Y542569D03*
G54D72*Y541093D03*
G54D77*Y540601D03*
G54D39*Y539617D03*
Y539124D03*
G54D68*Y537156D03*
Y536664D03*
Y536172D03*
G54D39*Y534695D03*
Y533711D03*
Y532727D03*
G54D68*X129184Y546014D03*
Y545522D03*
G54D67*Y544046D03*
G54D39*Y543554D03*
Y539124D03*
G54D67*Y538632D03*
G54D68*Y537156D03*
Y536664D03*
Y536172D03*
G54D39*Y534695D03*
Y533711D03*
Y532727D03*
G54D68*X128692Y546014D03*
Y545522D03*
G54D39*Y544046D03*
G54D83*Y543554D03*
G54D65*Y541093D03*
G54D53*Y540601D03*
G54D63*Y539124D03*
G54D39*Y538632D03*
G54D68*Y537156D03*
Y536664D03*
Y536172D03*
G54D39*Y534695D03*
Y533219D03*
G54D68*X128200Y546014D03*
Y545522D03*
G54D39*Y544046D03*
G54D62*Y543554D03*
G54D39*Y542077D03*
Y541585D03*
Y541093D03*
Y540601D03*
G54D84*Y539124D03*
G54D39*Y538632D03*
G54D68*Y537156D03*
Y536664D03*
Y536172D03*
X127708Y546014D03*
Y545522D03*
G54D39*Y544046D03*
G54D62*Y543554D03*
G54D39*Y542077D03*
Y541585D03*
Y541093D03*
Y540601D03*
G54D84*Y539124D03*
G54D39*Y538632D03*
G54D68*Y537156D03*
Y536664D03*
Y536172D03*
G54D39*Y534203D03*
Y533711D03*
Y533219D03*
Y532727D03*
G54D68*X127215Y546014D03*
Y545522D03*
G54D39*Y544046D03*
G54D83*Y543554D03*
Y541585D03*
Y541093D03*
G54D84*Y540601D03*
G54D61*Y539124D03*
G54D39*Y538632D03*
G54D68*Y537156D03*
Y536664D03*
Y536172D03*
G54D39*Y534695D03*
Y533711D03*
G54D68*X126723Y546014D03*
Y545522D03*
G54D67*Y544046D03*
G54D39*Y543554D03*
G54D77*Y543061D03*
G54D39*Y539124D03*
G54D67*Y538632D03*
G54D68*Y537156D03*
Y536664D03*
Y536172D03*
G54D39*Y534695D03*
Y533711D03*
G54D68*X126231Y546014D03*
Y545522D03*
G54D39*Y543554D03*
Y543061D03*
G54D82*Y539617D03*
G54D39*Y539124D03*
G54D68*Y537156D03*
Y536664D03*
Y536172D03*
G54D39*Y534203D03*
Y533711D03*
Y533219D03*
Y532727D03*
G54D68*X125739Y546014D03*
Y545522D03*
Y545030D03*
G54D39*Y543061D03*
Y542569D03*
Y542077D03*
G54D85*Y541585D03*
G54D86*Y541093D03*
G54D39*Y540601D03*
Y540109D03*
Y539617D03*
G54D68*Y537648D03*
Y537156D03*
Y536664D03*
Y536172D03*
X125247Y546014D03*
Y545522D03*
Y545030D03*
G54D67*Y542569D03*
G54D39*Y542077D03*
Y541585D03*
Y541093D03*
Y540601D03*
G54D67*Y540109D03*
G54D68*Y537648D03*
Y537156D03*
Y536664D03*
Y536172D03*
X124755Y546014D03*
Y545522D03*
Y545030D03*
Y544538D03*
Y538140D03*
Y537648D03*
Y537156D03*
Y536664D03*
Y536172D03*
X124263Y546014D03*
Y545522D03*
Y545030D03*
Y544538D03*
Y544046D03*
Y543554D03*
Y539124D03*
Y538632D03*
Y538140D03*
Y537648D03*
Y537156D03*
Y536664D03*
Y536172D03*
X123771Y546014D03*
Y545522D03*
Y545030D03*
Y544538D03*
Y544046D03*
Y543554D03*
Y543061D03*
Y542569D03*
Y542077D03*
Y541585D03*
Y541093D03*
Y540601D03*
Y540109D03*
Y539617D03*
Y539124D03*
Y538632D03*
Y538140D03*
Y537648D03*
Y537156D03*
Y536664D03*
Y536172D03*
X123278Y546014D03*
Y545522D03*
Y545030D03*
Y544538D03*
Y544046D03*
Y543554D03*
Y543061D03*
Y542569D03*
Y542077D03*
Y541585D03*
Y541093D03*
Y540601D03*
Y540109D03*
Y539617D03*
Y539124D03*
Y538632D03*
Y538140D03*
Y537648D03*
Y537156D03*
Y536664D03*
Y536172D03*
X122786Y546014D03*
Y545522D03*
Y545030D03*
Y544538D03*
Y544046D03*
Y543554D03*
Y543061D03*
Y542569D03*
Y542077D03*
Y541585D03*
Y541093D03*
Y540601D03*
Y540109D03*
Y539617D03*
Y539124D03*
Y538632D03*
Y538140D03*
Y537648D03*
Y537156D03*
Y536664D03*
Y536172D03*
X122294Y546014D03*
Y545522D03*
Y545030D03*
Y544538D03*
Y544046D03*
Y543554D03*
Y543061D03*
Y542569D03*
Y542077D03*
Y541585D03*
Y541093D03*
Y540601D03*
Y540109D03*
Y539617D03*
Y539124D03*
Y538632D03*
Y538140D03*
Y537648D03*
Y537156D03*
Y536664D03*
Y536172D03*
X121802Y546014D03*
Y545522D03*
Y545030D03*
Y544538D03*
Y544046D03*
Y543554D03*
Y543061D03*
Y542569D03*
Y542077D03*
Y541585D03*
Y541093D03*
Y540601D03*
Y540109D03*
Y539617D03*
Y539124D03*
Y538632D03*
Y538140D03*
Y537648D03*
Y537156D03*
Y536664D03*
Y536172D03*
X121310Y546014D03*
Y545522D03*
Y545030D03*
Y544538D03*
Y544046D03*
Y543554D03*
Y543061D03*
Y542569D03*
Y542077D03*
Y541585D03*
Y541093D03*
Y540601D03*
Y540109D03*
Y539617D03*
Y539124D03*
Y538632D03*
Y538140D03*
Y537648D03*
Y537156D03*
Y536664D03*
Y536172D03*
X120818Y546014D03*
Y545522D03*
Y545030D03*
Y544538D03*
Y544046D03*
Y543554D03*
Y543061D03*
Y542569D03*
Y542077D03*
Y541585D03*
Y541093D03*
Y540601D03*
Y540109D03*
Y539617D03*
Y539124D03*
Y538632D03*
Y538140D03*
Y537648D03*
Y537156D03*
Y536664D03*
Y536172D03*
X120326Y546014D03*
Y545522D03*
Y545030D03*
Y544538D03*
Y544046D03*
Y543554D03*
Y543061D03*
Y542569D03*
Y542077D03*
Y541585D03*
Y541093D03*
Y540601D03*
Y540109D03*
Y539617D03*
Y539124D03*
Y538632D03*
Y538140D03*
Y537648D03*
Y537156D03*
Y536664D03*
Y536172D03*
X119834Y545522D03*
Y545030D03*
Y544538D03*
Y544046D03*
Y543554D03*
Y543061D03*
Y542569D03*
Y542077D03*
Y541585D03*
Y541093D03*
Y540601D03*
Y540109D03*
Y539617D03*
Y539124D03*
Y538632D03*
Y538140D03*
Y537648D03*
Y537156D03*
Y536664D03*
Y536172D03*
G54D39*X119341Y546506D03*
Y531743D03*
G54D38*X163339Y557846D02*X163539Y558246D01*
X163939Y558646D01*
X164339Y558846D01*
X165139D01*
X165539Y558646D01*
X165939Y558246D01*
X166139Y557846D01*
X166339Y557246D01*
Y556246D02*Y557246D01*
Y556246D02*X166139Y555646D01*
X165939Y555246D01*
X165539Y554846D01*
X165139Y554646D01*
X164339D02*X165139D01*
X164339D02*X163939Y554846D01*
X163539Y555246D01*
X163339Y555646D01*
X159139Y557846D02*X159339Y558246D01*
X159739Y558646D01*
X160139Y558846D01*
X160939D01*
X161339Y558646D01*
X161739Y558246D01*
X161939Y557846D01*
X162139Y557246D01*
Y556246D02*Y557246D01*
Y556246D02*X161939Y555646D01*
X161739Y555246D01*
X161339Y554846D01*
X160939Y554646D01*
X160139D02*X160939D01*
X160139D02*X159739Y554846D01*
X159339Y555246D01*
X159139Y555646D01*
X33374Y305352D02*X33774Y305752D01*
X34374Y305952D01*
X35174D01*
X35774Y305752D01*
X36174Y305352D01*
Y304952D02*Y305352D01*
Y304952D02*X35974Y304552D01*
X35774Y304352D01*
X35374Y304152D01*
X34174Y303752D01*
X33774Y303552D01*
X33574Y303352D01*
X33374Y302952D01*
Y302352D02*Y302952D01*
Y302352D02*X33774Y301952D01*
X34374Y301752D01*
X35174D01*
X35774Y301952D01*
X36174Y302352D01*
X32174Y305152D02*X31774Y305352D01*
X31174Y305952D01*
Y301752D02*Y305952D01*
X28774D02*X29374Y305752D01*
X29774Y305152D01*
X29974Y304152D01*
Y303552D02*Y304152D01*
Y303552D02*X29774Y302552D01*
X29374Y301952D01*
X28774Y301752D01*
X28374D02*X28774D01*
X28374D02*X27774Y301952D01*
X27374Y302552D01*
X27174Y303552D01*
Y304152D01*
X27374Y305152D01*
X27774Y305752D01*
X28374Y305952D01*
X28774D01*
X25774Y304952D02*Y305152D01*
X25574Y305552D01*
X25374Y305752D01*
X24974Y305952D01*
X24174D02*X24974D01*
X24174D02*X23774Y305752D01*
X23574Y305552D01*
X23374Y305152D01*
Y304752D02*Y305152D01*
Y304752D02*X23574Y304352D01*
X23974Y303752D01*
X25974Y301752D01*
X23174D02*X25974D01*
X32540Y423576D02*X32940Y423976D01*
X33540Y424176D01*
X34340D01*
X34940Y423976D01*
X35340Y423576D01*
Y423176D02*Y423576D01*
Y423176D02*X35140Y422776D01*
X34940Y422576D01*
X34540Y422376D01*
X33340Y421976D01*
X32940Y421776D01*
X32740Y421576D01*
X32540Y421176D01*
Y420576D02*Y421176D01*
Y420576D02*X32940Y420176D01*
X33540Y419976D01*
X34340D01*
X34940Y420176D01*
X35340Y420576D01*
X31340Y423376D02*X30940Y423576D01*
X30340Y424176D01*
Y419976D02*Y424176D01*
X27940D02*X28540Y423976D01*
X28940Y423376D01*
X29140Y422376D01*
Y421776D02*Y422376D01*
Y421776D02*X28940Y420776D01*
X28540Y420176D01*
X27940Y419976D01*
X27540D02*X27940D01*
X27540D02*X26940Y420176D01*
X26540Y420776D01*
X26340Y421776D01*
Y422376D01*
X26540Y423376D01*
X26940Y423976D01*
X27540Y424176D01*
X27940D01*
X25140Y423376D02*X24740Y423576D01*
X24140Y424176D01*
Y419976D02*Y424176D01*
M02*
