G04 start of page 9 for group -4079 idx -4079 *
G04 Title: 31.002.00.01.01, topsilk *
G04 Creator: pcb 4.2.1 *
G04 CreationDate: Wed Dec 23 16:06:15 2020 UTC *
G04 For: bert *
G04 Format: Gerber/RS-274X *
G04 PCB-Dimensions (mil): 2200.00 4200.00 *
G04 PCB-Coordinate-Origin: lower left *
%MOIN*%
%FSLAX25Y25*%
%LNGTO*%
%ADD60C,0.0080*%
%ADD59C,0.0000*%
%ADD58C,0.0100*%
G54D58*X20000Y42500D02*Y52500D01*
Y42500D02*X30000D01*
X43100Y70000D02*X39700D01*
X66900D02*X70300D01*
X43100Y74500D02*Y65500D01*
X66900Y74500D02*Y65500D01*
X43100Y74500D02*X66900D01*
X43100Y65500D02*X66900D01*
X40000Y122800D02*Y119400D01*
Y95600D02*Y92200D01*
X35500Y119400D02*X44500D01*
X35500Y95600D02*X44500D01*
Y119400D02*Y95600D01*
X35500Y119400D02*Y95600D01*
X135100Y142300D02*Y122700D01*
X144900Y142300D02*Y122700D01*
X135100D02*X144900D01*
X135100Y142300D02*X144900D01*
X135100Y122300D02*Y102700D01*
X144900Y122300D02*Y102700D01*
X135100D02*X144900D01*
X135100Y122300D02*X144900D01*
X135100Y102300D02*Y82700D01*
X144900Y102300D02*Y82700D01*
X135100D02*X144900D01*
X135100Y102300D02*X144900D01*
X135100Y82300D02*Y62700D01*
X144900Y82300D02*Y62700D01*
X135100D02*X144900D01*
X135100Y82300D02*X144900D01*
X95000Y102500D02*G75*G03X95000Y102500I5000J0D01*G01*
G54D59*X93000D02*G75*G03X93000Y102500I7000J0D01*G01*
G54D58*X185000Y400000D02*Y390000D01*
Y400000D02*X175000D01*
X135100Y382300D02*Y362700D01*
X144900Y382300D02*Y362700D01*
X135100D02*X144900D01*
X135100Y382300D02*X144900D01*
X37500Y202500D02*X67500D01*
Y242500D01*
X37500D01*
Y202500D01*
Y317500D02*X67500D01*
Y357500D01*
X37500D01*
Y317500D01*
X135100Y362300D02*Y342700D01*
X144900Y362300D02*Y342700D01*
X135100D02*X144900D01*
X135100Y362300D02*X144900D01*
X135100Y342300D02*Y322700D01*
X144900Y342300D02*Y322700D01*
X135100D02*X144900D01*
X135100Y342300D02*X144900D01*
X135100Y322300D02*Y302700D01*
X144900Y322300D02*Y302700D01*
X135100D02*X144900D01*
X135100Y322300D02*X144900D01*
X135100Y302300D02*Y282700D01*
X144900Y302300D02*Y282700D01*
X135100D02*X144900D01*
X135100Y302300D02*X144900D01*
X135100Y282300D02*Y262700D01*
X144900Y282300D02*Y262700D01*
X135100D02*X144900D01*
X135100Y282300D02*X144900D01*
X135100Y262300D02*Y242700D01*
X144900Y262300D02*Y242700D01*
X135100D02*X144900D01*
X135100Y262300D02*X144900D01*
X135100Y242300D02*Y222700D01*
X144900Y242300D02*Y222700D01*
X135100D02*X144900D01*
X135100Y242300D02*X144900D01*
X135100Y222300D02*Y202700D01*
X144900Y222300D02*Y202700D01*
X135100D02*X144900D01*
X135100Y222300D02*X144900D01*
X20000Y375000D02*X30000D01*
X20000Y365000D02*X30000D01*
X20000Y375000D02*Y65000D01*
X30000Y375000D02*Y65000D01*
X20000D02*X30000D01*
X90000Y162500D02*Y82500D01*
X50000Y162500D02*X90000D01*
X50000D02*Y82500D01*
X75000D02*X90000D01*
X50000D02*X65000D01*
X75000D02*G75*G03X65000Y82500I-5000J0D01*G01*
X135100Y202300D02*Y182700D01*
X144900Y202300D02*Y182700D01*
X135100D02*X144900D01*
X135100Y202300D02*X144900D01*
X135100Y182300D02*Y162700D01*
X144900Y182300D02*Y162700D01*
X135100D02*X144900D01*
X135100Y182300D02*X144900D01*
X135100Y162300D02*Y142700D01*
X144900Y162300D02*Y142700D01*
X135100D02*X144900D01*
X135100Y162300D02*X144900D01*
G54D60*X56500Y52500D02*Y49500D01*
X56000Y53000D02*X56500Y52500D01*
X57000Y53000D01*
X58000D01*
X58500Y52500D01*
Y51500D01*
X58000Y51000D02*X58500Y51500D01*
X57000Y51000D02*X58000D01*
X56500Y51500D02*X57000Y51000D01*
X59700Y54500D02*X60200Y55000D01*
X61200D01*
X61700Y54500D01*
Y51500D01*
X61200Y51000D02*X61700Y51500D01*
X60200Y51000D02*X61200D01*
X59700Y51500D02*X60200Y51000D01*
Y53000D02*X61700D01*
X146500Y52500D02*Y49500D01*
X146000Y53000D02*X146500Y52500D01*
X147000Y53000D01*
X148000D01*
X148500Y52500D01*
Y51500D01*
X148000Y51000D02*X148500Y51500D01*
X147000Y51000D02*X148000D01*
X146500Y51500D02*X147000Y51000D01*
X149700Y53000D02*X151700Y55000D01*
X149700Y53000D02*X152200D01*
X151700Y55000D02*Y51000D01*
X100000Y58500D02*X102000D01*
X102500Y59000D01*
Y60000D02*Y59000D01*
X102000Y60500D02*X102500Y60000D01*
X100500Y60500D02*X102000D01*
X100500Y62500D02*Y58500D01*
X100000Y62500D02*X102000D01*
X102500Y62000D01*
Y61000D01*
X102000Y60500D02*X102500Y61000D01*
X48000Y63000D02*X50000D01*
X50500Y62500D01*
Y61500D01*
X50000Y61000D02*X50500Y61500D01*
X48500Y61000D02*X50000D01*
X48500Y63000D02*Y59000D01*
Y61000D02*X50500Y59000D01*
X51700Y62500D02*X52200Y63000D01*
X53700D01*
X54200Y62500D01*
Y61500D01*
X51700Y59000D02*X54200Y61500D01*
X51700Y59000D02*X54200D01*
X55400Y59500D02*X55900Y59000D01*
X55400Y62500D02*Y59500D01*
Y62500D02*X55900Y63000D01*
X56900D01*
X57400Y62500D01*
Y59500D01*
X56900Y59000D02*X57400Y59500D01*
X55900Y59000D02*X56900D01*
X55400Y60000D02*X57400Y62000D01*
X59100Y59000D02*X60100D01*
X59600Y63000D02*Y59000D01*
X58600Y62000D02*X59600Y63000D01*
X92500Y82500D02*X96000D01*
X96500Y83000D01*
Y84000D02*Y83000D01*
Y84000D02*X96000Y84500D01*
X92500D02*X96000D01*
X93000Y85700D02*X92500Y86200D01*
Y87700D02*Y86200D01*
Y87700D02*X93000Y88200D01*
X94000D01*
X96500Y85700D02*X94000Y88200D01*
X96500D02*Y85700D01*
X96000Y89400D02*X96500Y89900D01*
X93000Y89400D02*X96000D01*
X93000D02*X92500Y89900D01*
Y90900D02*Y89900D01*
Y90900D02*X93000Y91400D01*
X96000D01*
X96500Y90900D02*X96000Y91400D01*
X96500Y90900D02*Y89900D01*
X95500Y89400D02*X93500Y91400D01*
X96500Y94100D02*Y93100D01*
X92500Y93600D02*X96500D01*
X93500Y92600D02*X92500Y93600D01*
X108500Y105000D02*X110500D01*
X109500D02*Y101000D01*
X112200Y105000D02*Y101000D01*
X111700Y105000D02*X113700D01*
X114200Y104500D01*
Y103500D01*
X113700Y103000D02*X114200Y103500D01*
X112200Y103000D02*X113700D01*
X115400Y104500D02*X115900Y105000D01*
X117400D01*
X117900Y104500D01*
Y103500D01*
X115400Y101000D02*X117900Y103500D01*
X115400Y101000D02*X117900D01*
X119100Y101500D02*X119600Y101000D01*
X119100Y104500D02*Y101500D01*
Y104500D02*X119600Y105000D01*
X120600D01*
X121100Y104500D01*
Y101500D01*
X120600Y101000D02*X121100Y101500D01*
X119600Y101000D02*X120600D01*
X119100Y102000D02*X121100Y104000D01*
X122800Y101000D02*X123800D01*
X123300Y105000D02*Y101000D01*
X122300Y104000D02*X123300Y105000D01*
X37500Y136000D02*Y134000D01*
Y136000D02*X38000Y136500D01*
X39000D01*
X39500Y136000D02*X39000Y136500D01*
X39500Y136000D02*Y134500D01*
X37500D02*X41500D01*
X39500D02*X41500Y136500D01*
X38000Y137700D02*X37500Y138200D01*
Y139700D02*Y138200D01*
Y139700D02*X38000Y140200D01*
X39000D01*
X41500Y137700D02*X39000Y140200D01*
X41500D02*Y137700D01*
X41000Y141400D02*X41500Y141900D01*
X38000Y141400D02*X41000D01*
X38000D02*X37500Y141900D01*
Y142900D02*Y141900D01*
Y142900D02*X38000Y143400D01*
X41000D01*
X41500Y142900D02*X41000Y143400D01*
X41500Y142900D02*Y141900D01*
X40500Y141400D02*X38500Y143400D01*
X38000Y144600D02*X37500Y145100D01*
Y146600D02*Y145100D01*
Y146600D02*X38000Y147100D01*
X39000D01*
X41500Y144600D02*X39000Y147100D01*
X41500D02*Y144600D01*
X148000Y155000D02*Y151000D01*
X149500Y155000D02*X150000Y154500D01*
Y151500D01*
X149500Y151000D02*X150000Y151500D01*
X147500Y151000D02*X149500D01*
X147500Y155000D02*X149500D01*
X151200Y154500D02*X151700Y155000D01*
X153200D01*
X153700Y154500D01*
Y153500D01*
X151200Y151000D02*X153700Y153500D01*
X151200Y151000D02*X153700D01*
X154900Y151500D02*X155400Y151000D01*
X154900Y154500D02*Y151500D01*
Y154500D02*X155400Y155000D01*
X156400D01*
X156900Y154500D01*
Y151500D01*
X156400Y151000D02*X156900Y151500D01*
X155400Y151000D02*X156400D01*
X154900Y152000D02*X156900Y154000D01*
X158100Y155000D02*X160100D01*
X158100D02*Y153000D01*
X158600Y153500D01*
X159600D01*
X160100Y153000D01*
Y151500D01*
X159600Y151000D02*X160100Y151500D01*
X158600Y151000D02*X159600D01*
X158100Y151500D02*X158600Y151000D01*
X148000Y135000D02*Y131000D01*
X149500Y135000D02*X150000Y134500D01*
Y131500D01*
X149500Y131000D02*X150000Y131500D01*
X147500Y131000D02*X149500D01*
X147500Y135000D02*X149500D01*
X151200Y134500D02*X151700Y135000D01*
X153200D01*
X153700Y134500D01*
Y133500D01*
X151200Y131000D02*X153700Y133500D01*
X151200Y131000D02*X153700D01*
X154900Y131500D02*X155400Y131000D01*
X154900Y134500D02*Y131500D01*
Y134500D02*X155400Y135000D01*
X156400D01*
X156900Y134500D01*
Y131500D01*
X156400Y131000D02*X156900Y131500D01*
X155400Y131000D02*X156400D01*
X154900Y132000D02*X156900Y134000D01*
X158100Y133000D02*X160100Y135000D01*
X158100Y133000D02*X160600D01*
X160100Y135000D02*Y131000D01*
X148000Y115000D02*Y111000D01*
X149500Y115000D02*X150000Y114500D01*
Y111500D01*
X149500Y111000D02*X150000Y111500D01*
X147500Y111000D02*X149500D01*
X147500Y115000D02*X149500D01*
X151200Y114500D02*X151700Y115000D01*
X153200D01*
X153700Y114500D01*
Y113500D01*
X151200Y111000D02*X153700Y113500D01*
X151200Y111000D02*X153700D01*
X154900Y111500D02*X155400Y111000D01*
X154900Y114500D02*Y111500D01*
Y114500D02*X155400Y115000D01*
X156400D01*
X156900Y114500D01*
Y111500D01*
X156400Y111000D02*X156900Y111500D01*
X155400Y111000D02*X156400D01*
X154900Y112000D02*X156900Y114000D01*
X158100Y114500D02*X158600Y115000D01*
X159600D01*
X160100Y114500D01*
Y111500D01*
X159600Y111000D02*X160100Y111500D01*
X158600Y111000D02*X159600D01*
X158100Y111500D02*X158600Y111000D01*
Y113000D02*X160100D01*
X148000Y95000D02*Y91000D01*
X149500Y95000D02*X150000Y94500D01*
Y91500D01*
X149500Y91000D02*X150000Y91500D01*
X147500Y91000D02*X149500D01*
X147500Y95000D02*X149500D01*
X151200Y94500D02*X151700Y95000D01*
X153200D01*
X153700Y94500D01*
Y93500D01*
X151200Y91000D02*X153700Y93500D01*
X151200Y91000D02*X153700D01*
X154900Y91500D02*X155400Y91000D01*
X154900Y94500D02*Y91500D01*
Y94500D02*X155400Y95000D01*
X156400D01*
X156900Y94500D01*
Y91500D01*
X156400Y91000D02*X156900Y91500D01*
X155400Y91000D02*X156400D01*
X154900Y92000D02*X156900Y94000D01*
X158100Y94500D02*X158600Y95000D01*
X160100D01*
X160600Y94500D01*
Y93500D01*
X158100Y91000D02*X160600Y93500D01*
X158100Y91000D02*X160600D01*
X148000Y75000D02*Y71000D01*
X149500Y75000D02*X150000Y74500D01*
Y71500D01*
X149500Y71000D02*X150000Y71500D01*
X147500Y71000D02*X149500D01*
X147500Y75000D02*X149500D01*
X151200Y74500D02*X151700Y75000D01*
X153200D01*
X153700Y74500D01*
Y73500D01*
X151200Y71000D02*X153700Y73500D01*
X151200Y71000D02*X153700D01*
X154900Y71500D02*X155400Y71000D01*
X154900Y74500D02*Y71500D01*
Y74500D02*X155400Y75000D01*
X156400D01*
X156900Y74500D01*
Y71500D01*
X156400Y71000D02*X156900Y71500D01*
X155400Y71000D02*X156400D01*
X154900Y72000D02*X156900Y74000D01*
X158600Y71000D02*X159600D01*
X159100Y75000D02*Y71000D01*
X158100Y74000D02*X159100Y75000D01*
X146500Y395000D02*Y392000D01*
X146000Y395500D02*X146500Y395000D01*
X147000Y395500D01*
X148000D01*
X148500Y395000D01*
Y394000D01*
X148000Y393500D02*X148500Y394000D01*
X147000Y393500D02*X148000D01*
X146500Y394000D02*X147000Y393500D01*
X149700Y397000D02*X150200Y397500D01*
X151700D01*
X152200Y397000D01*
Y396000D01*
X149700Y393500D02*X152200Y396000D01*
X149700Y393500D02*X152200D01*
X102500Y382000D02*Y378500D01*
Y382000D02*X103000Y382500D01*
X104500D01*
X105000Y382000D01*
Y378500D01*
X102500Y380500D02*X105000D01*
X148000Y375000D02*Y371000D01*
X149500Y375000D02*X150000Y374500D01*
Y371500D01*
X149500Y371000D02*X150000Y371500D01*
X147500Y371000D02*X149500D01*
X147500Y375000D02*X149500D01*
X151200Y374500D02*X151700Y375000D01*
X153200D01*
X153700Y374500D01*
Y373500D01*
X151200Y371000D02*X153700Y373500D01*
X151200Y371000D02*X153700D01*
X155400D02*X156400D01*
X155900Y375000D02*Y371000D01*
X154900Y374000D02*X155900Y375000D01*
X159100D02*X159600Y374500D01*
X158100Y375000D02*X159100D01*
X157600Y374500D02*X158100Y375000D01*
X157600Y374500D02*Y371500D01*
X158100Y371000D01*
X159100Y373000D02*X159600Y372500D01*
X157600Y373000D02*X159100D01*
X158100Y371000D02*X159100D01*
X159600Y371500D01*
Y372500D02*Y371500D01*
X25000Y383500D02*X26500D01*
Y380000D01*
X26000Y379500D02*X26500Y380000D01*
X25500Y379500D02*X26000D01*
X25000Y380000D02*X25500Y379500D01*
X27700Y383000D02*X28200Y383500D01*
X29700D01*
X30200Y383000D01*
Y382000D01*
X27700Y379500D02*X30200Y382000D01*
X27700Y379500D02*X30200D01*
X31400Y380000D02*X31900Y379500D01*
X31400Y383000D02*Y380000D01*
Y383000D02*X31900Y383500D01*
X32900D01*
X33400Y383000D01*
Y380000D01*
X32900Y379500D02*X33400Y380000D01*
X31900Y379500D02*X32900D01*
X31400Y380500D02*X33400Y382500D01*
X35100Y379500D02*X36100D01*
X35600Y383500D02*Y379500D01*
X34600Y382500D02*X35600Y383500D01*
X39500Y250000D02*X40000Y249500D01*
X38000Y250000D02*X39500D01*
X37500Y249500D02*X38000Y250000D01*
X37500Y249500D02*Y248500D01*
X38000Y248000D01*
X39500D01*
X40000Y247500D01*
Y246500D01*
X39500Y246000D02*X40000Y246500D01*
X38000Y246000D02*X39500D01*
X37500Y246500D02*X38000Y246000D01*
X41200Y249500D02*X41700Y250000D01*
X43200D01*
X43700Y249500D01*
Y248500D01*
X41200Y246000D02*X43700Y248500D01*
X41200Y246000D02*X43700D01*
X44900Y246500D02*X45400Y246000D01*
X44900Y249500D02*Y246500D01*
Y249500D02*X45400Y250000D01*
X46400D01*
X46900Y249500D01*
Y246500D01*
X46400Y246000D02*X46900Y246500D01*
X45400Y246000D02*X46400D01*
X44900Y247000D02*X46900Y249000D01*
X48100Y249500D02*X48600Y250000D01*
X50100D01*
X50600Y249500D01*
Y248500D01*
X48100Y246000D02*X50600Y248500D01*
X48100Y246000D02*X50600D01*
X39500Y365000D02*X40000Y364500D01*
X38000Y365000D02*X39500D01*
X37500Y364500D02*X38000Y365000D01*
X37500Y364500D02*Y363500D01*
X38000Y363000D01*
X39500D01*
X40000Y362500D01*
Y361500D01*
X39500Y361000D02*X40000Y361500D01*
X38000Y361000D02*X39500D01*
X37500Y361500D02*X38000Y361000D01*
X41200Y364500D02*X41700Y365000D01*
X43200D01*
X43700Y364500D01*
Y363500D01*
X41200Y361000D02*X43700Y363500D01*
X41200Y361000D02*X43700D01*
X44900Y361500D02*X45400Y361000D01*
X44900Y364500D02*Y361500D01*
Y364500D02*X45400Y365000D01*
X46400D01*
X46900Y364500D01*
Y361500D01*
X46400Y361000D02*X46900Y361500D01*
X45400Y361000D02*X46400D01*
X44900Y362000D02*X46900Y364000D01*
X48600Y361000D02*X49600D01*
X49100Y365000D02*Y361000D01*
X48100Y364000D02*X49100Y365000D01*
X56500Y395000D02*Y392000D01*
X56000Y395500D02*X56500Y395000D01*
X57000Y395500D01*
X58000D01*
X58500Y395000D01*
Y394000D01*
X58000Y393500D02*X58500Y394000D01*
X57000Y393500D02*X58000D01*
X56500Y394000D02*X57000Y393500D01*
X60200D02*X61200D01*
X60700Y397500D02*Y393500D01*
X59700Y396500D02*X60700Y397500D01*
X148000Y355000D02*Y351000D01*
X149500Y355000D02*X150000Y354500D01*
Y351500D01*
X149500Y351000D02*X150000Y351500D01*
X147500Y351000D02*X149500D01*
X147500Y355000D02*X149500D01*
X151200Y354500D02*X151700Y355000D01*
X153200D01*
X153700Y354500D01*
Y353500D01*
X151200Y351000D02*X153700Y353500D01*
X151200Y351000D02*X153700D01*
X155400D02*X156400D01*
X155900Y355000D02*Y351000D01*
X154900Y354000D02*X155900Y355000D01*
X157600D02*X159600D01*
X157600D02*Y353000D01*
X158100Y353500D01*
X159100D01*
X159600Y353000D01*
Y351500D01*
X159100Y351000D02*X159600Y351500D01*
X158100Y351000D02*X159100D01*
X157600Y351500D02*X158100Y351000D01*
X148000Y335000D02*Y331000D01*
X149500Y335000D02*X150000Y334500D01*
Y331500D01*
X149500Y331000D02*X150000Y331500D01*
X147500Y331000D02*X149500D01*
X147500Y335000D02*X149500D01*
X151200Y334500D02*X151700Y335000D01*
X153200D01*
X153700Y334500D01*
Y333500D01*
X151200Y331000D02*X153700Y333500D01*
X151200Y331000D02*X153700D01*
X155400D02*X156400D01*
X155900Y335000D02*Y331000D01*
X154900Y334000D02*X155900Y335000D01*
X157600Y333000D02*X159600Y335000D01*
X157600Y333000D02*X160100D01*
X159600Y335000D02*Y331000D01*
X148000Y315000D02*Y311000D01*
X149500Y315000D02*X150000Y314500D01*
Y311500D01*
X149500Y311000D02*X150000Y311500D01*
X147500Y311000D02*X149500D01*
X147500Y315000D02*X149500D01*
X151200Y314500D02*X151700Y315000D01*
X153200D01*
X153700Y314500D01*
Y313500D01*
X151200Y311000D02*X153700Y313500D01*
X151200Y311000D02*X153700D01*
X155400D02*X156400D01*
X155900Y315000D02*Y311000D01*
X154900Y314000D02*X155900Y315000D01*
X157600Y314500D02*X158100Y315000D01*
X159100D01*
X159600Y314500D01*
Y311500D01*
X159100Y311000D02*X159600Y311500D01*
X158100Y311000D02*X159100D01*
X157600Y311500D02*X158100Y311000D01*
Y313000D02*X159600D01*
X148000Y295000D02*Y291000D01*
X149500Y295000D02*X150000Y294500D01*
Y291500D01*
X149500Y291000D02*X150000Y291500D01*
X147500Y291000D02*X149500D01*
X147500Y295000D02*X149500D01*
X151200Y294500D02*X151700Y295000D01*
X153200D01*
X153700Y294500D01*
Y293500D01*
X151200Y291000D02*X153700Y293500D01*
X151200Y291000D02*X153700D01*
X155400D02*X156400D01*
X155900Y295000D02*Y291000D01*
X154900Y294000D02*X155900Y295000D01*
X157600Y294500D02*X158100Y295000D01*
X159600D01*
X160100Y294500D01*
Y293500D01*
X157600Y291000D02*X160100Y293500D01*
X157600Y291000D02*X160100D01*
X148000Y275000D02*Y271000D01*
X149500Y275000D02*X150000Y274500D01*
Y271500D01*
X149500Y271000D02*X150000Y271500D01*
X147500Y271000D02*X149500D01*
X147500Y275000D02*X149500D01*
X151200Y274500D02*X151700Y275000D01*
X153200D01*
X153700Y274500D01*
Y273500D01*
X151200Y271000D02*X153700Y273500D01*
X151200Y271000D02*X153700D01*
X155400D02*X156400D01*
X155900Y275000D02*Y271000D01*
X154900Y274000D02*X155900Y275000D01*
X158100Y271000D02*X159100D01*
X158600Y275000D02*Y271000D01*
X157600Y274000D02*X158600Y275000D01*
X148000Y255000D02*Y251000D01*
X149500Y255000D02*X150000Y254500D01*
Y251500D01*
X149500Y251000D02*X150000Y251500D01*
X147500Y251000D02*X149500D01*
X147500Y255000D02*X149500D01*
X151200Y254500D02*X151700Y255000D01*
X153200D01*
X153700Y254500D01*
Y253500D01*
X151200Y251000D02*X153700Y253500D01*
X151200Y251000D02*X153700D01*
X155400D02*X156400D01*
X155900Y255000D02*Y251000D01*
X154900Y254000D02*X155900Y255000D01*
X157600Y251500D02*X158100Y251000D01*
X157600Y254500D02*Y251500D01*
Y254500D02*X158100Y255000D01*
X159100D01*
X159600Y254500D01*
Y251500D01*
X159100Y251000D02*X159600Y251500D01*
X158100Y251000D02*X159100D01*
X157600Y252000D02*X159600Y254000D01*
X148000Y235000D02*Y231000D01*
X149500Y235000D02*X150000Y234500D01*
Y231500D01*
X149500Y231000D02*X150000Y231500D01*
X147500Y231000D02*X149500D01*
X147500Y235000D02*X149500D01*
X151200Y234500D02*X151700Y235000D01*
X153200D01*
X153700Y234500D01*
Y233500D01*
X151200Y231000D02*X153700Y233500D01*
X151200Y231000D02*X153700D01*
X154900Y231500D02*X155400Y231000D01*
X154900Y234500D02*Y231500D01*
Y234500D02*X155400Y235000D01*
X156400D01*
X156900Y234500D01*
Y231500D01*
X156400Y231000D02*X156900Y231500D01*
X155400Y231000D02*X156400D01*
X154900Y232000D02*X156900Y234000D01*
X158100Y231000D02*X160100Y233000D01*
Y234500D02*Y233000D01*
X159600Y235000D02*X160100Y234500D01*
X158600Y235000D02*X159600D01*
X158100Y234500D02*X158600Y235000D01*
X158100Y234500D02*Y233500D01*
X158600Y233000D01*
X160100D01*
X148000Y215000D02*Y211000D01*
X149500Y215000D02*X150000Y214500D01*
Y211500D01*
X149500Y211000D02*X150000Y211500D01*
X147500Y211000D02*X149500D01*
X147500Y215000D02*X149500D01*
X151200Y214500D02*X151700Y215000D01*
X153200D01*
X153700Y214500D01*
Y213500D01*
X151200Y211000D02*X153700Y213500D01*
X151200Y211000D02*X153700D01*
X154900Y211500D02*X155400Y211000D01*
X154900Y214500D02*Y211500D01*
Y214500D02*X155400Y215000D01*
X156400D01*
X156900Y214500D01*
Y211500D01*
X156400Y211000D02*X156900Y211500D01*
X155400Y211000D02*X156400D01*
X154900Y212000D02*X156900Y214000D01*
X158100Y211500D02*X158600Y211000D01*
X158100Y212500D02*Y211500D01*
Y212500D02*X158600Y213000D01*
X159600D01*
X160100Y212500D01*
Y211500D01*
X159600Y211000D02*X160100Y211500D01*
X158600Y211000D02*X159600D01*
X158100Y213500D02*X158600Y213000D01*
X158100Y214500D02*Y213500D01*
Y214500D02*X158600Y215000D01*
X159600D01*
X160100Y214500D01*
Y213500D01*
X159600Y213000D02*X160100Y213500D01*
X148000Y195000D02*Y191000D01*
X149500Y195000D02*X150000Y194500D01*
Y191500D01*
X149500Y191000D02*X150000Y191500D01*
X147500Y191000D02*X149500D01*
X147500Y195000D02*X149500D01*
X151200Y194500D02*X151700Y195000D01*
X153200D01*
X153700Y194500D01*
Y193500D01*
X151200Y191000D02*X153700Y193500D01*
X151200Y191000D02*X153700D01*
X154900Y191500D02*X155400Y191000D01*
X154900Y194500D02*Y191500D01*
Y194500D02*X155400Y195000D01*
X156400D01*
X156900Y194500D01*
Y191500D01*
X156400Y191000D02*X156900Y191500D01*
X155400Y191000D02*X156400D01*
X154900Y192000D02*X156900Y194000D01*
X158100Y191000D02*X160600Y193500D01*
Y195000D02*Y193500D01*
X158100Y195000D02*X160600D01*
X148000Y175000D02*Y171000D01*
X149500Y175000D02*X150000Y174500D01*
Y171500D01*
X149500Y171000D02*X150000Y171500D01*
X147500Y171000D02*X149500D01*
X147500Y175000D02*X149500D01*
X151200Y174500D02*X151700Y175000D01*
X153200D01*
X153700Y174500D01*
Y173500D01*
X151200Y171000D02*X153700Y173500D01*
X151200Y171000D02*X153700D01*
X154900Y171500D02*X155400Y171000D01*
X154900Y174500D02*Y171500D01*
Y174500D02*X155400Y175000D01*
X156400D01*
X156900Y174500D01*
Y171500D01*
X156400Y171000D02*X156900Y171500D01*
X155400Y171000D02*X156400D01*
X154900Y172000D02*X156900Y174000D01*
X159600Y175000D02*X160100Y174500D01*
X158600Y175000D02*X159600D01*
X158100Y174500D02*X158600Y175000D01*
X158100Y174500D02*Y171500D01*
X158600Y171000D01*
X159600Y173000D02*X160100Y172500D01*
X158100Y173000D02*X159600D01*
X158600Y171000D02*X159600D01*
X160100Y171500D01*
Y172500D02*Y171500D01*
M02*
