G04 start of page 9 for group -4079 idx -4079 *
G04 Title: 31.003.00.01.01.pcb, topsilk *
G04 Creator: pcb 4.2.2 *
G04 CreationDate: Sun Jan  3 11:16:11 2021 UTC *
G04 For: bert *
G04 Format: Gerber/RS-274X *
G04 PCB-Dimensions (mil): 7874.02 5511.81 *
G04 PCB-Coordinate-Origin: lower left *
%MOIN*%
%FSLAX25Y25*%
%LNGTO*%
%ADD89C,0.0080*%
%ADD88C,0.0520*%
%ADD87C,0.0100*%
G54D87*X0Y551181D02*X10000D01*
X51181Y541338D02*X222441D01*
X57480Y535039D02*X222441D01*
Y541338D02*Y535039D01*
X0Y551181D02*Y541181D01*
X222441Y167323D02*Y173622D01*
X51181Y167323D02*X222441D01*
X630000Y158681D02*Y168681D01*
Y158681D02*X620000D01*
X57480Y541338D02*Y167323D01*
Y173622D02*X222441D01*
X51181Y541338D02*Y167323D01*
X410500Y193185D02*X414500D01*
X412500Y195185D02*Y191185D01*
Y197186D02*G75*G03X412500Y197186I0J31495D01*G01*
X485500Y193185D02*X489500D01*
X487500Y195185D02*Y191185D01*
Y197186D02*G75*G03X487500Y197186I0J31495D01*G01*
X551700Y206181D02*X560000D01*
X530000D02*X538300D01*
X551700D02*X538300Y199581D01*
Y212781D02*Y199581D01*
Y212781D02*X551700Y206181D01*
Y212781D02*Y199581D01*
X448000Y200023D02*X452000D01*
X450000Y202023D02*Y198023D01*
Y196023D02*G75*G03X450000Y196023I0J-9842D01*G01*
X551700Y186181D02*X560000D01*
X530000D02*X538300D01*
X551700D02*X538300Y179581D01*
Y192781D02*Y179581D01*
Y192781D02*X551700Y186181D01*
Y192781D02*Y179581D01*
X269500Y235581D02*Y211781D01*
X260500Y235581D02*Y211781D01*
Y235581D02*X269500D01*
X260500Y211781D02*X269500D01*
X265000Y238981D02*Y235581D01*
Y211781D02*Y208381D01*
X274504Y238181D02*Y234181D01*
X272504Y236181D02*X276504D01*
X278505D02*G75*G03X278505Y236181I31495J0D01*G01*
X345496Y305681D02*Y301681D01*
X343496Y303681D02*X347496D01*
X341495D02*G75*G03X341495Y303681I-31495J0D01*G01*
X134941Y342579D02*Y196910D01*
Y342579D02*X241240D01*
X134941Y196910D02*X241240D01*
Y342579D02*Y196910D01*
X247400Y294431D02*Y252931D01*
G54D88*X245000Y292431D02*Y254931D01*
G54D87*X242400Y294431D02*Y252931D01*
Y294431D02*X260900D01*
Y252931D01*
X242400D02*X260900D01*
X247400Y456931D02*Y415431D01*
G54D88*X245000Y454931D02*Y417431D01*
G54D87*X242400Y456931D02*Y415431D01*
Y456931D02*X260900D01*
Y415431D01*
X242400D02*X260900D01*
X260500Y307496D02*X264500D01*
X262500Y309496D02*Y305496D01*
Y311496D02*G75*G03X262500Y311496I0J19685D01*G01*
X260500Y354996D02*X264500D01*
X262500Y356996D02*Y352996D01*
Y358996D02*G75*G03X262500Y358996I0J19685D01*G01*
X134941Y505079D02*Y359410D01*
Y505079D02*X241240D01*
X134941Y359410D02*X241240D01*
Y505079D02*Y359410D01*
X630000Y551181D02*Y541181D01*
Y551181D02*X620000D01*
X347500Y263181D02*Y531181D01*
X571500Y263181D02*X347500D01*
X571500Y531181D02*Y263181D01*
X347500Y531181D02*X571500D01*
X530000Y226181D02*X538300D01*
X551700D02*X560000D01*
X538300D02*X551700Y232781D01*
Y219581D01*
X538300Y226181D01*
Y232781D02*Y219581D01*
X530000Y246181D02*X538300D01*
X551700D02*X560000D01*
X538300D02*X551700Y252781D01*
Y239581D01*
X538300Y246181D01*
Y252781D02*Y239581D01*
X345496Y408181D02*Y404181D01*
X343496Y406181D02*X347496D01*
X341495D02*G75*G03X341495Y406181I-31495J0D01*G01*
X345496Y475681D02*Y471681D01*
X343496Y473681D02*X347496D01*
X341495D02*G75*G03X341495Y473681I-31495J0D01*G01*
X274500Y480581D02*Y456781D01*
X265500Y480581D02*Y456781D01*
Y480581D02*X274500D01*
X265500Y456781D02*X274500D01*
X270000Y483981D02*Y480581D01*
Y456781D02*Y453381D01*
X598227Y198032D02*X630117D01*
X598227D02*Y175985D01*
X630117D01*
X598227Y510631D02*X630117D01*
X598227Y532678D02*Y510631D01*
Y532678D02*X630117D01*
X603345Y206694D02*X617125D01*
X593503Y216536D02*X617125D01*
X616731Y246064D02*X617125Y245670D01*
X603345Y246064D02*X616731D01*
X593503Y452756D02*X617124D01*
X603345Y462599D02*X617125D01*
X603345Y482284D02*X617125D01*
X593503Y492127D02*X617125D01*
X593503Y236221D02*X617125D01*
X603345Y226379D02*X617125D01*
X593503Y275591D02*X617125D01*
X603345Y265749D02*X617125D01*
X593503Y255906D02*X617125D01*
X603345Y305119D02*X617125D01*
X593503Y295276D02*X617125D01*
X603345Y285434D02*X617125D01*
X593503Y334647D02*X617125D01*
X603345Y324804D02*X617125D01*
X593503Y314962D02*X617125D01*
X603345Y364174D02*X617125D01*
X593503Y354332D02*X617125D01*
X603345Y344489D02*X617125D01*
X603345Y383859D02*X617125D01*
X593503Y433071D02*X617124D01*
X617125Y433072D01*
X603345Y442914D02*X617125D01*
X617124Y452756D02*X617125Y452757D01*
X593503Y393701D02*X617124D01*
X617125Y393702D01*
X603345Y403544D02*X617125D01*
X617124Y413386D02*X617125Y413387D01*
X617124Y374016D02*X617125Y374017D01*
X593503Y413386D02*X617124D01*
X603345Y423229D02*X617125D01*
X593503Y374016D02*X617124D01*
X603345Y501969D02*X617125D01*
X593503Y472442D02*X617125D01*
Y510631D02*Y198032D01*
X630117Y532678D02*Y175985D01*
X363000Y172339D02*X367000D01*
X365000Y174339D02*Y170339D01*
Y176339D02*G75*G03X365000Y176339I0J9842D01*G01*
X84500Y398081D02*Y374281D01*
X75500Y398081D02*Y374281D01*
Y398081D02*X84500D01*
X75500Y374281D02*X84500D01*
X80000Y401481D02*Y398081D01*
Y374281D02*Y370881D01*
X129500Y323081D02*Y299281D01*
X120500Y323081D02*Y299281D01*
Y323081D02*X129500D01*
X120500Y299281D02*X129500D01*
X125000Y326481D02*Y323081D01*
Y299281D02*Y295881D01*
X93100Y416681D02*X116900D01*
X93100Y425681D02*X116900D01*
Y416681D01*
X93100Y425681D02*Y416681D01*
X116900Y421181D02*X120300D01*
X93100D02*X89700D01*
X89500Y330581D02*Y306781D01*
X80500Y330581D02*Y306781D01*
Y330581D02*X89500D01*
X80500Y306781D02*X89500D01*
X85000Y333981D02*Y330581D01*
Y306781D02*Y303381D01*
X115000Y376181D02*X130000D01*
X90000D02*X105000D01*
X130000Y336181D02*Y376181D01*
X90000Y336181D02*X130000D01*
X90000Y376181D02*Y336181D01*
X105000Y376181D02*G75*G03X115000Y376181I5000J0D01*G01*
Y268681D02*X130000D01*
X90000D02*X105000D01*
X130000Y228681D02*Y268681D01*
X90000Y228681D02*X130000D01*
X90000Y268681D02*Y228681D01*
X105000Y268681D02*G75*G03X115000Y268681I5000J0D01*G01*
X99500Y305581D02*Y281781D01*
X90500Y305581D02*Y281781D01*
Y305581D02*X99500D01*
X90500Y281781D02*X99500D01*
X95000Y308981D02*Y305581D01*
Y281781D02*Y278381D01*
X74500Y265581D02*Y241781D01*
X65500Y265581D02*Y241781D01*
Y265581D02*X74500D01*
X65500Y241781D02*X74500D01*
X70000Y268981D02*Y265581D01*
Y241781D02*Y238381D01*
X74500Y340581D02*Y316781D01*
X65500Y340581D02*Y316781D01*
Y340581D02*X74500D01*
X65500Y316781D02*X74500D01*
X70000Y343981D02*Y340581D01*
Y316781D02*Y313381D01*
X32500Y198681D02*X42500D01*
Y508681D02*Y198681D01*
X32500Y508681D02*Y198681D01*
Y498681D02*X42500D01*
X32500Y508681D02*X42500D01*
X75846Y210118D02*Y202244D01*
Y225866D02*Y221929D01*
Y225866D02*X101437D01*
X75846Y186496D02*X101437D01*
X75846Y190433D02*Y186496D01*
X101437D02*G75*G03X120451Y201086I0J19685D01*G01*
X120451Y211276D02*G75*G03X101437Y225866I-19014J-5095D01*G01*
X0Y158681D02*Y168681D01*
Y158681D02*X10000D01*
G54D89*X115000Y305681D02*Y303681D01*
Y305681D02*X115500Y306181D01*
X116500D01*
X117000Y305681D02*X116500Y306181D01*
X117000Y305681D02*Y304181D01*
X115000D02*X119000D01*
X117000D02*X119000Y306181D01*
X115500Y307381D02*X115000Y307881D01*
Y308881D02*Y307881D01*
Y308881D02*X115500Y309381D01*
X118500D01*
X119000Y308881D02*X118500Y309381D01*
X119000Y308881D02*Y307881D01*
X118500Y307381D02*X119000Y307881D01*
X117000Y309381D02*Y307881D01*
X118500Y310581D02*X119000Y311081D01*
X115500Y310581D02*X118500D01*
X115500D02*X115000Y311081D01*
Y312081D02*Y311081D01*
Y312081D02*X115500Y312581D01*
X118500D01*
X119000Y312081D02*X118500Y312581D01*
X119000Y312081D02*Y311081D01*
X118000Y310581D02*X116000Y312581D01*
X119000Y313781D02*X116500Y316281D01*
X115000D02*X116500D01*
X115000D02*Y313781D01*
X92500Y320681D02*Y318681D01*
Y320681D02*X93000Y321181D01*
X94000D01*
X94500Y320681D02*X94000Y321181D01*
X94500Y320681D02*Y319181D01*
X92500D02*X96500D01*
X94500D02*X96500Y321181D01*
X93000Y322381D02*X92500Y322881D01*
Y323881D02*Y322881D01*
Y323881D02*X93000Y324381D01*
X96000D01*
X96500Y323881D02*X96000Y324381D01*
X96500Y323881D02*Y322881D01*
X96000Y322381D02*X96500Y322881D01*
X94500Y324381D02*Y322881D01*
X96000Y325581D02*X96500Y326081D01*
X93000Y325581D02*X96000D01*
X93000D02*X92500Y326081D01*
Y327081D02*Y326081D01*
Y327081D02*X93000Y327581D01*
X96000D01*
X96500Y327081D02*X96000Y327581D01*
X96500Y327081D02*Y326081D01*
X95500Y325581D02*X93500Y327581D01*
X92500Y330781D02*Y328781D01*
X94500D01*
X94000Y329281D01*
Y330281D02*Y329281D01*
Y330281D02*X94500Y330781D01*
X96000D01*
X96500Y330281D02*X96000Y330781D01*
X96500Y330281D02*Y329281D01*
X96000Y328781D02*X96500Y329281D01*
X85000Y283181D02*Y281181D01*
Y283181D02*X85500Y283681D01*
X86500D01*
X87000Y283181D02*X86500Y283681D01*
X87000Y283181D02*Y281681D01*
X85000D02*X89000D01*
X87000D02*X89000Y283681D01*
X85500Y284881D02*X85000Y285381D01*
Y286381D02*Y285381D01*
Y286381D02*X85500Y286881D01*
X88500D01*
X89000Y286381D02*X88500Y286881D01*
X89000Y286381D02*Y285381D01*
X88500Y284881D02*X89000Y285381D01*
X87000Y286881D02*Y285381D01*
X88500Y288081D02*X89000Y288581D01*
X85500Y288081D02*X88500D01*
X85500D02*X85000Y288581D01*
Y289581D02*Y288581D01*
Y289581D02*X85500Y290081D01*
X88500D01*
X89000Y289581D02*X88500Y290081D01*
X89000Y289581D02*Y288581D01*
X88000Y288081D02*X86000Y290081D01*
X88500Y291281D02*X89000Y291781D01*
X87500Y291281D02*X88500D01*
X87500D02*X87000Y291781D01*
Y292781D02*Y291781D01*
Y292781D02*X87500Y293281D01*
X88500D01*
X89000Y292781D02*X88500Y293281D01*
X89000Y292781D02*Y291781D01*
X86500Y291281D02*X87000Y291781D01*
X85500Y291281D02*X86500D01*
X85500D02*X85000Y291781D01*
Y292781D02*Y291781D01*
Y292781D02*X85500Y293281D01*
X86500D01*
X87000Y292781D02*X86500Y293281D01*
X60000Y323181D02*Y321181D01*
Y323181D02*X60500Y323681D01*
X61500D01*
X62000Y323181D02*X61500Y323681D01*
X62000Y323181D02*Y321681D01*
X60000D02*X64000D01*
X62000D02*X64000Y323681D01*
X60500Y324881D02*X60000Y325381D01*
Y326381D02*Y325381D01*
Y326381D02*X60500Y326881D01*
X63500D01*
X64000Y326381D02*X63500Y326881D01*
X64000Y326381D02*Y325381D01*
X63500Y324881D02*X64000Y325381D01*
X62000Y326881D02*Y325381D01*
X63500Y328081D02*X64000Y328581D01*
X60500Y328081D02*X63500D01*
X60500D02*X60000Y328581D01*
Y329581D02*Y328581D01*
Y329581D02*X60500Y330081D01*
X63500D01*
X64000Y329581D02*X63500Y330081D01*
X64000Y329581D02*Y328581D01*
X63000Y328081D02*X61000Y330081D01*
X62000Y331281D02*X60000Y333281D01*
X62000Y333781D02*Y331281D01*
X60000Y333281D02*X64000D01*
X70000Y380681D02*Y378681D01*
Y380681D02*X70500Y381181D01*
X71500D01*
X72000Y380681D02*X71500Y381181D01*
X72000Y380681D02*Y379181D01*
X70000D02*X74000D01*
X72000D02*X74000Y381181D01*
X70500Y382381D02*X70000Y382881D01*
Y383881D02*Y382881D01*
Y383881D02*X70500Y384381D01*
X73500D01*
X74000Y383881D02*X73500Y384381D01*
X74000Y383881D02*Y382881D01*
X73500Y382381D02*X74000Y382881D01*
X72000Y384381D02*Y382881D01*
X73500Y385581D02*X74000Y386081D01*
X70500Y385581D02*X73500D01*
X70500D02*X70000Y386081D01*
Y387081D02*Y386081D01*
Y387081D02*X70500Y387581D01*
X73500D01*
X74000Y387081D02*X73500Y387581D01*
X74000Y387081D02*Y386081D01*
X73000Y385581D02*X71000Y387581D01*
X70500Y388781D02*X70000Y389281D01*
Y390281D02*Y389281D01*
Y390281D02*X70500Y390781D01*
X73500D01*
X74000Y390281D02*X73500Y390781D01*
X74000Y390281D02*Y389281D01*
X73500Y388781D02*X74000Y389281D01*
X72000Y390781D02*Y389281D01*
X97500Y431181D02*X99500D01*
X100000Y430681D01*
Y429681D01*
X99500Y429181D02*X100000Y429681D01*
X98000Y429181D02*X99500D01*
X98000Y431181D02*Y427181D01*
Y429181D02*X100000Y427181D01*
X101200Y430681D02*X101700Y431181D01*
X102700D01*
X103200Y430681D01*
Y427681D01*
X102700Y427181D02*X103200Y427681D01*
X101700Y427181D02*X102700D01*
X101200Y427681D02*X101700Y427181D01*
Y429181D02*X103200D01*
X104400Y427681D02*X104900Y427181D01*
X104400Y430681D02*Y427681D01*
Y430681D02*X104900Y431181D01*
X105900D01*
X106400Y430681D01*
Y427681D01*
X105900Y427181D02*X106400Y427681D01*
X104900Y427181D02*X105900D01*
X104400Y428181D02*X106400Y430181D01*
X109100Y431181D02*X109600Y430681D01*
X108100Y431181D02*X109100D01*
X107600Y430681D02*X108100Y431181D01*
X107600Y430681D02*Y427681D01*
X108100Y427181D01*
X109100Y429181D02*X109600Y428681D01*
X107600Y429181D02*X109100D01*
X108100Y427181D02*X109100D01*
X109600Y427681D01*
Y428681D02*Y427681D01*
X102500Y383681D02*Y380181D01*
X103000Y379681D01*
X104000D01*
X104500Y380181D01*
Y383681D02*Y380181D01*
X105700Y383181D02*X106200Y383681D01*
X107200D01*
X107700Y383181D01*
Y380181D01*
X107200Y379681D02*X107700Y380181D01*
X106200Y379681D02*X107200D01*
X105700Y380181D02*X106200Y379681D01*
Y381681D02*X107700D01*
X108900Y380181D02*X109400Y379681D01*
X108900Y383181D02*Y380181D01*
Y383181D02*X109400Y383681D01*
X110400D01*
X110900Y383181D01*
Y380181D01*
X110400Y379681D02*X110900Y380181D01*
X109400Y379681D02*X110400D01*
X108900Y380681D02*X110900Y382681D01*
X112100Y383181D02*X112600Y383681D01*
X113600D01*
X114100Y383181D01*
Y380181D01*
X113600Y379681D02*X114100Y380181D01*
X112600Y379681D02*X113600D01*
X112100Y380181D02*X112600Y379681D01*
Y381681D02*X114100D01*
X140500Y428681D02*X144500D01*
X140500Y431181D02*X144500D01*
X142500D02*Y428681D01*
X140500Y434381D02*X141000Y434881D01*
X140500Y434381D02*Y432881D01*
X141000Y432381D02*X140500Y432881D01*
X141000Y432381D02*X142000D01*
X142500Y432881D01*
Y434381D02*Y432881D01*
Y434381D02*X143000Y434881D01*
X144000D01*
X144500Y434381D02*X144000Y434881D01*
X144500Y434381D02*Y432881D01*
X144000Y432381D02*X144500Y432881D01*
X141000Y436081D02*X140500Y436581D01*
Y437581D02*Y436581D01*
Y437581D02*X141000Y438081D01*
X144000D01*
X144500Y437581D02*X144000Y438081D01*
X144500Y437581D02*Y436581D01*
X144000Y436081D02*X144500Y436581D01*
X142500Y438081D02*Y436581D01*
X144000Y439281D02*X144500Y439781D01*
X141000Y439281D02*X144000D01*
X141000D02*X140500Y439781D01*
Y440781D02*Y439781D01*
Y440781D02*X141000Y441281D01*
X144000D01*
X144500Y440781D02*X144000Y441281D01*
X144500Y440781D02*Y439781D01*
X143500Y439281D02*X141500Y441281D01*
X141000Y442481D02*X140500Y442981D01*
Y444481D02*Y442981D01*
Y444481D02*X141000Y444981D01*
X142000D01*
X144500Y442481D02*X142000Y444981D01*
X144500D02*Y442481D01*
X252500Y220681D02*Y218681D01*
Y220681D02*X253000Y221181D01*
X254000D01*
X254500Y220681D02*X254000Y221181D01*
X254500Y220681D02*Y219181D01*
X252500D02*X256500D01*
X254500D02*X256500Y221181D01*
X253000Y222381D02*X252500Y222881D01*
Y223881D02*Y222881D01*
Y223881D02*X253000Y224381D01*
X256000D01*
X256500Y223881D02*X256000Y224381D01*
X256500Y223881D02*Y222881D01*
X256000Y222381D02*X256500Y222881D01*
X254500Y224381D02*Y222881D01*
X256000Y225581D02*X256500Y226081D01*
X253000Y225581D02*X256000D01*
X253000D02*X252500Y226081D01*
Y227081D02*Y226081D01*
Y227081D02*X253000Y227581D01*
X256000D01*
X256500Y227081D02*X256000Y227581D01*
X256500Y227081D02*Y226081D01*
X255500Y225581D02*X253500Y227581D01*
X256500Y230281D02*Y229281D01*
X252500Y229781D02*X256500D01*
X253500Y228781D02*X252500Y229781D01*
X328000Y204681D02*X329500D01*
X327500Y205181D02*X328000Y204681D01*
X327500Y208181D02*Y205181D01*
Y208181D02*X328000Y208681D01*
X329500D01*
X330700Y208181D02*X331200Y208681D01*
X332200D01*
X332700Y208181D01*
Y205181D01*
X332200Y204681D02*X332700Y205181D01*
X331200Y204681D02*X332200D01*
X330700Y205181D02*X331200Y204681D01*
Y206681D02*X332700D01*
X333900Y205181D02*X334400Y204681D01*
X333900Y208181D02*Y205181D01*
Y208181D02*X334400Y208681D01*
X335400D01*
X335900Y208181D01*
Y205181D01*
X335400Y204681D02*X335900Y205181D01*
X334400Y204681D02*X335400D01*
X333900Y205681D02*X335900Y207681D01*
X337100Y208181D02*X337600Y208681D01*
X338600D01*
X339100Y208181D01*
Y205181D01*
X338600Y204681D02*X339100Y205181D01*
X337600Y204681D02*X338600D01*
X337100Y205181D02*X337600Y204681D01*
Y206681D02*X339100D01*
X328000Y272181D02*X329500D01*
X327500Y272681D02*X328000Y272181D01*
X327500Y275681D02*Y272681D01*
Y275681D02*X328000Y276181D01*
X329500D01*
X330700Y275681D02*X331200Y276181D01*
X332200D01*
X332700Y275681D01*
Y272681D01*
X332200Y272181D02*X332700Y272681D01*
X331200Y272181D02*X332200D01*
X330700Y272681D02*X331200Y272181D01*
Y274181D02*X332700D01*
X333900Y272681D02*X334400Y272181D01*
X333900Y275681D02*Y272681D01*
Y275681D02*X334400Y276181D01*
X335400D01*
X335900Y275681D01*
Y272681D01*
X335400Y272181D02*X335900Y272681D01*
X334400Y272181D02*X335400D01*
X333900Y273181D02*X335900Y275181D01*
X338600Y276181D02*X339100Y275681D01*
X337600Y276181D02*X338600D01*
X337100Y275681D02*X337600Y276181D01*
X337100Y275681D02*Y272681D01*
X337600Y272181D01*
X338600Y274181D02*X339100Y273681D01*
X337100Y274181D02*X338600D01*
X337600Y272181D02*X338600D01*
X339100Y272681D01*
Y273681D02*Y272681D01*
X262500Y253681D02*X266000D01*
X266500Y254181D01*
Y255181D02*Y254181D01*
Y255181D02*X266000Y255681D01*
X262500D02*X266000D01*
X263000Y256881D02*X262500Y257381D01*
Y258381D02*Y257381D01*
Y258381D02*X263000Y258881D01*
X266000D01*
X266500Y258381D02*X266000Y258881D01*
X266500Y258381D02*Y257381D01*
X266000Y256881D02*X266500Y257381D01*
X264500Y258881D02*Y257381D01*
X266000Y260081D02*X266500Y260581D01*
X263000Y260081D02*X266000D01*
X263000D02*X262500Y260581D01*
Y261581D02*Y260581D01*
Y261581D02*X263000Y262081D01*
X266000D01*
X266500Y261581D02*X266000Y262081D01*
X266500Y261581D02*Y260581D01*
X265500Y260081D02*X263500Y262081D01*
X266500Y264781D02*Y263781D01*
X262500Y264281D02*X266500D01*
X263500Y263281D02*X262500Y264281D01*
X433000Y197181D02*X434500D01*
X432500Y197681D02*X433000Y197181D01*
X432500Y200681D02*Y197681D01*
Y200681D02*X433000Y201181D01*
X434500D01*
X435700Y200681D02*X436200Y201181D01*
X437200D01*
X437700Y200681D01*
Y197681D01*
X437200Y197181D02*X437700Y197681D01*
X436200Y197181D02*X437200D01*
X435700Y197681D02*X436200Y197181D01*
Y199181D02*X437700D01*
X438900Y197681D02*X439400Y197181D01*
X438900Y200681D02*Y197681D01*
Y200681D02*X439400Y201181D01*
X440400D01*
X440900Y200681D01*
Y197681D01*
X440400Y197181D02*X440900Y197681D01*
X439400Y197181D02*X440400D01*
X438900Y198181D02*X440900Y200181D01*
X442100Y200681D02*X442600Y201181D01*
X444100D01*
X444600Y200681D01*
Y199681D01*
X442100Y197181D02*X444600Y199681D01*
X442100Y197181D02*X444600D01*
X455500Y172181D02*X457000D01*
X455000Y172681D02*X455500Y172181D01*
X455000Y175681D02*Y172681D01*
Y175681D02*X455500Y176181D01*
X457000D01*
X458200Y175681D02*X458700Y176181D01*
X459700D01*
X460200Y175681D01*
Y172681D01*
X459700Y172181D02*X460200Y172681D01*
X458700Y172181D02*X459700D01*
X458200Y172681D02*X458700Y172181D01*
Y174181D02*X460200D01*
X461900Y172181D02*X462900D01*
X462400Y176181D02*Y172181D01*
X461400Y175181D02*X462400Y176181D01*
X464100Y172681D02*X464600Y172181D01*
X464100Y175681D02*Y172681D01*
Y175681D02*X464600Y176181D01*
X465600D01*
X466100Y175681D01*
Y172681D01*
X465600Y172181D02*X466100Y172681D01*
X464600Y172181D02*X465600D01*
X464100Y173181D02*X466100Y175181D01*
X508000Y197181D02*X509500D01*
X507500Y197681D02*X508000Y197181D01*
X507500Y200681D02*Y197681D01*
Y200681D02*X508000Y201181D01*
X509500D01*
X510700Y200681D02*X511200Y201181D01*
X512200D01*
X512700Y200681D01*
Y197681D01*
X512200Y197181D02*X512700Y197681D01*
X511200Y197181D02*X512200D01*
X510700Y197681D02*X511200Y197181D01*
Y199181D02*X512700D01*
X513900Y197681D02*X514400Y197181D01*
X513900Y200681D02*Y197681D01*
Y200681D02*X514400Y201181D01*
X515400D01*
X515900Y200681D01*
Y197681D01*
X515400Y197181D02*X515900Y197681D01*
X514400Y197181D02*X515400D01*
X513900Y198181D02*X515900Y200181D01*
X517600Y197181D02*X518600D01*
X518100Y201181D02*Y197181D01*
X517100Y200181D02*X518100Y201181D01*
X555500Y236181D02*Y232181D01*
X557000Y236181D02*X557500Y235681D01*
Y232681D01*
X557000Y232181D02*X557500Y232681D01*
X555000Y232181D02*X557000D01*
X555000Y236181D02*X557000D01*
X558700Y235681D02*X559200Y236181D01*
X560200D01*
X560700Y235681D01*
Y232681D01*
X560200Y232181D02*X560700Y232681D01*
X559200Y232181D02*X560200D01*
X558700Y232681D02*X559200Y232181D01*
Y234181D02*X560700D01*
X561900Y232681D02*X562400Y232181D01*
X561900Y235681D02*Y232681D01*
Y235681D02*X562400Y236181D01*
X563400D01*
X563900Y235681D01*
Y232681D01*
X563400Y232181D02*X563900Y232681D01*
X562400Y232181D02*X563400D01*
X561900Y233181D02*X563900Y235181D01*
X565100Y235681D02*X565600Y236181D01*
X566600D01*
X567100Y235681D01*
Y232681D01*
X566600Y232181D02*X567100Y232681D01*
X565600Y232181D02*X566600D01*
X565100Y232681D02*X565600Y232181D01*
Y234181D02*X567100D01*
X555500Y216181D02*Y212181D01*
X557000Y216181D02*X557500Y215681D01*
Y212681D01*
X557000Y212181D02*X557500Y212681D01*
X555000Y212181D02*X557000D01*
X555000Y216181D02*X557000D01*
X558700Y215681D02*X559200Y216181D01*
X560200D01*
X560700Y215681D01*
Y212681D01*
X560200Y212181D02*X560700Y212681D01*
X559200Y212181D02*X560200D01*
X558700Y212681D02*X559200Y212181D01*
Y214181D02*X560700D01*
X561900Y212681D02*X562400Y212181D01*
X561900Y215681D02*Y212681D01*
Y215681D02*X562400Y216181D01*
X563400D01*
X563900Y215681D01*
Y212681D01*
X563400Y212181D02*X563900Y212681D01*
X562400Y212181D02*X563400D01*
X561900Y213181D02*X563900Y215181D01*
X565100Y214181D02*X567100Y216181D01*
X565100Y214181D02*X567600D01*
X567100Y216181D02*Y212181D01*
X555500Y256181D02*Y252181D01*
X557000Y256181D02*X557500Y255681D01*
Y252681D01*
X557000Y252181D02*X557500Y252681D01*
X555000Y252181D02*X557000D01*
X555000Y256181D02*X557000D01*
X558700Y255681D02*X559200Y256181D01*
X560200D01*
X560700Y255681D01*
Y252681D01*
X560200Y252181D02*X560700Y252681D01*
X559200Y252181D02*X560200D01*
X558700Y252681D02*X559200Y252181D01*
Y254181D02*X560700D01*
X561900Y252681D02*X562400Y252181D01*
X561900Y255681D02*Y252681D01*
Y255681D02*X562400Y256181D01*
X563400D01*
X563900Y255681D01*
Y252681D01*
X563400Y252181D02*X563900Y252681D01*
X562400Y252181D02*X563400D01*
X561900Y253181D02*X563900Y255181D01*
X565600Y252181D02*X566600D01*
X566100Y256181D02*Y252181D01*
X565100Y255181D02*X566100Y256181D01*
X555500Y196181D02*Y192181D01*
X557000Y196181D02*X557500Y195681D01*
Y192681D01*
X557000Y192181D02*X557500Y192681D01*
X555000Y192181D02*X557000D01*
X555000Y196181D02*X557000D01*
X558700Y195681D02*X559200Y196181D01*
X560200D01*
X560700Y195681D01*
Y192681D01*
X560200Y192181D02*X560700Y192681D01*
X559200Y192181D02*X560200D01*
X558700Y192681D02*X559200Y192181D01*
Y194181D02*X560700D01*
X561900Y192681D02*X562400Y192181D01*
X561900Y195681D02*Y192681D01*
Y195681D02*X562400Y196181D01*
X563400D01*
X563900Y195681D01*
Y192681D01*
X563400Y192181D02*X563900Y192681D01*
X562400Y192181D02*X563400D01*
X561900Y193181D02*X563900Y195181D01*
X565100Y195681D02*X565600Y196181D01*
X567100D01*
X567600Y195681D01*
Y194681D01*
X565100Y192181D02*X567600Y194681D01*
X565100Y192181D02*X567600D01*
X15500Y162181D02*X17000D01*
X15000Y162681D02*X15500Y162181D01*
X15000Y165681D02*Y162681D01*
Y165681D02*X15500Y166181D01*
X17000D01*
X312000Y168681D02*X312500Y168181D01*
X310500Y168681D02*X312000D01*
X310000Y168181D02*X310500Y168681D01*
X310000Y168181D02*Y165181D01*
X310500Y164681D01*
X312000D01*
X312500Y165181D01*
Y166181D02*Y165181D01*
X312000Y166681D02*X312500Y166181D01*
X311000Y166681D02*X312000D01*
X313700Y168681D02*Y164681D01*
Y168681D02*Y168181D01*
X316200Y165681D01*
Y168681D02*Y164681D01*
X317900Y168681D02*Y164681D01*
X319400Y168681D02*X319900Y168181D01*
Y165181D01*
X319400Y164681D02*X319900Y165181D01*
X317400Y164681D02*X319400D01*
X317400Y168681D02*X319400D01*
X370500Y172181D02*X372000D01*
X370000Y172681D02*X370500Y172181D01*
X370000Y175681D02*Y172681D01*
Y175681D02*X370500Y176181D01*
X372000D01*
X373200Y175681D02*X373700Y176181D01*
X374700D01*
X375200Y175681D01*
Y172681D01*
X374700Y172181D02*X375200Y172681D01*
X373700Y172181D02*X374700D01*
X373200Y172681D02*X373700Y172181D01*
Y174181D02*X375200D01*
X376400Y172681D02*X376900Y172181D01*
X376400Y175681D02*Y172681D01*
Y175681D02*X376900Y176181D01*
X377900D01*
X378400Y175681D01*
Y172681D01*
X377900Y172181D02*X378400Y172681D01*
X376900Y172181D02*X377900D01*
X376400Y173181D02*X378400Y175181D01*
X379600Y176181D02*X381600D01*
X379600D02*Y174181D01*
X380100Y174681D01*
X381100D01*
X381600Y174181D01*
Y172681D01*
X381100Y172181D02*X381600Y172681D01*
X380100Y172181D02*X381100D01*
X379600Y172681D02*X380100Y172181D01*
X77500Y248181D02*Y246181D01*
Y248181D02*X78000Y248681D01*
X79000D01*
X79500Y248181D02*X79000Y248681D01*
X79500Y248181D02*Y246681D01*
X77500D02*X81500D01*
X79500D02*X81500Y248681D01*
X78000Y249881D02*X77500Y250381D01*
Y251381D02*Y250381D01*
Y251381D02*X78000Y251881D01*
X81000D01*
X81500Y251381D02*X81000Y251881D01*
X81500Y251381D02*Y250381D01*
X81000Y249881D02*X81500Y250381D01*
X79500Y251881D02*Y250381D01*
X81000Y253081D02*X81500Y253581D01*
X78000Y253081D02*X81000D01*
X78000D02*X77500Y253581D01*
Y254581D02*Y253581D01*
Y254581D02*X78000Y255081D01*
X81000D01*
X81500Y254581D02*X81000Y255081D01*
X81500Y254581D02*Y253581D01*
X80500Y253081D02*X78500Y255081D01*
X81500Y256281D02*X79500Y258281D01*
X78000D02*X79500D01*
X77500Y257781D02*X78000Y258281D01*
X77500Y257781D02*Y256781D01*
X78000Y256281D02*X77500Y256781D01*
X78000Y256281D02*X79000D01*
X79500Y256781D01*
Y258281D02*Y256781D01*
X105000Y276181D02*Y272681D01*
X105500Y272181D01*
X106500D01*
X107000Y272681D01*
Y276181D02*Y272681D01*
X108200Y275681D02*X108700Y276181D01*
X109700D01*
X110200Y275681D01*
Y272681D01*
X109700Y272181D02*X110200Y272681D01*
X108700Y272181D02*X109700D01*
X108200Y272681D02*X108700Y272181D01*
Y274181D02*X110200D01*
X111400Y272681D02*X111900Y272181D01*
X111400Y275681D02*Y272681D01*
Y275681D02*X111900Y276181D01*
X112900D01*
X113400Y275681D01*
Y272681D01*
X112900Y272181D02*X113400Y272681D01*
X111900Y272181D02*X112900D01*
X111400Y273181D02*X113400Y275181D01*
X114600Y274181D02*X116600Y276181D01*
X114600Y274181D02*X117100D01*
X116600Y276181D02*Y272181D01*
X142500Y266181D02*X146500D01*
X142500Y268681D02*X146500D01*
X144500D02*Y266181D01*
X142500Y271881D02*X143000Y272381D01*
X142500Y271881D02*Y270381D01*
X143000Y269881D02*X142500Y270381D01*
X143000Y269881D02*X144000D01*
X144500Y270381D01*
Y271881D02*Y270381D01*
Y271881D02*X145000Y272381D01*
X146000D01*
X146500Y271881D02*X146000Y272381D01*
X146500Y271881D02*Y270381D01*
X146000Y269881D02*X146500Y270381D01*
X143000Y273581D02*X142500Y274081D01*
Y275081D02*Y274081D01*
Y275081D02*X143000Y275581D01*
X146000D01*
X146500Y275081D02*X146000Y275581D01*
X146500Y275081D02*Y274081D01*
X146000Y273581D02*X146500Y274081D01*
X144500Y275581D02*Y274081D01*
X146000Y276781D02*X146500Y277281D01*
X143000Y276781D02*X146000D01*
X143000D02*X142500Y277281D01*
Y278281D02*Y277281D01*
Y278281D02*X143000Y278781D01*
X146000D01*
X146500Y278281D02*X146000Y278781D01*
X146500Y278281D02*Y277281D01*
X145500Y276781D02*X143500Y278781D01*
X146500Y281481D02*Y280481D01*
X142500Y280981D02*X146500D01*
X143500Y279981D02*X142500Y280981D01*
X65000Y200681D02*Y198681D01*
Y200681D02*X65500Y201181D01*
X66500D01*
X67000Y200681D02*X66500Y201181D01*
X67000Y200681D02*Y199181D01*
X65000D02*X69000D01*
X67000D02*X69000Y201181D01*
X65500Y202381D02*X65000Y202881D01*
Y203881D02*Y202881D01*
Y203881D02*X65500Y204381D01*
X68500D01*
X69000Y203881D02*X68500Y204381D01*
X69000Y203881D02*Y202881D01*
X68500Y202381D02*X69000Y202881D01*
X67000Y204381D02*Y202881D01*
X69000Y207081D02*Y206081D01*
X65000Y206581D02*X69000D01*
X66000Y205581D02*X65000Y206581D01*
X68500Y208281D02*X69000Y208781D01*
X65500Y208281D02*X68500D01*
X65500D02*X65000Y208781D01*
Y209781D02*Y208781D01*
Y209781D02*X65500Y210281D01*
X68500D01*
X69000Y209781D02*X68500Y210281D01*
X69000Y209781D02*Y208781D01*
X68000Y208281D02*X66000Y210281D01*
X15000Y539681D02*X17000D01*
X17500Y540181D01*
Y541181D02*Y540181D01*
X17000Y541681D02*X17500Y541181D01*
X15500Y541681D02*X17000D01*
X15500Y543681D02*Y539681D01*
X15000Y543681D02*X17000D01*
X17500Y543181D01*
Y542181D01*
X17000Y541681D02*X17500Y542181D01*
X181500Y528681D02*Y525681D01*
X181000Y529181D02*X181500Y528681D01*
X182000Y529181D01*
X183000D01*
X183500Y528681D01*
Y527681D01*
X183000Y527181D02*X183500Y527681D01*
X182000Y527181D02*X183000D01*
X181500Y527681D02*X182000Y527181D01*
X184700Y530681D02*X185200Y531181D01*
X186700D01*
X187200Y530681D01*
Y529681D01*
X184700Y527181D02*X187200Y529681D01*
X184700Y527181D02*X187200D01*
X588425Y502331D02*X592425D01*
X588425Y503831D02*Y501831D01*
Y503831D02*X588925Y504331D01*
X589925D01*
X590425Y503831D02*X589925Y504331D01*
X590425Y503831D02*Y502331D01*
X588925Y505531D02*X588425Y506031D01*
Y507031D02*Y506031D01*
Y507031D02*X588925Y507531D01*
X591925D01*
X592425Y507031D02*X591925Y507531D01*
X592425Y507031D02*Y506031D01*
X591925Y505531D02*X592425Y506031D01*
X590425Y507531D02*Y506031D01*
X591925Y508731D02*X592425Y509231D01*
X588925Y508731D02*X591925D01*
X588925D02*X588425Y509231D01*
Y510231D02*Y509231D01*
Y510231D02*X588925Y510731D01*
X591925D01*
X592425Y510231D02*X591925Y510731D01*
X592425Y510231D02*Y509231D01*
X591425Y508731D02*X589425Y510731D01*
X591925Y511931D02*X592425Y512431D01*
X588925Y511931D02*X591925D01*
X588925D02*X588425Y512431D01*
Y513431D02*Y512431D01*
Y513431D02*X588925Y513931D01*
X591925D01*
X592425Y513431D02*X591925Y513931D01*
X592425Y513431D02*Y512431D01*
X591425Y511931D02*X589425Y513931D01*
X106500Y528681D02*Y525681D01*
X106000Y529181D02*X106500Y528681D01*
X107000Y529181D01*
X108000D01*
X108500Y528681D01*
Y527681D01*
X108000Y527181D02*X108500Y527681D01*
X107000Y527181D02*X108000D01*
X106500Y527681D02*X107000Y527181D01*
X110200D02*X111200D01*
X110700Y531181D02*Y527181D01*
X109700Y530181D02*X110700Y531181D01*
X36500Y512681D02*Y511181D01*
Y512681D02*X40000D01*
X40500Y512181D02*X40000Y512681D01*
X40500Y512181D02*Y511681D01*
X40000Y511181D02*X40500Y511681D01*
X37000Y513881D02*X36500Y514381D01*
Y515381D02*Y514381D01*
Y515381D02*X37000Y515881D01*
X40000D01*
X40500Y515381D02*X40000Y515881D01*
X40500Y515381D02*Y514381D01*
X40000Y513881D02*X40500Y514381D01*
X38500Y515881D02*Y514381D01*
X40000Y517081D02*X40500Y517581D01*
X37000Y517081D02*X40000D01*
X37000D02*X36500Y517581D01*
Y518581D02*Y517581D01*
Y518581D02*X37000Y519081D01*
X40000D01*
X40500Y518581D02*X40000Y519081D01*
X40500Y518581D02*Y517581D01*
X39500Y517081D02*X37500Y519081D01*
X40000Y520281D02*X40500Y520781D01*
X37000Y520281D02*X40000D01*
X37000D02*X36500Y520781D01*
Y521781D02*Y520781D01*
Y521781D02*X37000Y522281D01*
X40000D01*
X40500Y521781D02*X40000Y522281D01*
X40500Y521781D02*Y520781D01*
X39500Y520281D02*X37500Y522281D01*
X328000Y374681D02*X329500D01*
X327500Y375181D02*X328000Y374681D01*
X327500Y378181D02*Y375181D01*
Y378181D02*X328000Y378681D01*
X329500D01*
X330700Y378181D02*X331200Y378681D01*
X332200D01*
X332700Y378181D01*
Y375181D01*
X332200Y374681D02*X332700Y375181D01*
X331200Y374681D02*X332200D01*
X330700Y375181D02*X331200Y374681D01*
Y376681D02*X332700D01*
X333900Y375181D02*X334400Y374681D01*
X333900Y378181D02*Y375181D01*
Y378181D02*X334400Y378681D01*
X335400D01*
X335900Y378181D01*
Y375181D01*
X335400Y374681D02*X335900Y375181D01*
X334400Y374681D02*X335400D01*
X333900Y375681D02*X335900Y377681D01*
X337100Y374681D02*X339600Y377181D01*
Y378681D02*Y377181D01*
X337100Y378681D02*X339600D01*
X357500Y538681D02*X359500D01*
X358500D02*Y534681D01*
X360700Y538181D02*X361200Y538681D01*
X362200D01*
X362700Y538181D01*
Y535181D01*
X362200Y534681D02*X362700Y535181D01*
X361200Y534681D02*X362200D01*
X360700Y535181D02*X361200Y534681D01*
Y536681D02*X362700D01*
X363900Y535181D02*X364400Y534681D01*
X363900Y538181D02*Y535181D01*
Y538181D02*X364400Y538681D01*
X365400D01*
X365900Y538181D01*
Y535181D01*
X365400Y534681D02*X365900Y535181D01*
X364400Y534681D02*X365400D01*
X363900Y535681D02*X365900Y537681D01*
X367600Y534681D02*X368600D01*
X368100Y538681D02*Y534681D01*
X367100Y537681D02*X368100Y538681D01*
X307500Y543181D02*Y539681D01*
Y543181D02*X308000Y543681D01*
X309500D01*
X310000Y543181D01*
Y539681D01*
X307500Y541681D02*X310000D01*
X328000Y442181D02*X329500D01*
X327500Y442681D02*X328000Y442181D01*
X327500Y445681D02*Y442681D01*
Y445681D02*X328000Y446181D01*
X329500D01*
X330700Y445681D02*X331200Y446181D01*
X332200D01*
X332700Y445681D01*
Y442681D01*
X332200Y442181D02*X332700Y442681D01*
X331200Y442181D02*X332200D01*
X330700Y442681D02*X331200Y442181D01*
Y444181D02*X332700D01*
X333900Y442681D02*X334400Y442181D01*
X333900Y445681D02*Y442681D01*
Y445681D02*X334400Y446181D01*
X335400D01*
X335900Y445681D01*
Y442681D01*
X335400Y442181D02*X335900Y442681D01*
X334400Y442181D02*X335400D01*
X333900Y443181D02*X335900Y445181D01*
X337100Y442681D02*X337600Y442181D01*
X337100Y443681D02*Y442681D01*
Y443681D02*X337600Y444181D01*
X338600D01*
X339100Y443681D01*
Y442681D01*
X338600Y442181D02*X339100Y442681D01*
X337600Y442181D02*X338600D01*
X337100Y444681D02*X337600Y444181D01*
X337100Y445681D02*Y444681D01*
Y445681D02*X337600Y446181D01*
X338600D01*
X339100Y445681D01*
Y444681D01*
X338600Y444181D02*X339100Y444681D01*
X283000Y342181D02*X284500D01*
X282500Y342681D02*X283000Y342181D01*
X282500Y345681D02*Y342681D01*
Y345681D02*X283000Y346181D01*
X284500D01*
X285700Y345681D02*X286200Y346181D01*
X287200D01*
X287700Y345681D01*
Y342681D01*
X287200Y342181D02*X287700Y342681D01*
X286200Y342181D02*X287200D01*
X285700Y342681D02*X286200Y342181D01*
Y344181D02*X287700D01*
X288900Y342681D02*X289400Y342181D01*
X288900Y345681D02*Y342681D01*
Y345681D02*X289400Y346181D01*
X290400D01*
X290900Y345681D01*
Y342681D01*
X290400Y342181D02*X290900Y342681D01*
X289400Y342181D02*X290400D01*
X288900Y343181D02*X290900Y345181D01*
X292100Y344181D02*X294100Y346181D01*
X292100Y344181D02*X294600D01*
X294100Y346181D02*Y342181D01*
X283000Y364681D02*X284500D01*
X282500Y365181D02*X283000Y364681D01*
X282500Y368181D02*Y365181D01*
Y368181D02*X283000Y368681D01*
X284500D01*
X285700Y368181D02*X286200Y368681D01*
X287200D01*
X287700Y368181D01*
Y365181D01*
X287200Y364681D02*X287700Y365181D01*
X286200Y364681D02*X287200D01*
X285700Y365181D02*X286200Y364681D01*
Y366681D02*X287700D01*
X288900Y365181D02*X289400Y364681D01*
X288900Y368181D02*Y365181D01*
Y368181D02*X289400Y368681D01*
X290400D01*
X290900Y368181D01*
Y365181D01*
X290400Y364681D02*X290900Y365181D01*
X289400Y364681D02*X290400D01*
X288900Y365681D02*X290900Y367681D01*
X292100Y364681D02*X294100Y366681D01*
Y368181D02*Y366681D01*
X293600Y368681D02*X294100Y368181D01*
X292600Y368681D02*X293600D01*
X292100Y368181D02*X292600Y368681D01*
X292100Y368181D02*Y367181D01*
X292600Y366681D01*
X294100D01*
X262500Y413681D02*X266000D01*
X266500Y414181D01*
Y415181D02*Y414181D01*
Y415181D02*X266000Y415681D01*
X262500D02*X266000D01*
X263000Y416881D02*X262500Y417381D01*
Y418381D02*Y417381D01*
Y418381D02*X263000Y418881D01*
X266000D01*
X266500Y418381D02*X266000Y418881D01*
X266500Y418381D02*Y417381D01*
X266000Y416881D02*X266500Y417381D01*
X264500Y418881D02*Y417381D01*
X266000Y420081D02*X266500Y420581D01*
X263000Y420081D02*X266000D01*
X263000D02*X262500Y420581D01*
Y421581D02*Y420581D01*
Y421581D02*X263000Y422081D01*
X266000D01*
X266500Y421581D02*X266000Y422081D01*
X266500Y421581D02*Y420581D01*
X265500Y420081D02*X263500Y422081D01*
X263000Y423281D02*X262500Y423781D01*
Y425281D02*Y423781D01*
Y425281D02*X263000Y425781D01*
X264000D01*
X266500Y423281D02*X264000Y425781D01*
X266500D02*Y423281D01*
X257500Y465681D02*Y463681D01*
Y465681D02*X258000Y466181D01*
X259000D01*
X259500Y465681D02*X259000Y466181D01*
X259500Y465681D02*Y464181D01*
X257500D02*X261500D01*
X259500D02*X261500Y466181D01*
X258000Y467381D02*X257500Y467881D01*
Y468881D02*Y467881D01*
Y468881D02*X258000Y469381D01*
X261000D01*
X261500Y468881D02*X261000Y469381D01*
X261500Y468881D02*Y467881D01*
X261000Y467381D02*X261500Y467881D01*
X259500Y469381D02*Y467881D01*
X261000Y470581D02*X261500Y471081D01*
X258000Y470581D02*X261000D01*
X258000D02*X257500Y471081D01*
Y472081D02*Y471081D01*
Y472081D02*X258000Y472581D01*
X261000D01*
X261500Y472081D02*X261000Y472581D01*
X261500Y472081D02*Y471081D01*
X260500Y470581D02*X258500Y472581D01*
X258000Y473781D02*X257500Y474281D01*
Y475781D02*Y474281D01*
Y475781D02*X258000Y476281D01*
X259000D01*
X261500Y473781D02*X259000Y476281D01*
X261500D02*Y473781D01*
M02*
