G04 start of page 10 for group -3984 idx -3984 *
G04 Title: 31.003.00.01.01.pcb, fab *
G04 Creator: pcb 4.2.2 *
G04 CreationDate: Sun Jan  3 11:16:11 2021 UTC *
G04 For: bert *
G04 Format: Gerber/RS-274X *
G04 PCB-Dimensions (mil): 7874.02 5511.81 *
G04 PCB-Coordinate-Origin: lower left *
%MOIN*%
%FSLAX25Y25*%
%LNFAB*%
%ADD92C,0.0100*%
%ADD91C,0.0060*%
%ADD90C,0.0080*%
G54D90*X315000Y521181D02*Y516381D01*
Y521181D02*X319160Y523581D01*
X315000Y521181D02*X310840Y523581D01*
X313400Y521181D02*G75*G03X316600Y521181I1600J0D01*G01*
G75*G03X313400Y521181I-1600J0D01*G01*
X311800D02*G75*G03X318200Y521181I3200J0D01*G01*
G75*G03X311800Y521181I-3200J0D01*G01*
X17500Y186181D02*Y181381D01*
Y186181D02*X21660Y188581D01*
X17500Y186181D02*X13340Y188581D01*
X15900Y186181D02*G75*G03X19100Y186181I1600J0D01*G01*
G75*G03X15900Y186181I-1600J0D01*G01*
X14300D02*G75*G03X20700Y186181I3200J0D01*G01*
G75*G03X14300Y186181I-3200J0D01*G01*
X315000Y190981D02*Y181381D01*
X310200Y186181D02*X319800D01*
X313400Y187781D02*X316600D01*
X313400D02*Y184581D01*
X316600D01*
Y187781D02*Y184581D01*
X311800Y189381D02*X318200D01*
X311800D02*Y182981D01*
X318200D01*
Y189381D02*Y182981D01*
X17500Y521181D02*Y516381D01*
Y521181D02*X21660Y523581D01*
X17500Y521181D02*X13340Y523581D01*
X15900Y521181D02*G75*G03X19100Y521181I1600J0D01*G01*
G75*G03X15900Y521181I-1600J0D01*G01*
X14300D02*G75*G03X20700Y521181I3200J0D01*G01*
G75*G03X14300Y521181I-3200J0D01*G01*
X162500Y278481D02*Y268881D01*
X157700Y273681D02*X167300D01*
X160900Y275281D02*X164100D01*
X160900D02*Y272081D01*
X164100D01*
Y275281D02*Y272081D01*
X159300Y276881D02*X165700D01*
X159300D02*Y270481D01*
X165700D01*
Y276881D02*Y270481D01*
X162500Y440981D02*Y431381D01*
X157700Y436181D02*X167300D01*
X160900Y437781D02*X164100D01*
X160900D02*Y434581D01*
X164100D01*
Y437781D02*Y434581D01*
X159300Y439381D02*X165700D01*
X159300D02*Y432981D01*
X165700D01*
Y439381D02*Y432981D01*
X15000Y567231D02*Y557631D01*
X10200Y562431D02*X19800D01*
X13400Y564031D02*X16600D01*
X13400D02*Y560831D01*
X16600D01*
Y564031D02*Y560831D01*
X11800Y565631D02*X18200D01*
X11800D02*Y559231D01*
X18200D01*
Y565631D02*Y559231D01*
G54D91*X135000Y566181D02*Y565431D01*
X136500Y563931D01*
X138000Y565431D01*
Y566181D02*Y565431D01*
X136500Y563931D02*Y560181D01*
X139800Y563181D02*X142050D01*
X139800Y560181D02*X142800D01*
X139800Y566181D02*Y560181D01*
Y566181D02*X142800D01*
X147600D02*X148350Y565431D01*
X145350Y566181D02*X147600D01*
X144600Y565431D02*X145350Y566181D01*
X144600Y565431D02*Y563931D01*
X145350Y563181D01*
X147600D01*
X148350Y562431D01*
Y560931D01*
X147600Y560181D02*X148350Y560931D01*
X145350Y560181D02*X147600D01*
X144600Y560931D02*X145350Y560181D01*
X98000Y565431D02*X98750Y566181D01*
X100250D01*
X101000Y565431D01*
Y560931D01*
X100250Y560181D02*X101000Y560931D01*
X98750Y560181D02*X100250D01*
X98000Y560931D02*X98750Y560181D01*
Y563181D02*X101000D01*
X15000Y577431D02*Y572631D01*
Y577431D02*X19160Y579831D01*
X15000Y577431D02*X10840Y579831D01*
X13400Y577431D02*G75*G03X16600Y577431I1600J0D01*G01*
G75*G03X13400Y577431I-1600J0D01*G01*
X11800D02*G75*G03X18200Y577431I3200J0D01*G01*
G75*G03X11800Y577431I-3200J0D01*G01*
X140000Y581181D02*Y575181D01*
Y581181D02*Y580431D01*
X143750Y576681D01*
Y581181D02*Y575181D01*
X145550Y580431D02*Y575931D01*
Y580431D02*X146300Y581181D01*
X147800D01*
X148550Y580431D01*
Y575931D01*
X147800Y575181D02*X148550Y575931D01*
X146300Y575181D02*X147800D01*
X145550Y575931D02*X146300Y575181D01*
X98000Y580431D02*X98750Y581181D01*
X100250D01*
X101000Y580431D01*
Y575931D01*
X100250Y575181D02*X101000Y575931D01*
X98750Y575181D02*X100250D01*
X98000Y575931D02*X98750Y575181D01*
Y578181D02*X101000D01*
X45000Y575931D02*X45750Y575181D01*
X45000Y580431D02*Y575931D01*
Y580431D02*X45750Y581181D01*
X47250D01*
X48000Y580431D01*
Y575931D01*
X47250Y575181D02*X48000Y575931D01*
X45750Y575181D02*X47250D01*
X45000Y576681D02*X48000Y579681D01*
X49800Y575181D02*X50550D01*
X53100D02*X54600D01*
X53850Y581181D02*Y575181D01*
X52350Y579681D02*X53850Y581181D01*
X56400Y578181D02*X59400Y581181D01*
X56400Y578181D02*X60150D01*
X59400Y581181D02*Y575181D01*
X64200Y581181D02*X64950Y580431D01*
X62700Y581181D02*X64200D01*
X61950Y580431D02*X62700Y581181D01*
X61950Y580431D02*Y575931D01*
X62700Y575181D01*
X64200Y578181D02*X64950Y577431D01*
X61950Y578181D02*X64200D01*
X62700Y575181D02*X64200D01*
X64950Y575931D01*
Y577431D02*Y575931D01*
X45000Y560931D02*X45750Y560181D01*
X45000Y565431D02*Y560931D01*
Y565431D02*X45750Y566181D01*
X47250D01*
X48000Y565431D01*
Y560931D01*
X47250Y560181D02*X48000Y560931D01*
X45750Y560181D02*X47250D01*
X45000Y561681D02*X48000Y564681D01*
X49800Y560181D02*X50550D01*
X53100D02*X54600D01*
X53850Y566181D02*Y560181D01*
X52350Y564681D02*X53850Y566181D01*
X56400Y563181D02*X59400Y566181D01*
X56400Y563181D02*X60150D01*
X59400Y566181D02*Y560181D01*
X64200Y566181D02*X64950Y565431D01*
X62700Y566181D02*X64200D01*
X61950Y565431D02*X62700Y566181D01*
X61950Y565431D02*Y560931D01*
X62700Y560181D01*
X64200Y563181D02*X64950Y562431D01*
X61950Y563181D02*X64200D01*
X62700Y560181D02*X64200D01*
X64950Y560931D01*
Y562431D02*Y560931D01*
X611588Y523254D02*X614788D01*
X611588D02*Y520054D01*
X614788D01*
Y523254D02*Y520054D01*
X609988Y524854D02*X616388D01*
X609988D02*Y518454D01*
X616388D01*
Y524854D02*Y518454D01*
X611588Y188608D02*X614788D01*
X611588D02*Y185408D01*
X614788D01*
Y188608D02*Y185408D01*
X609988Y190208D02*X616388D01*
X609988D02*Y183808D01*
X616388D01*
Y190208D02*Y183808D01*
X13400Y594031D02*X16600D01*
X13400D02*Y590831D01*
X16600D01*
Y594031D02*Y590831D01*
X11800Y595631D02*X18200D01*
X11800D02*Y589231D01*
X18200D01*
Y595631D02*Y589231D01*
X140000Y596181D02*Y590181D01*
Y596181D02*Y595431D01*
X143750Y591681D01*
Y596181D02*Y590181D01*
X145550Y595431D02*Y590931D01*
Y595431D02*X146300Y596181D01*
X147800D01*
X148550Y595431D01*
Y590931D01*
X147800Y590181D02*X148550Y590931D01*
X146300Y590181D02*X147800D01*
X145550Y590931D02*X146300Y590181D01*
X98000Y595431D02*X98750Y596181D01*
X101000D01*
X101750Y595431D01*
Y593931D01*
X98000Y590181D02*X101750Y593931D01*
X98000Y590181D02*X101750D01*
X45000Y590931D02*X45750Y590181D01*
X45000Y595431D02*Y590931D01*
Y595431D02*X45750Y596181D01*
X47250D01*
X48000Y595431D01*
Y590931D01*
X47250Y590181D02*X48000Y590931D01*
X45750Y590181D02*X47250D01*
X45000Y591681D02*X48000Y594681D01*
X49800Y590181D02*X50550D01*
X53100D02*X54600D01*
X53850Y596181D02*Y590181D01*
X52350Y594681D02*X53850Y596181D01*
X57150Y590181D02*X58650D01*
X57900Y596181D02*Y590181D01*
X56400Y594681D02*X57900Y596181D01*
X60450Y590931D02*X61200Y590181D01*
X60450Y595431D02*Y590931D01*
Y595431D02*X61200Y596181D01*
X62700D01*
X63450Y595431D01*
Y590931D01*
X62700Y590181D02*X63450Y590931D01*
X61200Y590181D02*X62700D01*
X60450Y591681D02*X63450Y594681D01*
X360200Y520181D02*G75*G03X361800Y520181I800J0D01*G01*
G75*G03X360200Y520181I-800J0D01*G01*
X358600D02*G75*G03X363400Y520181I2400J0D01*G01*
G75*G03X358600Y520181I-2400J0D01*G01*
X557200D02*G75*G03X558800Y520181I800J0D01*G01*
G75*G03X557200Y520181I-800J0D01*G01*
X555600D02*G75*G03X560400Y520181I2400J0D01*G01*
G75*G03X555600Y520181I-2400J0D01*G01*
X557200Y274181D02*G75*G03X558800Y274181I800J0D01*G01*
G75*G03X557200Y274181I-800J0D01*G01*
X555600D02*G75*G03X560400Y274181I2400J0D01*G01*
G75*G03X555600Y274181I-2400J0D01*G01*
X360200D02*G75*G03X361800Y274181I800J0D01*G01*
G75*G03X360200Y274181I-800J0D01*G01*
X358600D02*G75*G03X363400Y274181I2400J0D01*G01*
G75*G03X358600Y274181I-2400J0D01*G01*
X14200Y607431D02*G75*G03X15800Y607431I800J0D01*G01*
G75*G03X14200Y607431I-800J0D01*G01*
X12600D02*G75*G03X17400Y607431I2400J0D01*G01*
G75*G03X12600Y607431I-2400J0D01*G01*
X140000Y611181D02*Y605181D01*
Y611181D02*Y610431D01*
X143750Y606681D01*
Y611181D02*Y605181D01*
X145550Y610431D02*Y605931D01*
Y610431D02*X146300Y611181D01*
X147800D01*
X148550Y610431D01*
Y605931D01*
X147800Y605181D02*X148550Y605931D01*
X146300Y605181D02*X147800D01*
X145550Y605931D02*X146300Y605181D01*
X98000Y608181D02*X101000Y611181D01*
X98000Y608181D02*X101750D01*
X101000Y611181D02*Y605181D01*
X45000Y605931D02*X45750Y605181D01*
X45000Y610431D02*Y605931D01*
Y610431D02*X45750Y611181D01*
X47250D01*
X48000Y610431D01*
Y605931D01*
X47250Y605181D02*X48000Y605931D01*
X45750Y605181D02*X47250D01*
X45000Y606681D02*X48000Y609681D01*
X49800Y605181D02*X50550D01*
X53100D02*X54600D01*
X53850Y611181D02*Y605181D01*
X52350Y609681D02*X53850Y611181D01*
X56400Y605931D02*X57150Y605181D01*
X56400Y610431D02*Y605931D01*
Y610431D02*X57150Y611181D01*
X58650D01*
X59400Y610431D01*
Y605931D01*
X58650Y605181D02*X59400Y605931D01*
X57150Y605181D02*X58650D01*
X56400Y606681D02*X59400Y609681D01*
X61200Y605931D02*X61950Y605181D01*
X61200Y610431D02*Y605931D01*
Y610431D02*X61950Y611181D01*
X63450D01*
X64200Y610431D01*
Y605931D01*
X63450Y605181D02*X64200Y605931D01*
X61950Y605181D02*X63450D01*
X61200Y606681D02*X64200Y609681D01*
X600945Y504369D02*X605745Y499569D01*
X600945D02*X605745Y504369D01*
X601745Y503569D02*X604945D01*
X601745D02*Y500369D01*
X604945D01*
Y503569D02*Y500369D01*
X591103Y494527D02*X595903Y489727D01*
X591103D02*X595903Y494527D01*
X591903Y493727D02*X595103D01*
X591903D02*Y490527D01*
X595103D01*
Y493727D02*Y490527D01*
X600945Y484684D02*X605745Y479884D01*
X600945D02*X605745Y484684D01*
X601745Y483884D02*X604945D01*
X601745D02*Y480684D01*
X604945D01*
Y483884D02*Y480684D01*
X591103Y474842D02*X595903Y470042D01*
X591103D02*X595903Y474842D01*
X591903Y474042D02*X595103D01*
X591903D02*Y470842D01*
X595103D01*
Y474042D02*Y470842D01*
X600945Y464999D02*X605745Y460199D01*
X600945D02*X605745Y464999D01*
X601745Y464199D02*X604945D01*
X601745D02*Y460999D01*
X604945D01*
Y464199D02*Y460999D01*
X591103Y455156D02*X595903Y450356D01*
X591103D02*X595903Y455156D01*
X591903Y454356D02*X595103D01*
X591903D02*Y451156D01*
X595103D01*
Y454356D02*Y451156D01*
X600945Y445314D02*X605745Y440514D01*
X600945D02*X605745Y445314D01*
X601745Y444514D02*X604945D01*
X601745D02*Y441314D01*
X604945D01*
Y444514D02*Y441314D01*
X591103Y435471D02*X595903Y430671D01*
X591103D02*X595903Y435471D01*
X591903Y434671D02*X595103D01*
X591903D02*Y431471D01*
X595103D01*
Y434671D02*Y431471D01*
X600945Y425629D02*X605745Y420829D01*
X600945D02*X605745Y425629D01*
X601745Y424829D02*X604945D01*
X601745D02*Y421629D01*
X604945D01*
Y424829D02*Y421629D01*
X591103Y415786D02*X595903Y410986D01*
X591103D02*X595903Y415786D01*
X591903Y414986D02*X595103D01*
X591903D02*Y411786D01*
X595103D01*
Y414986D02*Y411786D01*
X600945Y405944D02*X605745Y401144D01*
X600945D02*X605745Y405944D01*
X601745Y405144D02*X604945D01*
X601745D02*Y401944D01*
X604945D01*
Y405144D02*Y401944D01*
X591103Y396101D02*X595903Y391301D01*
X591103D02*X595903Y396101D01*
X591903Y395301D02*X595103D01*
X591903D02*Y392101D01*
X595103D01*
Y395301D02*Y392101D01*
X600945Y386259D02*X605745Y381459D01*
X600945D02*X605745Y386259D01*
X601745Y385459D02*X604945D01*
X601745D02*Y382259D01*
X604945D01*
Y385459D02*Y382259D01*
X591103Y376416D02*X595903Y371616D01*
X591103D02*X595903Y376416D01*
X591903Y375616D02*X595103D01*
X591903D02*Y372416D01*
X595103D01*
Y375616D02*Y372416D01*
X600945Y366574D02*X605745Y361774D01*
X600945D02*X605745Y366574D01*
X601745Y365774D02*X604945D01*
X601745D02*Y362574D01*
X604945D01*
Y365774D02*Y362574D01*
X591103Y356732D02*X595903Y351932D01*
X591103D02*X595903Y356732D01*
X591903Y355932D02*X595103D01*
X591903D02*Y352732D01*
X595103D01*
Y355932D02*Y352732D01*
X591103Y337047D02*X595903Y332247D01*
X591103D02*X595903Y337047D01*
X591903Y336247D02*X595103D01*
X591903D02*Y333047D01*
X595103D01*
Y336247D02*Y333047D01*
X600945Y346889D02*X605745Y342089D01*
X600945D02*X605745Y346889D01*
X601745Y346089D02*X604945D01*
X601745D02*Y342889D01*
X604945D01*
Y346089D02*Y342889D01*
X600945Y327204D02*X605745Y322404D01*
X600945D02*X605745Y327204D01*
X601745Y326404D02*X604945D01*
X601745D02*Y323204D01*
X604945D01*
Y326404D02*Y323204D01*
X591103Y317362D02*X595903Y312562D01*
X591103D02*X595903Y317362D01*
X591903Y316562D02*X595103D01*
X591903D02*Y313362D01*
X595103D01*
Y316562D02*Y313362D01*
X600945Y307519D02*X605745Y302719D01*
X600945D02*X605745Y307519D01*
X601745Y306719D02*X604945D01*
X601745D02*Y303519D01*
X604945D01*
Y306719D02*Y303519D01*
X591103Y297676D02*X595903Y292876D01*
X591103D02*X595903Y297676D01*
X591903Y296876D02*X595103D01*
X591903D02*Y293676D01*
X595103D01*
Y296876D02*Y293676D01*
X600945Y287834D02*X605745Y283034D01*
X600945D02*X605745Y287834D01*
X601745Y287034D02*X604945D01*
X601745D02*Y283834D01*
X604945D01*
Y287034D02*Y283834D01*
X591103Y277991D02*X595903Y273191D01*
X591103D02*X595903Y277991D01*
X591903Y277191D02*X595103D01*
X591903D02*Y273991D01*
X595103D01*
Y277191D02*Y273991D01*
X600945Y268149D02*X605745Y263349D01*
X600945D02*X605745Y268149D01*
X601745Y267349D02*X604945D01*
X601745D02*Y264149D01*
X604945D01*
Y267349D02*Y264149D01*
X591103Y258306D02*X595903Y253506D01*
X591103D02*X595903Y258306D01*
X591903Y257506D02*X595103D01*
X591903D02*Y254306D01*
X595103D01*
Y257506D02*Y254306D01*
X600945Y248464D02*X605745Y243664D01*
X600945D02*X605745Y248464D01*
X601745Y247664D02*X604945D01*
X601745D02*Y244464D01*
X604945D01*
Y247664D02*Y244464D01*
X591103Y238621D02*X595903Y233821D01*
X591103D02*X595903Y238621D01*
X591903Y237821D02*X595103D01*
X591903D02*Y234621D01*
X595103D01*
Y237821D02*Y234621D01*
X600945Y228779D02*X605745Y223979D01*
X600945D02*X605745Y228779D01*
X601745Y227979D02*X604945D01*
X601745D02*Y224779D01*
X604945D01*
Y227979D02*Y224779D01*
X591103Y218936D02*X595903Y214136D01*
X591103D02*X595903Y218936D01*
X591903Y218136D02*X595103D01*
X591903D02*Y214936D01*
X595103D01*
Y218136D02*Y214936D01*
X600945Y209094D02*X605745Y204294D01*
X600945D02*X605745Y209094D01*
X601745Y208294D02*X604945D01*
X601745D02*Y205094D01*
X604945D01*
Y208294D02*Y205094D01*
X75415Y218423D02*X80215Y213623D01*
X75415D02*X80215Y218423D01*
X76215Y217623D02*X79415D01*
X76215D02*Y214423D01*
X79415D01*
Y217623D02*Y214423D01*
X75415Y198738D02*X80215Y193938D01*
X75415D02*X80215Y198738D01*
X76215Y197938D02*X79415D01*
X76215D02*Y194738D01*
X79415D01*
Y197938D02*Y194738D01*
X114785Y208581D02*X119585Y203781D01*
X114785D02*X119585Y208581D01*
X115585Y207781D02*X118785D01*
X115585D02*Y204581D01*
X118785D01*
Y207781D02*Y204581D01*
X12600Y624831D02*X17400Y620031D01*
X12600D02*X17400Y624831D01*
X13400Y624031D02*X16600D01*
X13400D02*Y620831D01*
X16600D01*
Y624031D02*Y620831D01*
X135000Y626181D02*Y625431D01*
X136500Y623931D01*
X138000Y625431D01*
Y626181D02*Y625431D01*
X136500Y623931D02*Y620181D01*
X139800Y623181D02*X142050D01*
X139800Y620181D02*X142800D01*
X139800Y626181D02*Y620181D01*
Y626181D02*X142800D01*
X147600D02*X148350Y625431D01*
X145350Y626181D02*X147600D01*
X144600Y625431D02*X145350Y626181D01*
X144600Y625431D02*Y623931D01*
X145350Y623181D01*
X147600D01*
X148350Y622431D01*
Y620931D01*
X147600Y620181D02*X148350Y620931D01*
X145350Y620181D02*X147600D01*
X144600Y620931D02*X145350Y620181D01*
X98000Y625431D02*X98750Y626181D01*
X100250D01*
X101000Y625431D01*
Y620931D01*
X100250Y620181D02*X101000Y620931D01*
X98750Y620181D02*X100250D01*
X98000Y620931D02*X98750Y620181D01*
Y623181D02*X101000D01*
X102800D02*X105800Y626181D01*
X102800Y623181D02*X106550D01*
X105800Y626181D02*Y620181D01*
X45000Y620931D02*X45750Y620181D01*
X45000Y625431D02*Y620931D01*
Y625431D02*X45750Y626181D01*
X47250D01*
X48000Y625431D01*
Y620931D01*
X47250Y620181D02*X48000Y620931D01*
X45750Y620181D02*X47250D01*
X45000Y621681D02*X48000Y624681D01*
X49800Y620181D02*X50550D01*
X52350Y620931D02*X53100Y620181D01*
X52350Y625431D02*Y620931D01*
Y625431D02*X53100Y626181D01*
X54600D01*
X55350Y625431D01*
Y620931D01*
X54600Y620181D02*X55350Y620931D01*
X53100Y620181D02*X54600D01*
X52350Y621681D02*X55350Y624681D01*
X57150Y626181D02*X60150D01*
X57150D02*Y623181D01*
X57900Y623931D01*
X59400D01*
X60150Y623181D01*
Y620931D01*
X59400Y620181D02*X60150Y620931D01*
X57900Y620181D02*X59400D01*
X57150Y620931D02*X57900Y620181D01*
X61950Y625431D02*X62700Y626181D01*
X64950D01*
X65700Y625431D01*
Y623931D01*
X61950Y620181D02*X65700Y623931D01*
X61950Y620181D02*X65700D01*
X255000Y266881D02*Y260481D01*
X251800Y263681D02*X258200D01*
X253400Y265281D02*X256600D01*
X253400D02*Y262081D01*
X256600D01*
Y265281D02*Y262081D01*
X255000Y276881D02*Y270481D01*
X251800Y273681D02*X258200D01*
X253400Y275281D02*X256600D01*
X253400D02*Y272081D01*
X256600D01*
Y275281D02*Y272081D01*
X255000Y286881D02*Y280481D01*
X251800Y283681D02*X258200D01*
X253400Y285281D02*X256600D01*
X253400D02*Y282081D01*
X256600D01*
Y285281D02*Y282081D01*
X255000Y429381D02*Y422981D01*
X251800Y426181D02*X258200D01*
X253400Y427781D02*X256600D01*
X253400D02*Y424581D01*
X256600D01*
Y427781D02*Y424581D01*
X255000Y439381D02*Y432981D01*
X251800Y436181D02*X258200D01*
X253400Y437781D02*X256600D01*
X253400D02*Y434581D01*
X256600D01*
Y437781D02*Y434581D01*
X255000Y449381D02*Y442981D01*
X251800Y446181D02*X258200D01*
X253400Y447781D02*X256600D01*
X253400D02*Y444581D01*
X256600D01*
Y447781D02*Y444581D01*
X15000Y640631D02*Y634231D01*
X11800Y637431D02*X18200D01*
X13400Y639031D02*X16600D01*
X13400D02*Y635831D01*
X16600D01*
Y639031D02*Y635831D01*
X135000Y641181D02*Y640431D01*
X136500Y638931D01*
X138000Y640431D01*
Y641181D02*Y640431D01*
X136500Y638931D02*Y635181D01*
X139800Y638181D02*X142050D01*
X139800Y635181D02*X142800D01*
X139800Y641181D02*Y635181D01*
Y641181D02*X142800D01*
X147600D02*X148350Y640431D01*
X145350Y641181D02*X147600D01*
X144600Y640431D02*X145350Y641181D01*
X144600Y640431D02*Y638931D01*
X145350Y638181D01*
X147600D01*
X148350Y637431D01*
Y635931D01*
X147600Y635181D02*X148350Y635931D01*
X145350Y635181D02*X147600D01*
X144600Y635931D02*X145350Y635181D01*
X100250Y641181D02*X101000Y640431D01*
X98750Y641181D02*X100250D01*
X98000Y640431D02*X98750Y641181D01*
X98000Y640431D02*Y635931D01*
X98750Y635181D01*
X100250Y638181D02*X101000Y637431D01*
X98000Y638181D02*X100250D01*
X98750Y635181D02*X100250D01*
X101000Y635931D01*
Y637431D02*Y635931D01*
X45000D02*X45750Y635181D01*
X45000Y640431D02*Y635931D01*
Y640431D02*X45750Y641181D01*
X47250D01*
X48000Y640431D01*
Y635931D01*
X47250Y635181D02*X48000Y635931D01*
X45750Y635181D02*X47250D01*
X45000Y636681D02*X48000Y639681D01*
X49800Y635181D02*X50550D01*
X52350Y635931D02*X53100Y635181D01*
X52350Y640431D02*Y635931D01*
Y640431D02*X53100Y641181D01*
X54600D01*
X55350Y640431D01*
Y635931D01*
X54600Y635181D02*X55350Y635931D01*
X53100Y635181D02*X54600D01*
X52350Y636681D02*X55350Y639681D01*
X57150Y638181D02*X60150Y641181D01*
X57150Y638181D02*X60900D01*
X60150Y641181D02*Y635181D01*
X62700Y635931D02*X63450Y635181D01*
X62700Y637431D02*Y635931D01*
Y637431D02*X63450Y638181D01*
X64950D01*
X65700Y637431D01*
Y635931D01*
X64950Y635181D02*X65700Y635931D01*
X63450Y635181D02*X64950D01*
X62700Y638931D02*X63450Y638181D01*
X62700Y640431D02*Y638931D01*
Y640431D02*X63450Y641181D01*
X64950D01*
X65700Y640431D01*
Y638931D01*
X64950Y638181D02*X65700Y638931D01*
X295237Y236181D02*Y232981D01*
Y236181D02*X298010Y237781D01*
X295237Y236181D02*X292464Y237781D01*
X293637Y236181D02*G75*G03X296837Y236181I1600J0D01*G01*
G75*G03X293637Y236181I-1600J0D01*G01*
X324763D02*Y232981D01*
Y236181D02*X327536Y237781D01*
X324763Y236181D02*X321990Y237781D01*
X323163Y236181D02*G75*G03X326363Y236181I1600J0D01*G01*
G75*G03X323163Y236181I-1600J0D01*G01*
X324763Y406181D02*Y402981D01*
Y406181D02*X327536Y407781D01*
X324763Y406181D02*X321990Y407781D01*
X323163Y406181D02*G75*G03X326363Y406181I1600J0D01*G01*
G75*G03X323163Y406181I-1600J0D01*G01*
X295237D02*Y402981D01*
Y406181D02*X298010Y407781D01*
X295237Y406181D02*X292464Y407781D01*
X293637Y406181D02*G75*G03X296837Y406181I1600J0D01*G01*
G75*G03X293637Y406181I-1600J0D01*G01*
X412500Y213918D02*Y210718D01*
Y213918D02*X415273Y215518D01*
X412500Y213918D02*X409727Y215518D01*
X410900Y213918D02*G75*G03X414100Y213918I1600J0D01*G01*
G75*G03X410900Y213918I-1600J0D01*G01*
X412500Y243444D02*Y240244D01*
Y243444D02*X415273Y245044D01*
X412500Y243444D02*X409727Y245044D01*
X410900Y243444D02*G75*G03X414100Y243444I1600J0D01*G01*
G75*G03X410900Y243444I-1600J0D01*G01*
X487500Y213918D02*Y210718D01*
Y213918D02*X490273Y215518D01*
X487500Y213918D02*X484727Y215518D01*
X485900Y213918D02*G75*G03X489100Y213918I1600J0D01*G01*
G75*G03X485900Y213918I-1600J0D01*G01*
X487500Y243444D02*Y240244D01*
Y243444D02*X490273Y245044D01*
X487500Y243444D02*X484727Y245044D01*
X485900Y243444D02*G75*G03X489100Y243444I1600J0D01*G01*
G75*G03X485900Y243444I-1600J0D01*G01*
X324763Y303681D02*Y300481D01*
Y303681D02*X327536Y305281D01*
X324763Y303681D02*X321990Y305281D01*
X323163Y303681D02*G75*G03X326363Y303681I1600J0D01*G01*
G75*G03X323163Y303681I-1600J0D01*G01*
X295237D02*Y300481D01*
Y303681D02*X298010Y305281D01*
X295237Y303681D02*X292464Y305281D01*
X293637Y303681D02*G75*G03X296837Y303681I1600J0D01*G01*
G75*G03X293637Y303681I-1600J0D01*G01*
X324763Y473681D02*Y470481D01*
Y473681D02*X327536Y475281D01*
X324763Y473681D02*X321990Y475281D01*
X323163Y473681D02*G75*G03X326363Y473681I1600J0D01*G01*
G75*G03X323163Y473681I-1600J0D01*G01*
X295237D02*Y470481D01*
Y473681D02*X298010Y475281D01*
X295237Y473681D02*X292464Y475281D01*
X293637Y473681D02*G75*G03X296837Y473681I1600J0D01*G01*
G75*G03X293637Y473681I-1600J0D01*G01*
X175000Y531181D02*Y527981D01*
Y531181D02*X177773Y532781D01*
X175000Y531181D02*X172227Y532781D01*
X173400Y531181D02*G75*G03X176600Y531181I1600J0D01*G01*
G75*G03X173400Y531181I-1600J0D01*G01*
X175000Y176181D02*Y172981D01*
Y176181D02*X177773Y177781D01*
X175000Y176181D02*X172227Y177781D01*
X173400Y176181D02*G75*G03X176600Y176181I1600J0D01*G01*
G75*G03X173400Y176181I-1600J0D01*G01*
X100000D02*Y172981D01*
Y176181D02*X102773Y177781D01*
X100000Y176181D02*X97227Y177781D01*
X98400Y176181D02*G75*G03X101600Y176181I1600J0D01*G01*
G75*G03X98400Y176181I-1600J0D01*G01*
X100000Y531181D02*Y527981D01*
Y531181D02*X102773Y532781D01*
X100000Y531181D02*X97227Y532781D01*
X98400Y531181D02*G75*G03X101600Y531181I1600J0D01*G01*
G75*G03X98400Y531181I-1600J0D01*G01*
X15000Y652431D02*Y649231D01*
Y652431D02*X17773Y654031D01*
X15000Y652431D02*X12227Y654031D01*
X13400Y652431D02*G75*G03X16600Y652431I1600J0D01*G01*
G75*G03X13400Y652431I-1600J0D01*G01*
X135000Y656181D02*Y655431D01*
X136500Y653931D01*
X138000Y655431D01*
Y656181D02*Y655431D01*
X136500Y653931D02*Y650181D01*
X139800Y653181D02*X142050D01*
X139800Y650181D02*X142800D01*
X139800Y656181D02*Y650181D01*
Y656181D02*X142800D01*
X147600D02*X148350Y655431D01*
X145350Y656181D02*X147600D01*
X144600Y655431D02*X145350Y656181D01*
X144600Y655431D02*Y653931D01*
X145350Y653181D01*
X147600D01*
X148350Y652431D01*
Y650931D01*
X147600Y650181D02*X148350Y650931D01*
X145350Y650181D02*X147600D01*
X144600Y650931D02*X145350Y650181D01*
X98750D02*X100250D01*
X99500Y656181D02*Y650181D01*
X98000Y654681D02*X99500Y656181D01*
X104300D02*X105050Y655431D01*
X102800Y656181D02*X104300D01*
X102050Y655431D02*X102800Y656181D01*
X102050Y655431D02*Y650931D01*
X102800Y650181D01*
X104300Y653181D02*X105050Y652431D01*
X102050Y653181D02*X104300D01*
X102800Y650181D02*X104300D01*
X105050Y650931D01*
Y652431D02*Y650931D01*
X45000D02*X45750Y650181D01*
X45000Y655431D02*Y650931D01*
Y655431D02*X45750Y656181D01*
X47250D01*
X48000Y655431D01*
Y650931D01*
X47250Y650181D02*X48000Y650931D01*
X45750Y650181D02*X47250D01*
X45000Y651681D02*X48000Y654681D01*
X49800Y650181D02*X50550D01*
X52350Y650931D02*X53100Y650181D01*
X52350Y655431D02*Y650931D01*
Y655431D02*X53100Y656181D01*
X54600D01*
X55350Y655431D01*
Y650931D01*
X54600Y650181D02*X55350Y650931D01*
X53100Y650181D02*X54600D01*
X52350Y651681D02*X55350Y654681D01*
X57150Y653181D02*X60150Y656181D01*
X57150Y653181D02*X60900D01*
X60150Y656181D02*Y650181D01*
X64950Y656181D02*X65700Y655431D01*
X63450Y656181D02*X64950D01*
X62700Y655431D02*X63450Y656181D01*
X62700Y655431D02*Y650931D01*
X63450Y650181D01*
X64950Y653181D02*X65700Y652431D01*
X62700Y653181D02*X64950D01*
X63450Y650181D02*X64950D01*
X65700Y650931D01*
Y652431D02*Y650931D01*
X78400Y367781D02*X81600D01*
X78400D02*Y364581D01*
X81600D01*
Y367781D02*Y364581D01*
X78400Y407781D02*X81600D01*
X78400D02*Y404581D01*
X81600D01*
Y407781D02*Y404581D01*
X123400Y292781D02*X126600D01*
X123400D02*Y289581D01*
X126600D01*
Y292781D02*Y289581D01*
X123400Y332781D02*X126600D01*
X123400D02*Y329581D01*
X126600D01*
Y332781D02*Y329581D01*
X83400Y422781D02*X86600D01*
X83400D02*Y419581D01*
X86600D01*
Y422781D02*Y419581D01*
X123400Y422781D02*X126600D01*
X123400D02*Y419581D01*
X126600D01*
Y422781D02*Y419581D01*
X263400Y205281D02*X266600D01*
X263400D02*Y202081D01*
X266600D01*
Y205281D02*Y202081D01*
X263400Y245281D02*X266600D01*
X263400D02*Y242081D01*
X266600D01*
Y245281D02*Y242081D01*
X83400Y300281D02*X86600D01*
X83400D02*Y297081D01*
X86600D01*
Y300281D02*Y297081D01*
X83400Y340281D02*X86600D01*
X83400D02*Y337081D01*
X86600D01*
Y340281D02*Y337081D01*
X93400Y275281D02*X96600D01*
X93400D02*Y272081D01*
X96600D01*
Y275281D02*Y272081D01*
X93400Y315281D02*X96600D01*
X93400D02*Y312081D01*
X96600D01*
Y315281D02*Y312081D01*
X260900Y322939D02*X264100D01*
X260900D02*Y319739D01*
X264100D01*
Y322939D02*Y319739D01*
X260900Y342623D02*X264100D01*
X260900D02*Y339423D01*
X264100D01*
Y342623D02*Y339423D01*
X68400Y235281D02*X71600D01*
X68400D02*Y232081D01*
X71600D01*
Y235281D02*Y232081D01*
X68400Y275281D02*X71600D01*
X68400D02*Y272081D01*
X71600D01*
Y275281D02*Y272081D01*
X68400Y310281D02*X71600D01*
X68400D02*Y307081D01*
X71600D01*
Y310281D02*Y307081D01*
X68400Y350281D02*X71600D01*
X68400D02*Y347081D01*
X71600D01*
Y350281D02*Y347081D01*
X260900Y370439D02*X264100D01*
X260900D02*Y367239D01*
X264100D01*
Y370439D02*Y367239D01*
X260900Y390123D02*X264100D01*
X260900D02*Y386923D01*
X264100D01*
Y390123D02*Y386923D01*
X268400Y450281D02*X271600D01*
X268400D02*Y447081D01*
X271600D01*
Y450281D02*Y447081D01*
X268400Y490281D02*X271600D01*
X268400D02*Y487081D01*
X271600D01*
Y490281D02*Y487081D01*
X13400Y669031D02*X16600D01*
X13400D02*Y665831D01*
X16600D01*
Y669031D02*Y665831D01*
X135000Y671181D02*Y670431D01*
X136500Y668931D01*
X138000Y670431D01*
Y671181D02*Y670431D01*
X136500Y668931D02*Y665181D01*
X139800Y668181D02*X142050D01*
X139800Y665181D02*X142800D01*
X139800Y671181D02*Y665181D01*
Y671181D02*X142800D01*
X147600D02*X148350Y670431D01*
X145350Y671181D02*X147600D01*
X144600Y670431D02*X145350Y671181D01*
X144600Y670431D02*Y668931D01*
X145350Y668181D01*
X147600D01*
X148350Y667431D01*
Y665931D01*
X147600Y665181D02*X148350Y665931D01*
X145350Y665181D02*X147600D01*
X144600Y665931D02*X145350Y665181D01*
X98000Y670431D02*X98750Y671181D01*
X101000D01*
X101750Y670431D01*
Y668931D01*
X98000Y665181D02*X101750Y668931D01*
X98000Y665181D02*X101750D01*
X103550Y670431D02*X104300Y671181D01*
X106550D01*
X107300Y670431D01*
Y668931D01*
X103550Y665181D02*X107300Y668931D01*
X103550Y665181D02*X107300D01*
X45000Y665931D02*X45750Y665181D01*
X45000Y670431D02*Y665931D01*
Y670431D02*X45750Y671181D01*
X47250D01*
X48000Y670431D01*
Y665931D01*
X47250Y665181D02*X48000Y665931D01*
X45750Y665181D02*X47250D01*
X45000Y666681D02*X48000Y669681D01*
X49800Y665181D02*X50550D01*
X52350Y665931D02*X53100Y665181D01*
X52350Y670431D02*Y665931D01*
Y670431D02*X53100Y671181D01*
X54600D01*
X55350Y670431D01*
Y665931D01*
X54600Y665181D02*X55350Y665931D01*
X53100Y665181D02*X54600D01*
X52350Y666681D02*X55350Y669681D01*
X57150Y668181D02*X60150Y671181D01*
X57150Y668181D02*X60900D01*
X60150Y671181D02*Y665181D01*
X62700Y665931D02*X63450Y665181D01*
X62700Y670431D02*Y665931D01*
Y670431D02*X63450Y671181D01*
X64950D01*
X65700Y670431D01*
Y665931D01*
X64950Y665181D02*X65700Y665931D01*
X63450Y665181D02*X64950D01*
X62700Y666681D02*X65700Y669681D01*
X36700Y503681D02*G75*G03X38300Y503681I800J0D01*G01*
G75*G03X36700Y503681I-800J0D01*G01*
Y493681D02*G75*G03X38300Y493681I800J0D01*G01*
G75*G03X36700Y493681I-800J0D01*G01*
Y483681D02*G75*G03X38300Y483681I800J0D01*G01*
G75*G03X36700Y483681I-800J0D01*G01*
Y473681D02*G75*G03X38300Y473681I800J0D01*G01*
G75*G03X36700Y473681I-800J0D01*G01*
Y463681D02*G75*G03X38300Y463681I800J0D01*G01*
G75*G03X36700Y463681I-800J0D01*G01*
Y453681D02*G75*G03X38300Y453681I800J0D01*G01*
G75*G03X36700Y453681I-800J0D01*G01*
Y443681D02*G75*G03X38300Y443681I800J0D01*G01*
G75*G03X36700Y443681I-800J0D01*G01*
Y433681D02*G75*G03X38300Y433681I800J0D01*G01*
G75*G03X36700Y433681I-800J0D01*G01*
Y423681D02*G75*G03X38300Y423681I800J0D01*G01*
G75*G03X36700Y423681I-800J0D01*G01*
Y413681D02*G75*G03X38300Y413681I800J0D01*G01*
G75*G03X36700Y413681I-800J0D01*G01*
Y403681D02*G75*G03X38300Y403681I800J0D01*G01*
G75*G03X36700Y403681I-800J0D01*G01*
Y393681D02*G75*G03X38300Y393681I800J0D01*G01*
G75*G03X36700Y393681I-800J0D01*G01*
Y383681D02*G75*G03X38300Y383681I800J0D01*G01*
G75*G03X36700Y383681I-800J0D01*G01*
Y373681D02*G75*G03X38300Y373681I800J0D01*G01*
G75*G03X36700Y373681I-800J0D01*G01*
Y363681D02*G75*G03X38300Y363681I800J0D01*G01*
G75*G03X36700Y363681I-800J0D01*G01*
Y353681D02*G75*G03X38300Y353681I800J0D01*G01*
G75*G03X36700Y353681I-800J0D01*G01*
Y343681D02*G75*G03X38300Y343681I800J0D01*G01*
G75*G03X36700Y343681I-800J0D01*G01*
Y333681D02*G75*G03X38300Y333681I800J0D01*G01*
G75*G03X36700Y333681I-800J0D01*G01*
Y323681D02*G75*G03X38300Y323681I800J0D01*G01*
G75*G03X36700Y323681I-800J0D01*G01*
Y313681D02*G75*G03X38300Y313681I800J0D01*G01*
G75*G03X36700Y313681I-800J0D01*G01*
Y303681D02*G75*G03X38300Y303681I800J0D01*G01*
G75*G03X36700Y303681I-800J0D01*G01*
Y293681D02*G75*G03X38300Y293681I800J0D01*G01*
G75*G03X36700Y293681I-800J0D01*G01*
Y283681D02*G75*G03X38300Y283681I800J0D01*G01*
G75*G03X36700Y283681I-800J0D01*G01*
Y273681D02*G75*G03X38300Y273681I800J0D01*G01*
G75*G03X36700Y273681I-800J0D01*G01*
Y263681D02*G75*G03X38300Y263681I800J0D01*G01*
G75*G03X36700Y263681I-800J0D01*G01*
Y253681D02*G75*G03X38300Y253681I800J0D01*G01*
G75*G03X36700Y253681I-800J0D01*G01*
Y243681D02*G75*G03X38300Y243681I800J0D01*G01*
G75*G03X36700Y243681I-800J0D01*G01*
Y233681D02*G75*G03X38300Y233681I800J0D01*G01*
G75*G03X36700Y233681I-800J0D01*G01*
Y223681D02*G75*G03X38300Y223681I800J0D01*G01*
G75*G03X36700Y223681I-800J0D01*G01*
Y213681D02*G75*G03X38300Y213681I800J0D01*G01*
G75*G03X36700Y213681I-800J0D01*G01*
Y203681D02*G75*G03X38300Y203681I800J0D01*G01*
G75*G03X36700Y203681I-800J0D01*G01*
X14200Y682431D02*G75*G03X15800Y682431I800J0D01*G01*
G75*G03X14200Y682431I-800J0D01*G01*
X135000Y686181D02*Y685431D01*
X136500Y683931D01*
X138000Y685431D01*
Y686181D02*Y685431D01*
X136500Y683931D02*Y680181D01*
X139800Y683181D02*X142050D01*
X139800Y680181D02*X142800D01*
X139800Y686181D02*Y680181D01*
Y686181D02*X142800D01*
X147600D02*X148350Y685431D01*
X145350Y686181D02*X147600D01*
X144600Y685431D02*X145350Y686181D01*
X144600Y685431D02*Y683931D01*
X145350Y683181D01*
X147600D01*
X148350Y682431D01*
Y680931D01*
X147600Y680181D02*X148350Y680931D01*
X145350Y680181D02*X147600D01*
X144600Y680931D02*X145350Y680181D01*
X98000Y685431D02*X98750Y686181D01*
X100250D01*
X101000Y685431D01*
Y680931D01*
X100250Y680181D02*X101000Y680931D01*
X98750Y680181D02*X100250D01*
X98000Y680931D02*X98750Y680181D01*
Y683181D02*X101000D01*
X103550Y680181D02*X105050D01*
X104300Y686181D02*Y680181D01*
X102800Y684681D02*X104300Y686181D01*
X45000Y680931D02*X45750Y680181D01*
X45000Y685431D02*Y680931D01*
Y685431D02*X45750Y686181D01*
X47250D01*
X48000Y685431D01*
Y680931D01*
X47250Y680181D02*X48000Y680931D01*
X45750Y680181D02*X47250D01*
X45000Y681681D02*X48000Y684681D01*
X49800Y680181D02*X50550D01*
X52350Y680931D02*X53100Y680181D01*
X52350Y685431D02*Y680931D01*
Y685431D02*X53100Y686181D01*
X54600D01*
X55350Y685431D01*
Y680931D01*
X54600Y680181D02*X55350Y680931D01*
X53100Y680181D02*X54600D01*
X52350Y681681D02*X55350Y684681D01*
X57150Y685431D02*X57900Y686181D01*
X59400D01*
X60150Y685431D01*
Y680931D01*
X59400Y680181D02*X60150Y680931D01*
X57900Y680181D02*X59400D01*
X57150Y680931D02*X57900Y680181D01*
Y683181D02*X60150D01*
X61950Y680931D02*X62700Y680181D01*
X61950Y682431D02*Y680931D01*
Y682431D02*X62700Y683181D01*
X64200D01*
X64950Y682431D01*
Y680931D01*
X64200Y680181D02*X64950Y680931D01*
X62700Y680181D02*X64200D01*
X61950Y683931D02*X62700Y683181D01*
X61950Y685431D02*Y683931D01*
Y685431D02*X62700Y686181D01*
X64200D01*
X64950Y685431D01*
Y683931D01*
X64200Y683181D02*X64950Y683931D01*
X366300Y487381D02*X368700Y484981D01*
X366300D02*X368700Y487381D01*
X386300D02*X388700Y484981D01*
X386300D02*X388700Y487381D01*
X406300D02*X408700Y484981D01*
X406300D02*X408700Y487381D01*
X426300D02*X428700Y484981D01*
X426300D02*X428700Y487381D01*
X446300D02*X448700Y484981D01*
X446300D02*X448700Y487381D01*
X471300D02*X473700Y484981D01*
X471300D02*X473700Y487381D01*
X491300D02*X493700Y484981D01*
X491300D02*X493700Y487381D01*
X511300D02*X513700Y484981D01*
X511300D02*X513700Y487381D01*
X531300D02*X533700Y484981D01*
X531300D02*X533700Y487381D01*
X551300D02*X553700Y484981D01*
X551300D02*X553700Y487381D01*
X551300Y309881D02*X553700Y307481D01*
X551300D02*X553700Y309881D01*
X531300D02*X533700Y307481D01*
X531300D02*X533700Y309881D01*
X511300D02*X513700Y307481D01*
X511300D02*X513700Y309881D01*
X491300D02*X493700Y307481D01*
X491300D02*X493700Y309881D01*
X471300D02*X473700Y307481D01*
X471300D02*X473700Y309881D01*
X446300D02*X448700Y307481D01*
X446300D02*X448700Y309881D01*
X426300D02*X428700Y307481D01*
X426300D02*X428700Y309881D01*
X406300D02*X408700Y307481D01*
X406300D02*X408700Y309881D01*
X386300D02*X388700Y307481D01*
X386300D02*X388700Y309881D01*
X366300D02*X368700Y307481D01*
X366300D02*X368700Y309881D01*
X448800Y191317D02*X451200Y188917D01*
X448800D02*X451200Y191317D01*
X448800Y183445D02*X451200Y181045D01*
X448800D02*X451200Y183445D01*
X363800D02*X366200Y181045D01*
X363800D02*X366200Y183445D01*
X363800Y191317D02*X366200Y188917D01*
X363800D02*X366200Y191317D01*
X13800Y698631D02*X16200Y696231D01*
X13800D02*X16200Y698631D01*
X135000Y701181D02*Y700431D01*
X136500Y698931D01*
X138000Y700431D01*
Y701181D02*Y700431D01*
X136500Y698931D02*Y695181D01*
X139800Y698181D02*X142050D01*
X139800Y695181D02*X142800D01*
X139800Y701181D02*Y695181D01*
Y701181D02*X142800D01*
X147600D02*X148350Y700431D01*
X145350Y701181D02*X147600D01*
X144600Y700431D02*X145350Y701181D01*
X144600Y700431D02*Y698931D01*
X145350Y698181D01*
X147600D01*
X148350Y697431D01*
Y695931D01*
X147600Y695181D02*X148350Y695931D01*
X145350Y695181D02*X147600D01*
X144600Y695931D02*X145350Y695181D01*
X98000Y700431D02*X98750Y701181D01*
X101000D01*
X101750Y700431D01*
Y698931D01*
X98000Y695181D02*X101750Y698931D01*
X98000Y695181D02*X101750D01*
X103550Y698181D02*X106550Y701181D01*
X103550Y698181D02*X107300D01*
X106550Y701181D02*Y695181D01*
X45000Y695931D02*X45750Y695181D01*
X45000Y700431D02*Y695931D01*
Y700431D02*X45750Y701181D01*
X47250D01*
X48000Y700431D01*
Y695931D01*
X47250Y695181D02*X48000Y695931D01*
X45750Y695181D02*X47250D01*
X45000Y696681D02*X48000Y699681D01*
X49800Y695181D02*X50550D01*
X52350Y695931D02*X53100Y695181D01*
X52350Y700431D02*Y695931D01*
Y700431D02*X53100Y701181D01*
X54600D01*
X55350Y700431D01*
Y695931D01*
X54600Y695181D02*X55350Y695931D01*
X53100Y695181D02*X54600D01*
X52350Y696681D02*X55350Y699681D01*
X57150Y700431D02*X57900Y701181D01*
X59400D01*
X60150Y700431D01*
Y695931D01*
X59400Y695181D02*X60150Y695931D01*
X57900Y695181D02*X59400D01*
X57150Y695931D02*X57900Y695181D01*
Y698181D02*X60150D01*
X61950Y701181D02*X64950D01*
X61950D02*Y698181D01*
X62700Y698931D01*
X64200D01*
X64950Y698181D01*
Y695931D01*
X64200Y695181D02*X64950Y695931D01*
X62700Y695181D02*X64200D01*
X61950Y695931D02*X62700Y695181D01*
X525000Y227781D02*Y224581D01*
X523400Y226181D02*X526600D01*
X565000Y227781D02*Y224581D01*
X563400Y226181D02*X566600D01*
X565000Y207781D02*Y204581D01*
X563400Y206181D02*X566600D01*
X525000Y207781D02*Y204581D01*
X523400Y206181D02*X526600D01*
X525000Y247781D02*Y244581D01*
X523400Y246181D02*X526600D01*
X565000Y247781D02*Y244581D01*
X563400Y246181D02*X566600D01*
X565000Y187781D02*Y184581D01*
X563400Y186181D02*X566600D01*
X525000Y187781D02*Y184581D01*
X523400Y186181D02*X526600D01*
X15000Y714031D02*Y710831D01*
X13400Y712431D02*X16600D01*
X135000Y716181D02*Y715431D01*
X136500Y713931D01*
X138000Y715431D01*
Y716181D02*Y715431D01*
X136500Y713931D02*Y710181D01*
X139800Y713181D02*X142050D01*
X139800Y710181D02*X142800D01*
X139800Y716181D02*Y710181D01*
Y716181D02*X142800D01*
X147600D02*X148350Y715431D01*
X145350Y716181D02*X147600D01*
X144600Y715431D02*X145350Y716181D01*
X144600Y715431D02*Y713931D01*
X145350Y713181D01*
X147600D01*
X148350Y712431D01*
Y710931D01*
X147600Y710181D02*X148350Y710931D01*
X145350Y710181D02*X147600D01*
X144600Y710931D02*X145350Y710181D01*
X98000Y710931D02*X98750Y710181D01*
X98000Y712431D02*Y710931D01*
Y712431D02*X98750Y713181D01*
X100250D01*
X101000Y712431D01*
Y710931D01*
X100250Y710181D02*X101000Y710931D01*
X98750Y710181D02*X100250D01*
X98000Y713931D02*X98750Y713181D01*
X98000Y715431D02*Y713931D01*
Y715431D02*X98750Y716181D01*
X100250D01*
X101000Y715431D01*
Y713931D01*
X100250Y713181D02*X101000Y713931D01*
X45000Y710931D02*X45750Y710181D01*
X45000Y715431D02*Y710931D01*
Y715431D02*X45750Y716181D01*
X47250D01*
X48000Y715431D01*
Y710931D01*
X47250Y710181D02*X48000Y710931D01*
X45750Y710181D02*X47250D01*
X45000Y711681D02*X48000Y714681D01*
X49800Y710181D02*X50550D01*
X52350Y710931D02*X53100Y710181D01*
X52350Y715431D02*Y710931D01*
Y715431D02*X53100Y716181D01*
X54600D01*
X55350Y715431D01*
Y710931D01*
X54600Y710181D02*X55350Y710931D01*
X53100Y710181D02*X54600D01*
X52350Y711681D02*X55350Y714681D01*
X57150Y715431D02*X57900Y716181D01*
X59400D01*
X60150Y715431D01*
Y710931D01*
X59400Y710181D02*X60150Y710931D01*
X57900Y710181D02*X59400D01*
X57150Y710931D02*X57900Y710181D01*
Y713181D02*X60150D01*
X61950Y715431D02*X62700Y716181D01*
X64950D01*
X65700Y715431D01*
Y713931D01*
X61950Y710181D02*X65700Y713931D01*
X61950Y710181D02*X65700D01*
X95000Y371181D02*Y369581D01*
Y371181D02*X96387Y371981D01*
X95000Y371181D02*X93613Y371981D01*
X95000Y361181D02*Y359581D01*
Y361181D02*X96387Y361981D01*
X95000Y361181D02*X93613Y361981D01*
X95000Y351181D02*Y349581D01*
Y351181D02*X96387Y351981D01*
X95000Y351181D02*X93613Y351981D01*
X95000Y341181D02*Y339581D01*
Y341181D02*X96387Y341981D01*
X95000Y341181D02*X93613Y341981D01*
X125000Y341181D02*Y339581D01*
Y341181D02*X126387Y341981D01*
X125000Y341181D02*X123613Y341981D01*
X125000Y351181D02*Y349581D01*
Y351181D02*X126387Y351981D01*
X125000Y351181D02*X123613Y351981D01*
X125000Y361181D02*Y359581D01*
Y361181D02*X126387Y361981D01*
X125000Y361181D02*X123613Y361981D01*
X125000Y371181D02*Y369581D01*
Y371181D02*X126387Y371981D01*
X125000Y371181D02*X123613Y371981D01*
X95000Y263681D02*Y262081D01*
Y263681D02*X96387Y264481D01*
X95000Y263681D02*X93613Y264481D01*
X95000Y253681D02*Y252081D01*
Y253681D02*X96387Y254481D01*
X95000Y253681D02*X93613Y254481D01*
X95000Y243681D02*Y242081D01*
Y243681D02*X96387Y244481D01*
X95000Y243681D02*X93613Y244481D01*
X95000Y233681D02*Y232081D01*
Y233681D02*X96387Y234481D01*
X95000Y233681D02*X93613Y234481D01*
X125000Y233681D02*Y232081D01*
Y233681D02*X126387Y234481D01*
X125000Y233681D02*X123613Y234481D01*
X125000Y243681D02*Y242081D01*
Y243681D02*X126387Y244481D01*
X125000Y243681D02*X123613Y244481D01*
X125000Y253681D02*Y252081D01*
Y253681D02*X126387Y254481D01*
X125000Y253681D02*X123613Y254481D01*
X125000Y263681D02*Y262081D01*
Y263681D02*X126387Y264481D01*
X125000Y263681D02*X123613Y264481D01*
X15000Y727431D02*Y725831D01*
Y727431D02*X16387Y728231D01*
X15000Y727431D02*X13613Y728231D01*
X135000Y731181D02*Y730431D01*
X136500Y728931D01*
X138000Y730431D01*
Y731181D02*Y730431D01*
X136500Y728931D02*Y725181D01*
X139800Y728181D02*X142050D01*
X139800Y725181D02*X142800D01*
X139800Y731181D02*Y725181D01*
Y731181D02*X142800D01*
X147600D02*X148350Y730431D01*
X145350Y731181D02*X147600D01*
X144600Y730431D02*X145350Y731181D01*
X144600Y730431D02*Y728931D01*
X145350Y728181D01*
X147600D01*
X148350Y727431D01*
Y725931D01*
X147600Y725181D02*X148350Y725931D01*
X145350Y725181D02*X147600D01*
X144600Y725931D02*X145350Y725181D01*
X98750D02*X100250D01*
X99500Y731181D02*Y725181D01*
X98000Y729681D02*X99500Y731181D01*
X104300D02*X105050Y730431D01*
X102800Y731181D02*X104300D01*
X102050Y730431D02*X102800Y731181D01*
X102050Y730431D02*Y725931D01*
X102800Y725181D01*
X104300Y728181D02*X105050Y727431D01*
X102050Y728181D02*X104300D01*
X102800Y725181D02*X104300D01*
X105050Y725931D01*
Y727431D02*Y725931D01*
X45000D02*X45750Y725181D01*
X45000Y730431D02*Y725931D01*
Y730431D02*X45750Y731181D01*
X47250D01*
X48000Y730431D01*
Y725931D01*
X47250Y725181D02*X48000Y725931D01*
X45750Y725181D02*X47250D01*
X45000Y726681D02*X48000Y729681D01*
X49800Y725181D02*X50550D01*
X52350Y725931D02*X53100Y725181D01*
X52350Y730431D02*Y725931D01*
Y730431D02*X53100Y731181D01*
X54600D01*
X55350Y730431D01*
Y725931D01*
X54600Y725181D02*X55350Y725931D01*
X53100Y725181D02*X54600D01*
X52350Y726681D02*X55350Y729681D01*
X57150Y730431D02*X57900Y731181D01*
X60150D01*
X60900Y730431D01*
Y728931D01*
X57150Y725181D02*X60900Y728931D01*
X57150Y725181D02*X60900D01*
X62700Y725931D02*X63450Y725181D01*
X62700Y727431D02*Y725931D01*
Y727431D02*X63450Y728181D01*
X64950D01*
X65700Y727431D01*
Y725931D01*
X64950Y725181D02*X65700Y725931D01*
X63450Y725181D02*X64950D01*
X62700Y728931D02*X63450Y728181D01*
X62700Y730431D02*Y728931D01*
Y730431D02*X63450Y731181D01*
X64950D01*
X65700Y730431D01*
Y728931D01*
X64950Y728181D02*X65700Y728931D01*
X3000Y746181D02*X3750Y745431D01*
X750Y746181D02*X3000D01*
X0Y745431D02*X750Y746181D01*
X0Y745431D02*Y743931D01*
X750Y743181D01*
X3000D01*
X3750Y742431D01*
Y740931D01*
X3000Y740181D02*X3750Y740931D01*
X750Y740181D02*X3000D01*
X0Y740931D02*X750Y740181D01*
X5550Y743181D02*Y740931D01*
X6300Y740181D01*
X8550Y743181D02*Y738681D01*
X7800Y737931D02*X8550Y738681D01*
X6300Y737931D02*X7800D01*
X5550Y738681D02*X6300Y737931D01*
Y740181D02*X7800D01*
X8550Y740931D01*
X11100Y742431D02*Y740181D01*
Y742431D02*X11850Y743181D01*
X12600D01*
X13350Y742431D01*
Y740181D01*
Y742431D02*X14100Y743181D01*
X14850D01*
X15600Y742431D01*
Y740181D01*
X10350Y743181D02*X11100Y742431D01*
X17400Y746181D02*Y740181D01*
Y740931D02*X18150Y740181D01*
X19650D01*
X20400Y740931D01*
Y742431D02*Y740931D01*
X19650Y743181D02*X20400Y742431D01*
X18150Y743181D02*X19650D01*
X17400Y742431D02*X18150Y743181D01*
X22200Y742431D02*Y740931D01*
Y742431D02*X22950Y743181D01*
X24450D01*
X25200Y742431D01*
Y740931D01*
X24450Y740181D02*X25200Y740931D01*
X22950Y740181D02*X24450D01*
X22200Y740931D02*X22950Y740181D01*
X27000Y746181D02*Y740931D01*
X27750Y740181D01*
X0Y736931D02*X29250D01*
X41750Y746181D02*Y740181D01*
X44000Y746181D02*X44750Y745431D01*
Y740931D01*
X44000Y740181D02*X44750Y740931D01*
X41000Y740181D02*X44000D01*
X41000Y746181D02*X44000D01*
X46550Y744681D02*Y743931D01*
Y742431D02*Y740181D01*
X50300Y743181D02*X51050Y742431D01*
X48800Y743181D02*X50300D01*
X48050Y742431D02*X48800Y743181D01*
X48050Y742431D02*Y740931D01*
X48800Y740181D01*
X51050Y743181D02*Y740931D01*
X51800Y740181D01*
X48800D02*X50300D01*
X51050Y740931D01*
X54350Y742431D02*Y740181D01*
Y742431D02*X55100Y743181D01*
X55850D01*
X56600Y742431D01*
Y740181D01*
Y742431D02*X57350Y743181D01*
X58100D01*
X58850Y742431D01*
Y740181D01*
X53600Y743181D02*X54350Y742431D01*
X60650Y740181D02*X61400D01*
X65900Y740931D02*X66650Y740181D01*
X65900Y745431D02*X66650Y746181D01*
X65900Y745431D02*Y740931D01*
X68450Y746181D02*X69950D01*
X69200D02*Y740181D01*
X68450D02*X69950D01*
X72500Y742431D02*Y740181D01*
Y742431D02*X73250Y743181D01*
X74000D01*
X74750Y742431D01*
Y740181D01*
X71750Y743181D02*X72500Y742431D01*
X77300Y743181D02*X79550D01*
X76550Y742431D02*X77300Y743181D01*
X76550Y742431D02*Y740931D01*
X77300Y740181D01*
X79550D01*
X81350Y746181D02*Y740181D01*
Y742431D02*X82100Y743181D01*
X83600D01*
X84350Y742431D01*
Y740181D01*
X86150Y746181D02*X86900Y745431D01*
Y740931D01*
X86150Y740181D02*X86900Y740931D01*
X41000Y736931D02*X88700D01*
X95750Y740181D02*X98000D01*
X95000Y740931D02*X95750Y740181D01*
X95000Y745431D02*Y740931D01*
Y745431D02*X95750Y746181D01*
X98000D01*
X99800Y742431D02*Y740931D01*
Y742431D02*X100550Y743181D01*
X102050D01*
X102800Y742431D01*
Y740931D01*
X102050Y740181D02*X102800Y740931D01*
X100550Y740181D02*X102050D01*
X99800Y740931D02*X100550Y740181D01*
X104600Y743181D02*Y740931D01*
X105350Y740181D01*
X106850D01*
X107600Y740931D01*
Y743181D02*Y740931D01*
X110150Y742431D02*Y740181D01*
Y742431D02*X110900Y743181D01*
X111650D01*
X112400Y742431D01*
Y740181D01*
X109400Y743181D02*X110150Y742431D01*
X114950Y746181D02*Y740931D01*
X115700Y740181D01*
X114200Y743931D02*X115700D01*
X95000Y736931D02*X117200D01*
X130750Y746181D02*Y740181D01*
X130000Y746181D02*X133000D01*
X133750Y745431D01*
Y743931D01*
X133000Y743181D02*X133750Y743931D01*
X130750Y743181D02*X133000D01*
X135550Y746181D02*Y740931D01*
X136300Y740181D01*
X140050Y743181D02*X140800Y742431D01*
X138550Y743181D02*X140050D01*
X137800Y742431D02*X138550Y743181D01*
X137800Y742431D02*Y740931D01*
X138550Y740181D01*
X140800Y743181D02*Y740931D01*
X141550Y740181D01*
X138550D02*X140050D01*
X140800Y740931D01*
X144100Y746181D02*Y740931D01*
X144850Y740181D01*
X143350Y743931D02*X144850D01*
X147100Y740181D02*X149350D01*
X146350Y740931D02*X147100Y740181D01*
X146350Y742431D02*Y740931D01*
Y742431D02*X147100Y743181D01*
X148600D01*
X149350Y742431D01*
X146350Y741681D02*X149350D01*
Y742431D02*Y741681D01*
X154150Y746181D02*Y740181D01*
X153400D02*X154150Y740931D01*
X151900Y740181D02*X153400D01*
X151150Y740931D02*X151900Y740181D01*
X151150Y742431D02*Y740931D01*
Y742431D02*X151900Y743181D01*
X153400D01*
X154150Y742431D01*
X157450Y743181D02*Y742431D01*
Y740931D02*Y740181D01*
X155950Y745431D02*Y744681D01*
Y745431D02*X156700Y746181D01*
X158200D01*
X158950Y745431D01*
Y744681D01*
X157450Y743181D02*X158950Y744681D01*
X130000Y736931D02*X160750D01*
X0Y761181D02*X3000D01*
X1500D02*Y755181D01*
X4800Y761181D02*Y755181D01*
Y757431D02*X5550Y758181D01*
X7050D01*
X7800Y757431D01*
Y755181D01*
X10350D02*X12600D01*
X9600Y755931D02*X10350Y755181D01*
X9600Y757431D02*Y755931D01*
Y757431D02*X10350Y758181D01*
X11850D01*
X12600Y757431D01*
X9600Y756681D02*X12600D01*
Y757431D02*Y756681D01*
X15150Y757431D02*Y755181D01*
Y757431D02*X15900Y758181D01*
X17400D01*
X14400D02*X15150Y757431D01*
X19950Y755181D02*X22200D01*
X19200Y755931D02*X19950Y755181D01*
X19200Y757431D02*Y755931D01*
Y757431D02*X19950Y758181D01*
X21450D01*
X22200Y757431D01*
X19200Y756681D02*X22200D01*
Y757431D02*Y756681D01*
X28950Y758181D02*X29700Y757431D01*
X27450Y758181D02*X28950D01*
X26700Y757431D02*X27450Y758181D01*
X26700Y757431D02*Y755931D01*
X27450Y755181D01*
X29700Y758181D02*Y755931D01*
X30450Y755181D01*
X27450D02*X28950D01*
X29700Y755931D01*
X33000Y757431D02*Y755181D01*
Y757431D02*X33750Y758181D01*
X35250D01*
X32250D02*X33000Y757431D01*
X37800Y755181D02*X40050D01*
X37050Y755931D02*X37800Y755181D01*
X37050Y757431D02*Y755931D01*
Y757431D02*X37800Y758181D01*
X39300D01*
X40050Y757431D01*
X37050Y756681D02*X40050D01*
Y757431D02*Y756681D01*
X45300Y755181D02*X46800D01*
X46050Y761181D02*Y755181D01*
X44550Y759681D02*X46050Y761181D01*
X49350Y755181D02*X50850D01*
X50100Y761181D02*Y755181D01*
X48600Y759681D02*X50100Y761181D01*
X58350D02*Y755181D01*
X57600D02*X58350Y755931D01*
X56100Y755181D02*X57600D01*
X55350Y755931D02*X56100Y755181D01*
X55350Y757431D02*Y755931D01*
Y757431D02*X56100Y758181D01*
X57600D01*
X58350Y757431D01*
X60150Y759681D02*Y758931D01*
Y757431D02*Y755181D01*
X62400Y760431D02*Y755181D01*
Y760431D02*X63150Y761181D01*
X63900D01*
X61650Y758181D02*X63150D01*
X66150Y760431D02*Y755181D01*
Y760431D02*X66900Y761181D01*
X67650D01*
X65400Y758181D02*X66900D01*
X69900Y755181D02*X72150D01*
X69150Y755931D02*X69900Y755181D01*
X69150Y757431D02*Y755931D01*
Y757431D02*X69900Y758181D01*
X71400D01*
X72150Y757431D01*
X69150Y756681D02*X72150D01*
Y757431D02*Y756681D01*
X74700Y757431D02*Y755181D01*
Y757431D02*X75450Y758181D01*
X76950D01*
X73950D02*X74700Y757431D01*
X79500Y755181D02*X81750D01*
X78750Y755931D02*X79500Y755181D01*
X78750Y757431D02*Y755931D01*
Y757431D02*X79500Y758181D01*
X81000D01*
X81750Y757431D01*
X78750Y756681D02*X81750D01*
Y757431D02*Y756681D01*
X84300Y757431D02*Y755181D01*
Y757431D02*X85050Y758181D01*
X85800D01*
X86550Y757431D01*
Y755181D01*
X83550Y758181D02*X84300Y757431D01*
X89100Y761181D02*Y755931D01*
X89850Y755181D01*
X88350Y758931D02*X89850D01*
X97050Y761181D02*Y755181D01*
X96300D02*X97050Y755931D01*
X94800Y755181D02*X96300D01*
X94050Y755931D02*X94800Y755181D01*
X94050Y757431D02*Y755931D01*
Y757431D02*X94800Y758181D01*
X96300D01*
X97050Y757431D01*
X99600D02*Y755181D01*
Y757431D02*X100350Y758181D01*
X101850D01*
X98850D02*X99600Y757431D01*
X103650Y759681D02*Y758931D01*
Y757431D02*Y755181D01*
X105150Y761181D02*Y755931D01*
X105900Y755181D01*
X107400Y761181D02*Y755931D01*
X108150Y755181D01*
X113100D02*X115350D01*
X116100Y755931D01*
X115350Y756681D02*X116100Y755931D01*
X113100Y756681D02*X115350D01*
X112350Y757431D02*X113100Y756681D01*
X112350Y757431D02*X113100Y758181D01*
X115350D01*
X116100Y757431D01*
X112350Y755931D02*X113100Y755181D01*
X117900Y759681D02*Y758931D01*
Y757431D02*Y755181D01*
X119400Y758181D02*X122400D01*
X119400Y755181D02*X122400Y758181D01*
X119400Y755181D02*X122400D01*
X124950D02*X127200D01*
X124200Y755931D02*X124950Y755181D01*
X124200Y757431D02*Y755931D01*
Y757431D02*X124950Y758181D01*
X126450D01*
X127200Y757431D01*
X124200Y756681D02*X127200D01*
Y757431D02*Y756681D01*
X129750Y755181D02*X132000D01*
X132750Y755931D01*
X132000Y756681D02*X132750Y755931D01*
X129750Y756681D02*X132000D01*
X129000Y757431D02*X129750Y756681D01*
X129000Y757431D02*X129750Y758181D01*
X132000D01*
X132750Y757431D01*
X129000Y755931D02*X129750Y755181D01*
X137250Y758181D02*Y755931D01*
X138000Y755181D01*
X139500D01*
X140250Y755931D01*
Y758181D02*Y755931D01*
X142800Y755181D02*X145050D01*
X145800Y755931D01*
X145050Y756681D02*X145800Y755931D01*
X142800Y756681D02*X145050D01*
X142050Y757431D02*X142800Y756681D01*
X142050Y757431D02*X142800Y758181D01*
X145050D01*
X145800Y757431D01*
X142050Y755931D02*X142800Y755181D01*
X148350D02*X150600D01*
X147600Y755931D02*X148350Y755181D01*
X147600Y757431D02*Y755931D01*
Y757431D02*X148350Y758181D01*
X149850D01*
X150600Y757431D01*
X147600Y756681D02*X150600D01*
Y757431D02*Y756681D01*
X155400Y761181D02*Y755181D01*
X154650D02*X155400Y755931D01*
X153150Y755181D02*X154650D01*
X152400Y755931D02*X153150Y755181D01*
X152400Y757431D02*Y755931D01*
Y757431D02*X153150Y758181D01*
X154650D01*
X155400Y757431D01*
X159900Y759681D02*Y758931D01*
Y757431D02*Y755181D01*
X162150Y757431D02*Y755181D01*
Y757431D02*X162900Y758181D01*
X163650D01*
X164400Y757431D01*
Y755181D01*
X161400Y758181D02*X162150Y757431D01*
X169650Y761181D02*Y755931D01*
X170400Y755181D01*
X168900Y758931D02*X170400D01*
X171900Y761181D02*Y755181D01*
Y757431D02*X172650Y758181D01*
X174150D01*
X174900Y757431D01*
Y755181D01*
X176700Y759681D02*Y758931D01*
Y757431D02*Y755181D01*
X178950D02*X181200D01*
X181950Y755931D01*
X181200Y756681D02*X181950Y755931D01*
X178950Y756681D02*X181200D01*
X178200Y757431D02*X178950Y756681D01*
X178200Y757431D02*X178950Y758181D01*
X181200D01*
X181950Y757431D01*
X178200Y755931D02*X178950Y755181D01*
X186450Y761181D02*Y755931D01*
X187200Y755181D01*
X190950Y758181D02*X191700Y757431D01*
X189450Y758181D02*X190950D01*
X188700Y757431D02*X189450Y758181D01*
X188700Y757431D02*Y755931D01*
X189450Y755181D01*
X191700Y758181D02*Y755931D01*
X192450Y755181D01*
X189450D02*X190950D01*
X191700Y755931D01*
X194250Y758181D02*Y755931D01*
X195000Y755181D01*
X197250Y758181D02*Y753681D01*
X196500Y752931D02*X197250Y753681D01*
X195000Y752931D02*X196500D01*
X194250Y753681D02*X195000Y752931D01*
Y755181D02*X196500D01*
X197250Y755931D01*
X199050Y757431D02*Y755931D01*
Y757431D02*X199800Y758181D01*
X201300D01*
X202050Y757431D01*
Y755931D01*
X201300Y755181D02*X202050Y755931D01*
X199800Y755181D02*X201300D01*
X199050Y755931D02*X199800Y755181D01*
X203850Y758181D02*Y755931D01*
X204600Y755181D01*
X206100D01*
X206850Y755931D01*
Y758181D02*Y755931D01*
X209400Y761181D02*Y755931D01*
X210150Y755181D01*
X208650Y758931D02*X210150D01*
X211650Y753681D02*X213150Y755181D01*
X218400D02*X219900D01*
X219150Y761181D02*Y755181D01*
X217650Y759681D02*X219150Y761181D01*
X223950D02*X224700Y760431D01*
X222450Y761181D02*X223950D01*
X221700Y760431D02*X222450Y761181D01*
X221700Y760431D02*Y755931D01*
X222450Y755181D01*
X223950Y758181D02*X224700Y757431D01*
X221700Y758181D02*X223950D01*
X222450Y755181D02*X223950D01*
X224700Y755931D01*
Y757431D02*Y755931D01*
X226500Y755181D02*X229500Y758181D01*
Y760431D02*Y758181D01*
X228750Y761181D02*X229500Y760431D01*
X227250Y761181D02*X228750D01*
X226500Y760431D02*X227250Y761181D01*
X226500Y760431D02*Y758931D01*
X227250Y758181D01*
X229500D01*
X234000Y761181D02*Y755181D01*
Y757431D02*X234750Y758181D01*
X236250D01*
X237000Y757431D01*
Y755181D01*
X238800Y757431D02*Y755931D01*
Y757431D02*X239550Y758181D01*
X241050D01*
X241800Y757431D01*
Y755931D01*
X241050Y755181D02*X241800Y755931D01*
X239550Y755181D02*X241050D01*
X238800Y755931D02*X239550Y755181D01*
X243600Y761181D02*Y755931D01*
X244350Y755181D01*
X246600D02*X248850D01*
X245850Y755931D02*X246600Y755181D01*
X245850Y757431D02*Y755931D01*
Y757431D02*X246600Y758181D01*
X248100D01*
X248850Y757431D01*
X245850Y756681D02*X248850D01*
Y757431D02*Y756681D01*
X251400Y755181D02*X253650D01*
X254400Y755931D01*
X253650Y756681D02*X254400Y755931D01*
X251400Y756681D02*X253650D01*
X250650Y757431D02*X251400Y756681D01*
X250650Y757431D02*X251400Y758181D01*
X253650D01*
X254400Y757431D01*
X250650Y755931D02*X251400Y755181D01*
X259650Y761181D02*Y755931D01*
X260400Y755181D01*
X258900Y758931D02*X260400D01*
X261900Y757431D02*Y755931D01*
Y757431D02*X262650Y758181D01*
X264150D01*
X264900Y757431D01*
Y755931D01*
X264150Y755181D02*X264900Y755931D01*
X262650Y755181D02*X264150D01*
X261900Y755931D02*X262650Y755181D01*
X267450Y761181D02*Y755931D01*
X268200Y755181D01*
X266700Y758931D02*X268200D01*
X271950Y758181D02*X272700Y757431D01*
X270450Y758181D02*X271950D01*
X269700Y757431D02*X270450Y758181D01*
X269700Y757431D02*Y755931D01*
X270450Y755181D01*
X272700Y758181D02*Y755931D01*
X273450Y755181D01*
X270450D02*X271950D01*
X272700Y755931D01*
X275250Y761181D02*Y755931D01*
X276000Y755181D01*
G54D92*X0Y158681D02*Y551181D01*
X630000D02*X0D01*
X630000Y158681D02*Y551181D01*
Y158681D02*X0D01*
G54D91*X307376Y-8000D02*X310376D01*
X311126Y-7250D01*
Y-5750D02*Y-7250D01*
X310376Y-5000D02*X311126Y-5750D01*
X308126Y-5000D02*X310376D01*
X308126Y-2000D02*Y-8000D01*
X307376Y-2000D02*X310376D01*
X311126Y-2750D01*
Y-4250D01*
X310376Y-5000D02*X311126Y-4250D01*
X312926Y-5750D02*Y-7250D01*
Y-5750D02*X313676Y-5000D01*
X315176D01*
X315926Y-5750D01*
Y-7250D01*
X315176Y-8000D02*X315926Y-7250D01*
X313676Y-8000D02*X315176D01*
X312926Y-7250D02*X313676Y-8000D01*
X319976Y-5000D02*X320726Y-5750D01*
X318476Y-5000D02*X319976D01*
X317726Y-5750D02*X318476Y-5000D01*
X317726Y-5750D02*Y-7250D01*
X318476Y-8000D01*
X320726Y-5000D02*Y-7250D01*
X321476Y-8000D01*
X318476D02*X319976D01*
X320726Y-7250D01*
X324026Y-5750D02*Y-8000D01*
Y-5750D02*X324776Y-5000D01*
X326276D01*
X323276D02*X324026Y-5750D01*
X331076Y-2000D02*Y-8000D01*
X330326D02*X331076Y-7250D01*
X328826Y-8000D02*X330326D01*
X328076Y-7250D02*X328826Y-8000D01*
X328076Y-5750D02*Y-7250D01*
Y-5750D02*X328826Y-5000D01*
X330326D01*
X331076Y-5750D01*
X335576D02*Y-7250D01*
Y-5750D02*X336326Y-5000D01*
X337826D01*
X338576Y-5750D01*
Y-7250D01*
X337826Y-8000D02*X338576Y-7250D01*
X336326Y-8000D02*X337826D01*
X335576Y-7250D02*X336326Y-8000D01*
X340376Y-5000D02*Y-7250D01*
X341126Y-8000D01*
X342626D01*
X343376Y-7250D01*
Y-5000D02*Y-7250D01*
X345926Y-2000D02*Y-7250D01*
X346676Y-8000D01*
X345176Y-4250D02*X346676D01*
X348176Y-2000D02*Y-7250D01*
X348926Y-8000D01*
X350426Y-3500D02*Y-4250D01*
Y-5750D02*Y-8000D01*
X352676Y-5750D02*Y-8000D01*
Y-5750D02*X353426Y-5000D01*
X354176D01*
X354926Y-5750D01*
Y-8000D01*
X351926Y-5000D02*X352676Y-5750D01*
X357476Y-8000D02*X359726D01*
X356726Y-7250D02*X357476Y-8000D01*
X356726Y-5750D02*Y-7250D01*
Y-5750D02*X357476Y-5000D01*
X358976D01*
X359726Y-5750D01*
X356726Y-6500D02*X359726D01*
Y-5750D02*Y-6500D01*
X364226Y-3500D02*Y-4250D01*
Y-5750D02*Y-8000D01*
X366476D02*X368726D01*
X369476Y-7250D01*
X368726Y-6500D02*X369476Y-7250D01*
X366476Y-6500D02*X368726D01*
X365726Y-5750D02*X366476Y-6500D01*
X365726Y-5750D02*X366476Y-5000D01*
X368726D01*
X369476Y-5750D01*
X365726Y-7250D02*X366476Y-8000D01*
X374726Y-2000D02*Y-7250D01*
X375476Y-8000D01*
X373976Y-4250D02*X375476D01*
X376976Y-2000D02*Y-8000D01*
Y-5750D02*X377726Y-5000D01*
X379226D01*
X379976Y-5750D01*
Y-8000D01*
X382526D02*X384776D01*
X381776Y-7250D02*X382526Y-8000D01*
X381776Y-5750D02*Y-7250D01*
Y-5750D02*X382526Y-5000D01*
X384026D01*
X384776Y-5750D01*
X381776Y-6500D02*X384776D01*
Y-5750D02*Y-6500D01*
X390026Y-5000D02*X392276D01*
X389276Y-5750D02*X390026Y-5000D01*
X389276Y-5750D02*Y-7250D01*
X390026Y-8000D01*
X392276D01*
X394826D02*X397076D01*
X394076Y-7250D02*X394826Y-8000D01*
X394076Y-5750D02*Y-7250D01*
Y-5750D02*X394826Y-5000D01*
X396326D01*
X397076Y-5750D01*
X394076Y-6500D02*X397076D01*
Y-5750D02*Y-6500D01*
X399626Y-5750D02*Y-8000D01*
Y-5750D02*X400376Y-5000D01*
X401126D01*
X401876Y-5750D01*
Y-8000D01*
X398876Y-5000D02*X399626Y-5750D01*
X404426Y-2000D02*Y-7250D01*
X405176Y-8000D01*
X403676Y-4250D02*X405176D01*
X407426Y-8000D02*X409676D01*
X406676Y-7250D02*X407426Y-8000D01*
X406676Y-5750D02*Y-7250D01*
Y-5750D02*X407426Y-5000D01*
X408926D01*
X409676Y-5750D01*
X406676Y-6500D02*X409676D01*
Y-5750D02*Y-6500D01*
X412226Y-5750D02*Y-8000D01*
Y-5750D02*X412976Y-5000D01*
X414476D01*
X411476D02*X412226Y-5750D01*
X416276Y-2000D02*Y-7250D01*
X417026Y-8000D01*
X418526Y-3500D02*Y-4250D01*
Y-5750D02*Y-8000D01*
X420776Y-5750D02*Y-8000D01*
Y-5750D02*X421526Y-5000D01*
X422276D01*
X423026Y-5750D01*
Y-8000D01*
X420026Y-5000D02*X420776Y-5750D01*
X425576Y-8000D02*X427826D01*
X424826Y-7250D02*X425576Y-8000D01*
X424826Y-5750D02*Y-7250D01*
Y-5750D02*X425576Y-5000D01*
X427076D01*
X427826Y-5750D01*
X424826Y-6500D02*X427826D01*
Y-5750D02*Y-6500D01*
X432326Y-5750D02*Y-7250D01*
Y-5750D02*X433076Y-5000D01*
X434576D01*
X435326Y-5750D01*
Y-7250D01*
X434576Y-8000D02*X435326Y-7250D01*
X433076Y-8000D02*X434576D01*
X432326Y-7250D02*X433076Y-8000D01*
X437876Y-2750D02*Y-8000D01*
Y-2750D02*X438626Y-2000D01*
X439376D01*
X437126Y-5000D02*X438626D01*
X444326Y-2000D02*Y-7250D01*
X445076Y-8000D01*
X443576Y-4250D02*X445076D01*
X446576Y-2000D02*Y-8000D01*
Y-5750D02*X447326Y-5000D01*
X448826D01*
X449576Y-5750D01*
Y-8000D01*
X451376Y-3500D02*Y-4250D01*
Y-5750D02*Y-8000D01*
X453626D02*X455876D01*
X456626Y-7250D01*
X455876Y-6500D02*X456626Y-7250D01*
X453626Y-6500D02*X455876D01*
X452876Y-5750D02*X453626Y-6500D01*
X452876Y-5750D02*X453626Y-5000D01*
X455876D01*
X456626Y-5750D01*
X452876Y-7250D02*X453626Y-8000D01*
X461876Y-5750D02*Y-10250D01*
X461126Y-5000D02*X461876Y-5750D01*
X462626Y-5000D01*
X464126D01*
X464876Y-5750D01*
Y-7250D01*
X464126Y-8000D02*X464876Y-7250D01*
X462626Y-8000D02*X464126D01*
X461876Y-7250D02*X462626Y-8000D01*
X468926Y-5000D02*X469676Y-5750D01*
X467426Y-5000D02*X468926D01*
X466676Y-5750D02*X467426Y-5000D01*
X466676Y-5750D02*Y-7250D01*
X467426Y-8000D01*
X469676Y-5000D02*Y-7250D01*
X470426Y-8000D01*
X467426D02*X468926D01*
X469676Y-7250D01*
X472976Y-2000D02*Y-7250D01*
X473726Y-8000D01*
X472226Y-4250D02*X473726D01*
X475226Y-2000D02*Y-8000D01*
Y-5750D02*X475976Y-5000D01*
X477476D01*
X478226Y-5750D01*
Y-8000D01*
X200750Y581181D02*Y575181D01*
X203000Y581181D02*X203750Y580431D01*
Y575931D01*
X203000Y575181D02*X203750Y575931D01*
X200000Y575181D02*X203000D01*
X200000Y581181D02*X203000D01*
X207800Y578181D02*X208550Y577431D01*
X206300Y578181D02*X207800D01*
X205550Y577431D02*X206300Y578181D01*
X205550Y577431D02*Y575931D01*
X206300Y575181D01*
X208550Y578181D02*Y575931D01*
X209300Y575181D01*
X206300D02*X207800D01*
X208550Y575931D01*
X211850Y581181D02*Y575931D01*
X212600Y575181D01*
X211100Y578931D02*X212600D01*
X214850Y575181D02*X217100D01*
X214100Y575931D02*X214850Y575181D01*
X214100Y577431D02*Y575931D01*
Y577431D02*X214850Y578181D01*
X216350D01*
X217100Y577431D01*
X214100Y576681D02*X217100D01*
Y577431D02*Y576681D01*
X218900Y578931D02*X219650D01*
X218900Y577431D02*X219650D01*
X227150Y581181D02*X227900Y580431D01*
X224900Y581181D02*X227150D01*
X224150Y580431D02*X224900Y581181D01*
X224150Y580431D02*Y578931D01*
X224900Y578181D01*
X227150D01*
X227900Y577431D01*
Y575931D01*
X227150Y575181D02*X227900Y575931D01*
X224900Y575181D02*X227150D01*
X224150Y575931D02*X224900Y575181D01*
X229700Y578181D02*Y575931D01*
X230450Y575181D01*
X231950D01*
X232700Y575931D01*
Y578181D02*Y575931D01*
X235250Y577431D02*Y575181D01*
Y577431D02*X236000Y578181D01*
X236750D01*
X237500Y577431D01*
Y575181D01*
X234500Y578181D02*X235250Y577431D01*
X242000Y581181D02*X244250D01*
Y575931D01*
X243500Y575181D02*X244250Y575931D01*
X242750Y575181D02*X243500D01*
X242000Y575931D02*X242750Y575181D01*
X248300Y578181D02*X249050Y577431D01*
X246800Y578181D02*X248300D01*
X246050Y577431D02*X246800Y578181D01*
X246050Y577431D02*Y575931D01*
X246800Y575181D01*
X249050Y578181D02*Y575931D01*
X249800Y575181D01*
X246800D02*X248300D01*
X249050Y575931D01*
X252350Y577431D02*Y575181D01*
Y577431D02*X253100Y578181D01*
X253850D01*
X254600Y577431D01*
Y575181D01*
X251600Y578181D02*X252350Y577431D01*
X261800Y580431D02*X262550Y581181D01*
X264050D01*
X264800Y580431D01*
Y575931D01*
X264050Y575181D02*X264800Y575931D01*
X262550Y575181D02*X264050D01*
X261800Y575931D02*X262550Y575181D01*
Y578181D02*X264800D01*
X270050Y575181D02*X271550D01*
X270800Y581181D02*Y575181D01*
X269300Y579681D02*X270800Y581181D01*
X274100Y575181D02*X275600D01*
X274850Y581181D02*Y575181D01*
X273350Y579681D02*X274850Y581181D01*
X277400Y578931D02*X278150D01*
X277400Y577431D02*X278150D01*
X280700Y575181D02*X282200D01*
X281450Y581181D02*Y575181D01*
X279950Y579681D02*X281450Y581181D01*
X286250D02*X287000Y580431D01*
X284750Y581181D02*X286250D01*
X284000Y580431D02*X284750Y581181D01*
X284000Y580431D02*Y575931D01*
X284750Y575181D01*
X286250Y578181D02*X287000Y577431D01*
X284000Y578181D02*X286250D01*
X284750Y575181D02*X286250D01*
X287000Y575931D01*
Y577431D02*Y575931D01*
X288800Y578931D02*X289550D01*
X288800Y577431D02*X289550D01*
X292100Y575181D02*X293600D01*
X292850Y581181D02*Y575181D01*
X291350Y579681D02*X292850Y581181D01*
X296150Y575181D02*X297650D01*
X296900Y581181D02*Y575181D01*
X295400Y579681D02*X296900Y581181D01*
X302150Y580431D02*X302900Y581181D01*
X305150D01*
X305900Y580431D01*
Y578931D01*
X302150Y575181D02*X305900Y578931D01*
X302150Y575181D02*X305900D01*
X307700Y575931D02*X308450Y575181D01*
X307700Y580431D02*Y575931D01*
Y580431D02*X308450Y581181D01*
X309950D01*
X310700Y580431D01*
Y575931D01*
X309950Y575181D02*X310700Y575931D01*
X308450Y575181D02*X309950D01*
X307700Y576681D02*X310700Y579681D01*
X312500Y580431D02*X313250Y581181D01*
X315500D01*
X316250Y580431D01*
Y578931D01*
X312500Y575181D02*X316250Y578931D01*
X312500Y575181D02*X316250D01*
X318800D02*X320300D01*
X319550Y581181D02*Y575181D01*
X318050Y579681D02*X319550Y581181D01*
X324800D02*Y575931D01*
X325550Y575181D01*
X327050D01*
X327800Y575931D01*
Y581181D02*Y575931D01*
X329600Y581181D02*X332600D01*
X331100D02*Y575181D01*
X335150D02*X337400D01*
X334400Y575931D02*X335150Y575181D01*
X334400Y580431D02*Y575931D01*
Y580431D02*X335150Y581181D01*
X337400D01*
X200000Y595431D02*Y590181D01*
Y595431D02*X200750Y596181D01*
X203000D01*
X203750Y595431D01*
Y590181D01*
X200000Y593181D02*X203750D01*
X205550D02*Y590931D01*
X206300Y590181D01*
X207800D01*
X208550Y590931D01*
Y593181D02*Y590931D01*
X211100Y596181D02*Y590931D01*
X211850Y590181D01*
X210350Y593931D02*X211850D01*
X213350Y596181D02*Y590181D01*
Y592431D02*X214100Y593181D01*
X215600D01*
X216350Y592431D01*
Y590181D01*
X218150Y592431D02*Y590931D01*
Y592431D02*X218900Y593181D01*
X220400D01*
X221150Y592431D01*
Y590931D01*
X220400Y590181D02*X221150Y590931D01*
X218900Y590181D02*X220400D01*
X218150Y590931D02*X218900Y590181D01*
X223700Y592431D02*Y590181D01*
Y592431D02*X224450Y593181D01*
X225950D01*
X222950D02*X223700Y592431D01*
X227750Y593931D02*X228500D01*
X227750Y592431D02*X228500D01*
X233000Y590181D02*X236000D01*
X236750Y590931D01*
Y592431D02*Y590931D01*
X236000Y593181D02*X236750Y592431D01*
X233750Y593181D02*X236000D01*
X233750Y596181D02*Y590181D01*
X233000Y596181D02*X236000D01*
X236750Y595431D01*
Y593931D01*
X236000Y593181D02*X236750Y593931D01*
X239300Y590181D02*X241550D01*
X238550Y590931D02*X239300Y590181D01*
X238550Y592431D02*Y590931D01*
Y592431D02*X239300Y593181D01*
X240800D01*
X241550Y592431D01*
X238550Y591681D02*X241550D01*
Y592431D02*Y591681D01*
X244100Y592431D02*Y590181D01*
Y592431D02*X244850Y593181D01*
X246350D01*
X243350D02*X244100Y592431D01*
X248900Y596181D02*Y590931D01*
X249650Y590181D01*
X248150Y593931D02*X249650D01*
X253850Y596181D02*X256850D01*
X255350D02*Y590181D01*
X258650Y594681D02*Y593931D01*
Y592431D02*Y590181D01*
X260900Y592431D02*Y590181D01*
Y592431D02*X261650Y593181D01*
X262400D01*
X263150Y592431D01*
Y590181D01*
Y592431D02*X263900Y593181D01*
X264650D01*
X265400Y592431D01*
Y590181D01*
X260150Y593181D02*X260900Y592431D01*
X267950D02*Y590181D01*
Y592431D02*X268700Y593181D01*
X269450D01*
X270200Y592431D01*
Y590181D01*
Y592431D02*X270950Y593181D01*
X271700D01*
X272450Y592431D01*
Y590181D01*
X267200Y593181D02*X267950Y592431D01*
X275000Y590181D02*X277250D01*
X274250Y590931D02*X275000Y590181D01*
X274250Y592431D02*Y590931D01*
Y592431D02*X275000Y593181D01*
X276500D01*
X277250Y592431D01*
X274250Y591681D02*X277250D01*
Y592431D02*Y591681D01*
X279800Y592431D02*Y590181D01*
Y592431D02*X280550Y593181D01*
X282050D01*
X279050D02*X279800Y592431D01*
X284600D02*Y590181D01*
Y592431D02*X285350Y593181D01*
X286100D01*
X286850Y592431D01*
Y590181D01*
Y592431D02*X287600Y593181D01*
X288350D01*
X289100Y592431D01*
Y590181D01*
X283850Y593181D02*X284600Y592431D01*
X293150Y593181D02*X293900Y592431D01*
X291650Y593181D02*X293150D01*
X290900Y592431D02*X291650Y593181D01*
X290900Y592431D02*Y590931D01*
X291650Y590181D01*
X293900Y593181D02*Y590931D01*
X294650Y590181D01*
X291650D02*X293150D01*
X293900Y590931D01*
X297200Y592431D02*Y590181D01*
Y592431D02*X297950Y593181D01*
X298700D01*
X299450Y592431D01*
Y590181D01*
X296450Y593181D02*X297200Y592431D01*
X200000Y611181D02*X203000D01*
X201500D02*Y605181D01*
X204800Y609681D02*Y608931D01*
Y607431D02*Y605181D01*
X207050Y611181D02*Y605931D01*
X207800Y605181D01*
X206300Y608931D02*X207800D01*
X209300Y611181D02*Y605931D01*
X210050Y605181D01*
X212300D02*X214550D01*
X211550Y605931D02*X212300Y605181D01*
X211550Y607431D02*Y605931D01*
Y607431D02*X212300Y608181D01*
X213800D01*
X214550Y607431D01*
X211550Y606681D02*X214550D01*
Y607431D02*Y606681D01*
X216350Y608931D02*X217100D01*
X216350Y607431D02*X217100D01*
X221600Y610431D02*X222350Y611181D01*
X223850D01*
X224600Y610431D01*
Y605931D01*
X223850Y605181D02*X224600Y605931D01*
X222350Y605181D02*X223850D01*
X221600Y605931D02*X222350Y605181D01*
Y608181D02*X224600D01*
X227150Y605181D02*X228650D01*
X227900Y611181D02*Y605181D01*
X226400Y609681D02*X227900Y611181D01*
X230450Y605181D02*X231200D01*
X233000Y605931D02*X233750Y605181D01*
X233000Y610431D02*Y605931D01*
Y610431D02*X233750Y611181D01*
X235250D01*
X236000Y610431D01*
Y605931D01*
X235250Y605181D02*X236000Y605931D01*
X233750Y605181D02*X235250D01*
X233000Y606681D02*X236000Y609681D01*
X237800Y605931D02*X238550Y605181D01*
X237800Y610431D02*Y605931D01*
Y610431D02*X238550Y611181D01*
X240050D01*
X240800Y610431D01*
Y605931D01*
X240050Y605181D02*X240800Y605931D01*
X238550Y605181D02*X240050D01*
X237800Y606681D02*X240800Y609681D01*
X242600Y610431D02*X243350Y611181D01*
X244850D01*
X245600Y610431D01*
Y605931D01*
X244850Y605181D02*X245600Y605931D01*
X243350Y605181D02*X244850D01*
X242600Y605931D02*X243350Y605181D01*
Y608181D02*X245600D01*
X247400Y605181D02*X248150D01*
X249950Y605931D02*X250700Y605181D01*
X249950Y610431D02*Y605931D01*
Y610431D02*X250700Y611181D01*
X252200D01*
X252950Y610431D01*
Y605931D01*
X252200Y605181D02*X252950Y605931D01*
X250700Y605181D02*X252200D01*
X249950Y606681D02*X252950Y609681D01*
X254750Y605931D02*X255500Y605181D01*
X254750Y610431D02*Y605931D01*
Y610431D02*X255500Y611181D01*
X257000D01*
X257750Y610431D01*
Y605931D01*
X257000Y605181D02*X257750Y605931D01*
X255500Y605181D02*X257000D01*
X254750Y606681D02*X257750Y609681D01*
X259550Y605181D02*X260300D01*
X262100Y605931D02*X262850Y605181D01*
X262100Y610431D02*Y605931D01*
Y610431D02*X262850Y611181D01*
X264350D01*
X265100Y610431D01*
Y605931D01*
X264350Y605181D02*X265100Y605931D01*
X262850Y605181D02*X264350D01*
X262100Y606681D02*X265100Y609681D01*
X267650Y605181D02*X269150D01*
X268400Y611181D02*Y605181D01*
X266900Y609681D02*X268400Y611181D01*
X270950Y605181D02*X271700D01*
X273500Y605931D02*X274250Y605181D01*
X273500Y610431D02*Y605931D01*
Y610431D02*X274250Y611181D01*
X275750D01*
X276500Y610431D01*
Y605931D01*
X275750Y605181D02*X276500Y605931D01*
X274250Y605181D02*X275750D01*
X273500Y606681D02*X276500Y609681D01*
X279050Y605181D02*X280550D01*
X279800Y611181D02*Y605181D01*
X278300Y609681D02*X279800Y611181D01*
X282350Y605181D02*X283100D01*
X285650Y607431D02*Y602931D01*
X284900Y608181D02*X285650Y607431D01*
X286400Y608181D01*
X287900D01*
X288650Y607431D01*
Y605931D01*
X287900Y605181D02*X288650Y605931D01*
X286400Y605181D02*X287900D01*
X285650Y605931D02*X286400Y605181D01*
X291200Y608181D02*X293450D01*
X290450Y607431D02*X291200Y608181D01*
X290450Y607431D02*Y605931D01*
X291200Y605181D01*
X293450D01*
X295250Y611181D02*Y605181D01*
Y605931D02*X296000Y605181D01*
X297500D01*
X298250Y605931D01*
Y607431D02*Y605931D01*
X297500Y608181D02*X298250Y607431D01*
X296000Y608181D02*X297500D01*
X295250Y607431D02*X296000Y608181D01*
X302750D02*X305750D01*
X310250Y611181D02*Y605181D01*
Y611181D02*X313250D01*
X310250Y608181D02*X312500D01*
X317300D02*X318050Y607431D01*
X315800Y608181D02*X317300D01*
X315050Y607431D02*X315800Y608181D01*
X315050Y607431D02*Y605931D01*
X315800Y605181D01*
X318050Y608181D02*Y605931D01*
X318800Y605181D01*
X315800D02*X317300D01*
X318050Y605931D01*
X320600Y611181D02*Y605181D01*
Y605931D02*X321350Y605181D01*
X322850D01*
X323600Y605931D01*
Y607431D02*Y605931D01*
X322850Y608181D02*X323600Y607431D01*
X321350Y608181D02*X322850D01*
X320600Y607431D02*X321350Y608181D01*
X326150Y607431D02*Y605181D01*
Y607431D02*X326900Y608181D01*
X328400D01*
X325400D02*X326150Y607431D01*
X330200Y609681D02*Y608931D01*
Y607431D02*Y605181D01*
X332450Y608181D02*X334700D01*
X331700Y607431D02*X332450Y608181D01*
X331700Y607431D02*Y605931D01*
X332450Y605181D01*
X334700D01*
X338750Y608181D02*X339500Y607431D01*
X337250Y608181D02*X338750D01*
X336500Y607431D02*X337250Y608181D01*
X336500Y607431D02*Y605931D01*
X337250Y605181D01*
X339500Y608181D02*Y605931D01*
X340250Y605181D01*
X337250D02*X338750D01*
X339500Y605931D01*
X342800Y611181D02*Y605931D01*
X343550Y605181D01*
X342050Y608931D02*X343550D01*
X345050Y609681D02*Y608931D01*
Y607431D02*Y605181D01*
X346550Y607431D02*Y605931D01*
Y607431D02*X347300Y608181D01*
X348800D01*
X349550Y607431D01*
Y605931D01*
X348800Y605181D02*X349550Y605931D01*
X347300Y605181D02*X348800D01*
X346550Y605931D02*X347300Y605181D01*
X352100Y607431D02*Y605181D01*
Y607431D02*X352850Y608181D01*
X353600D01*
X354350Y607431D01*
Y605181D01*
X351350Y608181D02*X352100Y607431D01*
X359600Y611181D02*Y605181D01*
X361850Y611181D02*X362600Y610431D01*
Y605931D01*
X361850Y605181D02*X362600Y605931D01*
X358850Y605181D02*X361850D01*
X358850Y611181D02*X361850D01*
X365150Y607431D02*Y605181D01*
Y607431D02*X365900Y608181D01*
X367400D01*
X364400D02*X365150Y607431D01*
X371450Y608181D02*X372200Y607431D01*
X369950Y608181D02*X371450D01*
X369200Y607431D02*X369950Y608181D01*
X369200Y607431D02*Y605931D01*
X369950Y605181D01*
X372200Y608181D02*Y605931D01*
X372950Y605181D01*
X369950D02*X371450D01*
X372200Y605931D01*
X374750Y608181D02*Y605931D01*
X375500Y605181D01*
X376250D01*
X377000Y605931D01*
Y608181D02*Y605931D01*
X377750Y605181D01*
X378500D01*
X379250Y605931D01*
Y608181D02*Y605931D01*
X381050Y609681D02*Y608931D01*
Y607431D02*Y605181D01*
X383300Y607431D02*Y605181D01*
Y607431D02*X384050Y608181D01*
X384800D01*
X385550Y607431D01*
Y605181D01*
X382550Y608181D02*X383300Y607431D01*
X389600Y608181D02*X390350Y607431D01*
X388100Y608181D02*X389600D01*
X387350Y607431D02*X388100Y608181D01*
X387350Y607431D02*Y605931D01*
X388100Y605181D01*
X389600D01*
X390350Y605931D01*
X387350Y603681D02*X388100Y602931D01*
X389600D01*
X390350Y603681D01*
Y608181D02*Y603681D01*
M02*
